<?xml version="1.0" encoding="utf-8"?>
<!-- Generator: Adobe Illustrator 15.0.0, SVG Export Plug-In . SVG Version: 6.00 Build 0)  -->
<!DOCTYPE svg PUBLIC "-//W3C//DTD SVG 1.1//EN" "http://www.w3.org/Graphics/SVG/1.1/DTD/svg11.dtd">
<svg version="1.1" id="Calque_1" xmlns="http://www.w3.org/2000/svg" xmlns:xlink="http://www.w3.org/1999/xlink" x="0px" y="0px"
	 width="612px" height="264px" viewBox="0 0 612 264" enable-background="new 0 0 612 264" xml:space="preserve">
<g>
	
		<rect x="7" y="8.818" fill-rule="evenodd" clip-rule="evenodd" fill="#FFFFB9" stroke="#800000" stroke-width="0.7559" stroke-linecap="square" stroke-miterlimit="10" width="109.587" height="56.718"/>
	<g>
		<path d="M46.723,29.788c-1.686,0-3.023-0.501-4.015-1.504s-1.487-2.414-1.487-4.231c0-1.753,0.497-3.151,1.491-4.194
			c0.993-1.042,2.333-1.564,4.018-1.564c0.448,0,0.85,0.025,1.208,0.074c0.357,0.05,0.699,0.119,1.026,0.208
			c0.256,0.074,0.536,0.176,0.837,0.305s0.546,0.24,0.732,0.334v2.638h-0.287c-0.136-0.119-0.307-0.261-0.513-0.427
			c-0.206-0.166-0.44-0.328-0.702-0.487c-0.262-0.158-0.55-0.293-0.864-0.405s-0.643-0.167-0.984-0.167
			c-0.408,0-0.781,0.063-1.121,0.189c-0.34,0.126-0.663,0.346-0.97,0.658c-0.282,0.282-0.512,0.664-0.69,1.144
			c-0.179,0.481-0.268,1.048-0.268,1.702c0,0.688,0.093,1.267,0.279,1.735c0.186,0.468,0.43,0.846,0.732,1.133
			c0.292,0.277,0.617,0.478,0.977,0.602c0.36,0.124,0.718,0.186,1.075,0.186c0.373,0,0.727-0.061,1.064-0.182
			c0.337-0.121,0.621-0.256,0.853-0.405c0.251-0.154,0.473-0.31,0.664-0.468c0.191-0.159,0.357-0.3,0.498-0.423h0.256v2.601
			c-0.206,0.094-0.445,0.202-0.717,0.323c-0.271,0.122-0.551,0.225-0.837,0.309c-0.353,0.104-0.682,0.183-0.989,0.238
			C47.684,29.76,47.261,29.788,46.723,29.788z"/>
		<path d="M54.205,29.572h-2.641V18.011h2.641V29.572z"/>
		<path d="M58.496,20.04h-2.792v-2.028h2.792V20.04z M58.42,29.572h-2.641v-8.344h2.641V29.572z"/>
		<path d="M64.333,29.795c-1.6,0-2.826-0.376-3.679-1.129c-0.853-0.753-1.279-1.826-1.279-3.217c0-1.362,0.397-2.45,1.192-3.262
			c0.795-0.812,1.907-1.218,3.335-1.218c1.298,0,2.274,0.344,2.928,1.033c0.654,0.688,0.981,1.674,0.981,2.957v0.937h-5.788
			c0.025,0.386,0.108,0.709,0.249,0.969c0.141,0.26,0.327,0.467,0.559,0.621c0.226,0.154,0.49,0.264,0.792,0.331
			c0.302,0.067,0.631,0.101,0.988,0.101c0.307,0,0.609-0.034,0.906-0.101c0.296-0.067,0.568-0.155,0.815-0.264
			c0.216-0.094,0.416-0.196,0.6-0.305s0.333-0.206,0.449-0.29h0.279v2.147c-0.216,0.084-0.414,0.163-0.592,0.234
			c-0.179,0.072-0.424,0.145-0.736,0.219c-0.287,0.074-0.583,0.132-0.887,0.174C65.142,29.774,64.771,29.795,64.333,29.795z
			 M65.208,24.327c-0.015-0.55-0.145-0.968-0.389-1.256c-0.244-0.287-0.618-0.431-1.121-0.431c-0.513,0-0.915,0.151-1.204,0.453
			s-0.449,0.713-0.479,1.233H65.208z"/>
		<path d="M77.758,29.572h-2.656v-4.139c0-0.337-0.014-0.672-0.042-1.007c-0.028-0.334-0.079-0.581-0.155-0.739
			c-0.09-0.188-0.221-0.323-0.392-0.405c-0.171-0.082-0.4-0.123-0.687-0.123c-0.216,0-0.435,0.04-0.656,0.119
			c-0.222,0.08-0.458,0.206-0.709,0.379v5.915h-2.641v-8.344h2.641v0.921c0.433-0.361,0.854-0.644,1.264-0.847
			c0.41-0.203,0.864-0.305,1.362-0.305c0.865,0,1.527,0.269,1.985,0.806c0.458,0.538,0.687,1.316,0.687,2.337V29.572z"/>
		<path d="M82.911,29.736c-1.077,0-1.86-0.218-2.351-0.654c-0.49-0.436-0.736-1.149-0.736-2.14v-3.901h-1.011v-1.813h1.011v-2.385
			h2.642v2.385h2.543v1.813h-2.543v2.958c0,0.292,0.002,0.547,0.007,0.765c0.005,0.218,0.045,0.414,0.121,0.587
			c0.07,0.173,0.195,0.311,0.374,0.413s0.439,0.152,0.781,0.152c0.141,0,0.326-0.03,0.555-0.089c0.229-0.06,0.389-0.114,0.479-0.164
			h0.227v1.835c-0.287,0.074-0.591,0.132-0.913,0.174C83.773,29.714,83.379,29.736,82.911,29.736z"/>
	</g>
	
		<line fill="none" stroke="#800000" stroke-width="0.7559" stroke-linecap="square" stroke-miterlimit="10" x1="7" y1="39.252" x2="117.992" y2="39.252"/>
	
		<line fill="none" stroke="#800000" stroke-width="0.7559" stroke-linecap="square" stroke-miterlimit="10" x1="7" y1="51.702" x2="117.992" y2="51.702"/>
	
		<rect x="448.157" y="6.052" fill-rule="evenodd" clip-rule="evenodd" fill="#FFFFB9" stroke="#800000" stroke-width="0.7559" stroke-linecap="square" stroke-miterlimit="10" width="160.164" height="74.7"/>
	<g>
		<path d="M500.085,26.813l3.795-11.063h3.079l3.796,11.063h-2.905l-0.702-2.259h-3.531l-0.702,2.259H500.085z M506.529,22.549
			l-1.147-3.648l-1.146,3.648H506.529z"/>
		<path d="M520.074,26.813h-2.642v-0.869c-0.171,0.139-0.365,0.287-0.584,0.446c-0.219,0.158-0.412,0.277-0.578,0.356
			c-0.211,0.099-0.42,0.173-0.626,0.223c-0.206,0.049-0.453,0.074-0.739,0.074c-0.966,0-1.73-0.394-2.294-1.182
			s-0.846-1.84-0.846-3.158c0-0.728,0.096-1.36,0.287-1.895c0.191-0.535,0.455-1,0.792-1.397c0.307-0.361,0.68-0.647,1.117-0.858
			c0.438-0.211,0.9-0.316,1.389-0.316c0.442,0,0.806,0.046,1.09,0.137c0.284,0.092,0.615,0.234,0.992,0.427v-3.551h2.642V26.813z
			 M517.433,24.51v-4.094c-0.131-0.064-0.302-0.118-0.513-0.16s-0.393-0.063-0.543-0.063c-0.634,0-1.111,0.218-1.431,0.654
			s-0.479,1.045-0.479,1.828c0,0.822,0.127,1.417,0.381,1.783c0.254,0.367,0.665,0.55,1.233,0.55c0.231,0,0.466-0.044,0.702-0.134
			C517.021,24.785,517.237,24.664,517.433,24.51z"/>
		<path d="M526.861,25.929c-0.182,0.149-0.344,0.282-0.487,0.401c-0.144,0.119-0.336,0.238-0.577,0.356
			c-0.236,0.114-0.467,0.201-0.69,0.26s-0.537,0.089-0.939,0.089c-0.75,0-1.372-0.248-1.867-0.743
			c-0.496-0.495-0.744-1.12-0.744-1.873c0-0.619,0.126-1.119,0.378-1.501c0.251-0.381,0.613-0.684,1.086-0.906
			c0.479-0.228,1.05-0.386,1.714-0.476s1.378-0.158,2.143-0.208v-0.044c0-0.461-0.172-0.779-0.517-0.955
			c-0.345-0.176-0.861-0.264-1.551-0.264c-0.313,0-0.677,0.056-1.095,0.167c-0.417,0.111-0.825,0.254-1.222,0.427h-0.227v-2.013
			c0.262-0.074,0.684-0.162,1.268-0.264c0.583-0.102,1.172-0.152,1.766-0.152c1.459,0,2.521,0.239,3.188,0.717
			c0.666,0.478,1,1.208,1,2.188v5.677h-2.626V25.929z M526.861,24.636v-1.738c-0.448,0.044-0.811,0.083-1.087,0.115
			s-0.549,0.095-0.815,0.189c-0.231,0.079-0.411,0.199-0.539,0.36c-0.128,0.161-0.192,0.375-0.192,0.643
			c0,0.391,0.106,0.66,0.32,0.806s0.529,0.219,0.947,0.219c0.231,0,0.468-0.052,0.709-0.156
			C526.446,24.971,526.665,24.825,526.861,24.636z"/>
		<path d="M540.321,22.526c0,1.333-0.343,2.407-1.03,3.225c-0.687,0.817-1.533,1.226-2.539,1.226c-0.423,0-0.79-0.047-1.102-0.141
			c-0.312-0.094-0.644-0.24-0.996-0.438v3.477h-2.642V18.47h2.642v0.869c0.388-0.327,0.782-0.592,1.185-0.795
			s0.868-0.305,1.396-0.305c0.98,0,1.74,0.384,2.278,1.151C540.053,20.159,540.321,21.204,540.321,22.526z M537.62,22.578
			c0-0.812-0.127-1.401-0.381-1.768c-0.255-0.367-0.65-0.55-1.188-0.55c-0.237,0-0.472,0.037-0.706,0.111
			c-0.233,0.074-0.464,0.186-0.69,0.334v4.198c0.141,0.06,0.296,0.102,0.464,0.126c0.169,0.025,0.369,0.037,0.601,0.037
			c0.644,0,1.121-0.207,1.434-0.621C537.464,24.034,537.62,23.411,537.62,22.578z"/>
		<path d="M545.077,26.977c-1.076,0-1.86-0.218-2.351-0.654c-0.49-0.436-0.735-1.149-0.735-2.14v-3.901h-1.012V18.47h1.012v-2.385
			h2.641v2.385h2.543v1.813h-2.543v2.958c0,0.292,0.003,0.547,0.008,0.765c0.005,0.218,0.045,0.414,0.121,0.587
			c0.07,0.173,0.194,0.311,0.373,0.413s0.439,0.152,0.781,0.152c0.141,0,0.325-0.03,0.555-0.089c0.229-0.06,0.389-0.114,0.479-0.164
			h0.226v1.835c-0.286,0.074-0.591,0.132-0.913,0.174C545.94,26.956,545.545,26.977,545.077,26.977z"/>
		<path d="M553.196,27.037c-1.601,0-2.826-0.376-3.679-1.129c-0.854-0.753-1.279-1.826-1.279-3.217c0-1.362,0.397-2.45,1.192-3.262
			c0.795-0.812,1.906-1.218,3.335-1.218c1.298,0,2.274,0.344,2.928,1.033c0.654,0.688,0.981,1.674,0.981,2.957v0.937h-5.788
			c0.025,0.386,0.108,0.709,0.249,0.969c0.141,0.26,0.327,0.467,0.559,0.621c0.227,0.154,0.49,0.264,0.792,0.331
			s0.632,0.101,0.989,0.101c0.307,0,0.608-0.034,0.905-0.101s0.568-0.155,0.814-0.264c0.217-0.094,0.417-0.196,0.601-0.305
			s0.333-0.206,0.448-0.29h0.279v2.147c-0.216,0.084-0.413,0.163-0.592,0.234s-0.424,0.145-0.736,0.219
			c-0.286,0.074-0.582,0.132-0.887,0.174C554.005,27.015,553.634,27.037,553.196,27.037z M554.071,21.568
			c-0.015-0.55-0.145-0.968-0.389-1.256c-0.244-0.287-0.617-0.431-1.12-0.431c-0.514,0-0.915,0.151-1.204,0.453
			s-0.449,0.713-0.479,1.233H554.071z M555.233,14.361l-2.264,2.92h-1.796l1.562-2.92H555.233z"/>
	</g>
	
		<line fill="none" stroke="#800000" stroke-width="0.7559" stroke-linecap="square" stroke-miterlimit="10" x1="448.157" y1="36.485" x2="609.729" y2="36.485"/>
	<g>
		<path d="M465.238,65.455h-3.811v3.752h-1.253v-3.752h-3.811v-1.189h3.811v-3.752h1.253v3.752h3.811V65.455z"/>
		<path d="M471.917,62.907h-0.075c-0.105-0.03-0.218-0.048-0.336-0.056c-0.118-0.007-0.26-0.011-0.426-0.011
			c-0.383,0-0.763,0.082-1.14,0.245s-0.734,0.406-1.071,0.728v5.892h-1.419v-8.299h1.419v1.233c0.518-0.451,0.97-0.769,1.354-0.955
			c0.385-0.186,0.758-0.278,1.12-0.278c0.146,0,0.256,0.003,0.328,0.011c0.073,0.007,0.155,0.019,0.245,0.033V62.907z"/>
		<path d="M476.726,69.898c-1.344,0-2.387-0.373-3.128-1.118c-0.742-0.746-1.113-1.805-1.113-3.177c0-1.352,0.359-2.428,1.079-3.228
			c0.72-0.8,1.66-1.2,2.822-1.2c0.523,0,0.986,0.074,1.389,0.223c0.402,0.148,0.754,0.381,1.057,0.698
			c0.302,0.317,0.533,0.705,0.693,1.163c0.161,0.458,0.242,1.02,0.242,1.683V65.7h-5.841c0,0.966,0.246,1.704,0.739,2.214
			s1.175,0.765,2.045,0.765c0.313,0,0.617-0.035,0.917-0.104c0.299-0.069,0.569-0.159,0.812-0.268
			c0.256-0.114,0.473-0.224,0.648-0.331c0.177-0.106,0.322-0.207,0.438-0.301h0.083V69.2c-0.166,0.064-0.372,0.145-0.618,0.242
			c-0.247,0.097-0.468,0.172-0.664,0.227c-0.277,0.074-0.527,0.131-0.751,0.171S477.067,69.898,476.726,69.898z M478.386,64.63
			c-0.011-0.376-0.056-0.701-0.136-0.973c-0.081-0.272-0.196-0.503-0.348-0.691c-0.166-0.208-0.379-0.366-0.638-0.476
			c-0.259-0.109-0.58-0.163-0.962-0.163c-0.377,0-0.698,0.056-0.962,0.167c-0.265,0.111-0.505,0.274-0.721,0.487
			c-0.212,0.218-0.373,0.459-0.483,0.724c-0.11,0.265-0.181,0.574-0.211,0.925H478.386z"/>
		<path d="M487.983,72.766h-1.418v-3.967c-0.413,0.371-0.815,0.643-1.208,0.813s-0.827,0.256-1.306,0.256
			c-0.955,0-1.718-0.378-2.286-1.133s-0.853-1.807-0.853-3.154c0-0.713,0.1-1.344,0.298-1.891c0.199-0.547,0.462-1.007,0.789-1.378
			c0.312-0.361,0.684-0.641,1.116-0.839s0.883-0.297,1.351-0.297c0.433,0,0.808,0.05,1.125,0.148
			c0.316,0.099,0.642,0.246,0.974,0.438l0.09-0.356h1.328V72.766z M486.565,67.625v-4.726c-0.357-0.173-0.677-0.294-0.959-0.364
			c-0.281-0.069-0.583-0.104-0.905-0.104c-0.744,0-1.318,0.265-1.721,0.795c-0.402,0.53-0.604,1.293-0.604,2.289
			c0,0.971,0.161,1.717,0.483,2.24c0.321,0.522,0.822,0.784,1.501,0.784c0.397,0,0.785-0.084,1.162-0.252
			C485.901,68.118,486.248,67.897,486.565,67.625z"/>
		<path d="M496.493,69.705h-1.419v-0.921c-0.438,0.376-0.853,0.663-1.245,0.858c-0.393,0.195-0.83,0.293-1.313,0.293
			c-0.367,0-0.713-0.06-1.037-0.178c-0.324-0.119-0.607-0.307-0.849-0.565c-0.242-0.257-0.43-0.582-0.563-0.973
			c-0.134-0.392-0.2-0.867-0.2-1.427v-5.387h1.419v4.726c0,0.441,0.016,0.806,0.049,1.096c0.032,0.29,0.106,0.544,0.223,0.762
			c0.115,0.213,0.272,0.369,0.472,0.468c0.198,0.099,0.484,0.148,0.856,0.148c0.347,0,0.717-0.097,1.109-0.29
			c0.393-0.193,0.752-0.431,1.079-0.713v-6.197h1.419V69.705z"/>
		<path d="M502.021,69.898c-1.344,0-2.387-0.373-3.128-1.118c-0.742-0.746-1.113-1.805-1.113-3.177c0-1.352,0.359-2.428,1.079-3.228
			c0.72-0.8,1.66-1.2,2.822-1.2c0.523,0,0.986,0.074,1.389,0.223c0.402,0.148,0.754,0.381,1.057,0.698
			c0.302,0.317,0.533,0.705,0.693,1.163c0.161,0.458,0.242,1.02,0.242,1.683V65.7h-5.841c0,0.966,0.246,1.704,0.739,2.214
			s1.175,0.765,2.045,0.765c0.313,0,0.617-0.035,0.917-0.104c0.299-0.069,0.569-0.159,0.812-0.268
			c0.256-0.114,0.473-0.224,0.648-0.331c0.177-0.106,0.322-0.207,0.438-0.301h0.083V69.2c-0.166,0.064-0.372,0.145-0.618,0.242
			c-0.247,0.097-0.468,0.172-0.664,0.227c-0.277,0.074-0.527,0.131-0.751,0.171S502.362,69.898,502.021,69.898z M503.681,64.63
			c-0.011-0.376-0.056-0.701-0.136-0.973c-0.081-0.272-0.196-0.503-0.348-0.691c-0.166-0.208-0.379-0.366-0.638-0.476
			c-0.259-0.109-0.58-0.163-0.962-0.163c-0.377,0-0.698,0.056-0.962,0.167c-0.265,0.111-0.505,0.274-0.721,0.487
			c-0.212,0.218-0.373,0.459-0.483,0.724c-0.11,0.265-0.181,0.574-0.211,0.925H503.681z"/>
		<path d="M509.339,69.869c-0.775,0-1.379-0.217-1.812-0.65c-0.433-0.433-0.648-1.118-0.648-2.054v-4.599h-0.959v-1.159h0.959
			v-2.385h1.418v2.385h2.611v1.159h-2.611v3.945c0,0.421,0.008,0.746,0.023,0.973c0.015,0.228,0.072,0.441,0.173,0.639
			c0.086,0.173,0.224,0.303,0.415,0.39c0.191,0.086,0.45,0.13,0.777,0.13c0.231,0,0.455-0.033,0.672-0.1
			c0.216-0.067,0.372-0.123,0.468-0.167h0.083v1.256c-0.267,0.074-0.537,0.132-0.812,0.174S509.57,69.869,509.339,69.869z"/>
		<path d="M516.066,69.898c-1.344,0-2.387-0.373-3.128-1.118c-0.742-0.746-1.113-1.805-1.113-3.177c0-1.352,0.359-2.428,1.079-3.228
			c0.72-0.8,1.66-1.2,2.822-1.2c0.523,0,0.986,0.074,1.389,0.223c0.402,0.148,0.754,0.381,1.057,0.698
			c0.302,0.317,0.533,0.705,0.693,1.163c0.161,0.458,0.242,1.02,0.242,1.683V65.7h-5.841c0,0.966,0.246,1.704,0.739,2.214
			s1.175,0.765,2.045,0.765c0.313,0,0.617-0.035,0.917-0.104c0.299-0.069,0.569-0.159,0.812-0.268
			c0.256-0.114,0.473-0.224,0.648-0.331c0.177-0.106,0.322-0.207,0.438-0.301h0.083V69.2c-0.166,0.064-0.372,0.145-0.618,0.242
			c-0.247,0.097-0.468,0.172-0.664,0.227c-0.277,0.074-0.527,0.131-0.751,0.171S516.408,69.898,516.066,69.898z M517.727,64.63
			c-0.011-0.376-0.056-0.701-0.136-0.973c-0.081-0.272-0.196-0.503-0.348-0.691c-0.166-0.208-0.379-0.366-0.638-0.476
			c-0.259-0.109-0.58-0.163-0.962-0.163c-0.377,0-0.698,0.056-0.962,0.167c-0.265,0.111-0.505,0.274-0.721,0.487
			c-0.212,0.218-0.373,0.459-0.483,0.724c-0.11,0.265-0.181,0.574-0.211,0.925H517.727z"/>
		<path d="M524.079,69.906c-0.815,0-1.509-0.083-2.079-0.249c-0.571-0.166-1.108-0.37-1.611-0.613v-1.843h0.105
			c0.493,0.456,1.052,0.809,1.676,1.059c0.623,0.25,1.225,0.375,1.803,0.375c0.825,0,1.449-0.17,1.872-0.509
			c0.423-0.339,0.634-0.786,0.634-1.341c0-0.441-0.11-0.8-0.332-1.078c-0.222-0.277-0.573-0.483-1.057-0.617
			c-0.347-0.099-0.664-0.181-0.951-0.245c-0.286-0.064-0.646-0.151-1.079-0.26c-0.387-0.099-0.734-0.226-1.041-0.379
			c-0.307-0.154-0.578-0.354-0.814-0.602c-0.231-0.243-0.412-0.529-0.54-0.858c-0.128-0.329-0.192-0.709-0.192-1.14
			c0-0.896,0.354-1.648,1.064-2.255c0.709-0.606,1.614-0.91,2.716-0.91c0.629,0,1.224,0.062,1.785,0.186
			c0.561,0.124,1.08,0.3,1.559,0.527v1.761h-0.113c-0.357-0.322-0.815-0.603-1.374-0.844c-0.559-0.24-1.145-0.36-1.758-0.36
			c-0.694,0-1.256,0.16-1.683,0.479c-0.428,0.319-0.642,0.739-0.642,1.259c0,0.471,0.126,0.845,0.377,1.122
			c0.252,0.277,0.616,0.48,1.095,0.609c0.316,0.084,0.704,0.179,1.162,0.286c0.457,0.107,0.837,0.205,1.139,0.294
			c0.775,0.233,1.341,0.584,1.698,1.055c0.357,0.471,0.536,1.05,0.536,1.739c0,0.431-0.09,0.857-0.269,1.278
			c-0.178,0.421-0.429,0.778-0.75,1.07c-0.362,0.322-0.771,0.569-1.227,0.743S524.763,69.906,524.079,69.906z"/>
		<path d="M536.345,65.336c0,1.382-0.335,2.483-1.007,3.302c-0.672,0.82-1.521,1.23-2.547,1.23c-0.418,0-0.787-0.047-1.109-0.141
			c-0.322-0.094-0.651-0.24-0.988-0.438v3.477h-1.419v-11.36h1.419v0.869c0.352-0.312,0.743-0.573,1.173-0.784
			c0.431-0.21,0.899-0.316,1.407-0.316c0.966,0,1.72,0.376,2.261,1.129C536.074,63.058,536.345,64.068,536.345,65.336z
			 M534.881,65.492c0-0.946-0.153-1.68-0.46-2.203c-0.307-0.522-0.805-0.784-1.494-0.784c-0.402,0-0.791,0.088-1.166,0.264
			s-0.73,0.402-1.067,0.68v4.704c0.372,0.178,0.69,0.3,0.954,0.364c0.265,0.064,0.567,0.097,0.909,0.097
			c0.734,0,1.306-0.265,1.713-0.795C534.678,67.288,534.881,66.513,534.881,65.492z"/>
		<path d="M541.368,69.898c-1.344,0-2.387-0.373-3.128-1.118c-0.742-0.746-1.113-1.805-1.113-3.177c0-1.352,0.359-2.428,1.079-3.228
			c0.72-0.8,1.66-1.2,2.822-1.2c0.523,0,0.986,0.074,1.389,0.223c0.402,0.148,0.754,0.381,1.057,0.698
			c0.302,0.317,0.533,0.705,0.693,1.163c0.161,0.458,0.242,1.02,0.242,1.683V65.7h-5.841c0,0.966,0.246,1.704,0.739,2.214
			s1.175,0.765,2.045,0.765c0.313,0,0.617-0.035,0.917-0.104c0.299-0.069,0.569-0.159,0.812-0.268
			c0.256-0.114,0.473-0.224,0.648-0.331c0.177-0.106,0.322-0.207,0.438-0.301h0.083V69.2c-0.166,0.064-0.372,0.145-0.618,0.242
			c-0.247,0.097-0.468,0.172-0.664,0.227c-0.277,0.074-0.527,0.131-0.751,0.171S541.71,69.898,541.368,69.898z M543.028,64.63
			c-0.011-0.376-0.056-0.701-0.136-0.973c-0.081-0.272-0.196-0.503-0.348-0.691c-0.166-0.208-0.379-0.366-0.638-0.476
			c-0.259-0.109-0.58-0.163-0.962-0.163c-0.377,0-0.698,0.056-0.962,0.167c-0.265,0.111-0.505,0.274-0.721,0.487
			c-0.212,0.218-0.373,0.459-0.483,0.724c-0.11,0.265-0.181,0.574-0.211,0.925H543.028z"/>
		<path d="M549.487,69.891c-0.579,0-1.109-0.088-1.593-0.264c-0.482-0.176-0.897-0.442-1.245-0.799
			c-0.347-0.356-0.616-0.806-0.807-1.348c-0.191-0.542-0.287-1.18-0.287-1.914c0-0.728,0.1-1.357,0.298-1.887
			c0.199-0.53,0.464-0.976,0.796-1.337c0.332-0.361,0.746-0.64,1.242-0.836c0.495-0.195,1.027-0.293,1.596-0.293
			c0.463,0,0.909,0.064,1.339,0.193c0.431,0.129,0.814,0.277,1.151,0.446v1.568h-0.083c-0.101-0.084-0.23-0.181-0.389-0.29
			s-0.351-0.22-0.577-0.334c-0.196-0.099-0.428-0.186-0.694-0.26s-0.523-0.111-0.77-0.111c-0.735,0-1.324,0.273-1.77,0.821
			s-0.668,1.321-0.668,2.322c0,0.981,0.215,1.745,0.645,2.292c0.431,0.547,1.028,0.821,1.793,0.821c0.463,0,0.902-0.094,1.32-0.282
			c0.417-0.188,0.787-0.431,1.109-0.728h0.083v1.567c-0.141,0.064-0.317,0.143-0.528,0.234s-0.402,0.16-0.573,0.204
			c-0.242,0.069-0.458,0.123-0.649,0.16S549.789,69.891,549.487,69.891z"/>
		<path d="M554.723,60.016h-1.615v-1.449h1.615V60.016z M554.625,69.705h-1.419v-8.299h1.419V69.705z"/>
		<path d="M560.434,59.481h-0.076c-0.126-0.045-0.307-0.088-0.543-0.13c-0.236-0.042-0.448-0.063-0.634-0.063
			c-0.599,0-1.025,0.133-1.279,0.397c-0.254,0.265-0.381,0.744-0.381,1.438v0.282h2.347v1.159h-2.302v7.14h-1.419v-7.14h-0.958
			v-1.159h0.958v-0.275c0-1,0.244-1.761,0.732-2.281s1.188-0.78,2.098-0.78c0.262,0,0.519,0.014,0.77,0.041
			c0.252,0.027,0.48,0.059,0.688,0.093V59.481z"/>
		<path d="M563.158,60.016h-1.615v-1.449h1.615V60.016z M563.061,69.705h-1.419v-8.299h1.419V69.705z"/>
		<path d="M570.922,72.766h-1.418v-3.967c-0.413,0.371-0.815,0.643-1.208,0.813s-0.827,0.256-1.306,0.256
			c-0.955,0-1.718-0.378-2.286-1.133s-0.853-1.807-0.853-3.154c0-0.713,0.1-1.344,0.298-1.891c0.199-0.547,0.462-1.007,0.789-1.378
			c0.312-0.361,0.684-0.641,1.116-0.839s0.883-0.297,1.351-0.297c0.433,0,0.808,0.05,1.125,0.148
			c0.316,0.099,0.642,0.246,0.974,0.438l0.09-0.356h1.328V72.766z M569.504,67.625v-4.726c-0.357-0.173-0.677-0.294-0.959-0.364
			c-0.281-0.069-0.583-0.104-0.905-0.104c-0.744,0-1.318,0.265-1.721,0.795c-0.402,0.53-0.604,1.293-0.604,2.289
			c0,0.971,0.161,1.717,0.483,2.24c0.321,0.522,0.822,0.784,1.501,0.784c0.397,0,0.785-0.084,1.162-0.252
			C568.84,68.118,569.187,67.897,569.504,67.625z"/>
		<path d="M579.432,69.705h-1.419v-0.921c-0.438,0.376-0.853,0.663-1.245,0.858c-0.393,0.195-0.83,0.293-1.313,0.293
			c-0.367,0-0.713-0.06-1.037-0.178c-0.324-0.119-0.607-0.307-0.849-0.565c-0.242-0.257-0.43-0.582-0.563-0.973
			c-0.134-0.392-0.2-0.867-0.2-1.427v-5.387h1.419v4.726c0,0.441,0.016,0.806,0.049,1.096c0.032,0.29,0.106,0.544,0.223,0.762
			c0.115,0.213,0.272,0.369,0.472,0.468c0.198,0.099,0.484,0.148,0.856,0.148c0.347,0,0.717-0.097,1.109-0.29
			c0.393-0.193,0.752-0.431,1.079-0.713v-6.197h1.419V69.705z"/>
		<path d="M584.959,69.898c-1.344,0-2.387-0.373-3.128-1.118c-0.742-0.746-1.113-1.805-1.113-3.177c0-1.352,0.359-2.428,1.079-3.228
			c0.72-0.8,1.66-1.2,2.822-1.2c0.523,0,0.986,0.074,1.389,0.223c0.402,0.148,0.754,0.381,1.057,0.698
			c0.302,0.317,0.533,0.705,0.693,1.163c0.161,0.458,0.242,1.02,0.242,1.683V65.7h-5.841c0,0.966,0.246,1.704,0.739,2.214
			s1.175,0.765,2.045,0.765c0.313,0,0.617-0.035,0.917-0.104c0.299-0.069,0.569-0.159,0.812-0.268
			c0.256-0.114,0.473-0.224,0.648-0.331c0.177-0.106,0.322-0.207,0.438-0.301h0.083V69.2c-0.166,0.064-0.372,0.145-0.618,0.242
			c-0.247,0.097-0.468,0.172-0.664,0.227c-0.277,0.074-0.527,0.131-0.751,0.171S585.301,69.898,584.959,69.898z M586.619,64.63
			c-0.011-0.376-0.056-0.701-0.136-0.973c-0.081-0.272-0.196-0.503-0.348-0.691c-0.166-0.208-0.379-0.366-0.638-0.476
			c-0.259-0.109-0.58-0.163-0.962-0.163c-0.377,0-0.698,0.056-0.962,0.167c-0.265,0.111-0.505,0.274-0.721,0.487
			c-0.212,0.218-0.373,0.459-0.483,0.724c-0.11,0.265-0.181,0.574-0.211,0.925H586.619z"/>
		<path d="M594.058,72.766h-1.728c-0.876-1.025-1.563-2.11-2.064-3.254c-0.5-1.144-0.75-2.496-0.75-4.057
			c0-1.525,0.247-2.869,0.743-4.031c0.495-1.162,1.186-2.255,2.071-3.28h1.728v0.074c-0.407,0.361-0.796,0.779-1.165,1.252
			c-0.37,0.473-0.714,1.024-1.03,1.653c-0.302,0.609-0.547,1.28-0.736,2.013c-0.188,0.733-0.282,1.506-0.282,2.318
			c0,0.847,0.091,1.622,0.275,2.326c0.184,0.703,0.431,1.372,0.743,2.006c0.302,0.609,0.646,1.161,1.033,1.653
			c0.388,0.493,0.775,0.91,1.162,1.252V72.766z"/>
		<path d="M599.425,65.455c0,1.531-0.249,2.875-0.747,4.035s-1.188,2.251-2.068,3.276h-1.728v-0.074
			c0.387-0.342,0.777-0.762,1.17-1.259c0.392-0.498,0.734-1.046,1.025-1.646c0.313-0.639,0.56-1.313,0.744-2.024
			c0.184-0.711,0.275-1.48,0.275-2.307c0-0.817-0.094-1.59-0.279-2.318c-0.187-0.728-0.433-1.399-0.74-2.013
			c-0.307-0.614-0.653-1.167-1.041-1.657c-0.388-0.49-0.772-0.906-1.154-1.248v-0.074h1.728c0.876,1.025,1.563,2.115,2.064,3.269
			C599.174,62.567,599.425,63.915,599.425,65.455z"/>
	</g>
	
		<line fill="none" stroke="#800000" stroke-width="0.7559" stroke-linecap="square" stroke-miterlimit="10" x1="448.157" y1="48.936" x2="609.729" y2="48.936"/>
	
		<rect x="240.223" y="185.888" fill-rule="evenodd" clip-rule="evenodd" fill="#FFFFB9" stroke="#800000" stroke-width="0.7559" stroke-linecap="square" stroke-miterlimit="10" width="109.586" height="74.7"/>
	<g>
		<path d="M250.011,206.645l3.796-11.063h3.079l3.796,11.063h-2.905l-0.702-2.259h-3.532l-0.702,2.259H250.011z M256.456,202.38
			l-1.147-3.648l-1.147,3.648H256.456z"/>
		<path d="M270.001,206.645h-2.641v-0.869c-0.171,0.139-0.366,0.287-0.585,0.445c-0.219,0.159-0.411,0.277-0.577,0.357
			c-0.211,0.099-0.42,0.173-0.626,0.223c-0.206,0.049-0.453,0.074-0.739,0.074c-0.966,0-1.731-0.394-2.294-1.182
			c-0.563-0.787-0.845-1.84-0.845-3.157c0-0.729,0.095-1.36,0.287-1.896c0.191-0.534,0.455-1,0.792-1.396
			c0.307-0.361,0.679-0.647,1.117-0.858c0.438-0.21,0.9-0.315,1.388-0.315c0.443,0,0.806,0.046,1.091,0.138
			c0.284,0.092,0.615,0.233,0.992,0.427v-3.552h2.641V206.645z M267.36,204.341v-4.094c-0.131-0.064-0.302-0.117-0.513-0.159
			s-0.393-0.063-0.543-0.063c-0.634,0-1.11,0.218-1.43,0.653c-0.32,0.437-0.479,1.046-0.479,1.828c0,0.822,0.127,1.417,0.381,1.783
			c0.254,0.367,0.665,0.55,1.234,0.55c0.231,0,0.465-0.044,0.702-0.134C266.948,204.616,267.164,204.495,267.36,204.341z"/>
		<path d="M276.787,205.761c-0.181,0.148-0.343,0.282-0.487,0.4c-0.143,0.119-0.335,0.238-0.577,0.357
			c-0.236,0.113-0.467,0.2-0.69,0.26s-0.537,0.089-0.939,0.089c-0.75,0-1.372-0.247-1.868-0.743
			c-0.496-0.495-0.743-1.119-0.743-1.872c0-0.619,0.125-1.119,0.377-1.501c0.252-0.381,0.614-0.684,1.087-0.906
			c0.478-0.228,1.049-0.387,1.713-0.476s1.378-0.158,2.143-0.208v-0.045c0-0.46-0.172-0.778-0.517-0.954
			c-0.345-0.176-0.862-0.264-1.551-0.264c-0.312,0-0.677,0.056-1.094,0.167c-0.418,0.111-0.825,0.254-1.223,0.427h-0.227v-2.014
			c0.262-0.074,0.685-0.162,1.268-0.264s1.172-0.152,1.766-0.152c1.459,0,2.521,0.239,3.188,0.718c0.667,0.478,1,1.207,1,2.188
			v5.677h-2.626V205.761z M276.787,204.468v-1.739c-0.448,0.045-0.81,0.083-1.086,0.115c-0.277,0.032-0.548,0.096-0.815,0.189
			c-0.231,0.08-0.412,0.2-0.54,0.36c-0.128,0.161-0.192,0.376-0.192,0.643c0,0.392,0.106,0.66,0.32,0.807s0.53,0.219,0.947,0.219
			c0.231,0,0.468-0.052,0.709-0.155C276.372,204.802,276.591,204.656,276.787,204.468z"/>
		<path d="M290.248,202.357c0,1.332-0.343,2.407-1.03,3.225c-0.687,0.817-1.533,1.226-2.54,1.226c-0.422,0-0.79-0.047-1.102-0.141
			s-0.644-0.24-0.996-0.438v3.478h-2.641v-11.405h2.641v0.869c0.387-0.327,0.782-0.592,1.185-0.795
			c0.403-0.203,0.868-0.305,1.396-0.305c0.981,0,1.741,0.384,2.279,1.151C289.979,199.989,290.248,201.035,290.248,202.357z
			 M287.547,202.409c0-0.813-0.127-1.401-0.381-1.769c-0.254-0.366-0.65-0.55-1.188-0.55c-0.236,0-0.472,0.037-0.706,0.112
			c-0.234,0.074-0.464,0.186-0.69,0.334v4.198c0.141,0.06,0.295,0.102,0.464,0.126c0.169,0.024,0.369,0.037,0.6,0.037
			c0.644,0,1.122-0.207,1.434-0.62C287.391,203.864,287.547,203.241,287.547,202.409z"/>
		<path d="M295.004,206.808c-1.077,0-1.86-0.218-2.351-0.653c-0.49-0.436-0.736-1.149-0.736-2.14v-3.901h-1.011v-1.813h1.011v-2.386
			h2.642v2.386h2.543v1.813h-2.543v2.957c0,0.293,0.002,0.548,0.007,0.766s0.045,0.414,0.121,0.587
			c0.07,0.174,0.195,0.311,0.374,0.412s0.439,0.152,0.781,0.152c0.141,0,0.326-0.029,0.555-0.089
			c0.229-0.06,0.389-0.114,0.479-0.163h0.227v1.835c-0.287,0.074-0.591,0.133-0.913,0.175
			C295.867,206.787,295.473,206.808,295.004,206.808z"/>
		<path d="M303.455,205.761c-0.181,0.148-0.343,0.282-0.487,0.4c-0.143,0.119-0.335,0.238-0.577,0.357
			c-0.236,0.113-0.467,0.2-0.69,0.26s-0.537,0.089-0.939,0.089c-0.75,0-1.372-0.247-1.868-0.743
			c-0.496-0.495-0.743-1.119-0.743-1.872c0-0.619,0.125-1.119,0.377-1.501c0.252-0.381,0.614-0.684,1.087-0.906
			c0.478-0.228,1.049-0.387,1.713-0.476s1.378-0.158,2.143-0.208v-0.045c0-0.46-0.172-0.778-0.517-0.954
			c-0.345-0.176-0.862-0.264-1.551-0.264c-0.312,0-0.677,0.056-1.094,0.167c-0.418,0.111-0.825,0.254-1.223,0.427h-0.227v-2.014
			c0.262-0.074,0.685-0.162,1.268-0.264s1.172-0.152,1.766-0.152c1.459,0,2.521,0.239,3.188,0.718c0.667,0.478,1,1.207,1,2.188
			v5.677h-2.626V205.761z M303.455,204.468v-1.739c-0.448,0.045-0.81,0.083-1.086,0.115c-0.277,0.032-0.548,0.096-0.815,0.189
			c-0.231,0.08-0.412,0.2-0.54,0.36c-0.128,0.161-0.192,0.376-0.192,0.643c0,0.392,0.106,0.66,0.32,0.807s0.53,0.219,0.947,0.219
			c0.231,0,0.468-0.052,0.709-0.155C303.04,204.802,303.259,204.656,303.455,204.468z"/>
		<path d="M311.853,206.808c-1.076,0-1.86-0.218-2.351-0.653s-0.735-1.149-0.735-2.14v-3.901h-1.012v-1.813h1.012v-2.386h2.641
			v2.386h2.543v1.813h-2.543v2.957c0,0.293,0.003,0.548,0.008,0.766s0.045,0.414,0.121,0.587c0.07,0.174,0.194,0.311,0.373,0.412
			s0.439,0.152,0.781,0.152c0.141,0,0.325-0.029,0.555-0.089c0.229-0.06,0.389-0.114,0.479-0.163h0.226v1.835
			c-0.286,0.074-0.591,0.133-0.913,0.175C312.716,206.787,312.32,206.808,311.853,206.808z"/>
		<path d="M319.972,206.867c-1.601,0-2.826-0.376-3.679-1.129c-0.854-0.753-1.279-1.825-1.279-3.218
			c0-1.361,0.397-2.449,1.192-3.262s1.906-1.219,3.335-1.219c1.298,0,2.274,0.345,2.928,1.033c0.654,0.688,0.981,1.675,0.981,2.957
			v0.937h-5.788c0.025,0.386,0.108,0.709,0.249,0.97c0.141,0.26,0.327,0.467,0.559,0.62c0.227,0.153,0.49,0.264,0.792,0.331
			c0.302,0.066,0.632,0.1,0.989,0.1c0.307,0,0.608-0.033,0.905-0.1c0.297-0.067,0.568-0.155,0.814-0.264
			c0.217-0.095,0.417-0.196,0.601-0.305c0.184-0.109,0.333-0.206,0.448-0.29h0.279v2.147c-0.216,0.084-0.413,0.162-0.592,0.233
			c-0.179,0.072-0.424,0.146-0.736,0.22c-0.286,0.074-0.582,0.132-0.887,0.175C320.78,206.847,320.409,206.867,319.972,206.867z
			 M320.847,201.398c-0.015-0.55-0.145-0.968-0.389-1.255s-0.617-0.432-1.12-0.432c-0.514,0-0.915,0.151-1.204,0.453
			c-0.289,0.303-0.449,0.714-0.479,1.233H320.847z"/>
		<path d="M333.328,206.645h-2.642v-0.921c-0.457,0.376-0.878,0.662-1.26,0.857c-0.383,0.196-0.838,0.294-1.366,0.294
			c-0.84,0-1.495-0.262-1.966-0.784c-0.47-0.522-0.705-1.309-0.705-2.358v-5.432h2.656v4.139c0,0.431,0.012,0.782,0.034,1.055
			s0.076,0.503,0.162,0.691c0.08,0.173,0.205,0.305,0.373,0.394c0.169,0.089,0.404,0.134,0.706,0.134
			c0.186,0,0.406-0.045,0.66-0.134s0.489-0.211,0.705-0.364v-5.914h2.642V206.645z"/>
		<path d="M340.994,200.76h-0.219c-0.101-0.034-0.247-0.061-0.438-0.078c-0.191-0.017-0.403-0.025-0.635-0.025
			c-0.276,0-0.566,0.039-0.871,0.118c-0.305,0.08-0.6,0.174-0.887,0.282v5.588h-2.642v-8.344h2.642v1.196
			c0.121-0.109,0.288-0.247,0.502-0.413c0.214-0.165,0.408-0.298,0.585-0.397c0.19-0.113,0.413-0.211,0.668-0.293
			c0.254-0.082,0.494-0.123,0.721-0.123c0.085,0,0.181,0.003,0.286,0.008s0.201,0.013,0.287,0.022V200.76z"/>
	</g>
	
		<line fill="none" stroke="#800000" stroke-width="0.7559" stroke-linecap="square" stroke-miterlimit="10" x1="240.223" y1="216.32" x2="351.216" y2="216.32"/>
	<g>
		<path d="M257.299,245.271h-3.811v3.752h-1.252v-3.752h-3.811v-1.188h3.811v-3.753h1.252v3.753h3.811V245.271z"/>
		<path d="M263.978,242.723h-0.076c-0.105-0.029-0.217-0.048-0.335-0.056c-0.119-0.007-0.261-0.011-0.427-0.011
			c-0.382,0-0.762,0.082-1.139,0.245s-0.735,0.406-1.072,0.729v5.892h-1.418v-8.3h1.418v1.233c0.518-0.45,0.97-0.769,1.354-0.954
			c0.385-0.186,0.759-0.279,1.121-0.279c0.146,0,0.255,0.004,0.329,0.012c0.073,0.007,0.154,0.019,0.245,0.033V242.723z"/>
		<path d="M268.786,249.715c-1.343,0-2.386-0.373-3.128-1.118c-0.742-0.746-1.113-1.805-1.113-3.177
			c0-1.353,0.359-2.428,1.079-3.229c0.719-0.8,1.66-1.199,2.822-1.199c0.523,0,0.986,0.074,1.388,0.223
			c0.403,0.148,0.755,0.381,1.057,0.698s0.533,0.705,0.694,1.163s0.241,1.019,0.241,1.683v0.758h-5.84
			c0,0.966,0.246,1.704,0.739,2.214c0.493,0.511,1.175,0.766,2.045,0.766c0.312,0,0.618-0.034,0.917-0.104s0.57-0.159,0.811-0.268
			c0.257-0.114,0.473-0.225,0.649-0.331c0.176-0.106,0.322-0.207,0.438-0.301h0.083v1.523c-0.166,0.064-0.373,0.145-0.619,0.241
			c-0.247,0.097-0.468,0.172-0.664,0.227c-0.277,0.074-0.527,0.131-0.751,0.171C269.411,249.694,269.128,249.715,268.786,249.715z
			 M270.446,244.446c-0.01-0.376-0.055-0.7-0.136-0.973s-0.196-0.503-0.347-0.691c-0.166-0.208-0.378-0.366-0.638-0.476
			c-0.259-0.108-0.58-0.163-0.962-0.163c-0.377,0-0.698,0.056-0.962,0.167s-0.504,0.273-0.721,0.486
			c-0.211,0.219-0.372,0.46-0.483,0.725c-0.11,0.266-0.181,0.573-0.211,0.925H270.446z"/>
		<path d="M280.044,252.583h-1.419v-3.968c-0.413,0.371-0.815,0.643-1.207,0.813c-0.393,0.171-0.828,0.256-1.306,0.256
			c-0.956,0-1.718-0.377-2.287-1.133c-0.568-0.755-0.853-1.807-0.853-3.154c0-0.713,0.099-1.343,0.298-1.891
			c0.199-0.547,0.461-1.007,0.789-1.378c0.312-0.362,0.684-0.642,1.117-0.84c0.433-0.198,0.883-0.297,1.351-0.297
			c0.433,0,0.808,0.049,1.125,0.148c0.317,0.099,0.641,0.245,0.973,0.438l0.091-0.357h1.328V252.583z M278.625,247.441v-4.726
			c-0.357-0.174-0.677-0.295-0.958-0.364c-0.282-0.069-0.584-0.104-0.906-0.104c-0.745,0-1.318,0.266-1.721,0.795
			c-0.402,0.53-0.604,1.293-0.604,2.289c0,0.971,0.161,1.718,0.483,2.24s0.823,0.783,1.502,0.783c0.397,0,0.785-0.084,1.162-0.252
			C277.961,247.934,278.308,247.714,278.625,247.441z"/>
		<path d="M288.553,249.521h-1.418v-0.921c-0.438,0.376-0.853,0.662-1.245,0.857c-0.393,0.196-0.83,0.294-1.313,0.294
			c-0.367,0-0.713-0.06-1.038-0.179c-0.325-0.118-0.607-0.307-0.849-0.564c-0.241-0.258-0.429-0.582-0.562-0.974
			c-0.133-0.391-0.2-0.866-0.2-1.426v-5.388h1.419v4.726c0,0.441,0.016,0.807,0.049,1.097c0.033,0.289,0.107,0.543,0.223,0.761
			c0.116,0.214,0.273,0.369,0.472,0.469c0.199,0.099,0.484,0.148,0.856,0.148c0.347,0,0.717-0.097,1.109-0.29
			c0.392-0.193,0.752-0.431,1.079-0.713v-6.197h1.418V249.521z"/>
		<path d="M294.08,249.715c-1.343,0-2.386-0.373-3.128-1.118c-0.742-0.746-1.113-1.805-1.113-3.177c0-1.353,0.359-2.428,1.079-3.229
			c0.719-0.8,1.66-1.199,2.822-1.199c0.523,0,0.986,0.074,1.388,0.223c0.403,0.148,0.755,0.381,1.057,0.698s0.533,0.705,0.694,1.163
			s0.241,1.019,0.241,1.683v0.758h-5.84c0,0.966,0.246,1.704,0.739,2.214c0.493,0.511,1.175,0.766,2.045,0.766
			c0.312,0,0.618-0.034,0.917-0.104s0.57-0.159,0.811-0.268c0.257-0.114,0.473-0.225,0.649-0.331
			c0.176-0.106,0.322-0.207,0.438-0.301h0.083v1.523c-0.166,0.064-0.373,0.145-0.619,0.241c-0.247,0.097-0.468,0.172-0.664,0.227
			c-0.277,0.074-0.527,0.131-0.751,0.171C294.705,249.694,294.422,249.715,294.08,249.715z M295.74,244.446
			c-0.01-0.376-0.055-0.7-0.136-0.973s-0.196-0.503-0.347-0.691c-0.166-0.208-0.378-0.366-0.638-0.476
			c-0.259-0.108-0.58-0.163-0.962-0.163c-0.377,0-0.698,0.056-0.962,0.167s-0.504,0.273-0.721,0.486
			c-0.211,0.219-0.372,0.46-0.483,0.725c-0.11,0.266-0.181,0.573-0.211,0.925H295.74z"/>
		<path d="M301.399,249.685c-0.774,0-1.378-0.216-1.811-0.649s-0.649-1.118-0.649-2.055v-4.6h-0.958v-1.159h0.958v-2.385h1.419
			v2.385h2.611v1.159h-2.611v3.945c0,0.422,0.007,0.746,0.022,0.974s0.073,0.441,0.174,0.639c0.085,0.174,0.224,0.304,0.415,0.391
			c0.191,0.087,0.45,0.13,0.777,0.13c0.231,0,0.456-0.033,0.672-0.101c0.216-0.066,0.372-0.122,0.468-0.167h0.083v1.256
			c-0.267,0.074-0.537,0.133-0.811,0.175C301.884,249.664,301.631,249.685,301.399,249.685z"/>
		<path d="M308.126,249.715c-1.343,0-2.386-0.373-3.128-1.118c-0.742-0.746-1.113-1.805-1.113-3.177
			c0-1.353,0.359-2.428,1.079-3.229c0.719-0.8,1.66-1.199,2.822-1.199c0.523,0,0.986,0.074,1.389,0.223s0.755,0.381,1.057,0.698
			s0.533,0.705,0.694,1.163s0.241,1.019,0.241,1.683v0.758h-5.84c0,0.966,0.246,1.704,0.74,2.214
			c0.492,0.511,1.174,0.766,2.045,0.766c0.312,0,0.617-0.034,0.917-0.104c0.299-0.069,0.569-0.159,0.811-0.268
			c0.257-0.114,0.473-0.225,0.649-0.331c0.176-0.106,0.321-0.207,0.438-0.301h0.083v1.523c-0.166,0.064-0.372,0.145-0.619,0.241
			c-0.246,0.097-0.468,0.172-0.664,0.227c-0.276,0.074-0.526,0.131-0.751,0.171C308.751,249.694,308.468,249.715,308.126,249.715z
			 M309.786,244.446c-0.01-0.376-0.056-0.7-0.136-0.973s-0.196-0.503-0.347-0.691c-0.166-0.208-0.379-0.366-0.638-0.476
			c-0.26-0.108-0.58-0.163-0.963-0.163c-0.377,0-0.697,0.056-0.962,0.167c-0.264,0.111-0.504,0.273-0.721,0.486
			c-0.211,0.219-0.372,0.46-0.483,0.725c-0.11,0.266-0.181,0.573-0.211,0.925H309.786z"/>
		<path d="M317.226,252.583h-1.728c-0.876-1.025-1.563-2.11-2.064-3.255c-0.5-1.145-0.75-2.496-0.75-4.057
			c0-1.525,0.247-2.869,0.743-4.031c0.495-1.161,1.186-2.255,2.071-3.28h1.728v0.074c-0.407,0.362-0.796,0.779-1.165,1.252
			c-0.37,0.474-0.714,1.024-1.03,1.653c-0.302,0.609-0.547,1.281-0.736,2.014c-0.188,0.733-0.282,1.506-0.282,2.318
			c0,0.847,0.091,1.622,0.275,2.325c0.184,0.704,0.431,1.372,0.743,2.007c0.302,0.609,0.646,1.16,1.033,1.653
			c0.388,0.492,0.775,0.91,1.162,1.252V252.583z"/>
		<path d="M322.593,245.271c0,1.53-0.249,2.875-0.747,4.034s-1.188,2.252-2.068,3.277h-1.728v-0.074
			c0.387-0.342,0.777-0.762,1.17-1.26c0.392-0.498,0.734-1.047,1.025-1.646c0.313-0.64,0.56-1.314,0.744-2.025
			c0.184-0.71,0.275-1.479,0.275-2.307c0-0.817-0.094-1.59-0.279-2.318c-0.187-0.728-0.433-1.399-0.74-2.014
			c-0.307-0.614-0.653-1.166-1.041-1.656c-0.388-0.491-0.772-0.907-1.154-1.249v-0.074h1.728c0.876,1.025,1.563,2.115,2.064,3.27
			C322.342,242.384,322.593,243.731,322.593,245.271z"/>
	</g>
	
		<line fill="none" stroke="#800000" stroke-width="0.7559" stroke-linecap="square" stroke-miterlimit="10" x1="240.223" y1="228.77" x2="351.216" y2="228.77"/>
	
		<rect x="240.223" y="11.585" fill-rule="evenodd" clip-rule="evenodd" fill="#FFFFB9" stroke="#800000" stroke-width="0.7559" stroke-linecap="square" stroke-miterlimit="10" width="109.586" height="74.701"/>
	<g>
		<path stroke="#000000" stroke-width="0.2376" stroke-miterlimit="10" d="M292.275,28.93c-0.187,0.55-0.456,1.035-0.81,1.456
			c-0.354,0.422-0.756,0.769-1.205,1.041c-0.534,0.327-1.065,0.559-1.593,0.695c-0.53,0.136-1.177,0.205-1.941,0.205h-3.222
			l3.745-11.064h2.98c0.8,0,1.392,0.027,1.773,0.079c0.383,0.052,0.724,0.175,1.026,0.367c0.331,0.213,0.53,0.492,0.601,0.836
			c0.069,0.344,0.024,0.75-0.133,1.215c-0.177,0.521-0.473,0.986-0.892,1.397c-0.418,0.411-0.914,0.732-1.486,0.966l-0.02,0.059
			c0.609,0.179,1.017,0.504,1.224,0.977C292.531,27.631,292.516,28.221,292.275,28.93z M290.702,28.989
			c0.141-0.415,0.196-0.758,0.167-1.028c-0.029-0.27-0.195-0.5-0.499-0.688c-0.195-0.124-0.426-0.203-0.692-0.237
			c-0.268-0.035-0.658-0.052-1.172-0.052h-1.697l-1.384,4.086h1.215c0.654,0,1.18-0.03,1.577-0.089s0.772-0.186,1.125-0.379
			c0.346-0.192,0.627-0.412,0.841-0.657C290.396,29.698,290.569,29.38,290.702,28.989z M291.874,23.966
			c0.09-0.268,0.123-0.499,0.099-0.695c-0.025-0.195-0.119-0.35-0.281-0.464c-0.196-0.133-0.438-0.215-0.724-0.245
			c-0.287-0.029-0.692-0.044-1.215-0.044h-1.434l-1.097,3.239h1.697c0.469,0,0.82-0.023,1.058-0.07
			c0.238-0.047,0.5-0.146,0.786-0.293c0.275-0.145,0.5-0.332,0.675-0.565C291.613,24.595,291.758,24.309,291.874,23.966z"/>
		<path stroke="#000000" stroke-width="0.2376" stroke-miterlimit="10" d="M299.792,32.326h-1.419l0.312-0.921
			c-0.564,0.376-1.076,0.662-1.535,0.858c-0.459,0.195-0.93,0.293-1.413,0.293c-0.367,0-0.693-0.059-0.977-0.178
			c-0.284-0.119-0.504-0.307-0.658-0.564c-0.155-0.258-0.233-0.582-0.233-0.974c-0.001-0.39,0.093-0.867,0.283-1.426l1.824-5.386
			h1.419l-1.6,4.725c-0.149,0.441-0.258,0.807-0.322,1.096c-0.066,0.29-0.078,0.544-0.035,0.762
			c0.043,0.213,0.147,0.369,0.313,0.469c0.165,0.099,0.434,0.148,0.806,0.148c0.347,0,0.75-0.096,1.208-0.29
			s0.898-0.431,1.321-0.713l2.098-6.197h1.419L299.792,32.326z"/>
		<path stroke="#000000" stroke-width="0.2376" stroke-miterlimit="10" d="M305.545,32.489c-0.775,0-1.306-0.216-1.591-0.65
			c-0.286-0.434-0.27-1.118,0.047-2.054l1.557-4.599h-0.959l0.393-1.159h0.959l0.808-2.386h1.418l-0.808,2.386h2.611l-0.393,1.159
			h-2.611l-1.335,3.945c-0.143,0.421-0.245,0.746-0.306,0.973c-0.063,0.229-0.077,0.441-0.043,0.639
			c0.027,0.174,0.121,0.304,0.283,0.391s0.406,0.129,0.733,0.129c0.231,0,0.467-0.033,0.706-0.1
			c0.238-0.066,0.413-0.123,0.524-0.167h0.083l-0.425,1.256c-0.292,0.074-0.582,0.132-0.871,0.174
			C306.035,32.468,305.776,32.489,305.545,32.489z"/>
	</g>
	
		<line fill="none" stroke="#800000" stroke-width="0.7559" stroke-linecap="square" stroke-miterlimit="10" x1="240.223" y1="42.019" x2="351.216" y2="42.019"/>
	<g>
		<path d="M258.746,70.949h-3.811l-1.271,3.752h-1.253l1.271-3.752h-3.811l0.402-1.189h3.811l1.27-3.751h1.253l-1.27,3.751h3.811
			L258.746,70.949z"/>
		<path d="M266.287,68.4h-0.075c-0.096-0.03-0.202-0.048-0.317-0.056c-0.115-0.007-0.256-0.011-0.422-0.011
			c-0.383,0-0.79,0.082-1.223,0.245s-0.872,0.406-1.317,0.728l-1.995,5.892h-1.419l2.81-8.299h1.419l-0.417,1.233
			c0.67-0.45,1.23-0.769,1.678-0.955s0.852-0.278,1.214-0.278c0.146,0,0.255,0.003,0.324,0.011c0.071,0.007,0.149,0.018,0.234,0.033
			L266.287,68.4z"/>
		<path d="M268.729,75.392c-1.344,0-2.261-0.373-2.749-1.118c-0.49-0.746-0.503-1.805-0.038-3.176
			c0.458-1.353,1.181-2.428,2.172-3.229c0.99-0.8,2.066-1.2,3.229-1.2c0.523,0,0.961,0.074,1.313,0.223
			c0.352,0.148,0.625,0.381,0.82,0.698c0.195,0.316,0.295,0.704,0.3,1.163c0.006,0.458-0.103,1.02-0.328,1.683l-0.256,0.758h-5.841
			c-0.327,0.966-0.331,1.705-0.01,2.214c0.32,0.51,0.915,0.766,1.785,0.766c0.313,0,0.629-0.035,0.953-0.104
			c0.323-0.069,0.623-0.158,0.902-0.267c0.295-0.114,0.549-0.224,0.761-0.331c0.213-0.106,0.392-0.207,0.539-0.301h0.083
			l-0.516,1.523c-0.188,0.064-0.421,0.144-0.7,0.241c-0.28,0.096-0.526,0.172-0.741,0.227c-0.303,0.074-0.572,0.131-0.809,0.171
			C269.36,75.372,269.07,75.392,268.729,75.392z M272.172,70.125c0.117-0.376,0.182-0.701,0.194-0.974
			c0.011-0.272-0.026-0.502-0.114-0.691c-0.096-0.208-0.255-0.366-0.477-0.476c-0.222-0.108-0.524-0.163-0.906-0.163
			c-0.377,0-0.717,0.055-1.019,0.167c-0.303,0.112-0.598,0.273-0.886,0.487c-0.286,0.217-0.528,0.459-0.729,0.724
			c-0.2,0.265-0.375,0.574-0.524,0.925H272.172z"/>
		<path d="M279.016,78.26h-1.418l1.343-3.967c-0.539,0.372-1.033,0.643-1.483,0.814c-0.45,0.17-0.914,0.256-1.393,0.256
			c-0.955,0-1.589-0.378-1.902-1.133c-0.313-0.756-0.241-1.807,0.215-3.154c0.242-0.713,0.555-1.344,0.938-1.891
			c0.385-0.547,0.803-1.007,1.256-1.378c0.434-0.361,0.9-0.642,1.4-0.84c0.5-0.198,0.983-0.297,1.451-0.297
			c0.433,0,0.791,0.049,1.075,0.148c0.283,0.099,0.559,0.245,0.825,0.438l0.21-0.356h1.328L279.016,78.26z M279.338,73.119
			l1.6-4.726c-0.299-0.173-0.577-0.294-0.836-0.363c-0.258-0.069-0.547-0.104-0.87-0.104c-0.744,0-1.408,0.266-1.99,0.795
			s-1.041,1.292-1.378,2.289c-0.329,0.97-0.421,1.718-0.275,2.239c0.145,0.522,0.557,0.784,1.236,0.784
			c0.397,0,0.813-0.084,1.248-0.252C278.507,73.612,278.929,73.391,279.338,73.119z"/>
		<path d="M288.562,75.199h-1.419l0.312-0.921c-0.565,0.376-1.077,0.663-1.536,0.858c-0.459,0.195-0.93,0.293-1.413,0.293
			c-0.367,0-0.692-0.059-0.977-0.179c-0.284-0.118-0.503-0.307-0.657-0.564c-0.155-0.258-0.233-0.582-0.233-0.974
			c-0.001-0.39,0.094-0.867,0.283-1.426l1.823-5.386h1.419l-1.6,4.725c-0.149,0.441-0.257,0.807-0.322,1.096
			c-0.065,0.29-0.078,0.544-0.035,0.761c0.043,0.214,0.147,0.369,0.313,0.469c0.164,0.099,0.434,0.148,0.806,0.148
			c0.347,0,0.75-0.096,1.208-0.29s0.897-0.431,1.32-0.713l2.098-6.196h1.419L288.562,75.199z"/>
		<path d="M294.023,75.392c-1.344,0-2.261-0.373-2.749-1.118c-0.49-0.746-0.503-1.805-0.038-3.176
			c0.458-1.353,1.181-2.428,2.172-3.229c0.99-0.8,2.066-1.2,3.229-1.2c0.523,0,0.961,0.074,1.313,0.223
			c0.352,0.148,0.625,0.381,0.82,0.698c0.195,0.316,0.295,0.704,0.3,1.163c0.006,0.458-0.103,1.02-0.328,1.683l-0.256,0.758h-5.841
			c-0.327,0.966-0.331,1.705-0.01,2.214c0.32,0.51,0.915,0.766,1.785,0.766c0.313,0,0.629-0.035,0.953-0.104
			c0.323-0.069,0.623-0.158,0.902-0.267c0.295-0.114,0.549-0.224,0.761-0.331c0.213-0.106,0.392-0.207,0.539-0.301h0.083
			l-0.516,1.523c-0.188,0.064-0.421,0.144-0.7,0.241c-0.28,0.096-0.526,0.172-0.741,0.227c-0.303,0.074-0.572,0.131-0.809,0.171
			C294.655,75.372,294.365,75.392,294.023,75.392z M297.467,70.125c0.117-0.376,0.182-0.701,0.194-0.974
			c0.011-0.272-0.026-0.502-0.114-0.691c-0.096-0.208-0.255-0.366-0.477-0.476c-0.222-0.108-0.524-0.163-0.906-0.163
			c-0.377,0-0.717,0.055-1.019,0.167c-0.303,0.112-0.598,0.273-0.886,0.487c-0.286,0.217-0.528,0.459-0.729,0.724
			c-0.2,0.265-0.375,0.574-0.524,0.925H297.467z"/>
		<path d="M301.352,75.363c-0.775,0-1.306-0.217-1.591-0.65c-0.286-0.434-0.27-1.118,0.047-2.055l1.557-4.599h-0.959l0.393-1.159
			h0.959l0.808-2.386h1.418l-0.808,2.386h2.611l-0.393,1.159h-2.611l-1.335,3.945c-0.143,0.421-0.245,0.746-0.307,0.973
			c-0.063,0.229-0.077,0.441-0.043,0.639c0.027,0.174,0.121,0.303,0.283,0.39c0.162,0.087,0.406,0.13,0.733,0.13
			c0.231,0,0.466-0.034,0.706-0.1c0.238-0.066,0.414-0.123,0.524-0.167h0.083l-0.425,1.256c-0.292,0.074-0.582,0.132-0.871,0.174
			C301.843,75.341,301.583,75.363,301.352,75.363z"/>
		<path d="M308.069,75.392c-1.344,0-2.261-0.373-2.749-1.118c-0.49-0.746-0.503-1.805-0.038-3.176
			c0.458-1.353,1.181-2.428,2.172-3.229c0.99-0.8,2.066-1.2,3.229-1.2c0.523,0,0.961,0.074,1.313,0.223
			c0.352,0.148,0.625,0.381,0.82,0.698c0.194,0.316,0.295,0.704,0.299,1.163c0.007,0.458-0.103,1.02-0.327,1.683l-0.257,0.758h-5.84
			c-0.328,0.966-0.332,1.705-0.011,2.214c0.32,0.51,0.915,0.766,1.785,0.766c0.313,0,0.63-0.035,0.952-0.104
			c0.323-0.069,0.623-0.158,0.902-0.267c0.295-0.114,0.549-0.224,0.761-0.331c0.213-0.106,0.392-0.207,0.539-0.301h0.083
			l-0.516,1.523c-0.188,0.064-0.421,0.144-0.699,0.241c-0.28,0.096-0.526,0.172-0.741,0.227c-0.303,0.074-0.572,0.131-0.81,0.171
			C308.701,75.372,308.411,75.392,308.069,75.392z M311.513,70.125c0.117-0.376,0.182-0.701,0.194-0.974
			c0.011-0.272-0.026-0.502-0.113-0.691c-0.097-0.208-0.256-0.366-0.478-0.476c-0.222-0.108-0.524-0.163-0.906-0.163
			c-0.377,0-0.718,0.055-1.019,0.167c-0.303,0.112-0.598,0.273-0.886,0.487c-0.286,0.217-0.528,0.459-0.729,0.724
			c-0.2,0.265-0.375,0.574-0.524,0.925H311.513z"/>
		<path d="M316.197,78.26h-1.728c-0.529-1.025-0.849-2.11-0.963-3.254c-0.112-1.144,0.095-2.497,0.624-4.057
			c0.516-1.525,1.218-2.869,2.107-4.03c0.889-1.162,1.949-2.255,3.182-3.281h1.728l-0.025,0.075
			c-0.529,0.362-1.06,0.779-1.589,1.251c-0.53,0.474-1.061,1.024-1.59,1.653c-0.508,0.61-0.98,1.281-1.418,2.014
			c-0.437,0.734-0.792,1.506-1.066,2.318c-0.287,0.847-0.459,1.622-0.513,2.326c-0.055,0.703-0.034,1.372,0.064,2.005
			c0.095,0.609,0.253,1.161,0.474,1.654c0.221,0.492,0.467,0.91,0.738,1.251L316.197,78.26z"/>
		<path d="M324.039,70.949c-0.518,1.531-1.223,2.875-2.112,4.035c-0.891,1.159-1.95,2.251-3.178,3.276h-1.728l0.025-0.074
			c0.502-0.341,1.035-0.761,1.596-1.259c0.561-0.499,1.089-1.047,1.583-1.646c0.528-0.638,1.004-1.313,1.43-2.025
			c0.424-0.71,0.776-1.479,1.056-2.307c0.277-0.817,0.445-1.59,0.506-2.318s0.041-1.399-0.059-2.014
			c-0.099-0.614-0.258-1.167-0.48-1.657c-0.221-0.49-0.465-0.906-0.731-1.248l0.025-0.075h1.728c0.529,1.026,0.848,2.116,0.957,3.27
			C324.766,68.061,324.561,69.408,324.039,70.949z"/>
	</g>
	
		<line fill="none" stroke="#800000" stroke-width="0.7559" stroke-linecap="square" stroke-miterlimit="10" x1="240.223" y1="54.47" x2="351.216" y2="54.47"/>
	
		<line fill="none" stroke="#800000" stroke-width="0.7559" stroke-linecap="square" stroke-miterlimit="10" x1="117.992" y1="25.419" x2="240.223" y2="25.419"/>
	<polyline fill="none" stroke="#800000" stroke-width="0.7559" stroke-linecap="square" stroke-miterlimit="10" points="
		226.174,30.952 240.223,25.419 226.174,19.885 	"/>
	
		<line fill="none" stroke="#800000" stroke-width="0.7559" stroke-linecap="square" stroke-miterlimit="10" x1="295.017" y1="185.888" x2="295.017" y2="87.669"/>
	
		<polygon fill-rule="evenodd" clip-rule="evenodd" fill="#FFFFFF" stroke="#800000" stroke-width="0.7559" stroke-linecap="square" stroke-miterlimit="10" points="
		306.257,115.336 295.017,87.669 283.777,115.336 	"/>
	<polyline fill="none" stroke="#800000" stroke-width="0.7559" stroke-linecap="square" stroke-miterlimit="10" points="
		351.216,212.169 524.025,212.169 524.025,82.135 	"/>
	
		<polygon fill-rule="evenodd" clip-rule="evenodd" fill="#FFFFFF" stroke="#800000" stroke-width="0.7559" stroke-linecap="square" stroke-miterlimit="10" points="
		535.264,109.803 524.025,82.135 512.786,109.803 	"/>
	<g>
		<path d="M428.225,237.372h-1.728c-0.876-1.025-1.563-2.11-2.064-3.255c-0.5-1.145-0.75-2.496-0.75-4.057
			c0-1.525,0.247-2.869,0.743-4.031c0.495-1.161,1.186-2.255,2.071-3.28h1.728v0.074c-0.407,0.362-0.796,0.779-1.165,1.252
			c-0.37,0.474-0.714,1.024-1.03,1.653c-0.302,0.609-0.547,1.281-0.736,2.014c-0.188,0.733-0.282,1.506-0.282,2.318
			c0,0.847,0.091,1.622,0.275,2.325c0.184,0.704,0.431,1.372,0.743,2.007c0.302,0.609,0.646,1.16,1.033,1.653
			c0.388,0.492,0.775,0.91,1.162,1.252V237.372z"/>
		<path d="M431.063,224.622h-1.615v-1.449h1.615V224.622z M430.966,234.311h-1.419v-8.3h1.419V234.311z"/>
		<path d="M441.905,234.311v-4.8c0-0.382-0.015-0.734-0.045-1.059s-0.094-0.578-0.188-0.762c-0.102-0.198-0.244-0.345-0.431-0.438
			s-0.438-0.142-0.755-0.142c-0.291,0-0.604,0.089-0.939,0.265c-0.334,0.176-0.68,0.43-1.037,0.761
			c0.005,0.085,0.011,0.185,0.019,0.302c0.008,0.116,0.012,0.254,0.012,0.412v5.461h-1.419v-4.8c0-0.382-0.015-0.734-0.045-1.059
			s-0.094-0.578-0.189-0.762c-0.101-0.198-0.243-0.345-0.43-0.438s-0.438-0.142-0.755-0.142c-0.307,0-0.629,0.095-0.966,0.283
			c-0.337,0.188-0.664,0.428-0.98,0.721v6.196h-1.419v-8.3h1.419v0.922c0.372-0.366,0.74-0.65,1.105-0.851
			c0.364-0.201,0.766-0.301,1.203-0.301c0.498,0,0.939,0.111,1.324,0.334s0.678,0.59,0.88,1.1c0.427-0.471,0.845-0.827,1.252-1.07
			c0.408-0.242,0.851-0.363,1.328-0.363c0.362,0,0.692,0.056,0.989,0.167c0.296,0.111,0.556,0.291,0.776,0.538
			c0.227,0.253,0.401,0.567,0.525,0.944c0.123,0.376,0.185,0.85,0.185,1.419v5.461H441.905z"/>
		<path d="M450.655,229.941c0,1.382-0.335,2.483-1.007,3.303c-0.672,0.82-1.521,1.229-2.547,1.229c-0.418,0-0.787-0.047-1.109-0.141
			s-0.651-0.24-0.988-0.438v3.478h-1.419v-11.361h1.419v0.87c0.352-0.313,0.743-0.573,1.173-0.784
			c0.431-0.211,0.899-0.315,1.407-0.315c0.966,0,1.72,0.376,2.261,1.129C450.385,227.663,450.655,228.674,450.655,229.941z
			 M449.191,230.098c0-0.946-0.153-1.681-0.46-2.203s-0.805-0.784-1.494-0.784c-0.402,0-0.791,0.089-1.166,0.265
			s-0.73,0.402-1.067,0.68v4.703c0.372,0.178,0.69,0.3,0.954,0.364c0.265,0.064,0.567,0.097,0.909,0.097
			c0.734,0,1.306-0.266,1.713-0.796C448.988,231.894,449.191,231.118,449.191,230.098z"/>
		<path d="M453.469,234.311h-1.419v-11.562h1.419V234.311z"/>
		<path d="M458.5,234.504c-1.344,0-2.387-0.373-3.128-1.118c-0.742-0.746-1.113-1.805-1.113-3.177c0-1.353,0.359-2.428,1.079-3.229
			c0.72-0.8,1.66-1.199,2.822-1.199c0.523,0,0.986,0.074,1.389,0.223s0.754,0.381,1.057,0.698c0.302,0.317,0.533,0.705,0.693,1.163
			c0.161,0.458,0.242,1.019,0.242,1.683v0.758H455.7c0,0.966,0.246,1.704,0.739,2.214c0.493,0.511,1.175,0.766,2.045,0.766
			c0.313,0,0.617-0.034,0.917-0.104c0.299-0.069,0.569-0.159,0.812-0.268c0.256-0.114,0.473-0.225,0.648-0.331
			c0.177-0.106,0.322-0.207,0.438-0.301h0.083v1.523c-0.166,0.064-0.372,0.145-0.618,0.241c-0.247,0.097-0.468,0.172-0.664,0.227
			c-0.277,0.074-0.527,0.131-0.751,0.171C459.125,234.483,458.842,234.504,458.5,234.504z M460.16,229.235
			c-0.011-0.376-0.056-0.7-0.136-0.973c-0.081-0.272-0.196-0.503-0.348-0.691c-0.166-0.208-0.379-0.366-0.638-0.476
			c-0.259-0.108-0.58-0.163-0.962-0.163c-0.377,0-0.698,0.056-0.962,0.167c-0.265,0.111-0.505,0.273-0.721,0.486
			c-0.212,0.219-0.373,0.46-0.483,0.725c-0.11,0.266-0.181,0.573-0.211,0.925H460.16z M460.522,221.857l-2.061,2.779h-1.124
			l1.351-2.779H460.522z"/>
		<path d="M472.837,234.311v-4.8c0-0.382-0.015-0.734-0.045-1.059s-0.094-0.578-0.188-0.762c-0.102-0.198-0.244-0.345-0.431-0.438
			s-0.438-0.142-0.755-0.142c-0.291,0-0.604,0.089-0.939,0.265c-0.334,0.176-0.68,0.43-1.037,0.761
			c0.005,0.085,0.011,0.185,0.019,0.302c0.008,0.116,0.012,0.254,0.012,0.412v5.461h-1.419v-4.8c0-0.382-0.015-0.734-0.045-1.059
			s-0.094-0.578-0.189-0.762c-0.101-0.198-0.243-0.345-0.43-0.438s-0.438-0.142-0.755-0.142c-0.307,0-0.629,0.095-0.966,0.283
			c-0.337,0.188-0.664,0.428-0.98,0.721v6.196h-1.419v-8.3h1.419v0.922c0.372-0.366,0.74-0.65,1.105-0.851
			c0.364-0.201,0.766-0.301,1.203-0.301c0.498,0,0.939,0.111,1.324,0.334s0.678,0.59,0.88,1.1c0.427-0.471,0.845-0.827,1.252-1.07
			c0.408-0.242,0.851-0.363,1.328-0.363c0.362,0,0.692,0.056,0.989,0.167c0.296,0.111,0.556,0.291,0.776,0.538
			c0.227,0.253,0.401,0.567,0.525,0.944c0.123,0.376,0.185,0.85,0.185,1.419v5.461H472.837z"/>
		<path d="M478.177,234.504c-1.344,0-2.387-0.373-3.128-1.118c-0.742-0.746-1.113-1.805-1.113-3.177
			c0-1.353,0.359-2.428,1.079-3.229c0.72-0.8,1.66-1.199,2.822-1.199c0.523,0,0.986,0.074,1.389,0.223s0.754,0.381,1.057,0.698
			c0.302,0.317,0.533,0.705,0.693,1.163c0.161,0.458,0.242,1.019,0.242,1.683v0.758h-5.841c0,0.966,0.246,1.704,0.739,2.214
			c0.493,0.511,1.175,0.766,2.045,0.766c0.313,0,0.617-0.034,0.917-0.104c0.299-0.069,0.569-0.159,0.812-0.268
			c0.256-0.114,0.473-0.225,0.648-0.331c0.177-0.106,0.322-0.207,0.438-0.301h0.083v1.523c-0.166,0.064-0.372,0.145-0.618,0.241
			c-0.247,0.097-0.468,0.172-0.664,0.227c-0.277,0.074-0.527,0.131-0.751,0.171C478.802,234.483,478.519,234.504,478.177,234.504z
			 M479.837,229.235c-0.011-0.376-0.056-0.7-0.136-0.973c-0.081-0.272-0.196-0.503-0.348-0.691
			c-0.166-0.208-0.379-0.366-0.638-0.476c-0.259-0.108-0.58-0.163-0.962-0.163c-0.377,0-0.698,0.056-0.962,0.167
			c-0.265,0.111-0.505,0.273-0.721,0.486c-0.212,0.219-0.373,0.46-0.483,0.725c-0.11,0.266-0.181,0.573-0.211,0.925H479.837z"/>
		<path d="M489.57,234.311h-1.418v-4.726c0-0.381-0.02-0.736-0.057-1.066c-0.038-0.329-0.109-0.593-0.215-0.791
			c-0.116-0.208-0.277-0.363-0.483-0.465c-0.206-0.101-0.488-0.152-0.845-0.152c-0.353,0-0.716,0.094-1.091,0.279
			s-0.741,0.427-1.098,0.725v6.196h-1.419v-8.3h1.419v0.922c0.422-0.372,0.84-0.656,1.252-0.854
			c0.413-0.198,0.848-0.297,1.306-0.297c0.83,0,1.479,0.269,1.947,0.806s0.701,1.316,0.701,2.337V234.311z"/>
		<path d="M493.929,234.474c-0.775,0-1.379-0.216-1.812-0.649s-0.648-1.118-0.648-2.055v-4.6h-0.959v-1.159h0.959v-2.385h1.418
			v2.385h2.611v1.159h-2.611v3.945c0,0.422,0.008,0.746,0.023,0.974c0.015,0.228,0.072,0.441,0.173,0.639
			c0.086,0.174,0.224,0.304,0.415,0.391s0.45,0.13,0.777,0.13c0.231,0,0.455-0.033,0.672-0.101c0.216-0.066,0.372-0.122,0.468-0.167
			h0.083v1.256c-0.267,0.074-0.537,0.133-0.812,0.175S494.16,234.474,493.929,234.474z"/>
		<path d="M501.704,233.427c-0.116,0.084-0.271,0.201-0.464,0.353c-0.194,0.151-0.382,0.271-0.563,0.36
			c-0.252,0.129-0.494,0.228-0.729,0.297c-0.233,0.069-0.563,0.104-0.984,0.104c-0.348,0-0.677-0.064-0.989-0.193
			c-0.312-0.129-0.586-0.31-0.822-0.542c-0.227-0.229-0.407-0.51-0.543-0.844s-0.204-0.688-0.204-1.059
			c0-0.574,0.123-1.063,0.37-1.468c0.246-0.403,0.636-0.725,1.17-0.962c0.473-0.213,1.031-0.36,1.675-0.442
			c0.644-0.081,1.338-0.143,2.083-0.182v-0.268c0-0.327-0.051-0.591-0.151-0.791c-0.101-0.201-0.241-0.355-0.423-0.465
			c-0.181-0.114-0.402-0.189-0.664-0.227c-0.261-0.037-0.53-0.056-0.807-0.056c-0.327,0-0.712,0.048-1.155,0.145
			c-0.442,0.097-0.885,0.237-1.328,0.42h-0.083v-1.419c0.262-0.074,0.637-0.156,1.125-0.245c0.487-0.089,0.971-0.134,1.448-0.134
			c0.579,0,1.066,0.045,1.464,0.134s0.755,0.25,1.072,0.482c0.307,0.229,0.535,0.523,0.687,0.885
			c0.15,0.361,0.227,0.803,0.227,1.322v5.677h-1.411V233.427z M501.704,232.268v-2.304c-0.337,0.03-0.764,0.07-1.279,0.123
			c-0.516,0.052-0.932,0.125-1.249,0.219c-0.377,0.114-0.689,0.289-0.936,0.523c-0.247,0.235-0.37,0.564-0.37,0.985
			c0,0.476,0.136,0.834,0.408,1.077c0.271,0.242,0.669,0.364,1.191,0.364c0.448,0,0.854-0.096,1.216-0.286
			C501.047,232.778,501.387,232.545,501.704,232.268z"/>
		<path d="M507.967,234.474c-0.775,0-1.379-0.216-1.812-0.649s-0.648-1.118-0.648-2.055v-4.6h-0.959v-1.159h0.959v-2.385h1.418
			v2.385h2.611v1.159h-2.611v3.945c0,0.422,0.008,0.746,0.023,0.974c0.015,0.228,0.072,0.441,0.173,0.639
			c0.086,0.174,0.224,0.304,0.415,0.391s0.45,0.13,0.777,0.13c0.231,0,0.455-0.033,0.672-0.101c0.216-0.066,0.372-0.122,0.468-0.167
			h0.083v1.256c-0.267,0.074-0.537,0.133-0.812,0.175S508.198,234.474,507.967,234.474z"/>
		<path d="M512.58,224.622h-1.615v-1.449h1.615V224.622z M512.482,234.311h-1.419v-8.3h1.419V234.311z"/>
		<path d="M520.789,230.165c0,1.396-0.342,2.475-1.026,3.235c-0.684,0.761-1.595,1.141-2.731,1.141
			c-1.172,0-2.094-0.393-2.766-1.178s-1.008-1.852-1.008-3.198c0-1.388,0.347-2.465,1.038-3.232s1.604-1.151,2.735-1.151
			c1.137,0,2.048,0.382,2.731,1.147C520.447,227.694,520.789,228.772,520.789,230.165z M519.325,230.165
			c0-1.075-0.198-1.874-0.596-2.396s-0.964-0.784-1.698-0.784c-0.739,0-1.31,0.262-1.709,0.784c-0.4,0.522-0.6,1.321-0.6,2.396
			c0,1.04,0.199,1.828,0.6,2.366c0.399,0.537,0.97,0.806,1.709,0.806c0.729,0,1.294-0.264,1.694-0.791
			C519.125,232.019,519.325,231.225,519.325,230.165z"/>
		<path d="M528.901,234.311h-1.418v-4.726c0-0.381-0.02-0.736-0.057-1.066c-0.038-0.329-0.109-0.593-0.215-0.791
			c-0.116-0.208-0.277-0.363-0.483-0.465c-0.206-0.101-0.488-0.152-0.845-0.152c-0.353,0-0.716,0.094-1.091,0.279
			s-0.741,0.427-1.098,0.725v6.196h-1.419v-8.3h1.419v0.922c0.422-0.372,0.84-0.656,1.252-0.854
			c0.413-0.198,0.848-0.297,1.306-0.297c0.83,0,1.479,0.269,1.947,0.806s0.701,1.316,0.701,2.337V234.311z"/>
		<path d="M534.784,230.061c0,1.53-0.249,2.875-0.747,4.034s-1.188,2.252-2.068,3.277h-1.728v-0.074
			c0.387-0.342,0.777-0.762,1.17-1.26c0.392-0.498,0.734-1.047,1.025-1.646c0.313-0.64,0.56-1.314,0.744-2.025
			c0.184-0.71,0.275-1.479,0.275-2.307c0-0.817-0.094-1.59-0.279-2.318c-0.187-0.728-0.433-1.399-0.74-2.014
			c-0.307-0.614-0.653-1.166-1.041-1.656c-0.388-0.491-0.772-0.907-1.154-1.249v-0.074h1.728c0.876,1.025,1.563,2.115,2.064,3.27
			C534.533,227.173,534.784,228.521,534.784,230.061z"/>
	</g>
	
		<polygon fill-rule="evenodd" clip-rule="evenodd" fill="#FFFFB9" stroke="#800000" stroke-width="0.7559" stroke-linecap="square" stroke-miterlimit="10" points="
		12.62,224.62 209.313,224.62 223.363,238.456 223.363,253.672 12.62,253.672 12.62,224.62 	"/>
	
		<polygon fill-rule="evenodd" clip-rule="evenodd" fill="#FFFFB9" stroke="#800000" stroke-width="0.7559" stroke-linecap="square" stroke-miterlimit="10" points="
		209.313,224.62 209.313,238.456 223.363,238.456 	"/>
	<g>
		<path d="M25.135,238.563H25.06c-0.105-0.029-0.217-0.048-0.335-0.056c-0.119-0.007-0.261-0.011-0.427-0.011
			c-0.382,0-0.762,0.082-1.139,0.245s-0.735,0.406-1.072,0.729v5.892h-1.418v-8.3h1.418v1.233c0.518-0.45,0.97-0.769,1.354-0.954
			c0.385-0.186,0.759-0.279,1.121-0.279c0.146,0,0.255,0.004,0.329,0.012c0.073,0.007,0.154,0.019,0.245,0.033V238.563z"/>
		<path d="M29.943,245.556c-1.343,0-2.386-0.373-3.128-1.118c-0.742-0.746-1.113-1.805-1.113-3.177c0-1.353,0.359-2.428,1.079-3.229
			c0.719-0.8,1.66-1.199,2.822-1.199c0.523,0,0.986,0.074,1.388,0.223c0.403,0.148,0.755,0.381,1.057,0.698s0.533,0.705,0.694,1.163
			s0.241,1.019,0.241,1.683v0.758h-5.84c0,0.966,0.246,1.704,0.739,2.214c0.493,0.511,1.175,0.766,2.045,0.766
			c0.312,0,0.618-0.034,0.917-0.104s0.57-0.159,0.811-0.268c0.257-0.114,0.473-0.225,0.649-0.331
			c0.176-0.106,0.322-0.207,0.438-0.301h0.083v1.523c-0.166,0.064-0.373,0.145-0.619,0.241c-0.247,0.097-0.468,0.172-0.664,0.227
			c-0.277,0.074-0.527,0.131-0.751,0.171C30.568,245.535,30.285,245.556,29.943,245.556z M31.603,240.287
			c-0.01-0.376-0.055-0.7-0.136-0.973s-0.196-0.503-0.347-0.691c-0.166-0.208-0.378-0.366-0.638-0.476
			c-0.259-0.108-0.58-0.163-0.962-0.163c-0.377,0-0.698,0.056-0.962,0.167s-0.504,0.273-0.721,0.486
			c-0.211,0.219-0.372,0.46-0.483,0.725c-0.11,0.266-0.181,0.573-0.211,0.925H31.603z"/>
		<path d="M37.262,245.525c-0.774,0-1.378-0.216-1.811-0.649s-0.649-1.118-0.649-2.055v-4.6h-0.958v-1.159h0.958v-2.385h1.419v2.385
			h2.611v1.159h-2.611v3.945c0,0.422,0.007,0.746,0.022,0.974s0.073,0.441,0.174,0.639c0.085,0.174,0.224,0.304,0.415,0.391
			c0.191,0.087,0.45,0.13,0.777,0.13c0.231,0,0.456-0.033,0.672-0.101c0.216-0.066,0.372-0.122,0.468-0.167h0.083v1.256
			c-0.267,0.074-0.537,0.133-0.811,0.175C37.747,245.505,37.494,245.525,37.262,245.525z"/>
		<path d="M46.894,245.362h-1.418v-0.921c-0.438,0.376-0.853,0.662-1.245,0.857c-0.393,0.196-0.83,0.294-1.313,0.294
			c-0.367,0-0.713-0.06-1.038-0.179c-0.325-0.118-0.607-0.307-0.849-0.564c-0.241-0.258-0.429-0.582-0.562-0.974
			c-0.133-0.391-0.2-0.866-0.2-1.426v-5.388h1.419v4.726c0,0.441,0.016,0.807,0.049,1.097c0.033,0.289,0.107,0.543,0.223,0.761
			c0.116,0.214,0.273,0.369,0.472,0.469c0.199,0.099,0.484,0.148,0.856,0.148c0.347,0,0.717-0.097,1.109-0.29
			c0.392-0.193,0.752-0.431,1.079-0.713v-6.197h1.418V245.362z"/>
		<path d="M53.229,238.563h-0.076c-0.105-0.029-0.217-0.048-0.335-0.056c-0.119-0.007-0.261-0.011-0.427-0.011
			c-0.382,0-0.762,0.082-1.139,0.245s-0.735,0.406-1.072,0.729v5.892h-1.418v-8.3h1.418v1.233c0.518-0.45,0.97-0.769,1.354-0.954
			c0.385-0.186,0.759-0.279,1.121-0.279c0.146,0,0.255,0.004,0.329,0.012c0.073,0.007,0.154,0.019,0.245,0.033V238.563z"/>
		<path d="M61.002,245.362h-1.419v-4.726c0-0.381-0.019-0.736-0.056-1.066c-0.038-0.329-0.11-0.593-0.215-0.791
			c-0.116-0.208-0.277-0.363-0.483-0.465c-0.207-0.101-0.488-0.152-0.845-0.152c-0.352,0-0.716,0.094-1.09,0.279
			c-0.375,0.186-0.741,0.427-1.098,0.725v6.196h-1.418v-8.3h1.418v0.922c0.423-0.372,0.84-0.656,1.253-0.854
			c0.412-0.198,0.848-0.297,1.305-0.297c0.83,0,1.479,0.269,1.947,0.806c0.468,0.537,0.702,1.316,0.702,2.337V245.362z"/>
		<path d="M71.503,238.563h-0.076c-0.105-0.029-0.217-0.048-0.335-0.056c-0.119-0.007-0.261-0.011-0.427-0.011
			c-0.382,0-0.762,0.082-1.139,0.245s-0.735,0.406-1.072,0.729v5.892h-1.418v-8.3h1.418v1.233c0.518-0.45,0.97-0.769,1.354-0.954
			c0.385-0.186,0.759-0.279,1.121-0.279c0.146,0,0.255,0.004,0.329,0.012c0.073,0.007,0.154,0.019,0.245,0.033V238.563z"/>
		<path d="M76.311,245.556c-1.343,0-2.386-0.373-3.128-1.118c-0.742-0.746-1.113-1.805-1.113-3.177c0-1.353,0.359-2.428,1.079-3.229
			c0.719-0.8,1.66-1.199,2.822-1.199c0.523,0,0.986,0.074,1.388,0.223c0.403,0.148,0.755,0.381,1.057,0.698s0.533,0.705,0.694,1.163
			s0.241,1.019,0.241,1.683v0.758h-5.84c0,0.966,0.246,1.704,0.739,2.214c0.493,0.511,1.175,0.766,2.045,0.766
			c0.312,0,0.618-0.034,0.917-0.104s0.57-0.159,0.811-0.268c0.257-0.114,0.473-0.225,0.649-0.331
			c0.176-0.106,0.322-0.207,0.438-0.301h0.083v1.523c-0.166,0.064-0.373,0.145-0.619,0.241c-0.247,0.097-0.468,0.172-0.664,0.227
			c-0.277,0.074-0.527,0.131-0.751,0.171C76.936,245.535,76.653,245.556,76.311,245.556z M77.971,240.287
			c-0.01-0.376-0.055-0.7-0.136-0.973s-0.196-0.503-0.347-0.691c-0.166-0.208-0.378-0.366-0.638-0.476
			c-0.259-0.108-0.58-0.163-0.962-0.163c-0.377,0-0.698,0.056-0.962,0.167s-0.504,0.273-0.721,0.486
			c-0.211,0.219-0.372,0.46-0.483,0.725c-0.11,0.266-0.181,0.573-0.211,0.925H77.971z"/>
		<path d="M87.569,248.424H86.15v-3.968c-0.413,0.371-0.815,0.643-1.207,0.813c-0.393,0.171-0.828,0.256-1.306,0.256
			c-0.956,0-1.718-0.377-2.287-1.133c-0.568-0.755-0.853-1.807-0.853-3.154c0-0.713,0.099-1.343,0.298-1.891
			c0.199-0.547,0.461-1.007,0.789-1.378c0.312-0.362,0.684-0.642,1.117-0.84c0.433-0.198,0.883-0.297,1.351-0.297
			c0.433,0,0.808,0.049,1.125,0.148c0.317,0.099,0.641,0.245,0.973,0.438l0.091-0.357h1.328V248.424z M86.15,243.282v-4.726
			c-0.357-0.174-0.677-0.295-0.958-0.364c-0.282-0.069-0.584-0.104-0.906-0.104c-0.745,0-1.318,0.266-1.721,0.795
			c-0.402,0.53-0.604,1.293-0.604,2.289c0,0.971,0.161,1.718,0.483,2.24s0.823,0.783,1.502,0.783c0.397,0,0.785-0.084,1.162-0.252
			C85.486,243.774,85.833,243.555,86.15,243.282z"/>
		<path d="M96.079,245.362H94.66v-0.921c-0.438,0.376-0.853,0.662-1.245,0.857c-0.393,0.196-0.83,0.294-1.313,0.294
			c-0.367,0-0.713-0.06-1.038-0.179c-0.325-0.118-0.607-0.307-0.849-0.564c-0.241-0.258-0.429-0.582-0.562-0.974
			c-0.133-0.391-0.2-0.866-0.2-1.426v-5.388h1.419v4.726c0,0.441,0.016,0.807,0.049,1.097c0.033,0.289,0.107,0.543,0.223,0.761
			c0.116,0.214,0.273,0.369,0.472,0.469c0.199,0.099,0.484,0.148,0.856,0.148c0.347,0,0.717-0.097,1.109-0.29
			c0.392-0.193,0.752-0.431,1.079-0.713v-6.197h1.418V245.362z"/>
		<path d="M101.606,245.556c-1.343,0-2.386-0.373-3.128-1.118c-0.742-0.746-1.113-1.805-1.113-3.177
			c0-1.353,0.359-2.428,1.079-3.229c0.719-0.8,1.66-1.199,2.822-1.199c0.523,0,0.986,0.074,1.388,0.223
			c0.403,0.148,0.755,0.381,1.057,0.698s0.533,0.705,0.694,1.163s0.241,1.019,0.241,1.683v0.758h-5.84
			c0,0.966,0.246,1.704,0.739,2.214c0.493,0.511,1.175,0.766,2.045,0.766c0.312,0,0.618-0.034,0.917-0.104s0.57-0.159,0.811-0.268
			c0.257-0.114,0.473-0.225,0.649-0.331c0.176-0.106,0.322-0.207,0.438-0.301h0.083v1.523c-0.166,0.064-0.373,0.145-0.619,0.241
			c-0.247,0.097-0.468,0.172-0.664,0.227c-0.277,0.074-0.527,0.131-0.751,0.171C102.231,245.535,101.948,245.556,101.606,245.556z
			 M103.266,240.287c-0.01-0.376-0.055-0.7-0.136-0.973s-0.196-0.503-0.347-0.691c-0.166-0.208-0.378-0.366-0.638-0.476
			c-0.259-0.108-0.58-0.163-0.962-0.163c-0.377,0-0.698,0.056-0.962,0.167s-0.504,0.273-0.721,0.486
			c-0.211,0.219-0.372,0.46-0.483,0.725c-0.11,0.266-0.181,0.573-0.211,0.925H103.266z"/>
		<path d="M108.925,245.525c-0.774,0-1.378-0.216-1.811-0.649s-0.649-1.118-0.649-2.055v-4.6h-0.958v-1.159h0.958v-2.385h1.419
			v2.385h2.611v1.159h-2.611v3.945c0,0.422,0.007,0.746,0.022,0.974s0.073,0.441,0.174,0.639c0.085,0.174,0.224,0.304,0.415,0.391
			c0.191,0.087,0.45,0.13,0.777,0.13c0.231,0,0.456-0.033,0.672-0.101c0.216-0.066,0.372-0.122,0.468-0.167h0.083v1.256
			c-0.267,0.074-0.537,0.133-0.811,0.175C109.409,245.505,109.156,245.525,108.925,245.525z"/>
		<path d="M115.651,245.556c-1.343,0-2.386-0.373-3.128-1.118c-0.742-0.746-1.113-1.805-1.113-3.177
			c0-1.353,0.359-2.428,1.079-3.229c0.719-0.8,1.66-1.199,2.822-1.199c0.523,0,0.986,0.074,1.388,0.223
			c0.403,0.148,0.755,0.381,1.057,0.698s0.533,0.705,0.694,1.163s0.241,1.019,0.241,1.683v0.758h-5.84
			c0,0.966,0.246,1.704,0.739,2.214c0.493,0.511,1.175,0.766,2.045,0.766c0.312,0,0.618-0.034,0.917-0.104s0.57-0.159,0.811-0.268
			c0.257-0.114,0.473-0.225,0.649-0.331c0.176-0.106,0.322-0.207,0.438-0.301h0.083v1.523c-0.166,0.064-0.373,0.145-0.619,0.241
			c-0.247,0.097-0.468,0.172-0.664,0.227c-0.277,0.074-0.527,0.131-0.751,0.171C116.276,245.535,115.994,245.556,115.651,245.556z
			 M117.312,240.287c-0.01-0.376-0.055-0.7-0.136-0.973s-0.196-0.503-0.347-0.691c-0.166-0.208-0.378-0.366-0.638-0.476
			c-0.259-0.108-0.58-0.163-0.962-0.163c-0.377,0-0.698,0.056-0.962,0.167s-0.504,0.273-0.721,0.486
			c-0.211,0.219-0.372,0.46-0.483,0.725c-0.11,0.266-0.181,0.573-0.211,0.925H117.312z"/>
		<path d="M123.665,245.563c-0.815,0-1.508-0.083-2.079-0.248c-0.571-0.166-1.108-0.371-1.611-0.613v-1.843h0.105
			c0.493,0.456,1.052,0.809,1.675,1.059c0.624,0.25,1.225,0.375,1.804,0.375c0.825,0,1.449-0.169,1.872-0.509
			c0.422-0.339,0.634-0.786,0.634-1.341c0-0.44-0.111-0.8-0.332-1.077c-0.222-0.277-0.574-0.483-1.057-0.617
			c-0.347-0.099-0.664-0.181-0.951-0.245s-0.646-0.151-1.079-0.26c-0.388-0.1-0.734-0.226-1.042-0.379
			c-0.307-0.153-0.579-0.354-0.815-0.602c-0.231-0.243-0.411-0.529-0.54-0.858c-0.128-0.33-0.192-0.71-0.192-1.141
			c0-0.896,0.354-1.648,1.064-2.255c0.709-0.607,1.615-0.91,2.717-0.91c0.629,0,1.224,0.062,1.785,0.186
			c0.561,0.124,1.08,0.3,1.558,0.527v1.761h-0.113c-0.357-0.321-0.815-0.603-1.373-0.843c-0.559-0.24-1.145-0.36-1.758-0.36
			c-0.694,0-1.255,0.159-1.683,0.479c-0.428,0.32-0.641,0.739-0.641,1.26c0,0.471,0.125,0.845,0.377,1.122s0.616,0.48,1.094,0.609
			c0.317,0.084,0.705,0.18,1.162,0.286c0.458,0.106,0.838,0.204,1.14,0.293c0.774,0.233,1.341,0.585,1.698,1.056
			c0.357,0.471,0.536,1.05,0.536,1.738c0,0.431-0.089,0.857-0.268,1.278c-0.179,0.421-0.429,0.777-0.751,1.069
			c-0.362,0.322-0.771,0.57-1.226,0.743C124.919,245.477,124.349,245.563,123.665,245.563z"/>
		<path d="M135.931,240.993c0,1.382-0.336,2.483-1.007,3.303c-0.672,0.82-1.521,1.229-2.547,1.229c-0.418,0-0.788-0.047-1.109-0.141
			c-0.322-0.094-0.652-0.24-0.989-0.438v3.478h-1.418v-11.361h1.418v0.87c0.352-0.313,0.744-0.573,1.173-0.784
			c0.43-0.211,0.899-0.315,1.408-0.315c0.966,0,1.719,0.376,2.26,1.129C135.661,238.715,135.931,239.726,135.931,240.993z
			 M134.467,241.149c0-0.946-0.154-1.681-0.46-2.203c-0.307-0.522-0.805-0.784-1.494-0.784c-0.403,0-0.791,0.089-1.166,0.265
			s-0.731,0.402-1.068,0.68v4.703c0.373,0.178,0.69,0.3,0.955,0.364s0.567,0.097,0.91,0.097c0.734,0,1.305-0.266,1.713-0.796
			C134.263,242.945,134.467,242.17,134.467,241.149z"/>
		<path d="M140.954,245.556c-1.343,0-2.386-0.373-3.128-1.118c-0.742-0.746-1.113-1.805-1.113-3.177
			c0-1.353,0.359-2.428,1.079-3.229c0.719-0.8,1.66-1.199,2.822-1.199c0.523,0,0.986,0.074,1.388,0.223
			c0.403,0.148,0.755,0.381,1.057,0.698s0.533,0.705,0.694,1.163s0.241,1.019,0.241,1.683v0.758h-5.84
			c0,0.966,0.246,1.704,0.739,2.214c0.493,0.511,1.175,0.766,2.045,0.766c0.312,0,0.618-0.034,0.917-0.104s0.57-0.159,0.811-0.268
			c0.257-0.114,0.473-0.225,0.649-0.331c0.176-0.106,0.322-0.207,0.438-0.301h0.083v1.523c-0.166,0.064-0.373,0.145-0.619,0.241
			c-0.247,0.097-0.468,0.172-0.664,0.227c-0.277,0.074-0.527,0.131-0.751,0.171C141.579,245.535,141.296,245.556,140.954,245.556z
			 M142.614,240.287c-0.01-0.376-0.055-0.7-0.136-0.973s-0.196-0.503-0.347-0.691c-0.166-0.208-0.378-0.366-0.638-0.476
			c-0.259-0.108-0.58-0.163-0.962-0.163c-0.377,0-0.698,0.056-0.962,0.167s-0.504,0.273-0.721,0.486
			c-0.211,0.219-0.372,0.46-0.483,0.725c-0.11,0.266-0.181,0.573-0.211,0.925H142.614z"/>
		<path d="M149.074,245.548c-0.579,0-1.109-0.088-1.592-0.264s-0.898-0.442-1.245-0.799s-0.616-0.806-0.808-1.349
			c-0.191-0.542-0.287-1.18-0.287-1.913c0-0.729,0.099-1.357,0.298-1.887c0.199-0.53,0.464-0.977,0.796-1.338
			s0.746-0.64,1.241-0.836c0.496-0.195,1.027-0.293,1.596-0.293c0.462,0,0.909,0.064,1.339,0.192
			c0.43,0.129,0.813,0.278,1.151,0.446v1.567h-0.083c-0.101-0.084-0.23-0.181-0.389-0.289c-0.159-0.109-0.351-0.221-0.578-0.335
			c-0.196-0.099-0.427-0.186-0.694-0.26c-0.267-0.074-0.523-0.111-0.77-0.111c-0.734,0-1.324,0.273-1.77,0.82
			c-0.445,0.548-0.668,1.322-0.668,2.322c0,0.98,0.215,1.745,0.646,2.292c0.43,0.548,1.027,0.821,1.792,0.821
			c0.463,0,0.903-0.094,1.321-0.282s0.787-0.431,1.109-0.729h0.083v1.568c-0.141,0.064-0.317,0.143-0.528,0.233
			c-0.211,0.092-0.403,0.16-0.574,0.205c-0.241,0.069-0.458,0.122-0.649,0.159C149.622,245.529,149.375,245.548,149.074,245.548z"/>
		<path d="M154.308,235.674h-1.615v-1.449h1.615V235.674z M154.21,245.362h-1.418v-8.3h1.418V245.362z"/>
		<path d="M160.019,235.139h-0.075c-0.126-0.045-0.307-0.088-0.543-0.13c-0.237-0.042-0.448-0.063-0.634-0.063
			c-0.599,0-1.025,0.133-1.279,0.397s-0.381,0.744-0.381,1.438v0.282h2.347v1.159h-2.302v7.141h-1.418v-7.141h-0.958v-1.159h0.958
			v-0.274c0-1.001,0.244-1.761,0.732-2.281c0.488-0.52,1.187-0.78,2.098-0.78c0.262,0,0.518,0.014,0.77,0.041
			c0.251,0.027,0.48,0.059,0.687,0.093V235.139z"/>
		<path d="M162.745,235.674h-1.615v-1.449h1.615V235.674z M162.646,245.362h-1.418v-8.3h1.418V245.362z"/>
		<path d="M170.508,248.424h-1.419v-3.968c-0.413,0.371-0.815,0.643-1.207,0.813c-0.393,0.171-0.828,0.256-1.306,0.256
			c-0.956,0-1.718-0.377-2.287-1.133c-0.568-0.755-0.853-1.807-0.853-3.154c0-0.713,0.099-1.343,0.298-1.891
			c0.199-0.547,0.461-1.007,0.789-1.378c0.312-0.362,0.684-0.642,1.117-0.84c0.433-0.198,0.883-0.297,1.351-0.297
			c0.433,0,0.808,0.049,1.125,0.148c0.317,0.099,0.641,0.245,0.973,0.438l0.091-0.357h1.328V248.424z M169.089,243.282v-4.726
			c-0.357-0.174-0.677-0.295-0.958-0.364c-0.282-0.069-0.584-0.104-0.906-0.104c-0.745,0-1.318,0.266-1.721,0.795
			c-0.402,0.53-0.604,1.293-0.604,2.289c0,0.971,0.161,1.718,0.483,2.24s0.823,0.783,1.502,0.783c0.397,0,0.785-0.084,1.162-0.252
			C168.425,243.774,168.772,243.555,169.089,243.282z"/>
		<path d="M179.018,245.362h-1.418v-0.921c-0.438,0.376-0.853,0.662-1.245,0.857c-0.393,0.196-0.83,0.294-1.313,0.294
			c-0.367,0-0.713-0.06-1.038-0.179c-0.325-0.118-0.607-0.307-0.849-0.564c-0.241-0.258-0.429-0.582-0.562-0.974
			c-0.133-0.391-0.2-0.866-0.2-1.426v-5.388h1.419v4.726c0,0.441,0.016,0.807,0.049,1.097c0.033,0.289,0.107,0.543,0.223,0.761
			c0.116,0.214,0.273,0.369,0.472,0.469c0.199,0.099,0.484,0.148,0.856,0.148c0.347,0,0.717-0.097,1.109-0.29
			c0.392-0.193,0.752-0.431,1.079-0.713v-6.197h1.418V245.362z"/>
		<path d="M184.544,245.556c-1.343,0-2.386-0.373-3.128-1.118c-0.742-0.746-1.113-1.805-1.113-3.177
			c0-1.353,0.359-2.428,1.079-3.229c0.719-0.8,1.66-1.199,2.822-1.199c0.523,0,0.986,0.074,1.388,0.223
			c0.403,0.148,0.755,0.381,1.057,0.698s0.533,0.705,0.694,1.163s0.241,1.019,0.241,1.683v0.758h-5.84
			c0,0.966,0.246,1.704,0.739,2.214c0.493,0.511,1.175,0.766,2.045,0.766c0.312,0,0.618-0.034,0.917-0.104s0.57-0.159,0.811-0.268
			c0.257-0.114,0.473-0.225,0.649-0.331c0.176-0.106,0.322-0.207,0.438-0.301h0.083v1.523c-0.166,0.064-0.373,0.145-0.619,0.241
			c-0.247,0.097-0.468,0.172-0.664,0.227c-0.277,0.074-0.527,0.131-0.751,0.171C185.169,245.535,184.887,245.556,184.544,245.556z
			 M186.205,240.287c-0.01-0.376-0.055-0.7-0.136-0.973s-0.196-0.503-0.347-0.691c-0.166-0.208-0.378-0.366-0.638-0.476
			c-0.259-0.108-0.58-0.163-0.962-0.163c-0.377,0-0.698,0.056-0.962,0.167s-0.504,0.273-0.721,0.486
			c-0.211,0.219-0.372,0.46-0.483,0.725c-0.11,0.266-0.181,0.573-0.211,0.925H186.205z"/>
		<path d="M193.645,248.424h-1.728c-0.875-1.025-1.563-2.11-2.064-3.255s-0.751-2.496-0.751-4.057c0-1.525,0.248-2.869,0.743-4.031
			c0.496-1.161,1.186-2.255,2.072-3.28h1.728v0.074c-0.408,0.362-0.796,0.779-1.166,1.252c-0.37,0.474-0.713,1.024-1.03,1.653
			c-0.302,0.609-0.547,1.281-0.735,2.014c-0.189,0.733-0.283,1.506-0.283,2.318c0,0.847,0.092,1.622,0.275,2.325
			c0.184,0.704,0.432,1.372,0.743,2.007c0.302,0.609,0.646,1.16,1.034,1.653c0.387,0.492,0.774,0.91,1.162,1.252V248.424z"/>
		<path d="M199.01,241.112c0,1.53-0.249,2.875-0.747,4.034s-1.187,2.252-2.067,3.277h-1.728v-0.074
			c0.387-0.342,0.777-0.762,1.169-1.26s0.734-1.047,1.026-1.646c0.312-0.64,0.56-1.314,0.743-2.025
			c0.184-0.71,0.275-1.479,0.275-2.307c0-0.817-0.093-1.59-0.279-2.318c-0.186-0.728-0.433-1.399-0.739-2.014
			c-0.307-0.614-0.654-1.166-1.042-1.656c-0.387-0.491-0.772-0.907-1.154-1.249v-0.074h1.728c0.875,1.025,1.563,2.115,2.064,3.27
			C198.76,238.225,199.01,239.572,199.01,241.112z"/>
		<path d="M203.667,243.245l-2.113,4.866h-1.102l1.328-4.866H203.667z M203.169,239.181h-1.804v-2.118h1.804V239.181z"/>
	</g>
	
		<line fill="none" stroke="#800000" stroke-width="0.7559" stroke-linecap="square" stroke-miterlimit="10" stroke-dasharray="0.7677,1.5354" x1="240.223" y1="241.223" x2="224.769" y2="241.223"/>
</g>
</svg>
