<?xml version="1.0" encoding="UTF-8" standalone="no"?><svg xmlns="http://www.w3.org/2000/svg" xmlns:xlink="http://www.w3.org/1999/xlink" contentScriptType="application/ecmascript" contentStyleType="text/css" height="1105px" preserveAspectRatio="none" style="width:1358px;height:1105px;" version="1.1" viewBox="0 0 1358 1105" width="1358px" zoomAndPan="magnify"><defs><filter height="300%" id="fs9h4st" width="300%" x="-1" y="-1"><feGaussianBlur result="blurOut" stdDeviation="2.0"/><feColorMatrix in="blurOut" result="blurOut2" type="matrix" values="0 0 0 0 0 0 0 0 0 0 0 0 0 0 0 0 0 0 .4 0"/><feOffset dx="4.0" dy="4.0" in="blurOut2" result="blurOut3"/><feBlend in="SourceGraphic" in2="blurOut3" mode="normal"/></filter></defs><g><!--cluster action--><polygon fill="#FFFFFF" filter="url(#fs9h4st)" points="404,95,454,95,461,117.4883,788,117.4883,788,548,404,548,404,95" style="stroke: #000000; stroke-width: 2.0;"/><line style="stroke: #000000; stroke-width: 2.0;" x1="404" x2="461" y1="117.4883" y2="117.4883"/><text fill="#000000" font-family="sans-serif" font-size="14" font-weight="bold" lengthAdjust="spacingAndGlyphs" textLength="44" x="408" y="110.5352">action</text><!--cluster banque--><polygon fill="#FFFFFF" filter="url(#fs9h4st)" points="898,24,956,24,963,46.4883,1264,46.4883,1264,619,898,619,898,24" style="stroke: #000000; stroke-width: 2.0;"/><line style="stroke: #000000; stroke-width: 2.0;" x1="898" x2="963" y1="46.4883" y2="46.4883"/><text fill="#000000" font-family="sans-serif" font-size="14" font-weight="bold" lengthAdjust="spacingAndGlyphs" textLength="52" x="902" y="39.5352">banque</text><!--cluster application--><polygon fill="#FFFFFF" filter="url(#fs9h4st)" points="181,643,267,643,274,665.4883,1117,665.4883,1117,949,181,949,181,643" style="stroke: #000000; stroke-width: 2.0;"/><line style="stroke: #000000; stroke-width: 2.0;" x1="181" x2="274" y1="665.4883" y2="665.4883"/><text fill="#000000" font-family="sans-serif" font-size="14" font-weight="bold" lengthAdjust="spacingAndGlyphs" textLength="80" x="185" y="658.5352">application</text><!--cluster application.actions--><polygon fill="#FFFFFF" filter="url(#fs9h4st)" points="22,973,163,973,170,995.4883,1351,995.4883,1351,1098,22,1098,22,973" style="stroke: #000000; stroke-width: 2.0;"/><line style="stroke: #000000; stroke-width: 2.0;" x1="22" x2="170" y1="995.4883" y2="995.4883"/><text fill="#000000" font-family="sans-serif" font-size="14" font-weight="bold" lengthAdjust="spacingAndGlyphs" textLength="135" x="26" y="988.5352">application.actions</text><!--class Action--><rect fill="#FEFECE" filter="url(#fs9h4st)" height="86.8652" style="stroke: #A80036; stroke-width: 1.5;" width="205" x="420.5" y="130"/><ellipse cx="501.25" cy="146" fill="#B4A7E5" rx="11" ry="11" style="stroke: #A80036; stroke-width: 1.0;"/><path d="M497.6777,142.2651 L497.6777,140.1069 L505.0571,140.1069 L505.0571,142.2651 L502.5918,142.2651 L502.5918,150.3418 L505.0571,150.3418 L505.0571,152.5 L497.6777,152.5 L497.6777,150.3418 L500.1431,150.3418 L500.1431,142.2651 Z "/><text fill="#000000" font-family="sans-serif" font-size="12" font-style="italic" lengthAdjust="spacingAndGlyphs" textLength="35" x="521.75" y="150.5352">Action</text><line style="stroke: #A80036; stroke-width: 1.5;" x1="421.5" x2="624.5" y1="162" y2="162"/><line style="stroke: #A80036; stroke-width: 1.5;" x1="421.5" x2="624.5" y1="170" y2="170"/><text fill="#000000" font-family="sans-serif" font-size="11" lengthAdjust="spacingAndGlyphs" textLength="90" x="426.5" y="184.6348">String message()</text><text fill="#000000" font-family="sans-serif" font-size="11" lengthAdjust="spacingAndGlyphs" textLength="103" x="426.5" y="197.5898">String stringCode()</text><text fill="#000000" font-family="sans-serif" font-size="11" lengthAdjust="spacingAndGlyphs" textLength="193" x="426.5" y="210.5449">void execute(ActionContext&lt;E&gt; ac)</text><!--class ActionList--><rect fill="#FEFECE" filter="url(#fs9h4st)" height="112.7754" style="stroke: #A80036; stroke-width: 1.5;" width="215" x="420.5" y="419"/><ellipse cx="496.75" cy="435" fill="#B4A7E5" rx="11" ry="11" style="stroke: #A80036; stroke-width: 1.0;"/><path d="M493.1777,431.2651 L493.1777,429.1069 L500.5571,429.1069 L500.5571,431.2651 L498.0918,431.2651 L498.0918,439.3418 L500.5571,439.3418 L500.5571,441.5 L493.1777,441.5 L493.1777,439.3418 L495.6431,439.3418 L495.6431,431.2651 Z "/><text fill="#000000" font-family="sans-serif" font-size="12" font-style="italic" lengthAdjust="spacingAndGlyphs" textLength="54" x="517.25" y="439.5352">ActionList</text><line style="stroke: #A80036; stroke-width: 1.5;" x1="421.5" x2="634.5" y1="451" y2="451"/><line style="stroke: #A80036; stroke-width: 1.5;" x1="421.5" x2="634.5" y1="459" y2="459"/><text fill="#000000" font-family="sans-serif" font-size="11" lengthAdjust="spacingAndGlyphs" textLength="63" x="426.5" y="473.6348">String title()</text><text fill="#000000" font-family="sans-serif" font-size="11" lengthAdjust="spacingAndGlyphs" textLength="183" x="426.5" y="486.5898">boolean addAction(Action&lt;E&gt; ac)</text><text fill="#000000" font-family="sans-serif" font-size="11" lengthAdjust="spacingAndGlyphs" textLength="203" x="426.5" y="499.5449">boolean removeAction(Action&lt;E&gt; ac)</text><text fill="#000000" font-family="sans-serif" font-size="11" lengthAdjust="spacingAndGlyphs" textLength="62" x="426.5" y="512.5">int listSize()</text><text fill="#000000" font-family="sans-serif" font-size="11" lengthAdjust="spacingAndGlyphs" textLength="169" x="426.5" y="525.4551">Action&lt;E&gt; getAction(int index)</text><!--class ActionContext--><rect fill="#FEFECE" filter="url(#fs9h4st)" height="60.9551" style="stroke: #A80036; stroke-width: 1.5;" width="111" x="660.5" y="143"/><ellipse cx="675.5" cy="159" fill="#B4A7E5" rx="11" ry="11" style="stroke: #A80036; stroke-width: 1.0;"/><path d="M671.9277,155.2651 L671.9277,153.1069 L679.3071,153.1069 L679.3071,155.2651 L676.8418,155.2651 L676.8418,163.3418 L679.3071,163.3418 L679.3071,165.5 L671.9277,165.5 L671.9277,163.3418 L674.3931,163.3418 L674.3931,155.2651 Z "/><text fill="#000000" font-family="sans-serif" font-size="12" font-style="italic" lengthAdjust="spacingAndGlyphs" textLength="79" x="689.5" y="163.5352">ActionContext</text><line style="stroke: #A80036; stroke-width: 1.5;" x1="661.5" x2="770.5" y1="175" y2="175"/><line style="stroke: #A80036; stroke-width: 1.5;" x1="661.5" x2="770.5" y1="183" y2="183"/><text fill="#000000" font-family="sans-serif" font-size="11" lengthAdjust="spacingAndGlyphs" textLength="77" x="666.5" y="197.6348">E getContext()</text><!--class AgenceBancaire--><rect fill="#FEFECE" filter="url(#fs9h4st)" height="229.3711" style="stroke: #A80036; stroke-width: 1.5;" width="333" x="914.5" y="59"/><ellipse cx="1031.25" cy="75" fill="#ADD1B2" rx="11" ry="11" style="stroke: #A80036; stroke-width: 1.0;"/><path d="M1033.7231,81.1431 Q1033.1421,81.4419 1032.5029,81.5913 Q1031.8638,81.7407 1031.1582,81.7407 Q1028.6514,81.7407 1027.3315,80.0889 Q1026.0117,78.437 1026.0117,75.3159 Q1026.0117,72.1865 1027.3315,70.5347 Q1028.6514,68.8828 1031.1582,68.8828 Q1031.8638,68.8828 1032.5112,69.0322 Q1033.1587,69.1816 1033.7231,69.4805 L1033.7231,72.2031 Q1033.0923,71.6221 1032.4988,71.3523 Q1031.9053,71.0825 1031.2744,71.0825 Q1029.9297,71.0825 1029.2449,72.1492 Q1028.5601,73.2158 1028.5601,75.3159 Q1028.5601,77.4077 1029.2449,78.4744 Q1029.9297,79.541 1031.2744,79.541 Q1031.9053,79.541 1032.4988,79.2712 Q1033.0923,79.0015 1033.7231,78.4204 Z "/><text fill="#000000" font-family="sans-serif" font-size="12" lengthAdjust="spacingAndGlyphs" textLength="91" x="1051.75" y="79.5352">AgenceBancaire</text><line style="stroke: #A80036; stroke-width: 1.5;" x1="915.5" x2="1246.5" y1="91" y2="91"/><rect fill="none" height="6" style="stroke: #C82930; stroke-width: 1.0;" width="6" x="922.5" y="99.9775"/><text fill="#000000" font-family="sans-serif" font-size="11" lengthAdjust="spacingAndGlyphs" textLength="59" x="934.5" y="105.6348">String nom</text><rect fill="none" height="6" style="stroke: #C82930; stroke-width: 1.0;" width="6" x="922.5" y="112.9326"/><text fill="#000000" font-family="sans-serif" font-size="11" lengthAdjust="spacingAndGlyphs" textLength="51" x="934.5" y="118.5898">String loc</text><rect fill="none" height="6" style="stroke: #C82930; stroke-width: 1.0;" width="6" x="922.5" y="125.8877"/><text fill="#000000" font-family="sans-serif" font-size="11" lengthAdjust="spacingAndGlyphs" textLength="152" x="934.5" y="131.5449">ArrayList&lt;Compte&gt; alCptes</text><line style="stroke: #A80036; stroke-width: 1.5;" x1="915.5" x2="1246.5" y1="137.8652" y2="137.8652"/><ellipse cx="925.5" cy="149.8428" fill="#84BE84" rx="3" ry="3" style="stroke: #038048; stroke-width: 1.0;"/><text fill="#000000" font-family="sans-serif" font-size="11" lengthAdjust="spacingAndGlyphs" textLength="307" x="934.5" y="152.5">AgenceBancaire(String pNomAgence, String pLocAgence)</text><ellipse cx="925.5" cy="162.7979" fill="#84BE84" rx="3" ry="3" style="stroke: #038048; stroke-width: 1.0;"/><text fill="#000000" font-family="sans-serif" font-size="11" lengthAdjust="spacingAndGlyphs" textLength="125" x="934.5" y="165.4551">String getNomAgence()</text><ellipse cx="925.5" cy="175.7529" fill="#84BE84" rx="3" ry="3" style="stroke: #038048; stroke-width: 1.0;"/><text fill="#000000" font-family="sans-serif" font-size="11" lengthAdjust="spacingAndGlyphs" textLength="119" x="934.5" y="178.4102">String getLocAgence()</text><ellipse cx="925.5" cy="188.708" fill="#84BE84" rx="3" ry="3" style="stroke: #038048; stroke-width: 1.0;"/><text fill="#000000" font-family="sans-serif" font-size="11" lengthAdjust="spacingAndGlyphs" textLength="105" x="934.5" y="191.3652">int getNbComptes()</text><ellipse cx="925.5" cy="201.6631" fill="#84BE84" rx="3" ry="3" style="stroke: #038048; stroke-width: 1.0;"/><text fill="#000000" font-family="sans-serif" font-size="11" lengthAdjust="spacingAndGlyphs" textLength="221" x="934.5" y="204.3203">Compte getCompte(String pNumCompte)</text><ellipse cx="925.5" cy="214.6182" fill="#84BE84" rx="3" ry="3" style="stroke: #038048; stroke-width: 1.0;"/><text fill="#000000" font-family="sans-serif" font-size="11" lengthAdjust="spacingAndGlyphs" textLength="270" x="934.5" y="217.2754">Compte[] getComptesDe(String pNomProprietaire)</text><ellipse cx="925.5" cy="227.5732" fill="#84BE84" rx="3" ry="3" style="stroke: #038048; stroke-width: 1.0;"/><text fill="#000000" font-family="sans-serif" font-size="11" lengthAdjust="spacingAndGlyphs" textLength="75" x="934.5" y="230.2305">void afficher()</text><ellipse cx="925.5" cy="240.5283" fill="#84BE84" rx="3" ry="3" style="stroke: #038048; stroke-width: 1.0;"/><text fill="#000000" font-family="sans-serif" font-size="11" lengthAdjust="spacingAndGlyphs" textLength="86" x="934.5" y="243.1855">String toString()</text><ellipse cx="925.5" cy="253.4834" fill="#84BE84" rx="3" ry="3" style="stroke: #038048; stroke-width: 1.0;"/><text fill="#000000" font-family="sans-serif" font-size="11" lengthAdjust="spacingAndGlyphs" textLength="238" x="934.5" y="256.1406">void addCompte(Compte pCompteAAjouter)</text><ellipse cx="925.5" cy="266.4385" fill="#84BE84" rx="3" ry="3" style="stroke: #038048; stroke-width: 1.0;"/><text fill="#000000" font-family="sans-serif" font-size="11" lengthAdjust="spacingAndGlyphs" textLength="225" x="934.5" y="269.0957">void removeCompte(String pNumCompte)</text><rect fill="#F24D5C" height="6" style="stroke: #C82930; stroke-width: 1.0;" width="6" x="922.5" y="276.3936"/><text fill="#000000" font-family="sans-serif" font-size="11" lengthAdjust="spacingAndGlyphs" textLength="188" x="934.5" y="282.0508">Compte trouveCompte(String pNC)</text><!--class Compte--><rect fill="#FEFECE" filter="url(#fs9h4st)" height="255.2813" style="stroke: #A80036; stroke-width: 1.5;" width="283" x="939.5" y="348"/><ellipse cx="1054.25" cy="364" fill="#ADD1B2" rx="11" ry="11" style="stroke: #A80036; stroke-width: 1.0;"/><path d="M1056.7231,370.1431 Q1056.1421,370.4419 1055.5029,370.5913 Q1054.8638,370.7407 1054.1582,370.7407 Q1051.6514,370.7407 1050.3315,369.0889 Q1049.0117,367.437 1049.0117,364.3159 Q1049.0117,361.1865 1050.3315,359.5347 Q1051.6514,357.8828 1054.1582,357.8828 Q1054.8638,357.8828 1055.5112,358.0322 Q1056.1587,358.1816 1056.7231,358.4805 L1056.7231,361.2031 Q1056.0923,360.6221 1055.4988,360.3523 Q1054.9053,360.0825 1054.2744,360.0825 Q1052.9297,360.0825 1052.2449,361.1492 Q1051.5601,362.2158 1051.5601,364.3159 Q1051.5601,366.4077 1052.2449,367.4744 Q1052.9297,368.541 1054.2744,368.541 Q1054.9053,368.541 1055.4988,368.2712 Q1056.0923,368.0015 1056.7231,367.4204 Z "/><text fill="#000000" font-family="sans-serif" font-size="12" lengthAdjust="spacingAndGlyphs" textLength="45" x="1074.75" y="368.5352">Compte</text><line style="stroke: #A80036; stroke-width: 1.5;" x1="940.5" x2="1221.5" y1="380" y2="380"/><rect fill="none" height="6" style="stroke: #C82930; stroke-width: 1.0;" width="6" x="947.5" y="388.9775"/><text fill="#000000" font-family="sans-serif" font-size="11" lengthAdjust="spacingAndGlyphs" textLength="99" x="959.5" y="394.6348">String proprietaire</text><rect fill="none" height="6" style="stroke: #C82930; stroke-width: 1.0;" width="6" x="947.5" y="401.9326"/><text fill="#000000" font-family="sans-serif" font-size="11" lengthAdjust="spacingAndGlyphs" textLength="101" x="959.5" y="407.5898">String numCompte</text><rect fill="none" height="6" style="stroke: #C82930; stroke-width: 1.0;" width="6" x="947.5" y="414.8877"/><text fill="#000000" font-family="sans-serif" font-size="11" lengthAdjust="spacingAndGlyphs" textLength="73" x="959.5" y="420.5449">double debits</text><rect fill="none" height="6" style="stroke: #C82930; stroke-width: 1.0;" width="6" x="947.5" y="427.8428"/><text fill="#000000" font-family="sans-serif" font-size="11" lengthAdjust="spacingAndGlyphs" textLength="77" x="959.5" y="433.5">double credits</text><rect fill="none" height="6" style="stroke: #C82930; stroke-width: 1.0;" width="6" x="947.5" y="440.7979"/><text fill="#000000" font-family="sans-serif" font-size="11" lengthAdjust="spacingAndGlyphs" textLength="65" x="959.5" y="446.4551">int nbDebits</text><rect fill="none" height="6" style="stroke: #C82930; stroke-width: 1.0;" width="6" x="947.5" y="453.7529"/><text fill="#000000" font-family="sans-serif" font-size="11" lengthAdjust="spacingAndGlyphs" textLength="70" x="959.5" y="459.4102">int nbCredits</text><line style="stroke: #A80036; stroke-width: 1.5;" x1="940.5" x2="1221.5" y1="465.7305" y2="465.7305"/><ellipse cx="950.5" cy="477.708" fill="#84BE84" rx="3" ry="3" style="stroke: #038048; stroke-width: 1.0;"/><text fill="#000000" font-family="sans-serif" font-size="11" lengthAdjust="spacingAndGlyphs" textLength="50" x="959.5" y="480.3652">Compte()</text><ellipse cx="950.5" cy="490.6631" fill="#84BE84" rx="3" ry="3" style="stroke: #038048; stroke-width: 1.0;"/><text fill="#000000" font-family="sans-serif" font-size="11" lengthAdjust="spacingAndGlyphs" textLength="257" x="959.5" y="493.3203">Compte(String pNumCompte, String pNomProp)</text><ellipse cx="950.5" cy="503.6182" fill="#84BE84" rx="3" ry="3" style="stroke: #038048; stroke-width: 1.0;"/><text fill="#000000" font-family="sans-serif" font-size="11" lengthAdjust="spacingAndGlyphs" textLength="119" x="959.5" y="506.2754">double soldeCompte()</text><ellipse cx="950.5" cy="516.5732" fill="#84BE84" rx="3" ry="3" style="stroke: #038048; stroke-width: 1.0;"/><text fill="#000000" font-family="sans-serif" font-size="11" lengthAdjust="spacingAndGlyphs" textLength="123" x="959.5" y="519.2305">String getProprietaire()</text><ellipse cx="950.5" cy="529.5283" fill="#84BE84" rx="3" ry="3" style="stroke: #038048; stroke-width: 1.0;"/><text fill="#000000" font-family="sans-serif" font-size="11" lengthAdjust="spacingAndGlyphs" textLength="127" x="959.5" y="532.1855">String getNumCompte()</text><ellipse cx="950.5" cy="542.4834" fill="#84BE84" rx="3" ry="3" style="stroke: #038048; stroke-width: 1.0;"/><text fill="#000000" font-family="sans-serif" font-size="11" lengthAdjust="spacingAndGlyphs" textLength="75" x="959.5" y="545.1406">void afficher()</text><ellipse cx="950.5" cy="555.4385" fill="#84BE84" rx="3" ry="3" style="stroke: #038048; stroke-width: 1.0;"/><text fill="#000000" font-family="sans-serif" font-size="11" lengthAdjust="spacingAndGlyphs" textLength="86" x="959.5" y="558.0957">String toString()</text><ellipse cx="950.5" cy="568.3936" fill="#84BE84" rx="3" ry="3" style="stroke: #038048; stroke-width: 1.0;"/><text fill="#000000" font-family="sans-serif" font-size="11" lengthAdjust="spacingAndGlyphs" textLength="154" x="959.5" y="571.0508">void retirer(double pSomme)</text><ellipse cx="950.5" cy="581.3486" fill="#84BE84" rx="3" ry="3" style="stroke: #038048; stroke-width: 1.0;"/><text fill="#000000" font-family="sans-serif" font-size="11" lengthAdjust="spacingAndGlyphs" textLength="164" x="959.5" y="584.0059">void deposer(double pSomme)</text><ellipse cx="950.5" cy="594.3037" fill="#84BE84" rx="3" ry="3" style="stroke: #038048; stroke-width: 1.0;"/><text fill="#000000" font-family="sans-serif" font-size="11" lengthAdjust="spacingAndGlyphs" textLength="205" x="959.5" y="596.9609">void setProprietaire(String pNomProp)</text><!--class GenericActionAB--><rect fill="#FEFECE" filter="url(#fs9h4st)" height="125.7305" style="stroke: #A80036; stroke-width: 1.5;" width="298" x="540" y="742.5"/><ellipse cx="637.75" cy="758.5" fill="#A9DCDF" rx="11" ry="11" style="stroke: #A80036; stroke-width: 1.0;"/><path d="M637.8633,754.0981 L636.7095,759.1699 L639.0254,759.1699 Z M636.3691,751.8569 L639.3657,751.8569 L642.7109,764.25 L640.2622,764.25 L639.4985,761.187 L636.2197,761.187 L635.4727,764.25 L633.0239,764.25 Z "/><text fill="#000000" font-family="sans-serif" font-size="12" font-style="italic" lengthAdjust="spacingAndGlyphs" textLength="94" x="658.25" y="763.0352">GenericActionAB</text><line style="stroke: #A80036; stroke-width: 1.5;" x1="541" x2="837" y1="774.5" y2="774.5"/><rect fill="none" height="6" style="stroke: #C82930; stroke-width: 1.0;" width="6" x="548" y="783.4775"/><text fill="#000000" font-family="sans-serif" font-size="11" lengthAdjust="spacingAndGlyphs" textLength="100" x="560" y="789.1348">String lineMessage</text><rect fill="none" height="6" style="stroke: #C82930; stroke-width: 1.0;" width="6" x="548" y="796.4326"/><text fill="#000000" font-family="sans-serif" font-size="11" lengthAdjust="spacingAndGlyphs" textLength="61" x="560" y="802.0898">String code</text><line style="stroke: #A80036; stroke-width: 1.5;" x1="541" x2="837" y1="808.4102" y2="808.4102"/><ellipse cx="551" cy="820.3877" fill="#84BE84" rx="3" ry="3" style="stroke: #038048; stroke-width: 1.0;"/><text fill="#000000" font-family="sans-serif" font-size="11" lengthAdjust="spacingAndGlyphs" textLength="190" x="560" y="823.0449">GenericActionAB(String m, String c)</text><ellipse cx="551" cy="833.3428" fill="#84BE84" rx="3" ry="3" style="stroke: #038048; stroke-width: 1.0;"/><text fill="#000000" font-family="sans-serif" font-size="11" lengthAdjust="spacingAndGlyphs" textLength="90" x="560" y="836">String message()</text><ellipse cx="551" cy="846.2979" fill="#84BE84" rx="3" ry="3" style="stroke: #038048; stroke-width: 1.0;"/><text fill="#000000" font-family="sans-serif" font-size="11" lengthAdjust="spacingAndGlyphs" textLength="103" x="560" y="848.9551">String stringCode()</text><ellipse cx="551" cy="859.2529" fill="#84BE84" rx="3" ry="3" style="stroke: #038048; stroke-width: 1.0;"/><text fill="#000000" font-family="sans-serif" font-size="11" lengthAdjust="spacingAndGlyphs" textLength="272" x="560" y="861.9102">void execute(ActionContext&lt;AgenceBancaire&gt; ac)</text><!--class ActionListAB--><rect fill="#FEFECE" filter="url(#fs9h4st)" height="255.2813" style="stroke: #A80036; stroke-width: 1.5;" width="308" x="197" y="678"/><ellipse cx="312.25" cy="694" fill="#ADD1B2" rx="11" ry="11" style="stroke: #A80036; stroke-width: 1.0;"/><path d="M314.7231,700.1431 Q314.1421,700.4419 313.5029,700.5913 Q312.8638,700.7407 312.1582,700.7407 Q309.6514,700.7407 308.3315,699.0889 Q307.0117,697.437 307.0117,694.3159 Q307.0117,691.1865 308.3315,689.5347 Q309.6514,687.8828 312.1582,687.8828 Q312.8638,687.8828 313.5112,688.0322 Q314.1587,688.1816 314.7231,688.4805 L314.7231,691.2031 Q314.0923,690.6221 313.4988,690.3523 Q312.9053,690.0825 312.2744,690.0825 Q310.9297,690.0825 310.2449,691.1492 Q309.5601,692.2158 309.5601,694.3159 Q309.5601,696.4077 310.2449,697.4744 Q310.9297,698.541 312.2744,698.541 Q312.9053,698.541 313.4988,698.2712 Q314.0923,698.0015 314.7231,697.4204 Z "/><text fill="#000000" font-family="sans-serif" font-size="12" lengthAdjust="spacingAndGlyphs" textLength="69" x="332.75" y="698.5352">ActionListAB</text><line style="stroke: #A80036; stroke-width: 1.5;" x1="198" x2="504" y1="710" y2="710"/><rect fill="none" height="6" style="stroke: #C82930; stroke-width: 1.0;" width="6" x="205" y="718.9775"/><text fill="#000000" font-family="sans-serif" font-size="11" lengthAdjust="spacingAndGlyphs" textLength="55" x="217" y="724.6348">String title</text><rect fill="none" height="6" style="stroke: #C82930; stroke-width: 1.0;" width="6" x="205" y="731.9326"/><text fill="#000000" font-family="sans-serif" font-size="11" lengthAdjust="spacingAndGlyphs" textLength="223" x="217" y="737.5898">List&lt;Action&lt;AgenceBancaire&gt;&gt; myMenu</text><rect fill="none" height="6" style="stroke: #C82930; stroke-width: 1.0;" width="6" x="205" y="744.8877"/><text fill="#000000" font-family="sans-serif" font-size="11" lengthAdjust="spacingAndGlyphs" textLength="54" x="217" y="750.5449">String dec</text><rect fill="none" height="6" style="stroke: #C82930; stroke-width: 1.0;" width="6" x="205" y="757.8428"/><text fill="#000000" font-family="sans-serif" font-size="11" lengthAdjust="spacingAndGlyphs" textLength="84" x="217" y="763.5">String decTwice</text><rect fill="none" height="6" style="stroke: #C82930; stroke-width: 1.0;" width="6" x="205" y="770.7979"/><text fill="#000000" font-family="sans-serif" font-size="11" lengthAdjust="spacingAndGlyphs" textLength="116" x="217" y="776.4551">String numberOptSep</text><line style="stroke: #A80036; stroke-width: 1.5;" x1="198" x2="504" y1="782.7754" y2="782.7754"/><ellipse cx="208" cy="794.7529" fill="#84BE84" rx="3" ry="3" style="stroke: #038048; stroke-width: 1.0;"/><text fill="#000000" font-family="sans-serif" font-size="11" lengthAdjust="spacingAndGlyphs" textLength="213" x="217" y="797.4102">ActionListAB(String m, String c, String t)</text><ellipse cx="208" cy="807.708" fill="#84BE84" rx="3" ry="3" style="stroke: #038048; stroke-width: 1.0;"/><text fill="#000000" font-family="sans-serif" font-size="11" lengthAdjust="spacingAndGlyphs" textLength="63" x="217" y="810.3652">String title()</text><ellipse cx="208" cy="820.6631" fill="#84BE84" rx="3" ry="3" style="stroke: #038048; stroke-width: 1.0;"/><text fill="#000000" font-family="sans-serif" font-size="11" lengthAdjust="spacingAndGlyphs" textLength="262" x="217" y="823.3203">boolean addAction(Action&lt;AgenceBancaire&gt; ac)</text><ellipse cx="208" cy="833.6182" fill="#84BE84" rx="3" ry="3" style="stroke: #038048; stroke-width: 1.0;"/><text fill="#000000" font-family="sans-serif" font-size="11" lengthAdjust="spacingAndGlyphs" textLength="282" x="217" y="836.2754">boolean removeAction(Action&lt;AgenceBancaire&gt; ac)</text><ellipse cx="208" cy="846.5732" fill="#84BE84" rx="3" ry="3" style="stroke: #038048; stroke-width: 1.0;"/><text fill="#000000" font-family="sans-serif" font-size="11" lengthAdjust="spacingAndGlyphs" textLength="62" x="217" y="849.2305">int listSize()</text><ellipse cx="208" cy="859.5283" fill="#84BE84" rx="3" ry="3" style="stroke: #038048; stroke-width: 1.0;"/><text fill="#000000" font-family="sans-serif" font-size="11" lengthAdjust="spacingAndGlyphs" textLength="248" x="217" y="862.1855">Action&lt;AgenceBancaire&gt; getAction(int index)</text><ellipse cx="208" cy="872.4834" fill="#84BE84" rx="3" ry="3" style="stroke: #038048; stroke-width: 1.0;"/><text fill="#000000" font-family="sans-serif" font-size="11" lengthAdjust="spacingAndGlyphs" textLength="272" x="217" y="875.1406">void execute(ActionContext&lt;AgenceBancaire&gt; ac)</text><rect fill="#F24D5C" height="6" style="stroke: #C82930; stroke-width: 1.0;" width="6" x="205" y="882.4385"/><text fill="#000000" font-family="sans-serif" font-size="11" lengthAdjust="spacingAndGlyphs" textLength="101" x="217" y="888.0957">int readResponse()</text><rect fill="#F24D5C" height="6" style="stroke: #C82930; stroke-width: 1.0;" width="6" x="205" y="895.3936"/><text fill="#000000" font-family="sans-serif" font-size="11" lengthAdjust="spacingAndGlyphs" textLength="89" x="217" y="901.0508">void printMenu()</text><rect fill="#F24D5C" height="6" style="stroke: #C82930; stroke-width: 1.0;" width="6" x="205" y="908.3486"/><text fill="#000000" font-family="sans-serif" font-size="11" lengthAdjust="spacingAndGlyphs" textLength="183" x="217" y="914.0059">void printTitle(AgenceBancaire ac)</text><rect fill="#F24D5C" height="6" style="stroke: #C82930; stroke-width: 1.0;" width="6" x="205" y="921.3037"/><text fill="#000000" font-family="sans-serif" font-size="11" lengthAdjust="spacingAndGlyphs" textLength="68" x="217" y="926.9609">void tempo()</text><!--class ActionContextAB--><rect fill="#FEFECE" filter="url(#fs9h4st)" height="86.8652" style="stroke: #A80036; stroke-width: 1.5;" width="227" x="873.5" y="762"/><ellipse cx="935.75" cy="778" fill="#ADD1B2" rx="11" ry="11" style="stroke: #A80036; stroke-width: 1.0;"/><path d="M938.2231,784.1431 Q937.6421,784.4419 937.0029,784.5913 Q936.3638,784.7407 935.6582,784.7407 Q933.1514,784.7407 931.8315,783.0889 Q930.5117,781.437 930.5117,778.3159 Q930.5117,775.1865 931.8315,773.5347 Q933.1514,771.8828 935.6582,771.8828 Q936.3638,771.8828 937.0112,772.0322 Q937.6587,772.1816 938.2231,772.4805 L938.2231,775.2031 Q937.5923,774.6221 936.9988,774.3523 Q936.4053,774.0825 935.7744,774.0825 Q934.4297,774.0825 933.7449,775.1492 Q933.0601,776.2158 933.0601,778.3159 Q933.0601,780.4077 933.7449,781.4744 Q934.4297,782.541 935.7744,782.541 Q936.4053,782.541 936.9988,782.2712 Q937.5923,782.0015 938.2231,781.4204 Z "/><text fill="#000000" font-family="sans-serif" font-size="12" lengthAdjust="spacingAndGlyphs" textLength="94" x="956.25" y="782.5352">ActionContextAB</text><line style="stroke: #A80036; stroke-width: 1.5;" x1="874.5" x2="1099.5" y1="794" y2="794"/><rect fill="none" height="6" style="stroke: #C82930; stroke-width: 1.0;" width="6" x="881.5" y="802.9775"/><text fill="#000000" font-family="sans-serif" font-size="11" lengthAdjust="spacingAndGlyphs" textLength="120" x="893.5" y="808.6348">AgenceBancaire theAg</text><line style="stroke: #A80036; stroke-width: 1.5;" x1="874.5" x2="1099.5" y1="814.9551" y2="814.9551"/><ellipse cx="884.5" cy="826.9326" fill="#84BE84" rx="3" ry="3" style="stroke: #038048; stroke-width: 1.0;"/><text fill="#000000" font-family="sans-serif" font-size="11" lengthAdjust="spacingAndGlyphs" textLength="201" x="893.5" y="829.5898">ActionContextAB(AgenceBancaire ag)</text><ellipse cx="884.5" cy="839.8877" fill="#84BE84" rx="3" ry="3" style="stroke: #038048; stroke-width: 1.0;"/><text fill="#000000" font-family="sans-serif" font-size="11" lengthAdjust="spacingAndGlyphs" textLength="156" x="893.5" y="842.5449">AgenceBancaire getContext()</text><!--class Action1--><rect fill="#FEFECE" filter="url(#fs9h4st)" height="73.9102" style="stroke: #A80036; stroke-width: 1.5;" width="298" x="1037" y="1008"/><ellipse cx="1160.25" cy="1024" fill="#ADD1B2" rx="11" ry="11" style="stroke: #A80036; stroke-width: 1.0;"/><path d="M1162.7231,1030.1431 Q1162.1421,1030.4419 1161.5029,1030.5913 Q1160.8638,1030.7407 1160.1582,1030.7407 Q1157.6514,1030.7407 1156.3315,1029.0889 Q1155.0117,1027.437 1155.0117,1024.3159 Q1155.0117,1021.1865 1156.3315,1019.5347 Q1157.6514,1017.8828 1160.1582,1017.8828 Q1160.8638,1017.8828 1161.5112,1018.0322 Q1162.1587,1018.1816 1162.7231,1018.4805 L1162.7231,1021.2031 Q1162.0923,1020.6221 1161.4988,1020.3523 Q1160.9053,1020.0825 1160.2744,1020.0825 Q1158.9297,1020.0825 1158.2449,1021.1492 Q1157.5601,1022.2158 1157.5601,1024.3159 Q1157.5601,1026.4077 1158.2449,1027.4744 Q1158.9297,1028.541 1160.2744,1028.541 Q1160.9053,1028.541 1161.4988,1028.2712 Q1162.0923,1028.0015 1162.7231,1027.4204 Z "/><text fill="#000000" font-family="sans-serif" font-size="12" lengthAdjust="spacingAndGlyphs" textLength="43" x="1180.75" y="1028.5352">Action1</text><line style="stroke: #A80036; stroke-width: 1.5;" x1="1038" x2="1334" y1="1040" y2="1040"/><line style="stroke: #A80036; stroke-width: 1.5;" x1="1038" x2="1334" y1="1048" y2="1048"/><ellipse cx="1048" cy="1059.9775" fill="#84BE84" rx="3" ry="3" style="stroke: #038048; stroke-width: 1.0;"/><text fill="#000000" font-family="sans-serif" font-size="11" lengthAdjust="spacingAndGlyphs" textLength="142" x="1057" y="1062.6348">Action1(String m, String c)</text><ellipse cx="1048" cy="1072.9326" fill="#84BE84" rx="3" ry="3" style="stroke: #038048; stroke-width: 1.0;"/><text fill="#000000" font-family="sans-serif" font-size="11" lengthAdjust="spacingAndGlyphs" textLength="272" x="1057" y="1075.5898">void execute(ActionContext&lt;AgenceBancaire&gt; ac)</text><!--class Action2--><rect fill="#FEFECE" filter="url(#fs9h4st)" height="73.9102" style="stroke: #A80036; stroke-width: 1.5;" width="298" x="704" y="1008"/><ellipse cx="827.25" cy="1024" fill="#ADD1B2" rx="11" ry="11" style="stroke: #A80036; stroke-width: 1.0;"/><path d="M829.7231,1030.1431 Q829.1421,1030.4419 828.5029,1030.5913 Q827.8638,1030.7407 827.1582,1030.7407 Q824.6514,1030.7407 823.3315,1029.0889 Q822.0117,1027.437 822.0117,1024.3159 Q822.0117,1021.1865 823.3315,1019.5347 Q824.6514,1017.8828 827.1582,1017.8828 Q827.8638,1017.8828 828.5112,1018.0322 Q829.1587,1018.1816 829.7231,1018.4805 L829.7231,1021.2031 Q829.0923,1020.6221 828.4988,1020.3523 Q827.9053,1020.0825 827.2744,1020.0825 Q825.9297,1020.0825 825.2449,1021.1492 Q824.5601,1022.2158 824.5601,1024.3159 Q824.5601,1026.4077 825.2449,1027.4744 Q825.9297,1028.541 827.2744,1028.541 Q827.9053,1028.541 828.4988,1028.2712 Q829.0923,1028.0015 829.7231,1027.4204 Z "/><text fill="#000000" font-family="sans-serif" font-size="12" lengthAdjust="spacingAndGlyphs" textLength="43" x="847.75" y="1028.5352">Action2</text><line style="stroke: #A80036; stroke-width: 1.5;" x1="705" x2="1001" y1="1040" y2="1040"/><line style="stroke: #A80036; stroke-width: 1.5;" x1="705" x2="1001" y1="1048" y2="1048"/><ellipse cx="715" cy="1059.9775" fill="#84BE84" rx="3" ry="3" style="stroke: #038048; stroke-width: 1.0;"/><text fill="#000000" font-family="sans-serif" font-size="11" lengthAdjust="spacingAndGlyphs" textLength="142" x="724" y="1062.6348">Action2(String m, String c)</text><ellipse cx="715" cy="1072.9326" fill="#84BE84" rx="3" ry="3" style="stroke: #038048; stroke-width: 1.0;"/><text fill="#000000" font-family="sans-serif" font-size="11" lengthAdjust="spacingAndGlyphs" textLength="272" x="724" y="1075.5898">void execute(ActionContext&lt;AgenceBancaire&gt; ac)</text><!--class Action3--><rect fill="#FEFECE" filter="url(#fs9h4st)" height="73.9102" style="stroke: #A80036; stroke-width: 1.5;" width="298" x="371" y="1008"/><ellipse cx="494.25" cy="1024" fill="#ADD1B2" rx="11" ry="11" style="stroke: #A80036; stroke-width: 1.0;"/><path d="M496.7231,1030.1431 Q496.1421,1030.4419 495.5029,1030.5913 Q494.8638,1030.7407 494.1582,1030.7407 Q491.6514,1030.7407 490.3315,1029.0889 Q489.0117,1027.437 489.0117,1024.3159 Q489.0117,1021.1865 490.3315,1019.5347 Q491.6514,1017.8828 494.1582,1017.8828 Q494.8638,1017.8828 495.5112,1018.0322 Q496.1587,1018.1816 496.7231,1018.4805 L496.7231,1021.2031 Q496.0923,1020.6221 495.4988,1020.3523 Q494.9053,1020.0825 494.2744,1020.0825 Q492.9297,1020.0825 492.2449,1021.1492 Q491.5601,1022.2158 491.5601,1024.3159 Q491.5601,1026.4077 492.2449,1027.4744 Q492.9297,1028.541 494.2744,1028.541 Q494.9053,1028.541 495.4988,1028.2712 Q496.0923,1028.0015 496.7231,1027.4204 Z "/><text fill="#000000" font-family="sans-serif" font-size="12" lengthAdjust="spacingAndGlyphs" textLength="43" x="514.75" y="1028.5352">Action3</text><line style="stroke: #A80036; stroke-width: 1.5;" x1="372" x2="668" y1="1040" y2="1040"/><line style="stroke: #A80036; stroke-width: 1.5;" x1="372" x2="668" y1="1048" y2="1048"/><ellipse cx="382" cy="1059.9775" fill="#84BE84" rx="3" ry="3" style="stroke: #038048; stroke-width: 1.0;"/><text fill="#000000" font-family="sans-serif" font-size="11" lengthAdjust="spacingAndGlyphs" textLength="142" x="391" y="1062.6348">Action3(String m, String c)</text><ellipse cx="382" cy="1072.9326" fill="#84BE84" rx="3" ry="3" style="stroke: #038048; stroke-width: 1.0;"/><text fill="#000000" font-family="sans-serif" font-size="11" lengthAdjust="spacingAndGlyphs" textLength="272" x="391" y="1075.5898">void execute(ActionContext&lt;AgenceBancaire&gt; ac)</text><!--class Action4--><rect fill="#FEFECE" filter="url(#fs9h4st)" height="73.9102" style="stroke: #A80036; stroke-width: 1.5;" width="298" x="38" y="1008"/><ellipse cx="161.25" cy="1024" fill="#ADD1B2" rx="11" ry="11" style="stroke: #A80036; stroke-width: 1.0;"/><path d="M163.7231,1030.1431 Q163.1421,1030.4419 162.5029,1030.5913 Q161.8638,1030.7407 161.1582,1030.7407 Q158.6514,1030.7407 157.3315,1029.0889 Q156.0117,1027.437 156.0117,1024.3159 Q156.0117,1021.1865 157.3315,1019.5347 Q158.6514,1017.8828 161.1582,1017.8828 Q161.8638,1017.8828 162.5112,1018.0322 Q163.1587,1018.1816 163.7231,1018.4805 L163.7231,1021.2031 Q163.0923,1020.6221 162.4988,1020.3523 Q161.9053,1020.0825 161.2744,1020.0825 Q159.9297,1020.0825 159.2449,1021.1492 Q158.5601,1022.2158 158.5601,1024.3159 Q158.5601,1026.4077 159.2449,1027.4744 Q159.9297,1028.541 161.2744,1028.541 Q161.9053,1028.541 162.4988,1028.2712 Q163.0923,1028.0015 163.7231,1027.4204 Z "/><text fill="#000000" font-family="sans-serif" font-size="12" lengthAdjust="spacingAndGlyphs" textLength="43" x="181.75" y="1028.5352">Action4</text><line style="stroke: #A80036; stroke-width: 1.5;" x1="39" x2="335" y1="1040" y2="1040"/><line style="stroke: #A80036; stroke-width: 1.5;" x1="39" x2="335" y1="1048" y2="1048"/><ellipse cx="49" cy="1059.9775" fill="#84BE84" rx="3" ry="3" style="stroke: #038048; stroke-width: 1.0;"/><text fill="#000000" font-family="sans-serif" font-size="11" lengthAdjust="spacingAndGlyphs" textLength="142" x="58" y="1062.6348">Action4(String m, String c)</text><ellipse cx="49" cy="1072.9326" fill="#84BE84" rx="3" ry="3" style="stroke: #038048; stroke-width: 1.0;"/><text fill="#000000" font-family="sans-serif" font-size="11" lengthAdjust="spacingAndGlyphs" textLength="272" x="58" y="1075.5898">void execute(ActionContext&lt;AgenceBancaire&gt; ac)</text><!--class Main--><rect fill="#FEFECE" filter="url(#fs9h4st)" height="60.9551" style="stroke: #A80036; stroke-width: 1.5;" width="153" x="232.5" y="143"/><ellipse cx="291.25" cy="159" fill="#ADD1B2" rx="11" ry="11" style="stroke: #A80036; stroke-width: 1.0;"/><path d="M293.7231,165.1431 Q293.1421,165.4419 292.5029,165.5913 Q291.8638,165.7407 291.1582,165.7407 Q288.6514,165.7407 287.3315,164.0889 Q286.0117,162.437 286.0117,159.3159 Q286.0117,156.1865 287.3315,154.5347 Q288.6514,152.8828 291.1582,152.8828 Q291.8638,152.8828 292.5112,153.0322 Q293.1587,153.1816 293.7231,153.4805 L293.7231,156.2031 Q293.0923,155.6221 292.4988,155.3523 Q291.9053,155.0825 291.2744,155.0825 Q289.9297,155.0825 289.2449,156.1492 Q288.5601,157.2158 288.5601,159.3159 Q288.5601,161.4077 289.2449,162.4744 Q289.9297,163.541 291.2744,163.541 Q291.9053,163.541 292.4988,163.2712 Q293.0923,163.0015 293.7231,162.4204 Z "/><text fill="#000000" font-family="sans-serif" font-size="12" lengthAdjust="spacingAndGlyphs" textLength="27" x="311.75" y="163.5352">Main</text><line style="stroke: #A80036; stroke-width: 1.5;" x1="233.5" x2="384.5" y1="175" y2="175"/><line style="stroke: #A80036; stroke-width: 1.5;" x1="233.5" x2="384.5" y1="183" y2="183"/><ellipse cx="243.5" cy="194.9775" fill="#84BE84" rx="3" ry="3" style="stroke: #038048; stroke-width: 1.0;"/><text fill="#000000" font-family="sans-serif" font-size="11" lengthAdjust="spacingAndGlyphs" textLength="127" x="252.5" y="197.6348">void main(String[] args)</text><path d="M524.05,237.22 C524.94,290.91 526.22,367.47 527.07,418.97 " fill="none" style="stroke: #A80036; stroke-width: 1.0; stroke-dasharray: 7.0,7.0;"/><polygon fill="none" points="517.05,237.28,523.71,217.16,531.04,237.04,517.05,237.28" style="stroke: #A80036; stroke-width: 1.0;"/><path d="M1081,301.7 C1081,317.01 1081,332.64 1081,347.95 " fill="none" style="stroke: #A80036; stroke-width: 1.0;"/><polygon fill="#FFFFFF" points="1081,288.34,1077,294.34,1081,300.34,1085,294.34,1081,288.34" style="stroke: #A80036; stroke-width: 1.0;"/><path d="M579.59,232.44 C606.76,263.98 636.86,305.22 653,348 C703.39,481.51 700.81,652.23 694.78,742.34 " fill="none" style="stroke: #A80036; stroke-width: 1.0; stroke-dasharray: 7.0,7.0;"/><polygon fill="none" points="574.21,236.92,566.15,217.33,584.67,227.62,574.21,236.92" style="stroke: #A80036; stroke-width: 1.0;"/><path d="M488.42,549.85 C468.06,587.57 442.67,634.62 419.27,677.98 " fill="none" style="stroke: #A80036; stroke-width: 1.0; stroke-dasharray: 7.0,7.0;"/><polygon fill="none" points="482.32,546.42,497.97,532.14,494.64,553.07,482.32,546.42" style="stroke: #A80036; stroke-width: 1.0;"/><path d="M734.07,223.18 C765.39,306.67 832.72,482.21 898,627 C919.11,673.82 945.8,726.27 964.42,761.94 " fill="none" style="stroke: #A80036; stroke-width: 1.0; stroke-dasharray: 7.0,7.0;"/><polygon fill="none" points="727.43,225.42,726.99,204.24,740.55,220.52,727.43,225.42" style="stroke: #A80036; stroke-width: 1.0;"/><path d="M753.06,883.35 C781.4,911.79 817.13,940.97 856,957 C889.73,970.91 984.61,956.1 1020,965 C1056.52,974.19 1094.65,991.69 1125.13,1007.89 " fill="none" style="stroke: #A80036; stroke-width: 1.0;"/><polygon fill="none" points="747.72,887.9,738.93,868.62,757.83,878.21,747.72,887.9" style="stroke: #A80036; stroke-width: 1.0;"/><path d="M743.35,885.21 C771.92,926.58 805.55,975.29 827.96,1007.74 " fill="none" style="stroke: #A80036; stroke-width: 1.0;"/><polygon fill="none" points="737.48,889.03,731.87,868.59,749,881.07,737.48,889.03" style="stroke: #A80036; stroke-width: 1.0;"/><path d="M633.19,884.93 C603.71,926.36 568.95,975.21 545.8,1007.74 " fill="none" style="stroke: #A80036; stroke-width: 1.0;"/><polygon fill="none" points="627.52,880.83,644.82,868.59,638.93,888.94,627.52,880.83" style="stroke: #A80036; stroke-width: 1.0;"/><path d="M625.42,883.37 C597.26,911.81 561.73,941 523,957 C488.25,971.36 390.48,955.9 354,965 C317.28,974.16 278.93,991.67 248.25,1007.87 " fill="none" style="stroke: #A80036; stroke-width: 1.0;"/><polygon fill="none" points="620.59,878.3,639.45,868.64,630.73,887.95,620.59,878.3" style="stroke: #A80036; stroke-width: 1.0;"/></g></svg>