<?xml version="1.0" encoding="UTF-8"?><svg xmlns="http://www.w3.org/2000/svg" xmlns:xlink="http://www.w3.org/1999/xlink" fill-opacity="1" color-rendering="auto" color-interpolation="auto" text-rendering="auto" stroke="black" stroke-linecap="square" width="787" stroke-miterlimit="10" shape-rendering="auto" stroke-opacity="1" fill="black" stroke-dasharray="none" font-weight="normal" stroke-width="1" height="295" font-family="'Dialog'" font-style="normal" stroke-linejoin="miter" font-size="12px" stroke-dashoffset="0" image-rendering="auto">
  <!--Generated by ySVG 2.5-->
  <defs id="genericDefs"/>
  <g>
    <defs id="defs1">
      <clipPath clipPathUnits="userSpaceOnUse" id="clipPath1">
        <path d="M0 0 L787 0 L787 295 L0 295 L0 0 Z"/>
      </clipPath>
      <clipPath clipPathUnits="userSpaceOnUse" id="clipPath2">
        <path d="M64 76 L851 76 L851 371 L64 371 L64 76 Z"/>
      </clipPath>
    </defs>
    <g fill="white" text-rendering="geometricPrecision" shape-rendering="geometricPrecision" transform="translate(-64,-76)" stroke="white">
      <rect x="64" width="787" height="295" y="76" clip-path="url(#clipPath2)" stroke="none"/>
    </g>
    <g fill="rgb(255,255,153)" text-rendering="geometricPrecision" shape-rendering="geometricPrecision" transform="matrix(1,0,0,1,-64,-76)" stroke="rgb(255,255,153)">
      <rect x="362.5" y="91.3095" clip-path="url(#clipPath2)" width="159" rx="4" ry="4" height="33.381" stroke="none"/>
    </g>
    <g text-rendering="geometricPrecision" stroke-miterlimit="1.45" shape-rendering="geometricPrecision" transform="matrix(1,0,0,1,-64,-76)" stroke-linecap="butt">
      <rect x="362.5" y="91.3095" clip-path="url(#clipPath2)" fill="none" width="159" rx="4" ry="4" height="33.381"/>
      <text x="394.5889" y="112.5352" clip-path="url(#clipPath2)" font-family="sans-serif" font-style="italic" stroke="none" xml:space="preserve">execute_session</text>
    </g>
    <g text-rendering="geometricPrecision" stroke-miterlimit="1.45" shape-rendering="geometricPrecision" font-family="sans-serif" transform="matrix(1,0,0,1,-64,-76)" stroke-linecap="butt">
      <text x="85.5265" xml:space="preserve" y="112.7766" clip-path="url(#clipPath2)" stroke="none">Level 3</text>
    </g>
    <g text-rendering="geometricPrecision" stroke-miterlimit="1.45" shape-rendering="geometricPrecision" transform="matrix(1,0,0,1,-64,-76)" stroke-linecap="butt">
      <rect x="183" y="206.619" clip-path="url(#clipPath2)" fill="none" width="108" rx="4" ry="4" height="33.381"/>
      <text x="220.7812" y="227.8447" clip-path="url(#clipPath2)" font-family="sans-serif" font-style="italic" stroke="none" xml:space="preserve">initial</text>
      <rect x="313.5" y="206.619" clip-path="url(#clipPath2)" fill="none" width="108" rx="4" ry="4" height="33.381"/>
      <text x="339.583" y="227.8447" clip-path="url(#clipPath2)" font-family="sans-serif" font-style="italic" stroke="none" xml:space="preserve">transition</text>
      <rect x="451.5" y="206.619" clip-path="url(#clipPath2)" fill="none" width="108" rx="4" ry="4" height="33.381"/>
      <text x="465.5479" y="227.8447" clip-path="url(#clipPath2)" font-family="sans-serif" font-style="italic" stroke="none" xml:space="preserve">execute_state</text>
      <rect x="589.5" y="206.619" clip-path="url(#clipPath2)" fill="none" width="108" rx="4" ry="4" height="33.381"/>
      <text x="622.9951" y="227.8447" clip-path="url(#clipPath2)" font-family="sans-serif" font-style="italic" stroke="none" xml:space="preserve">is_final</text>
    </g>
    <g text-rendering="geometricPrecision" stroke-miterlimit="1.45" shape-rendering="geometricPrecision" font-family="sans-serif" transform="matrix(1,0,0,1,-64,-76)" stroke-linecap="butt">
      <text x="85.5265" xml:space="preserve" y="228.0861" clip-path="url(#clipPath2)" stroke="none">Level 2</text>
    </g>
    <g text-rendering="geometricPrecision" stroke-miterlimit="1.45" shape-rendering="geometricPrecision" transform="matrix(1,0,0,1,-64,-76)" stroke-linecap="butt">
      <rect x="183" y="321.9285" clip-path="url(#clipPath2)" fill="none" width="108" rx="4" ry="4" height="33.381"/>
      <text x="216.4717" y="343.1541" clip-path="url(#clipPath2)" font-family="sans-serif" font-style="italic" stroke="none" xml:space="preserve">display</text>
      <rect x="313.5" y="321.9285" clip-path="url(#clipPath2)" fill="none" width="108" rx="4" ry="4" height="33.381"/>
      <text x="354.6123" y="343.1541" clip-path="url(#clipPath2)" font-family="sans-serif" font-style="italic" stroke="none" xml:space="preserve">read</text>
      <rect x="451.5" y="321.9285" clip-path="url(#clipPath2)" fill="none" width="108" rx="4" ry="4" height="33.381"/>
      <text x="485.1709" y="343.1541" clip-path="url(#clipPath2)" font-family="sans-serif" font-style="italic" stroke="none" xml:space="preserve">correct</text>
      <rect x="589.5" y="321.9285" clip-path="url(#clipPath2)" fill="none" width="108" rx="4" ry="4" height="33.381"/>
      <text x="618.041" y="343.1541" clip-path="url(#clipPath2)" font-family="sans-serif" font-style="italic" stroke="none" xml:space="preserve">message</text>
    </g>
    <g text-rendering="geometricPrecision" stroke-miterlimit="1.45" shape-rendering="geometricPrecision" font-family="sans-serif" transform="matrix(1,0,0,1,-64,-76)" stroke-linecap="butt">
      <text x="85.5265" xml:space="preserve" y="343.3956" clip-path="url(#clipPath2)" stroke="none">Level 1</text>
    </g>
    <g text-rendering="geometricPrecision" stroke-miterlimit="1.45" shape-rendering="geometricPrecision" transform="matrix(1,0,0,1,-64,-76)" stroke-linecap="butt">
      <rect x="727.5" y="321.9285" clip-path="url(#clipPath2)" fill="none" width="108" rx="4" ry="4" height="33.381"/>
      <text x="759.0498" y="343.1541" clip-path="url(#clipPath2)" font-family="sans-serif" font-style="italic" stroke="none" xml:space="preserve">process</text>
      <path fill="none" d="M412.3461 124.6799 L266.6667 206.6224" clip-path="url(#clipPath2)"/>
      <path fill="none" d="M431.2142 124.694 L378.2798 206.6248" clip-path="url(#clipPath2)"/>
      <path fill="none" d="M451.1932 124.694 L496.3119 206.6248" clip-path="url(#clipPath2)"/>
      <path fill="none" d="M455.6978 124.6714 L517.9562 200.4449" clip-path="url(#clipPath2)" stroke="red"/>
      <path fill="red" d="M523.0349 206.6261 L519.2801 194.1801 L517.3214 199.6723 L511.5536 200.5285 Z" clip-path="url(#clipPath2)" stroke="none"/>
      <text x="474.3391" y="170.4272" clip-path="url(#clipPath2)" fill="red" font-family="'Verdana'" stroke="none" xml:space="preserve">state</text>
      <path fill="none" d="M471.1476 124.6799 L614.3398 206.6224" clip-path="url(#clipPath2)"/>
      <path fill="none" d="M466.6606 239.9894 L275.8842 321.9199" clip-path="url(#clipPath2)"/>
      <path fill="none" d="M460.6641 240.0113 L248.2442 319.1395" clip-path="url(#clipPath2)" stroke="red"/>
      <path fill="red" d="M240.7475 321.9321 L253.738 322.4287 L249.1813 318.7904 L250.2472 313.0577 Z" clip-path="url(#clipPath2)" stroke="none"/>
      <text x="324.2649" y="289.994" clip-path="url(#clipPath2)" fill="red" font-family="'Verdana'" stroke="none" xml:space="preserve">state</text>
      <path fill="none" d="M485.521 240.0035 L387.4679 321.9343" clip-path="url(#clipPath2)"/>
      <path fill="none" d="M480.7331 239.9934 L365.7173 317.4723" clip-path="url(#clipPath2)" stroke="red"/>
      <path fill="red" d="M359.0823 321.9418 L371.8282 319.3843 L366.5466 316.9136 L366.2413 311.0906 Z" clip-path="url(#clipPath2)" stroke="none"/>
      <text x="396.9803" y="291.0585" clip-path="url(#clipPath2)" fill="red" font-family="'Verdana'" stroke="none" xml:space="preserve">state</text>
      <path fill="none" d="M505.5 240.0035 L505.5 321.9102" clip-path="url(#clipPath2)"/>
      <path fill="none" d="M501.8562 239.9911 L485.6744 314.074" clip-path="url(#clipPath2)" stroke="red"/>
      <path fill="red" d="M483.9672 321.8897 L491.4128 311.2332 L485.8878 313.097 L481.6431 309.0992 Z" clip-path="url(#clipPath2)" stroke="none"/>
      <text x="476.7119" y="291.0585" clip-path="url(#clipPath2)" fill="red" font-family="'Verdana'" stroke="none" xml:space="preserve">state</text>
      <path fill="none" d="M525.479 240.0035 L623.5321 321.9343" clip-path="url(#clipPath2)"/>
      <path fill="none" d="M530.3682 240.0249 L645.6055 317.4828" clip-path="url(#clipPath2)" stroke="red"/>
      <path fill="red" d="M652.2451 321.9456 L645.075 311.1017 L644.7756 316.9249 L639.4965 319.4011 Z" clip-path="url(#clipPath2)" stroke="none"/>
      <text x="584.1606" y="291.0585" clip-path="url(#clipPath2)" fill="red" font-family="'Verdana'" stroke="none" xml:space="preserve">state</text>
      <path fill="none" d="M545.4243 239.9894 L741.5297 321.9199" clip-path="url(#clipPath2)"/>
      <path fill="none" d="M554.4705 239.9929 L787.39 319.3445" clip-path="url(#clipPath2)" stroke="red"/>
      <path fill="red" d="M794.9625 321.9244 L785.2161 313.3217 L786.4434 319.0221 L781.9912 322.7875 Z" clip-path="url(#clipPath2)" stroke="none"/>
      <text x="669.3541" y="289.0255" clip-path="url(#clipPath2)" fill="red" font-family="'Verdana'" stroke="none" xml:space="preserve">state</text>
    </g>
  </g>
</svg>
