<?xml version="1.0" encoding="UTF-8"?><svg xmlns="http://www.w3.org/2000/svg" xmlns:xlink="http://www.w3.org/1999/xlink" fill-opacity="1" color-rendering="auto" color-interpolation="auto" text-rendering="auto" stroke="black" stroke-linecap="square" width="787" stroke-miterlimit="10" shape-rendering="auto" stroke-opacity="1" fill="black" stroke-dasharray="none" font-weight="normal" stroke-width="1" height="295" font-family="'Dialog'" font-style="normal" stroke-linejoin="miter" font-size="12px" stroke-dashoffset="0" image-rendering="auto">
  <!--Generated by ySVG 2.5-->
  <defs id="genericDefs"/>
  <g>
    <defs id="defs1">
      <clipPath clipPathUnits="userSpaceOnUse" id="clipPath1">
        <path d="M0 0 L787 0 L787 295 L0 295 L0 0 Z"/>
      </clipPath>
      <clipPath clipPathUnits="userSpaceOnUse" id="clipPath2">
        <path d="M64 76 L851 76 L851 371 L64 371 L64 76 Z"/>
      </clipPath>
    </defs>
    <g fill="white" text-rendering="geometricPrecision" shape-rendering="geometricPrecision" transform="translate(-64,-76)" stroke="white">
      <rect x="64" width="787" height="295" y="76" clip-path="url(#clipPath2)" stroke="none"/>
    </g>
    <g fill="rgb(255,255,153)" text-rendering="geometricPrecision" shape-rendering="geometricPrecision" transform="matrix(1,0,0,1,-64,-76)" stroke="rgb(255,255,153)">
      <rect x="362.5" y="91.3095" clip-path="url(#clipPath2)" width="159" rx="4" ry="4" height="33.381" stroke="none"/>
    </g>
    <g text-rendering="geometricPrecision" stroke-miterlimit="1.45" shape-rendering="geometricPrecision" transform="matrix(1,0,0,1,-64,-76)" stroke-linecap="butt">
      <rect x="362.5" y="91.3095" clip-path="url(#clipPath2)" fill="none" width="159" rx="4" ry="4" height="33.381"/>
      <text x="394.5889" y="112.5352" clip-path="url(#clipPath2)" font-family="sans-serif" font-style="italic" stroke="none" xml:space="preserve">execute_session</text>
    </g>
    <g text-rendering="geometricPrecision" stroke-miterlimit="1.45" shape-rendering="geometricPrecision" font-family="sans-serif" transform="matrix(1,0,0,1,-64,-76)" stroke-linecap="butt">
      <text x="85.5265" xml:space="preserve" y="112.7766" clip-path="url(#clipPath2)" stroke="none">Level 3</text>
    </g>
    <g text-rendering="geometricPrecision" stroke-miterlimit="1.45" shape-rendering="geometricPrecision" transform="matrix(1,0,0,1,-64,-76)" stroke-linecap="butt">
      <rect x="183" y="206.619" clip-path="url(#clipPath2)" fill="none" width="108" rx="4" ry="4" height="33.381"/>
      <text x="220.7812" y="227.8447" clip-path="url(#clipPath2)" font-family="sans-serif" font-style="italic" stroke="none" xml:space="preserve">initial</text>
      <rect x="313.5" y="206.619" clip-path="url(#clipPath2)" fill="none" width="108" rx="4" ry="4" height="33.381"/>
      <text x="339.583" y="227.8447" clip-path="url(#clipPath2)" font-family="sans-serif" font-style="italic" stroke="none" xml:space="preserve">transition</text>
      <rect x="451.5" y="206.619" clip-path="url(#clipPath2)" fill="none" width="108" rx="4" ry="4" height="33.381"/>
      <text x="465.5479" y="227.8447" clip-path="url(#clipPath2)" font-family="sans-serif" font-style="italic" stroke="none" xml:space="preserve">execute_state</text>
      <rect x="589.5" y="206.619" clip-path="url(#clipPath2)" fill="none" width="108" rx="4" ry="4" height="33.381"/>
      <text x="622.9951" y="227.8447" clip-path="url(#clipPath2)" font-family="sans-serif" font-style="italic" stroke="none" xml:space="preserve">is_final</text>
    </g>
    <g text-rendering="geometricPrecision" stroke-miterlimit="1.45" shape-rendering="geometricPrecision" font-family="sans-serif" transform="matrix(1,0,0,1,-64,-76)" stroke-linecap="butt">
      <text x="85.5265" xml:space="preserve" y="228.0861" clip-path="url(#clipPath2)" stroke="none">Level 2</text>
    </g>
    <g text-rendering="geometricPrecision" stroke-miterlimit="1.45" shape-rendering="geometricPrecision" transform="matrix(1,0,0,1,-64,-76)" stroke-linecap="butt">
      <rect x="183" y="321.9285" clip-path="url(#clipPath2)" fill="none" width="108" rx="4" ry="4" height="33.381"/>
      <text x="216.4717" y="343.1541" clip-path="url(#clipPath2)" font-family="sans-serif" font-style="italic" stroke="none" xml:space="preserve">display</text>
      <rect x="313.5" y="321.9285" clip-path="url(#clipPath2)" fill="none" width="108" rx="4" ry="4" height="33.381"/>
      <text x="354.6123" y="343.1541" clip-path="url(#clipPath2)" font-family="sans-serif" font-style="italic" stroke="none" xml:space="preserve">read</text>
      <rect x="451.5" y="321.9285" clip-path="url(#clipPath2)" fill="none" width="108" rx="4" ry="4" height="33.381"/>
      <text x="485.1709" y="343.1541" clip-path="url(#clipPath2)" font-family="sans-serif" font-style="italic" stroke="none" xml:space="preserve">correct</text>
      <rect x="589.5" y="321.9285" clip-path="url(#clipPath2)" fill="none" width="108" rx="4" ry="4" height="33.381"/>
      <text x="618.041" y="343.1541" clip-path="url(#clipPath2)" font-family="sans-serif" font-style="italic" stroke="none" xml:space="preserve">message</text>
    </g>
    <g text-rendering="geometricPrecision" stroke-miterlimit="1.45" shape-rendering="geometricPrecision" font-family="sans-serif" transform="matrix(1,0,0,1,-64,-76)" stroke-linecap="butt">
      <text x="85.5265" xml:space="preserve" y="343.3956" clip-path="url(#clipPath2)" stroke="none">Level 1</text>
    </g>
    <g text-rendering="geometricPrecision" stroke-miterlimit="1.45" shape-rendering="geometricPrecision" transform="matrix(1,0,0,1,-64,-76)" stroke-linecap="butt">
      <rect x="727.5" y="321.9285" clip-path="url(#clipPath2)" fill="none" width="108" rx="4" ry="4" height="33.381"/>
      <text x="759.0498" y="343.1541" clip-path="url(#clipPath2)" font-family="sans-serif" font-style="italic" stroke="none" xml:space="preserve">process</text>
      <path fill="none" d="M412.3461 124.6799 L266.6667 206.6224" clip-path="url(#clipPath2)"/>
      <path fill="none" d="M431.2142 124.694 L378.2798 206.6248" clip-path="url(#clipPath2)"/>
      <path fill="none" d="M451.1932 124.694 L496.3119 206.6248" clip-path="url(#clipPath2)"/>
      <path fill="none" d="M471.1476 124.6799 L614.3398 206.6224" clip-path="url(#clipPath2)"/>
      <path fill="none" d="M466.6606 239.9894 L275.8842 321.9199" clip-path="url(#clipPath2)"/>
      <path fill="none" d="M485.521 240.0035 L387.4679 321.9343" clip-path="url(#clipPath2)"/>
      <path fill="none" d="M505.5 240.0035 L505.5 321.9102" clip-path="url(#clipPath2)"/>
      <path fill="none" d="M525.479 240.0035 L623.5321 321.9343" clip-path="url(#clipPath2)"/>
      <path fill="none" d="M545.4243 239.9894 L741.5297 321.9199" clip-path="url(#clipPath2)"/>
    </g>
  </g>
</svg>
