<?xml version="1.0" encoding="UTF-8" standalone="no"?><svg xmlns="http://www.w3.org/2000/svg" xmlns:xlink="http://www.w3.org/1999/xlink" contentScriptType="application/ecmascript" contentStyleType="text/css" height="133px" preserveAspectRatio="none" style="width:273px;height:133px;" version="1.1" viewBox="0 0 273 133" width="273px" zoomAndPan="magnify"><defs><filter height="300%" id="fcfio58ibv90h" width="300%" x="-1" y="-1"><feGaussianBlur result="blurOut" stdDeviation="2.0"/><feColorMatrix in="blurOut" result="blurOut2" type="matrix" values="0 0 0 0 0 0 0 0 0 0 0 0 0 0 0 0 0 0 .4 0"/><feOffset dx="4.0" dy="4.0" in="blurOut2" result="blurOut3"/><feBlend in="SourceGraphic" in2="blurOut3" mode="normal"/></filter></defs><g><!--MD5=[56da932a4aa7de652c4d6857238bcda2]
class Release--><rect fill="#F0F8FF" filter="url(#fcfio58ibv90h)" height="22" id="Release" rx="2.5" ry="2.5" style="stroke:#2F4F4F;stroke-width:1.5;" width="52" x="7" y="14.2719"/><text fill="#000000" font-family="Helvetica" font-size="12" lengthAdjust="spacing" textLength="46" x="10" y="28.5121">Release</text><!--MD5=[70313f9481c73a9808968c254b51c052]
class Issue--><rect fill="#F0F8FF" filter="url(#fcfio58ibv90h)" height="22" id="Issue" rx="2.5" ry="2.5" style="stroke:#2F4F4F;stroke-width:1.5;" width="35" x="94.5" y="14.2719"/><text fill="#000000" font-family="Helvetica" font-size="12" lengthAdjust="spacing" textLength="29" x="97.5" y="28.5121">Issue</text><!--MD5=[b34797a66dc35cbf1d65f7e3ca75530e]
class Task--><rect fill="#F0F8FF" filter="url(#fcfio58ibv90h)" height="22" id="Task" rx="2.5" ry="2.5" style="stroke:#2F4F4F;stroke-width:1.5;" width="32" x="165" y="14.2719"/><text fill="#000000" font-family="Helvetica" font-size="12" lengthAdjust="spacing" textLength="26" x="168" y="28.5121">Task</text><!--MD5=[ba580110b1777f63e0f1dfe3fcefdac0]
class Code--><rect fill="#F0F8FF" filter="url(#fcfio58ibv90h)" height="22" id="Code" rx="2.5" ry="2.5" style="stroke:#2F4F4F;stroke-width:1.5;" width="36" x="45" y="97.2719"/><text fill="#000000" font-family="Helvetica" font-size="12" lengthAdjust="spacing" textLength="30" x="48" y="111.5121">Code</text><!--MD5=[df38be88ccee13e832d6fafd6288a4ca]
class Test--><rect fill="#F0F8FF" filter="url(#fcfio58ibv90h)" height="22" id="Test" rx="2.5" ry="2.5" style="stroke:#2F4F4F;stroke-width:1.5;" width="29" x="166.5" y="97.2719"/><text fill="#000000" font-family="Helvetica" font-size="12" lengthAdjust="spacing" textLength="23" x="169.5" y="111.5121">Test</text><!--MD5=[f38cdfa93a4420874a477654256d5f0f]
class Doc--><rect fill="#F0F8FF" filter="url(#fcfio58ibv90h)" height="22" id="Doc" rx="2.5" ry="2.5" style="stroke:#2F4F4F;stroke-width:1.5;" width="28" x="231" y="97.2719"/><text fill="#000000" font-family="Helvetica" font-size="12" lengthAdjust="spacing" textLength="22" x="234" y="111.5121">Doc</text><!--MD5=[c00707f4ea8292baa0595834cf7e1e3c]
link Release to Issue--><path codeLine="3" d="M71.23,25.2719 C71.23,25.2719 78.3,25.2719 81.27,25.2719 " fill="none" id="Release-Issue" style="stroke:#000000;stroke-width:1.0;"/><polygon fill="#000000" points="94.27,25.2719,85.27,21.2719,89.27,25.2719,85.27,29.2719,94.27,25.2719" style="stroke:#000000;stroke-width:1.0;"/><line style="stroke:#000000;stroke-width:1.0;" x1="89.27" x2="81.27" y1="25.2719" y2="25.2719"/><polygon fill="#FFFFFF" points="59.23,25.2719,65.23,29.2719,71.23,25.2719,65.23,21.2719,59.23,25.2719" style="stroke:#000000;stroke-width:1.0;"/><text fill="#000000" font-family="sans-serif" font-size="13" lengthAdjust="spacing" textLength="8" x="66.9764" y="20.9582">1</text><text fill="#000000" font-family="sans-serif" font-size="13" lengthAdjust="spacing" textLength="6" x="80.6258" y="20.1319">*</text><!--MD5=[b34e219db390308839e2cd42d3dbd06d]
link Issue to Task--><path codeLine="4" d="M141.52,25.2719 C141.52,25.2719 148.78,25.2719 151.78,25.2719 " fill="none" id="Issue-Task" style="stroke:#000000;stroke-width:1.0;"/><polygon fill="#000000" points="164.91,25.2719,155.91,21.2719,159.91,25.2719,155.91,29.2719,164.91,25.2719" style="stroke:#000000;stroke-width:1.0;"/><line style="stroke:#000000;stroke-width:1.0;" x1="159.91" x2="151.91" y1="25.2719" y2="25.2719"/><polygon fill="#FFFFFF" points="129.52,25.2719,135.52,29.2719,141.52,25.2719,135.52,21.2719,129.52,25.2719" style="stroke:#000000;stroke-width:1.0;"/><text fill="#000000" font-family="sans-serif" font-size="13" lengthAdjust="spacing" textLength="8" x="137.4555" y="20.1319">1</text><text fill="#000000" font-family="sans-serif" font-size="13" lengthAdjust="spacing" textLength="6" x="151.0354" y="19.8105">*</text><!--MD5=[a7e96ef96a3307a4ac34791bd1c7762b]
reverse link Task to Code--><path codeLine="6" d="M149.37,47.9819 C126.16,63.9219 95.68,84.8419 77.82,97.0919 " fill="none" id="Task-backto-Code" style="stroke:#000000;stroke-width:1.0;"/><polygon fill="none" points="145.6,42.0819,166.06,36.5319,153.53,53.6219,145.6,42.0819" style="stroke:#000000;stroke-width:1.0;"/><!--MD5=[b5ab5b65dd8bdeb3eafc28edc87ce227]
reverse link Task to Test--><path codeLine="7" d="M181,56.6419 C181,70.9119 181,86.9619 181,97.0919 " fill="none" id="Task-backto-Test" style="stroke:#000000;stroke-width:1.0;"/><polygon fill="none" points="174,56.5319,181,36.5319,188,56.5319,174,56.5319" style="stroke:#000000;stroke-width:1.0;"/><!--MD5=[01eee0cc37e7b5c506c8b35fa542dd00]
reverse link Task to Doc--><path codeLine="8" d="M201.61,52.3519 C213.64,67.5819 228.14,85.9319 236.96,97.0919 " fill="none" id="Task-backto-Doc" style="stroke:#000000;stroke-width:1.0;"/><polygon fill="none" points="196.01,56.5619,189.11,36.5319,207,47.8819,196.01,56.5619" style="stroke:#000000;stroke-width:1.0;"/><!--MD5=[46c760f949aa78a0f9d4424f0846c066]
link Code to Test--><path codeLine="10" d="M81.18,108.2719 C102.84,108.2719 138.92,108.2719 161.25,108.2719 " fill="none" id="Code-to-Test" style="stroke:#000000;stroke-width:1.0;stroke-dasharray:7.0,7.0;"/><polygon fill="#000000" points="166.34,108.2719,157.34,104.2719,161.34,108.2719,157.34,112.2719,166.34,108.2719" style="stroke:#000000;stroke-width:1.0;"/><text fill="#000000" font-family="sans-serif" font-size="13" lengthAdjust="spacing" textLength="49" x="99.25" y="101.8402">«verify»</text><!--MD5=[70f1ee00db92277d7825f2678b5ae56c]
@startuml artifacts
!include config.cfg

Release "1" o-> "*" Issue
Issue "1" o-> "*" Task

Task <|- - Code
Task <|- - Test
Task <|- - Doc

Code .> Test : <<verify>>

@enduml

@startuml artifacts

hide circle
hide empty members
hide empty methods


skinparam classAttributeIconSize 0
skinparam package {
	BackgroundColor empty
	BorderColor DarkSlateGray
	ArrowColor Black
	FontColor Black
	FontSize 12
	FontName Helvetica
}
skinparam roundcorner 5

skinparam class {
	BackgroundColor AliceBlue
	BorderColor DarkSlateGray
	ArrowColor Black
	FontColor Black
	FontSize 12
	FontName Helvetica
}
skinparam arrow {
    MessageAlign center
}

Release "1" o-> "*" Issue
Issue "1" o-> "*" Task

Task <|- - Code
Task <|- - Test
Task <|- - Doc

Code .> Test : <<verify>>

@enduml

PlantUML version 1.2021.2beta14(Unknown compile time)
(GPL source distribution)
Java Runtime: OpenJDK Runtime Environment
JVM: OpenJDK 64-Bit Server VM
Default Encoding: UTF-8
Language: fr
Country: FR
--></g></svg>