<?xml version="1.0" encoding="UTF-8"?><svg xmlns="http://www.w3.org/2000/svg" xmlns:xlink="http://www.w3.org/1999/xlink" fill-opacity="1" color-rendering="auto" color-interpolation="auto" text-rendering="auto" stroke="black" stroke-linecap="square" width="229" stroke-miterlimit="10" shape-rendering="auto" stroke-opacity="1" fill="black" stroke-dasharray="none" font-weight="normal" stroke-width="1" height="182" font-family="'Dialog'" font-style="normal" stroke-linejoin="miter" font-size="12px" stroke-dashoffset="0" image-rendering="auto">
  <!--Generated by ySVG 2.5-->
  <defs id="genericDefs"/>
  <g>
    <defs id="defs1">
      <clipPath clipPathUnits="userSpaceOnUse" id="clipPath1">
        <path d="M0 0 L229 0 L229 182 L0 182 L0 0 Z"/>
      </clipPath>
      <clipPath clipPathUnits="userSpaceOnUse" id="clipPath2">
        <path d="M325 76 L554 76 L554 258 L325 258 L325 76 Z"/>
      </clipPath>
    </defs>
    <g fill="white" text-rendering="geometricPrecision" shape-rendering="geometricPrecision" transform="translate(-325,-76)" stroke="white">
      <rect x="325" width="229" height="182" y="76" clip-path="url(#clipPath2)" stroke="none"/>
    </g>
    <g text-rendering="geometricPrecision" stroke-miterlimit="1.45" shape-rendering="geometricPrecision" transform="matrix(1,0,0,1,-325,-76)" stroke-linecap="butt">
      <rect x="362.5" y="91.3095" clip-path="url(#clipPath2)" fill="none" width="159" rx="4" ry="4" height="33.381"/>
      <text x="401.6582" xml:space="preserve" y="112.5352" clip-path="url(#clipPath2)" font-family="sans-serif" stroke="none">User Interface</text>
      <rect x="362.5" y="130.619" clip-path="url(#clipPath2)" fill="none" width="159" rx="4" ry="4" height="33.381"/>
      <text x="409.0645" xml:space="preserve" y="151.8447" clip-path="url(#clipPath2)" font-family="sans-serif" stroke="none">Application</text>
      <rect x="362.5" y="169.9285" clip-path="url(#clipPath2)" fill="none" width="159" rx="4" ry="4" height="33.381"/>
      <text x="419.4473" xml:space="preserve" y="191.1542" clip-path="url(#clipPath2)" font-family="sans-serif" stroke="none">Domain</text>
      <rect x="362.5" y="209.238" clip-path="url(#clipPath2)" fill="none" width="159" rx="4" ry="4" height="33.381"/>
      <text x="402.2529" xml:space="preserve" y="230.4637" clip-path="url(#clipPath2)" font-family="sans-serif" stroke="none">Infrastructure</text>
      <path fill="none" stroke-dasharray="6,2" d="M521.5222 108.0192 L529.1165 112.9137 L534.5623 117.8274 L537.8298 122.7411 L538.9189 127.6547 L537.8298 132.5684 L534.5623 137.4821 L529.1165 142.3958 L528.2466 142.9565" clip-path="url(#clipPath2)"/>
      <path stroke-dasharray="6,2" d="M521.5222 147.2903 L534.3175 144.9923 L529.0872 142.4147 L528.9002 136.5868 Z" clip-path="url(#clipPath2)" stroke="none"/>
      <path fill="none" stroke-dasharray="6,2" d="M521.5188 147.3287 L528.2415 152.2232 L533.0623 157.1369 L535.9548 162.0506 L536.9189 166.9642 L535.9548 171.8779 L533.0623 176.7916 L528.2415 181.7053 L527.9863 181.8911" clip-path="url(#clipPath2)"/>
      <path stroke-dasharray="6,2" d="M521.5188 186.5998 L534.163 183.579 L528.7947 181.3026 L528.2771 175.4946 Z" clip-path="url(#clipPath2)" stroke="none"/>
      <path fill="none" stroke-dasharray="6,2" d="M362.4886 108.0192 L352.8183 117.8274 L345.8973 127.6548 L341.7448 137.4821 L340.3606 147.3095 L341.7448 157.1369 L345.8973 166.9642 L352.8183 176.7916 L356.8719 180.9031" clip-path="url(#clipPath2)"/>
      <path stroke-dasharray="6,2" d="M362.4886 186.5998 L357.6241 174.5443 L356.1699 180.191 L350.5031 181.5652 Z" clip-path="url(#clipPath2)" stroke="none"/>
      <path fill="none" stroke-dasharray="6,2" d="M521.5205 186.6382 L528.679 191.5327 L533.8123 196.4464 L536.8923 201.3601 L537.9189 206.2737 L536.8923 211.1874 L533.8123 216.1011 L528.679 221.0148 L528.1245 221.394" clip-path="url(#clipPath2)"/>
      <path stroke-dasharray="6,2" d="M521.5205 225.9093 L534.2485 223.2638 L528.95 220.8296 L528.6044 215.0089 Z" clip-path="url(#clipPath2)" stroke="none"/>
      <path fill="none" stroke-dasharray="6,2" d="M362.4904 147.3287 L353.6933 157.1369 L347.3973 166.9642 L343.6198 176.7916 L342.3606 186.619 L343.6198 196.4464 L347.3973 206.2737 L353.6933 216.1011 L357.1488 219.9538" clip-path="url(#clipPath2)"/>
      <path stroke-dasharray="6,2" d="M362.4904 225.9093 L358.2002 213.6376 L356.4811 219.2094 L350.7559 220.3145 Z" clip-path="url(#clipPath2)" stroke="none"/>
    </g>
  </g>
</svg>
