<?xml version="1.0" encoding="UTF-8" standalone="no"?><svg xmlns="http://www.w3.org/2000/svg" xmlns:xlink="http://www.w3.org/1999/xlink" contentScriptType="application/ecmascript" contentStyleType="text/css" height="148px" preserveAspectRatio="none" style="width:443px;height:148px;" version="1.1" viewBox="0 0 443 148" width="443px" zoomAndPan="magnify"><defs/><g><text fill="#000000" font-family="sans-serif" font-size="12" lengthAdjust="spacingAndGlyphs" textLength="33" x="6" y="31.7344">From:</text><rect fill="#EEEEEE" height="17.1328" style="stroke: #000000; stroke-width: 1.0;" width="79" x="113" y="20.1328"/><text fill="#000000" font-family="sans-serif" font-size="12" lengthAdjust="spacingAndGlyphs" textLength="52" x="115" y="33.7344">Toulouse</text><line style="stroke: #000000; stroke-width: 1.0;" x1="181" x2="181" y1="20.1328" y2="37.2656"/><polygon fill="#000000" points="184,26.1328,190,26.1328,187,32.2656" style="stroke: #000000; stroke-width: 1.0;"/><rect fill="#EEEEEE" height="18.1328" rx="5" ry="5" style="stroke: #000000; stroke-width: 2.5;" width="108" x="300.5" y="22.6328"/><text fill="#000000" font-family="sans-serif" font-size="12" font-weight="bold" lengthAdjust="spacingAndGlyphs" textLength="9" x="336" y="36.2344">H</text><text fill="#000000" font-family="sans-serif" font-size="12" lengthAdjust="spacingAndGlyphs" textLength="18" x="345" y="36.2344">elp</text><path d="M369,27.7656 C368.448,27.7656 368,28.2136 368,28.7656 C368,29.3176 368.448,29.7656 369,29.7656 C369.552,29.7656 370,29.3176 370,28.7656 C370,28.2136 369.552,27.7656 369,27.7656 M367.5,30.2656 C366.67,30.2656 366,30.9356 366,31.7656 L367,31.7656 C367,31.4856 367.22,31.2656 367.5,31.2656 C367.78,31.2656 368,31.4856 368,31.7656 C368,32.0456 367,33.4056 367,34.2656 C367,35.1256 367.67,35.7656 368.5,35.7656 C369.33,35.7656 370,35.0956 370,34.2656 L369,34.2656 C369,34.5456 368.78,34.7656 368.5,34.7656 C368.22,34.7656 368,34.5456 368,34.2656 C368,33.9056 369,32.4256 369,31.7656 C369,30.9556 368.33,30.2656 367.5,30.2656 " fill="#000000" style="stroke: ; stroke-width: 0.0; stroke-dasharray: ;"/><text fill="#000000" font-family="sans-serif" font-size="12" lengthAdjust="spacingAndGlyphs" textLength="19" x="6" y="56.8672">To:</text><rect fill="#EEEEEE" height="17.1328" style="stroke: #000000; stroke-width: 1.0;" width="79" x="113" y="45.2656"/><text fill="#000000" font-family="sans-serif" font-size="12" lengthAdjust="spacingAndGlyphs" textLength="28" x="115" y="58.8672">Paris</text><line style="stroke: #000000; stroke-width: 1.0;" x1="181" x2="181" y1="45.2656" y2="62.3984"/><polygon fill="#000000" points="184,51.2656,190,51.2656,187,57.3984" style="stroke: #000000; stroke-width: 1.0;"/><text fill="#000000" font-family="sans-serif" font-size="12" lengthAdjust="spacingAndGlyphs" textLength="90" x="6" y="77">No earlier than:</text><text fill="#000000" font-family="sans-serif" font-size="12" lengthAdjust="spacingAndGlyphs" textLength="76" x="116" y="77">18/02/2019</text><path d="M197,68.5313 L197,70.5313 L204,70.5313 L204,68.5313 L197,68.5313 M197,71.5313 L197,76.4373 C197,76.4973 197.034,76.5313 197.094,76.5313 L203.907,76.5313 C203.967,76.5313 204.001,76.4973 204.001,76.4373 L204.001,71.5313 L197.001,71.5313 M198.001,72.5313 L199.001,72.5313 L199.001,73.5313 L198.001,73.5313 L198.001,72.5313 M200.001,72.5313 L201.001,72.5313 L201.001,73.5313 L200.001,73.5313 L200.001,72.5313 M202.001,72.5313 L203.001,72.5313 L203.001,73.5313 L202.001,73.5313 L202.001,72.5313 M198.001,74.5313 L199.001,74.5313 L199.001,75.5313 L198.001,75.5313 L198.001,74.5313 M200.001,74.5313 L201.001,74.5313 L201.001,75.5313 L200.001,75.5313 L200.001,74.5313 " fill="#000000" style="stroke: ; stroke-width: 0.0; stroke-dasharray: ;"/><line style="stroke: #000000; stroke-width: 1.0;" x1="114" x2="221" y1="79.5313" y2="79.5313"/><line style="stroke: #000000; stroke-width: 1.0;" x1="114" x2="114" y1="76.5313" y2="78.5313"/><line style="stroke: #000000; stroke-width: 1.0;" x1="221" x2="221" y1="76.5313" y2="78.5313"/><text fill="#000000" font-family="sans-serif" font-size="12" lengthAdjust="spacingAndGlyphs" textLength="79" x="6" y="95.1328">No later than:</text><text fill="#000000" font-family="sans-serif" font-size="12" lengthAdjust="spacingAndGlyphs" textLength="76" x="116" y="95.1328">19/02/2019</text><path d="M197,86.6641 L197,88.6641 L204,88.6641 L204,86.6641 L197,86.6641 M197,89.6641 L197,94.5701 C197,94.6301 197.034,94.6641 197.094,94.6641 L203.907,94.6641 C203.967,94.6641 204.001,94.6301 204.001,94.5701 L204.001,89.6641 L197.001,89.6641 M198.001,90.6641 L199.001,90.6641 L199.001,91.6641 L198.001,91.6641 L198.001,90.6641 M200.001,90.6641 L201.001,90.6641 L201.001,91.6641 L200.001,91.6641 L200.001,90.6641 M202.001,90.6641 L203.001,90.6641 L203.001,91.6641 L202.001,91.6641 L202.001,90.6641 M198.001,92.6641 L199.001,92.6641 L199.001,93.6641 L198.001,93.6641 L198.001,92.6641 M200.001,92.6641 L201.001,92.6641 L201.001,93.6641 L200.001,93.6641 L200.001,92.6641 " fill="#000000" style="stroke: ; stroke-width: 0.0; stroke-dasharray: ;"/><line style="stroke: #000000; stroke-width: 1.0;" x1="114" x2="221" y1="97.6641" y2="97.6641"/><line style="stroke: #000000; stroke-width: 1.0;" x1="114" x2="114" y1="94.6641" y2="96.6641"/><line style="stroke: #000000; stroke-width: 1.0;" x1="221" x2="221" y1="94.6641" y2="96.6641"/><path d="M10.094,104.7969 C10.034,104.7969 9.989,104.8409 9.969,104.8909 L7.031,111.7039 L7,111.8919 L7,112.7049 C7,112.7649 7.034,112.7989 7.094,112.7989 L13.907,112.7989 C13.967,112.7989 14.001,112.7649 14.001,112.7049 L14.001,111.8919 L13.97,111.7039 L11.032,104.8909 C11.012,104.8409 10.967,104.7969 10.907,104.7969 L10.094,104.7969 M10,107.7969 L11,107.7969 L11,109.7969 L10,109.7969 L10,107.7969 M10,110.7969 L11,110.7969 L11,111.7969 L10,111.7969 L10,110.7969 " fill="#000000" style="stroke: ; stroke-width: 0.0; stroke-dasharray: ;"/><text fill="#000000" font-family="sans-serif" font-size="12" lengthAdjust="spacingAndGlyphs" textLength="0" x="20" y="113.2656"/><text fill="#000000" font-family="sans-serif" font-size="12" font-weight="bold" lengthAdjust="spacingAndGlyphs" textLength="34" x="20" y="113.2656">Error!</text><text fill="#000000" font-family="sans-serif" font-size="12" font-weight="bold" lengthAdjust="spacingAndGlyphs" textLength="175" x="117" y="113.2656">Choose a date in the future!</text><rect fill="#EEEEEE" height="18.1328" rx="5" ry="5" style="stroke: #000000; stroke-width: 2.5;" width="100" x="8.5" y="120.2969"/><text fill="#000000" font-family="sans-serif" font-size="12" font-weight="bold" lengthAdjust="spacingAndGlyphs" textLength="8" x="42.5" y="133.8984">R</text><text fill="#000000" font-family="sans-serif" font-size="12" lengthAdjust="spacingAndGlyphs" textLength="24" x="50.5" y="133.8984">eset</text><rect fill="#EEEEEE" height="18.1328" rx="5" ry="5" style="stroke: #000000; stroke-width: 2.5;" width="172" x="115.5" y="120.2969"/><text fill="#000000" font-family="sans-serif" font-size="12" font-weight="bold" lengthAdjust="spacingAndGlyphs" textLength="8" x="160.5" y="133.8984">B</text><text fill="#000000" font-family="sans-serif" font-size="12" lengthAdjust="spacingAndGlyphs" textLength="60" x="168.5" y="133.8984">ook a Seat</text><path d="M236.5,125.4297 L236.5,126.4297 L240.5,126.4297 L240.5,131.4297 L236.5,131.4297 L236.5,132.4297 L241.5,132.4297 L241.5,125.4297 L236.5,125.4297 M237.5,127.4297 L237.5,128.4297 L233.5,128.4297 L233.5,129.4297 L237.5,129.4297 L237.5,130.4297 L239.5,128.9297 L237.5,127.4297 " fill="#000000" style="stroke: ; stroke-width: 0.0; stroke-dasharray: ;"/><rect fill="#EEEEEE" height="18.1328" rx="5" ry="5" style="stroke: #000000; stroke-width: 2.5;" width="132" x="300.5" y="120.2969"/><text fill="#000000" font-family="sans-serif" font-size="12" font-weight="bold" lengthAdjust="spacingAndGlyphs" textLength="9" x="340" y="133.8984">C</text><text fill="#000000" font-family="sans-serif" font-size="12" lengthAdjust="spacingAndGlyphs" textLength="30" x="349" y="133.8984">ancel</text><path d="M388,125.4297 C385.79,125.4297 384,127.2197 384,129.4297 C384,131.6397 385.79,133.4297 388,133.4297 C390.21,133.4297 392,131.6397 392,129.4297 C392,127.2197 390.21,125.4297 388,125.4297 M386.5,127.2107 L388,128.7107 L389.5,127.2107 L390.219,127.9297 L388.719,129.4297 L390.219,130.9297 L389.5,131.6487 L388,130.1487 L386.5,131.6487 L385.781,130.9297 L387.281,129.4297 L385.781,127.9297 L386.5,127.2107 " fill="#000000" style="stroke: ; stroke-width: 0.0; stroke-dasharray: ;"/><line style="stroke: #000000; stroke-width: 1.0;" x1="5" x2="112" y1="12.0664" y2="12.0664"/><line style="stroke: #000000; stroke-width: 1.0;" x1="112" x2="297" y1="12.0664" y2="12.0664"/><line style="stroke: #000000; stroke-width: 1.0;" x1="297" x2="436" y1="12.0664" y2="12.0664"/><line style="stroke: #000000; stroke-width: 1.0;" x1="5" x2="112" y1="141.9297" y2="141.9297"/><line style="stroke: #000000; stroke-width: 1.0;" x1="112" x2="297" y1="141.9297" y2="141.9297"/><line style="stroke: #000000; stroke-width: 1.0;" x1="297" x2="436" y1="141.9297" y2="141.9297"/><line style="stroke: #000000; stroke-width: 1.0;" x1="5" x2="5" y1="12.0664" y2="44.2656"/><line style="stroke: #000000; stroke-width: 1.0;" x1="436" x2="436" y1="82.5313" y2="100.6641"/><line style="stroke: #000000; stroke-width: 1.0;" x1="436" x2="436" y1="64.3984" y2="82.5313"/><line style="stroke: #000000; stroke-width: 1.0;" x1="436" x2="436" y1="44.2656" y2="64.3984"/><line style="stroke: #000000; stroke-width: 1.0;" x1="436" x2="436" y1="12.0664" y2="44.2656"/><line style="stroke: #000000; stroke-width: 1.0;" x1="5" x2="5" y1="116.7969" y2="141.9297"/><line style="stroke: #000000; stroke-width: 1.0;" x1="5" x2="5" y1="100.6641" y2="116.7969"/><line style="stroke: #000000; stroke-width: 1.0;" x1="5" x2="5" y1="82.5313" y2="100.6641"/><line style="stroke: #000000; stroke-width: 1.0;" x1="5" x2="5" y1="64.3984" y2="82.5313"/><line style="stroke: #000000; stroke-width: 1.0;" x1="436" x2="436" y1="116.7969" y2="141.9297"/><line style="stroke: #000000; stroke-width: 1.0;" x1="5" x2="5" y1="44.2656" y2="64.3984"/><line style="stroke: #000000; stroke-width: 1.0;" x1="436" x2="436" y1="100.6641" y2="116.7969"/><rect fill="#FFFFFF" height="14.1328" style="stroke: #FFFFFF; stroke-width: 1.0;" width="101" x="11" y="5"/><text fill="#000000" font-family="sans-serif" font-size="12" lengthAdjust="spacingAndGlyphs" textLength="101" x="11" y="16.6016">Flight Reservation</text></g></svg>