<?xml version="1.0" encoding="UTF-8" standalone="no"?><svg xmlns="http://www.w3.org/2000/svg" xmlns:xlink="http://www.w3.org/1999/xlink" contentScriptType="application/ecmascript" contentStyleType="text/css" height="181px" preserveAspectRatio="none" style="width:464px;height:181px;" version="1.1" viewBox="0 0 464 181" width="464px" zoomAndPan="magnify"><defs/><g><text fill="#000000" font-family="sans-serif" font-size="12" lengthAdjust="spacingAndGlyphs" textLength="33" x="6" y="31.7344">From:</text><rect fill="#EEEEEE" height="17.1328" style="stroke: #000000; stroke-width: 1.0;" width="79" x="136" y="20.1328"/><text fill="#000000" font-family="sans-serif" font-size="12" lengthAdjust="spacingAndGlyphs" textLength="52" x="138" y="33.7344">Toulouse</text><line style="stroke: #000000; stroke-width: 1.0;" x1="204" x2="204" y1="20.1328" y2="37.2656"/><polygon fill="#000000" points="207,26.1328,213,26.1328,210,32.2656" style="stroke: #000000; stroke-width: 1.0;"/><rect fill="#EEEEEE" height="18.1328" rx="5" ry="5" style="stroke: #000000; stroke-width: 2.5;" width="108" x="321.5" y="22.6328"/><text fill="#000000" font-family="sans-serif" font-size="12" font-weight="bold" lengthAdjust="spacingAndGlyphs" textLength="9" x="357" y="36.2344">H</text><text fill="#000000" font-family="sans-serif" font-size="12" lengthAdjust="spacingAndGlyphs" textLength="18" x="366" y="36.2344">elp</text><path d="M390,27.7656 C389.448,27.7656 389,28.2136 389,28.7656 C389,29.3176 389.448,29.7656 390,29.7656 C390.552,29.7656 391,29.3176 391,28.7656 C391,28.2136 390.552,27.7656 390,27.7656 M388.5,30.2656 C387.67,30.2656 387,30.9356 387,31.7656 L388,31.7656 C388,31.4856 388.22,31.2656 388.5,31.2656 C388.78,31.2656 389,31.4856 389,31.7656 C389,32.0456 388,33.4056 388,34.2656 C388,35.1256 388.67,35.7656 389.5,35.7656 C390.33,35.7656 391,35.0956 391,34.2656 L390,34.2656 C390,34.5456 389.78,34.7656 389.5,34.7656 C389.22,34.7656 389,34.5456 389,34.2656 C389,33.9056 390,32.4256 390,31.7656 C390,30.9556 389.33,30.2656 388.5,30.2656 " fill="#000000" style="stroke: ; stroke-width: 0.0; stroke-dasharray: ;"/><text fill="#000000" font-family="sans-serif" font-size="12" lengthAdjust="spacingAndGlyphs" textLength="19" x="6" y="56.8672">To:</text><rect fill="#EEEEEE" height="17.1328" style="stroke: #000000; stroke-width: 1.0;" width="79" x="136" y="45.2656"/><text fill="#000000" font-family="sans-serif" font-size="12" lengthAdjust="spacingAndGlyphs" textLength="28" x="138" y="58.8672">Paris</text><line style="stroke: #000000; stroke-width: 1.0;" x1="204" x2="204" y1="45.2656" y2="62.3984"/><polygon fill="#000000" points="207,51.2656,213,51.2656,210,57.3984" style="stroke: #000000; stroke-width: 1.0;"/><text fill="#000000" font-family="sans-serif" font-size="12" lengthAdjust="spacingAndGlyphs" textLength="90" x="6" y="77">No earlier than:</text><text fill="#000000" font-family="sans-serif" font-size="12" lengthAdjust="spacingAndGlyphs" textLength="76" x="139" y="77">18/02/2020</text><path d="M220,68.5313 L220,70.5313 L227,70.5313 L227,68.5313 L220,68.5313 M220,71.5313 L220,76.4373 C220,76.4973 220.034,76.5313 220.094,76.5313 L226.907,76.5313 C226.967,76.5313 227.001,76.4973 227.001,76.4373 L227.001,71.5313 L220.001,71.5313 M221.001,72.5313 L222.001,72.5313 L222.001,73.5313 L221.001,73.5313 L221.001,72.5313 M223.001,72.5313 L224.001,72.5313 L224.001,73.5313 L223.001,73.5313 L223.001,72.5313 M225.001,72.5313 L226.001,72.5313 L226.001,73.5313 L225.001,73.5313 L225.001,72.5313 M221.001,74.5313 L222.001,74.5313 L222.001,75.5313 L221.001,75.5313 L221.001,74.5313 M223.001,74.5313 L224.001,74.5313 L224.001,75.5313 L223.001,75.5313 L223.001,74.5313 " fill="#000000" style="stroke: ; stroke-width: 0.0; stroke-dasharray: ;"/><line style="stroke: #000000; stroke-width: 1.0;" x1="137" x2="244" y1="79.5313" y2="79.5313"/><line style="stroke: #000000; stroke-width: 1.0;" x1="137" x2="137" y1="76.5313" y2="78.5313"/><line style="stroke: #000000; stroke-width: 1.0;" x1="244" x2="244" y1="76.5313" y2="78.5313"/><text fill="#000000" font-family="sans-serif" font-size="12" lengthAdjust="spacingAndGlyphs" textLength="79" x="6" y="95.1328">No later than:</text><text fill="#000000" font-family="sans-serif" font-size="12" lengthAdjust="spacingAndGlyphs" textLength="76" x="139" y="95.1328">19/02/2020</text><path d="M220,86.6641 L220,88.6641 L227,88.6641 L227,86.6641 L220,86.6641 M220,89.6641 L220,94.5701 C220,94.6301 220.034,94.6641 220.094,94.6641 L226.907,94.6641 C226.967,94.6641 227.001,94.6301 227.001,94.5701 L227.001,89.6641 L220.001,89.6641 M221.001,90.6641 L222.001,90.6641 L222.001,91.6641 L221.001,91.6641 L221.001,90.6641 M223.001,90.6641 L224.001,90.6641 L224.001,91.6641 L223.001,91.6641 L223.001,90.6641 M225.001,90.6641 L226.001,90.6641 L226.001,91.6641 L225.001,91.6641 L225.001,90.6641 M221.001,92.6641 L222.001,92.6641 L222.001,93.6641 L221.001,93.6641 L221.001,92.6641 M223.001,92.6641 L224.001,92.6641 L224.001,93.6641 L223.001,93.6641 L223.001,92.6641 " fill="#000000" style="stroke: ; stroke-width: 0.0; stroke-dasharray: ;"/><line style="stroke: #000000; stroke-width: 1.0;" x1="137" x2="244" y1="97.6641" y2="97.6641"/><line style="stroke: #000000; stroke-width: 1.0;" x1="137" x2="137" y1="94.6641" y2="96.6641"/><line style="stroke: #000000; stroke-width: 1.0;" x1="244" x2="244" y1="94.6641" y2="96.6641"/><text fill="#000000" font-family="sans-serif" font-size="12" lengthAdjust="spacingAndGlyphs" textLength="116" x="6" y="113.2656">AVAILABLE FLIGHTS:</text><text fill="#000000" font-family="sans-serif" font-size="12" font-weight="bold" lengthAdjust="spacingAndGlyphs" textLength="8" x="126" y="113.2656">2</text><line style="stroke: #AAAAAA; stroke-width: 1.0;" x1="6" x2="135" y1="125.3633" y2="125.3633"/><text fill="#000000" font-family="sans-serif" font-size="12" lengthAdjust="spacingAndGlyphs" textLength="181" x="136" y="129.3984">Flt# AF 425 Dep 8:25 Arr 9:45</text><line style="stroke: #AAAAAA; stroke-width: 1.0;" x1="6" x2="135" y1="141.4961" y2="141.4961"/><text fill="#000000" font-family="sans-serif" font-size="12" lengthAdjust="spacingAndGlyphs" textLength="181" x="136" y="145.5313">Flt# EY 082 Dep 7:40 Arr 9:15</text><rect fill="#EEEEEE" height="18.1328" rx="5" ry="5" style="stroke: #000000; stroke-width: 2.5;" width="100" x="8.5" y="152.5625"/><text fill="#000000" font-family="sans-serif" font-size="12" font-weight="bold" lengthAdjust="spacingAndGlyphs" textLength="8" x="42.5" y="166.1641">R</text><text fill="#000000" font-family="sans-serif" font-size="12" lengthAdjust="spacingAndGlyphs" textLength="24" x="50.5" y="166.1641">eset</text><rect fill="#EEEEEE" height="18.1328" rx="5" ry="5" style="stroke: #000000; stroke-width: 2.5;" width="172" x="138.5" y="152.5625"/><text fill="#000000" font-family="sans-serif" font-size="12" font-weight="bold" lengthAdjust="spacingAndGlyphs" textLength="8" x="183.5" y="166.1641">B</text><text fill="#000000" font-family="sans-serif" font-size="12" lengthAdjust="spacingAndGlyphs" textLength="60" x="191.5" y="166.1641">ook a Seat</text><path d="M259.5,157.6953 L259.5,158.6953 L263.5,158.6953 L263.5,163.6953 L259.5,163.6953 L259.5,164.6953 L264.5,164.6953 L264.5,157.6953 L259.5,157.6953 M260.5,159.6953 L260.5,160.6953 L256.5,160.6953 L256.5,161.6953 L260.5,161.6953 L260.5,162.6953 L262.5,161.1953 L260.5,159.6953 " fill="#000000" style="stroke: ; stroke-width: 0.0; stroke-dasharray: ;"/><rect fill="#EEEEEE" height="18.1328" rx="5" ry="5" style="stroke: #000000; stroke-width: 2.5;" width="132" x="321.5" y="152.5625"/><text fill="#000000" font-family="sans-serif" font-size="12" font-weight="bold" lengthAdjust="spacingAndGlyphs" textLength="9" x="361" y="166.1641">C</text><text fill="#000000" font-family="sans-serif" font-size="12" lengthAdjust="spacingAndGlyphs" textLength="30" x="370" y="166.1641">ancel</text><path d="M409,157.6953 C406.79,157.6953 405,159.4853 405,161.6953 C405,163.9053 406.79,165.6953 409,165.6953 C411.21,165.6953 413,163.9053 413,161.6953 C413,159.4853 411.21,157.6953 409,157.6953 M407.5,159.4763 L409,160.9763 L410.5,159.4763 L411.219,160.1953 L409.719,161.6953 L411.219,163.1953 L410.5,163.9143 L409,162.4143 L407.5,163.9143 L406.781,163.1953 L408.281,161.6953 L406.781,160.1953 L407.5,159.4763 " fill="#000000" style="stroke: ; stroke-width: 0.0; stroke-dasharray: ;"/><line style="stroke: #000000; stroke-width: 1.0;" x1="5" x2="135" y1="12.0664" y2="12.0664"/><line style="stroke: #000000; stroke-width: 1.0;" x1="135" x2="318" y1="12.0664" y2="12.0664"/><line style="stroke: #000000; stroke-width: 1.0;" x1="318" x2="457" y1="12.0664" y2="12.0664"/><line style="stroke: #000000; stroke-width: 1.0;" x1="5" x2="135" y1="174.1953" y2="174.1953"/><line style="stroke: #000000; stroke-width: 1.0;" x1="135" x2="318" y1="174.1953" y2="174.1953"/><line style="stroke: #000000; stroke-width: 1.0;" x1="318" x2="457" y1="174.1953" y2="174.1953"/><line style="stroke: #000000; stroke-width: 1.0;" x1="5" x2="5" y1="12.0664" y2="44.2656"/><line style="stroke: #000000; stroke-width: 1.0;" x1="457" x2="457" y1="64.3984" y2="82.5313"/><line style="stroke: #000000; stroke-width: 1.0;" x1="457" x2="457" y1="12.0664" y2="44.2656"/><line style="stroke: #000000; stroke-width: 1.0;" x1="5" x2="5" y1="149.0625" y2="174.1953"/><line style="stroke: #000000; stroke-width: 1.0;" x1="5" x2="5" y1="116.7969" y2="132.9297"/><line style="stroke: #000000; stroke-width: 1.0;" x1="457" x2="457" y1="149.0625" y2="174.1953"/><line style="stroke: #000000; stroke-width: 1.0;" x1="5" x2="5" y1="82.5313" y2="100.6641"/><line style="stroke: #000000; stroke-width: 1.0;" x1="457" x2="457" y1="116.7969" y2="132.9297"/><line style="stroke: #000000; stroke-width: 1.0;" x1="5" x2="5" y1="44.2656" y2="64.3984"/><line style="stroke: #000000; stroke-width: 1.0;" x1="457" x2="457" y1="82.5313" y2="100.6641"/><line style="stroke: #000000; stroke-width: 1.0;" x1="457" x2="457" y1="44.2656" y2="64.3984"/><line style="stroke: #000000; stroke-width: 1.0;" x1="5" x2="5" y1="132.9297" y2="149.0625"/><line style="stroke: #000000; stroke-width: 1.0;" x1="5" x2="5" y1="100.6641" y2="116.7969"/><line style="stroke: #000000; stroke-width: 1.0;" x1="457" x2="457" y1="132.9297" y2="149.0625"/><line style="stroke: #000000; stroke-width: 1.0;" x1="5" x2="5" y1="64.3984" y2="82.5313"/><line style="stroke: #000000; stroke-width: 1.0;" x1="457" x2="457" y1="100.6641" y2="116.7969"/><rect fill="#FFFFFF" height="14.1328" style="stroke: #FFFFFF; stroke-width: 1.0;" width="101" x="11" y="5"/><text fill="#000000" font-family="sans-serif" font-size="12" lengthAdjust="spacingAndGlyphs" textLength="101" x="11" y="16.6016">Flight Reservation</text></g></svg>