<?xml version="1.0" encoding="utf-8"?>
<!-- Generator: Adobe Illustrator 15.0.0, SVG Export Plug-In . SVG Version: 6.00 Build 0)  -->
<!DOCTYPE svg PUBLIC "-//W3C//DTD SVG 1.1//EN" "http://www.w3.org/Graphics/SVG/1.1/DTD/svg11.dtd">
<svg version="1.1" id="Calque_1" xmlns="http://www.w3.org/2000/svg" xmlns:xlink="http://www.w3.org/1999/xlink" x="0px" y="0px"
	 width="612px" height="239px" viewBox="0 0 612 239" enable-background="new 0 0 612 239" xml:space="preserve">
<g>
	
		<rect x="16.856" y="11.036" fill-rule="evenodd" clip-rule="evenodd" fill="#FFFFB9" stroke="#800000" stroke-width="0.7559" stroke-linecap="square" stroke-miterlimit="10" width="105.618" height="54.663"/>
	<g>
		<path stroke="#000000" stroke-width="0.2376" stroke-miterlimit="10" d="M53.026,23.588c-0.157,0.462-0.388,0.901-0.696,1.313
			c-0.307,0.414-0.658,0.765-1.052,1.056c-0.496,0.363-1.028,0.638-1.595,0.823c-0.567,0.187-1.236,0.28-2.008,0.28h-1.222
			l-1.346,3.975h-1.439l3.61-10.663h2.72c0.64,0,1.168,0.052,1.583,0.157c0.415,0.105,0.755,0.275,1.02,0.509
			c0.31,0.272,0.509,0.617,0.595,1.034C53.283,22.491,53.226,22.996,53.026,23.588z M51.516,23.623
			c0.124-0.367,0.168-0.687,0.132-0.959c-0.037-0.272-0.157-0.494-0.36-0.666c-0.177-0.148-0.407-0.253-0.689-0.315
			c-0.283-0.062-0.649-0.093-1.1-0.093h-1.193l-1.442,4.261h0.982c0.581,0,1.067-0.046,1.458-0.14
			c0.391-0.094,0.745-0.259,1.063-0.498c0.287-0.214,0.521-0.448,0.704-0.702C51.252,24.258,51.401,23.962,51.516,23.623z"/>
		<path stroke="#000000" stroke-width="0.2376" stroke-miterlimit="10" d="M59.561,24.482h-0.073
			c-0.092-0.029-0.194-0.046-0.305-0.054c-0.112-0.006-0.248-0.01-0.408-0.01c-0.368,0-0.761,0.079-1.178,0.236
			s-0.84,0.392-1.271,0.702l-1.923,5.679h-1.367l2.708-7.999h1.367l-0.402,1.188c0.646-0.435,1.186-0.742,1.617-0.92
			c0.432-0.179,0.821-0.268,1.171-0.268c0.141,0,0.245,0.003,0.313,0.01s0.142,0.019,0.225,0.032L59.561,24.482z"/>
		<path stroke="#000000" stroke-width="0.2376" stroke-miterlimit="10" d="M67.841,27.039c-0.456,1.347-1.138,2.386-2.045,3.119
			c-0.907,0.732-1.909,1.099-3.005,1.099c-1.13,0-1.889-0.378-2.28-1.135c-0.392-0.757-0.367-1.784,0.073-3.083
			c0.453-1.336,1.137-2.375,2.054-3.114c0.917-0.74,1.921-1.11,3.012-1.11c1.096,0,1.849,0.368,2.258,1.106
			C68.317,24.658,68.295,25.698,67.841,27.039z M66.43,27.039c0.351-1.036,0.42-1.806,0.208-2.31
			c-0.212-0.503-0.673-0.755-1.381-0.755c-0.713,0-1.347,0.251-1.903,0.755c-0.555,0.504-1.009,1.273-1.36,2.31
			c-0.339,1.003-0.404,1.763-0.194,2.281c0.21,0.518,0.671,0.777,1.384,0.777c0.703,0,1.333-0.254,1.892-0.763
			C65.632,28.826,66.083,28.061,66.43,27.039z"/>
		<path stroke="#000000" stroke-width="0.2376" stroke-miterlimit="10" d="M75.532,31.035h-1.367l0.276-0.817
			c-0.273,0.177-0.507,0.323-0.7,0.438c-0.194,0.115-0.412,0.219-0.652,0.314c-0.226,0.091-0.451,0.162-0.676,0.212
			c-0.226,0.05-0.477,0.075-0.753,0.075c-0.441,0-0.818-0.09-1.133-0.272c-0.315-0.181-0.543-0.447-0.687-0.795
			c-0.147-0.352-0.206-0.788-0.176-1.306c0.03-0.518,0.158-1.113,0.386-1.787c0.238-0.702,0.536-1.309,0.893-1.822
			c0.358-0.514,0.765-0.961,1.219-1.343c0.414-0.348,0.864-0.622,1.351-0.82c0.486-0.198,0.96-0.297,1.421-0.297
			c0.407,0,0.746,0.043,1.017,0.132c0.271,0.088,0.542,0.226,0.814,0.412l1.173-3.466h1.367L75.532,31.035z M74.824,29.087
			l1.561-4.611c-0.285-0.163-0.552-0.275-0.799-0.337c-0.249-0.062-0.53-0.093-0.846-0.093c-0.702,0-1.341,0.259-1.913,0.777
			c-0.573,0.518-1.025,1.266-1.357,2.245c-0.318,0.94-0.409,1.66-0.273,2.159c0.137,0.5,0.543,0.749,1.217,0.749
			c0.358,0,0.746-0.08,1.164-0.24S74.412,29.359,74.824,29.087z"/>
		<path stroke="#000000" stroke-width="0.2376" stroke-miterlimit="10" d="M85.073,31.035h-1.367l0.301-0.888
			c-0.545,0.363-1.038,0.638-1.48,0.827c-0.441,0.188-0.896,0.283-1.361,0.283c-0.354,0-0.667-0.057-0.941-0.172
			c-0.273-0.115-0.485-0.296-0.634-0.544c-0.149-0.248-0.223-0.562-0.224-0.938c-0.001-0.377,0.089-0.835,0.272-1.375l1.757-5.191
			h1.367L81.22,27.59c-0.144,0.425-0.247,0.777-0.31,1.056c-0.063,0.28-0.075,0.525-0.034,0.735c0.042,0.205,0.143,0.355,0.302,0.45
			c0.159,0.096,0.418,0.144,0.777,0.144c0.335,0,0.723-0.093,1.164-0.279c0.441-0.186,0.865-0.416,1.273-0.688l2.021-5.972h1.367
			L85.073,31.035z"/>
		<path stroke="#000000" stroke-width="0.2376" stroke-miterlimit="10" d="M89.61,31.035h-1.367l2.708-7.999h1.367L89.61,31.035z
			 M92.866,21.697h-1.557l0.473-1.397h1.557L92.866,21.697z"/>
		<path stroke="#000000" stroke-width="0.2376" stroke-miterlimit="10" d="M94.677,31.192c-0.747,0-1.258-0.208-1.533-0.626
			c-0.275-0.418-0.262-1.078,0.044-1.98l1.501-4.432h-0.924l0.378-1.117h0.924l0.778-2.299h1.367l-0.778,2.299h2.517l-0.378,1.117
			h-2.517l-1.287,3.802c-0.138,0.406-0.236,0.719-0.295,0.938c-0.06,0.22-0.074,0.426-0.042,0.616
			c0.025,0.167,0.117,0.292,0.273,0.375c0.155,0.084,0.391,0.126,0.706,0.126c0.223,0,0.45-0.033,0.68-0.097
			c0.23-0.064,0.399-0.118,0.506-0.161h0.08l-0.41,1.211c-0.281,0.071-0.561,0.127-0.838,0.168
			C95.151,31.172,94.9,31.192,94.677,31.192z"/>
	</g>
	
		<line fill="none" stroke="#800000" stroke-width="0.7559" stroke-linecap="square" stroke-miterlimit="10" x1="16.856" y1="40.368" x2="123.829" y2="40.368"/>
	
		<line fill="none" stroke="#800000" stroke-width="0.7559" stroke-linecap="square" stroke-miterlimit="10" x1="16.856" y1="52.367" x2="123.829" y2="52.367"/>
	
		<rect x="7.378" y="167.025" fill-rule="evenodd" clip-rule="evenodd" fill="#FFFFB9" stroke="#800000" stroke-width="0.7559" stroke-linecap="square" stroke-miterlimit="10" width="125.929" height="54.663"/>
	<g>
		<path d="M23.595,179.719c0,0.496-0.08,0.969-0.24,1.418c-0.16,0.448-0.391,0.823-0.691,1.124
			c-0.185,0.187-0.387,0.358-0.607,0.516s-0.464,0.291-0.731,0.401c-0.267,0.109-0.556,0.195-0.869,0.258
			c-0.313,0.062-0.663,0.093-1.051,0.093h-1.425v3.487h-2.72v-10.663h4.204c0.625,0,1.165,0.057,1.618,0.169
			c0.454,0.112,0.864,0.29,1.233,0.533c0.407,0.268,0.722,0.624,0.945,1.07S23.595,179.103,23.595,179.719z M20.803,179.783
			c0-0.301-0.073-0.56-0.218-0.777c-0.146-0.217-0.32-0.366-0.524-0.447c-0.257-0.11-0.503-0.173-0.738-0.189
			c-0.235-0.018-0.554-0.025-0.957-0.025h-0.385v3.193h0.189c0.257,0,0.499-0.002,0.727-0.007s0.427-0.021,0.597-0.05
			c0.146-0.024,0.299-0.07,0.461-0.14c0.163-0.069,0.288-0.147,0.375-0.233c0.184-0.176,0.309-0.36,0.375-0.551
			C20.77,180.365,20.803,180.107,20.803,179.783z"/>
		<path d="M30.09,181.344h-0.211c-0.097-0.033-0.238-0.058-0.422-0.075c-0.185-0.017-0.388-0.024-0.611-0.024
			c-0.267,0-0.547,0.038-0.84,0.114s-0.578,0.167-0.854,0.272v5.385h-2.545v-8.042h2.545v1.153c0.116-0.105,0.277-0.237,0.484-0.397
			c0.206-0.16,0.394-0.288,0.563-0.384c0.184-0.109,0.399-0.203,0.644-0.282s0.477-0.118,0.695-0.118
			c0.082,0,0.174,0.002,0.276,0.007c0.102,0.005,0.194,0.012,0.276,0.021V181.344z"/>
		<path d="M39.203,182.998c0,1.322-0.368,2.364-1.102,3.126s-1.773,1.143-3.116,1.143c-1.333,0-2.37-0.381-3.109-1.143
			s-1.109-1.804-1.109-3.126c0-1.336,0.37-2.383,1.109-3.14s1.776-1.135,3.109-1.135c1.338,0,2.375,0.38,3.113,1.142
			C38.834,180.627,39.203,181.671,39.203,182.998z M36.592,183.013c0-0.478-0.04-0.875-0.12-1.192
			c-0.08-0.317-0.19-0.571-0.331-0.763c-0.15-0.2-0.32-0.34-0.509-0.419s-0.405-0.118-0.647-0.118c-0.228,0-0.434,0.035-0.618,0.104
			c-0.185,0.069-0.354,0.202-0.509,0.397c-0.146,0.187-0.262,0.442-0.349,0.767c-0.087,0.325-0.131,0.732-0.131,1.225
			c0,0.491,0.041,0.889,0.124,1.192c0.083,0.303,0.189,0.545,0.32,0.727c0.136,0.187,0.306,0.322,0.509,0.408
			s0.429,0.129,0.676,0.129c0.204,0,0.411-0.043,0.622-0.129s0.379-0.215,0.505-0.387c0.15-0.205,0.264-0.452,0.342-0.741
			S36.592,183.523,36.592,183.013z"/>
		<path d="M48.265,187.016h-2.546v-0.838c-0.165,0.134-0.353,0.277-0.563,0.43c-0.211,0.153-0.396,0.268-0.556,0.344
			c-0.204,0.096-0.405,0.167-0.604,0.215s-0.436,0.071-0.712,0.071c-0.931,0-1.668-0.379-2.211-1.139
			c-0.543-0.759-0.815-1.773-0.815-3.043c0-0.702,0.092-1.311,0.276-1.826c0.185-0.516,0.439-0.964,0.764-1.347
			c0.296-0.348,0.655-0.624,1.077-0.826c0.422-0.203,0.868-0.305,1.338-0.305c0.427,0,0.777,0.044,1.051,0.133
			c0.274,0.088,0.593,0.226,0.956,0.411v-3.423h2.546V187.016z M45.719,184.796v-3.946c-0.126-0.062-0.291-0.113-0.494-0.153
			c-0.204-0.041-0.378-0.062-0.524-0.062c-0.611,0-1.07,0.211-1.378,0.631c-0.308,0.42-0.462,1.007-0.462,1.762
			c0,0.792,0.122,1.365,0.367,1.718c0.245,0.354,0.641,0.53,1.189,0.53c0.223,0,0.449-0.043,0.676-0.129
			C45.321,185.061,45.53,184.943,45.719,184.796z"/>
		<path d="M57.888,187.016h-2.545v-0.888c-0.441,0.362-0.846,0.639-1.214,0.827c-0.369,0.188-0.808,0.282-1.316,0.282
			c-0.81,0-1.441-0.251-1.895-0.755c-0.454-0.504-0.68-1.262-0.68-2.273v-5.235h2.56v3.989c0,0.415,0.011,0.754,0.033,1.017
			s0.074,0.484,0.156,0.666c0.078,0.167,0.198,0.293,0.36,0.379c0.163,0.086,0.389,0.129,0.68,0.129
			c0.179,0,0.392-0.043,0.636-0.129c0.245-0.086,0.472-0.202,0.68-0.351v-5.7h2.545V187.016z"/>
		<path d="M62.411,177.828H59.72v-1.955h2.691V177.828z M62.338,187.016h-2.545v-8.042h2.545V187.016z"/>
		<path d="M66.983,187.173c-1.038,0-1.793-0.21-2.266-0.63s-0.709-1.107-0.709-2.063v-3.76h-0.975v-1.747h0.975v-2.299h2.545v2.299
			h2.451v1.747h-2.451v2.851c0,0.281,0.002,0.527,0.007,0.737s0.043,0.398,0.116,0.565c0.068,0.168,0.188,0.3,0.36,0.397
			c0.172,0.099,0.423,0.147,0.753,0.147c0.136,0,0.314-0.029,0.535-0.086c0.221-0.058,0.375-0.11,0.462-0.158h0.218v1.77
			c-0.276,0.071-0.569,0.127-0.88,0.168C67.814,187.152,67.434,187.173,66.983,187.173z"/>
		<path d="M75.44,187.224c-1.624,0-2.914-0.483-3.869-1.45s-1.433-2.326-1.433-4.078c0-1.69,0.479-3.038,1.437-4.043
			c0.958-1.005,2.249-1.507,3.873-1.507c0.432,0,0.819,0.023,1.164,0.071s0.674,0.114,0.989,0.2c0.248,0.072,0.517,0.17,0.807,0.294
			c0.291,0.124,0.526,0.231,0.706,0.322v2.542h-0.276c-0.131-0.114-0.296-0.252-0.495-0.411c-0.199-0.16-0.424-0.316-0.676-0.47
			c-0.252-0.152-0.53-0.282-0.833-0.39c-0.303-0.107-0.62-0.161-0.949-0.161c-0.393,0-0.753,0.061-1.08,0.183
			c-0.327,0.121-0.639,0.333-0.935,0.634c-0.271,0.271-0.493,0.64-0.666,1.103c-0.172,0.463-0.258,1.01-0.258,1.64
			c0,0.664,0.09,1.221,0.269,1.672c0.18,0.451,0.415,0.815,0.706,1.092c0.281,0.268,0.595,0.461,0.942,0.58
			c0.347,0.12,0.692,0.18,1.037,0.18c0.358,0,0.701-0.059,1.025-0.176s0.599-0.247,0.822-0.391c0.242-0.147,0.456-0.298,0.64-0.45
			c0.184-0.153,0.344-0.289,0.48-0.408h0.247v2.506c-0.199,0.091-0.429,0.194-0.691,0.312s-0.531,0.216-0.807,0.297
			c-0.339,0.101-0.657,0.177-0.953,0.229C76.367,187.197,75.959,187.224,75.44,187.224z"/>
		<path d="M87.946,182.998c0,1.322-0.368,2.364-1.102,3.126s-1.773,1.143-3.116,1.143c-1.333,0-2.37-0.381-3.109-1.143
			s-1.109-1.804-1.109-3.126c0-1.336,0.37-2.383,1.109-3.14s1.776-1.135,3.109-1.135c1.338,0,2.375,0.38,3.113,1.142
			C87.578,180.627,87.946,181.671,87.946,182.998z M85.335,183.013c0-0.478-0.04-0.875-0.12-1.192
			c-0.08-0.317-0.19-0.571-0.331-0.763c-0.15-0.2-0.32-0.34-0.509-0.419s-0.405-0.118-0.647-0.118c-0.228,0-0.434,0.035-0.618,0.104
			c-0.185,0.069-0.354,0.202-0.509,0.397c-0.146,0.187-0.262,0.442-0.349,0.767c-0.087,0.325-0.131,0.732-0.131,1.225
			c0,0.491,0.041,0.889,0.124,1.192c0.083,0.303,0.189,0.545,0.32,0.727c0.136,0.187,0.306,0.322,0.509,0.408
			s0.429,0.129,0.676,0.129c0.204,0,0.411-0.043,0.622-0.129s0.379-0.215,0.505-0.387c0.15-0.205,0.264-0.452,0.342-0.741
			S85.335,183.523,85.335,183.013z"/>
		<path d="M97.233,187.016h-2.56v-3.988c0-0.325-0.013-0.648-0.04-0.971c-0.026-0.322-0.076-0.56-0.149-0.713
			c-0.087-0.181-0.213-0.312-0.378-0.39c-0.165-0.079-0.386-0.118-0.662-0.118c-0.208,0-0.419,0.038-0.633,0.114
			s-0.441,0.198-0.684,0.365v5.7h-2.545v-8.042h2.545v0.888c0.417-0.348,0.823-0.62,1.218-0.815
			c0.395-0.196,0.833-0.294,1.313-0.294c0.833,0,1.471,0.259,1.913,0.776c0.441,0.519,0.662,1.27,0.662,2.253V187.016z"/>
		<path d="M103.08,187.23c-0.674,0-1.291-0.084-1.851-0.251s-1.046-0.425-1.458-0.773c-0.407-0.348-0.725-0.786-0.953-1.313
			c-0.228-0.527-0.342-1.149-0.342-1.865c0-0.769,0.124-1.423,0.371-1.963c0.248-0.539,0.582-0.983,1.004-1.332
			c0.407-0.334,0.886-0.581,1.436-0.74c0.55-0.16,1.124-0.24,1.72-0.24c0.451,0,0.902,0.051,1.353,0.154
			c0.451,0.103,0.904,0.266,1.36,0.49v2.148h-0.327c-0.102-0.096-0.227-0.201-0.375-0.315s-0.309-0.22-0.483-0.315
			c-0.185-0.1-0.393-0.185-0.625-0.254s-0.492-0.104-0.778-0.104c-0.65,0-1.153,0.223-1.509,0.669
			c-0.356,0.447-0.535,1.047-0.535,1.802c0,0.807,0.19,1.408,0.571,1.804c0.38,0.396,0.886,0.595,1.517,0.595
			c0.32,0,0.601-0.036,0.843-0.107c0.243-0.071,0.451-0.157,0.625-0.258c0.17-0.101,0.315-0.204,0.437-0.312s0.226-0.204,0.313-0.29
			h0.327v2.148c-0.146,0.063-0.314,0.134-0.505,0.215c-0.192,0.081-0.387,0.148-0.585,0.2c-0.248,0.067-0.479,0.118-0.695,0.154
			S103.434,187.23,103.08,187.23z"/>
		<path d="M112.679,181.344h-0.211c-0.097-0.033-0.238-0.058-0.422-0.075c-0.185-0.017-0.388-0.024-0.611-0.024
			c-0.267,0-0.547,0.038-0.84,0.114s-0.578,0.167-0.854,0.272v5.385h-2.545v-8.042h2.545v1.153c0.116-0.105,0.277-0.237,0.484-0.397
			c0.206-0.16,0.394-0.288,0.563-0.384c0.184-0.109,0.399-0.203,0.644-0.282s0.477-0.118,0.695-0.118
			c0.082,0,0.174,0.002,0.276,0.007c0.102,0.005,0.194,0.012,0.276,0.021V181.344z"/>
		<path d="M118.133,187.23c-1.542,0-2.724-0.362-3.545-1.089c-0.822-0.726-1.232-1.759-1.232-3.101c0-1.313,0.383-2.36,1.149-3.144
			s1.837-1.174,3.214-1.174c1.251,0,2.192,0.331,2.822,0.995c0.63,0.663,0.945,1.613,0.945,2.85v0.902h-5.578
			c0.024,0.373,0.104,0.685,0.24,0.935c0.136,0.251,0.315,0.45,0.538,0.598c0.218,0.148,0.473,0.255,0.764,0.319
			c0.291,0.064,0.608,0.097,0.953,0.097c0.295,0,0.586-0.032,0.873-0.097s0.548-0.149,0.786-0.255
			c0.208-0.09,0.401-0.188,0.578-0.293c0.177-0.105,0.321-0.198,0.433-0.279h0.269v2.069c-0.208,0.081-0.399,0.156-0.571,0.226
			c-0.172,0.069-0.409,0.14-0.709,0.211c-0.276,0.072-0.562,0.128-0.855,0.169C118.913,187.21,118.555,187.23,118.133,187.23z
			 M118.977,181.96c-0.015-0.53-0.139-0.934-0.375-1.21c-0.235-0.277-0.595-0.416-1.08-0.416c-0.495,0-0.881,0.146-1.16,0.438
			c-0.279,0.291-0.433,0.688-0.462,1.188H118.977z"/>
		<path d="M126.548,187.173c-1.038,0-1.793-0.21-2.266-0.63s-0.709-1.107-0.709-2.063v-3.76h-0.975v-1.747h0.975v-2.299h2.545v2.299
			h2.451v1.747h-2.451v2.851c0,0.281,0.002,0.527,0.007,0.737s0.043,0.398,0.116,0.565c0.068,0.168,0.188,0.3,0.36,0.397
			c0.172,0.099,0.423,0.147,0.753,0.147c0.136,0,0.314-0.029,0.535-0.086c0.221-0.058,0.375-0.11,0.462-0.158h0.218v1.77
			c-0.276,0.071-0.569,0.127-0.88,0.168C127.379,187.152,126.999,187.173,126.548,187.173z"/>
	</g>
	
		<line fill="none" stroke="#800000" stroke-width="0.7559" stroke-linecap="square" stroke-miterlimit="10" x1="7.378" y1="196.358" x2="134.662" y2="196.358"/>
	
		<line fill="none" stroke="#800000" stroke-width="0.7559" stroke-linecap="square" stroke-miterlimit="10" x1="7.378" y1="208.357" x2="134.662" y2="208.357"/>
	
		<rect x="228.093" y="11.036" fill-rule="evenodd" clip-rule="evenodd" fill="#FFFFB9" stroke="#800000" stroke-width="0.7559" stroke-linecap="square" stroke-miterlimit="10" width="121.868" height="89.327"/>
	<g>
		<path stroke="#000000" stroke-width="0.2376" stroke-miterlimit="10" d="M261.791,31.229c-0.708,0-1.319-0.118-1.834-0.351
			c-0.515-0.234-0.909-0.583-1.184-1.046c-0.275-0.462-0.414-1.041-0.417-1.732c-0.003-0.692,0.148-1.487,0.452-2.385
			c0.302-0.893,0.68-1.67,1.135-2.334c0.455-0.663,0.986-1.241,1.594-1.732c0.593-0.478,1.228-0.842,1.904-1.093
			c0.677-0.25,1.381-0.375,2.113-0.375c0.364,0,0.695,0.026,0.996,0.079c0.3,0.053,0.571,0.12,0.816,0.201
			c0.208,0.071,0.416,0.161,0.625,0.269c0.208,0.107,0.41,0.226,0.604,0.354l-0.579,1.711h-0.116
			c-0.087-0.115-0.203-0.252-0.347-0.416c-0.144-0.162-0.333-0.322-0.565-0.479c-0.227-0.148-0.486-0.27-0.778-0.365
			c-0.293-0.095-0.653-0.144-1.08-0.144c-0.46,0-0.928,0.093-1.403,0.279c-0.475,0.186-0.929,0.461-1.362,0.823
			c-0.429,0.363-0.82,0.819-1.176,1.368c-0.354,0.548-0.649,1.167-0.881,1.854c-0.248,0.731-0.371,1.36-0.371,1.887
			c0.001,0.527,0.095,0.973,0.282,1.335c0.181,0.354,0.446,0.619,0.792,0.798c0.347,0.179,0.748,0.269,1.203,0.269
			c0.417,0,0.819-0.05,1.208-0.15c0.388-0.101,0.745-0.227,1.074-0.38c0.317-0.148,0.598-0.3,0.844-0.454
			c0.247-0.155,0.444-0.288,0.593-0.398h0.109l-0.572,1.69c-0.274,0.11-0.535,0.215-0.78,0.315c-0.245,0.1-0.534,0.198-0.866,0.293
			c-0.35,0.101-0.667,0.177-0.955,0.229C262.582,31.203,262.222,31.229,261.791,31.229z"/>
		<path stroke="#000000" stroke-width="0.2376" stroke-miterlimit="10" d="M273.505,24.482h-0.073
			c-0.092-0.029-0.194-0.046-0.305-0.054c-0.112-0.006-0.248-0.01-0.408-0.01c-0.368,0-0.761,0.079-1.178,0.236
			s-0.84,0.392-1.271,0.702l-1.923,5.679h-1.367l2.708-7.999h1.367l-0.402,1.188c0.646-0.435,1.186-0.742,1.617-0.92
			c0.432-0.179,0.821-0.268,1.171-0.268c0.141,0,0.245,0.003,0.313,0.01s0.142,0.019,0.225,0.032L273.505,24.482z"/>
		<path stroke="#000000" stroke-width="0.2376" stroke-miterlimit="10" d="M277.213,31.221c-1.295,0-2.179-0.359-2.65-1.078
			c-0.472-0.719-0.484-1.739-0.037-3.061c0.441-1.303,1.139-2.341,2.093-3.112c0.955-0.771,1.992-1.156,3.112-1.156
			c0.504,0,0.926,0.071,1.265,0.215c0.339,0.143,0.603,0.367,0.791,0.673c0.188,0.305,0.284,0.679,0.29,1.12
			c0.005,0.442-0.101,0.982-0.317,1.623l-0.247,0.729h-5.629c-0.315,0.932-0.318,1.643-0.009,2.134
			c0.308,0.492,0.882,0.738,1.721,0.738c0.301,0,0.605-0.034,0.917-0.101c0.311-0.066,0.601-0.153,0.869-0.257
			c0.285-0.11,0.529-0.216,0.734-0.319s0.377-0.199,0.52-0.29h0.08l-0.497,1.468c-0.181,0.062-0.407,0.14-0.675,0.232
			c-0.269,0.093-0.507,0.167-0.713,0.218c-0.291,0.072-0.551,0.126-0.78,0.165C277.822,31.203,277.542,31.221,277.213,31.221z
			 M280.532,26.144c0.113-0.362,0.176-0.675,0.187-0.938c0.012-0.263-0.024-0.484-0.108-0.666c-0.093-0.2-0.246-0.353-0.46-0.458
			c-0.214-0.105-0.506-0.157-0.874-0.157c-0.364,0-0.691,0.053-0.982,0.161c-0.29,0.107-0.575,0.264-0.853,0.469
			c-0.275,0.21-0.509,0.443-0.702,0.698s-0.361,0.552-0.505,0.891H280.532z M283.289,19.033l-2.892,2.678h-1.084l2.208-2.678
			H283.289z"/>
		<path stroke="#000000" stroke-width="0.2376" stroke-miterlimit="10" d="M288.039,30.183c-0.139,0.082-0.327,0.194-0.562,0.339
			c-0.236,0.146-0.456,0.262-0.66,0.348c-0.284,0.124-0.551,0.219-0.798,0.287c-0.248,0.066-0.576,0.1-0.983,0.1
			c-0.335,0-0.631-0.062-0.89-0.186c-0.259-0.124-0.464-0.299-0.616-0.523c-0.144-0.22-0.227-0.491-0.248-0.813
			c-0.022-0.322,0.027-0.662,0.149-1.02c0.188-0.554,0.466-1.026,0.835-1.415c0.369-0.389,0.85-0.698,1.44-0.928
			c0.526-0.206,1.112-0.347,1.76-0.425c0.647-0.08,1.336-0.138,2.066-0.176l0.087-0.258c0.106-0.314,0.144-0.569,0.113-0.762
			s-0.116-0.343-0.255-0.448c-0.138-0.11-0.326-0.183-0.566-0.218c-0.24-0.036-0.493-0.054-0.76-0.054
			c-0.315,0-0.702,0.046-1.161,0.14c-0.458,0.093-0.93,0.228-1.416,0.404h-0.08l0.463-1.368c0.275-0.071,0.664-0.149,1.163-0.236
			c0.5-0.086,0.979-0.128,1.44-0.128c0.558,0,1.014,0.042,1.368,0.128c0.354,0.086,0.646,0.242,0.875,0.465
			c0.221,0.22,0.345,0.504,0.373,0.852c0.027,0.349-0.043,0.773-0.213,1.274l-1.853,5.472h-1.36L288.039,30.183z M288.417,29.066
			l0.751-2.22c-0.335,0.029-0.758,0.068-1.272,0.119c-0.514,0.05-0.939,0.12-1.276,0.21c-0.4,0.11-0.758,0.279-1.072,0.505
			s-0.54,0.543-0.678,0.949c-0.155,0.458-0.142,0.805,0.042,1.038c0.182,0.234,0.525,0.352,1.03,0.352
			c0.431,0,0.853-0.093,1.264-0.276C287.618,29.559,288.021,29.333,288.417,29.066z"/>
		<path stroke="#000000" stroke-width="0.2376" stroke-miterlimit="10" d="M295.089,31.192c-0.747,0-1.258-0.208-1.533-0.626
			c-0.275-0.418-0.262-1.078,0.044-1.98l1.501-4.432h-0.924l0.378-1.117h0.924l0.778-2.299h1.367l-0.778,2.299h2.517l-0.378,1.117
			h-2.517l-1.287,3.802c-0.138,0.406-0.236,0.719-0.295,0.938c-0.06,0.22-0.074,0.426-0.042,0.616
			c0.025,0.167,0.117,0.292,0.273,0.375c0.155,0.084,0.391,0.126,0.706,0.126c0.223,0,0.45-0.033,0.68-0.097
			c0.23-0.064,0.399-0.118,0.506-0.161h0.08l-0.41,1.211c-0.281,0.071-0.561,0.127-0.838,0.168
			C295.563,31.172,295.312,31.192,295.089,31.192z"/>
		<path stroke="#000000" stroke-width="0.2376" stroke-miterlimit="10" d="M302.918,31.221c-1.295,0-2.179-0.359-2.65-1.078
			c-0.472-0.719-0.484-1.739-0.037-3.061c0.441-1.303,1.139-2.341,2.093-3.112c0.955-0.771,1.992-1.156,3.112-1.156
			c0.504,0,0.926,0.071,1.266,0.215c0.339,0.143,0.603,0.367,0.79,0.673c0.188,0.305,0.284,0.679,0.29,1.12
			c0.006,0.442-0.101,0.982-0.317,1.623l-0.247,0.729h-5.629c-0.315,0.932-0.318,1.643-0.009,2.134
			c0.308,0.492,0.882,0.738,1.721,0.738c0.301,0,0.605-0.034,0.917-0.101c0.311-0.066,0.601-0.153,0.869-0.257
			c0.285-0.11,0.529-0.216,0.734-0.319c0.205-0.103,0.378-0.199,0.521-0.29h0.08l-0.498,1.468c-0.181,0.062-0.407,0.14-0.675,0.232
			c-0.269,0.093-0.507,0.167-0.713,0.218c-0.291,0.072-0.551,0.126-0.78,0.165C303.527,31.203,303.248,31.221,302.918,31.221z
			 M306.237,26.144c0.112-0.362,0.176-0.675,0.187-0.938c0.012-0.263-0.024-0.484-0.108-0.666c-0.093-0.2-0.245-0.353-0.46-0.458
			c-0.214-0.105-0.506-0.157-0.874-0.157c-0.364,0-0.691,0.053-0.982,0.161c-0.29,0.107-0.575,0.264-0.853,0.469
			c-0.275,0.21-0.509,0.443-0.702,0.698s-0.361,0.552-0.505,0.891H306.237z"/>
		<path stroke="#000000" stroke-width="0.2376" stroke-miterlimit="10" d="M315.245,31.035h-1.367l0.301-0.888
			c-0.545,0.363-1.038,0.638-1.48,0.827c-0.441,0.188-0.896,0.283-1.361,0.283c-0.354,0-0.667-0.057-0.941-0.172
			c-0.273-0.115-0.485-0.296-0.634-0.544c-0.149-0.248-0.224-0.562-0.225-0.938c0-0.377,0.09-0.835,0.273-1.375l1.757-5.191h1.367
			l-1.542,4.554c-0.144,0.425-0.247,0.777-0.31,1.056c-0.063,0.28-0.075,0.525-0.034,0.735c0.042,0.205,0.143,0.355,0.303,0.45
			c0.158,0.096,0.418,0.144,0.776,0.144c0.335,0,0.723-0.093,1.163-0.279c0.441-0.186,0.865-0.416,1.273-0.688l2.021-5.972h1.367
			L315.245,31.035z"/>
		<path stroke="#000000" stroke-width="0.2376" stroke-miterlimit="10" d="M324.909,24.482h-0.073
			c-0.092-0.029-0.194-0.046-0.305-0.054c-0.113-0.006-0.248-0.01-0.408-0.01c-0.368,0-0.761,0.079-1.178,0.236
			s-0.84,0.392-1.271,0.702l-1.923,5.679h-1.367l2.708-7.999h1.367l-0.402,1.188c0.646-0.435,1.186-0.742,1.617-0.92
			c0.432-0.179,0.821-0.268,1.171-0.268c0.141,0,0.245,0.003,0.313,0.01c0.068,0.007,0.143,0.019,0.226,0.032L324.909,24.482z"/>
	</g>
	
		<line fill="none" stroke="#800000" stroke-width="0.7559" stroke-linecap="square" stroke-miterlimit="10" x1="228.093" y1="40.368" x2="351.314" y2="40.368"/>
	<g>
		<path d="M245.941,68.262h-3.673l-1.225,3.616h-1.207l1.225-3.616h-3.673l0.388-1.146h3.673l1.224-3.616h1.207l-1.224,3.616h3.673
			L245.941,68.262z"/>
		<path d="M254.298,62.504h-0.073c-0.107-0.042-0.267-0.084-0.481-0.125c-0.214-0.041-0.411-0.061-0.59-0.061
			c-0.577,0-1.031,0.127-1.363,0.383c-0.331,0.255-0.61,0.718-0.836,1.386l-0.092,0.273h2.262l-0.378,1.116h-2.218l-2.33,6.882
			h-1.367l2.33-6.882h-0.924l0.378-1.116h0.924l0.09-0.266c0.326-0.964,0.81-1.697,1.449-2.199c0.641-0.501,1.398-0.751,2.276-0.751
			c0.252,0,0.495,0.013,0.729,0.039c0.233,0.027,0.443,0.057,0.632,0.09L254.298,62.504z"/>
		<path d="M256.924,71.506c-0.139,0.082-0.326,0.194-0.562,0.339c-0.236,0.146-0.456,0.262-0.66,0.348
			c-0.284,0.124-0.551,0.219-0.798,0.287c-0.248,0.066-0.576,0.1-0.983,0.1c-0.335,0-0.632-0.062-0.891-0.186
			c-0.259-0.124-0.463-0.298-0.616-0.522c-0.143-0.22-0.226-0.491-0.249-0.813c-0.021-0.322,0.028-0.662,0.149-1.021
			c0.188-0.554,0.467-1.025,0.835-1.414c0.369-0.39,0.85-0.698,1.441-0.928c0.525-0.206,1.111-0.347,1.759-0.426
			c0.647-0.079,1.335-0.138,2.066-0.176l0.087-0.258c0.106-0.314,0.144-0.569,0.112-0.762s-0.116-0.343-0.256-0.448
			c-0.137-0.11-0.325-0.183-0.565-0.218c-0.241-0.036-0.494-0.054-0.76-0.054c-0.315,0-0.702,0.046-1.161,0.14
			c-0.458,0.093-0.931,0.228-1.416,0.404h-0.08l0.463-1.368c0.276-0.071,0.664-0.15,1.163-0.236c0.5-0.086,0.979-0.128,1.44-0.128
			c0.558,0,1.014,0.042,1.367,0.128s0.646,0.242,0.876,0.465c0.22,0.22,0.345,0.504,0.373,0.852
			c0.027,0.349-0.043,0.773-0.213,1.274l-1.852,5.472h-1.36L256.924,71.506z M257.303,70.389l0.751-2.22
			c-0.335,0.029-0.758,0.068-1.272,0.118c-0.514,0.05-0.939,0.121-1.275,0.211c-0.4,0.11-0.758,0.278-1.072,0.505
			c-0.315,0.227-0.54,0.543-0.678,0.949c-0.155,0.458-0.142,0.805,0.041,1.038c0.183,0.234,0.525,0.352,1.03,0.352
			c0.431,0,0.853-0.093,1.265-0.276C256.503,70.882,256.907,70.656,257.303,70.389z"/>
		<path d="M268.427,68.226c-0.442,1.308-1.121,2.361-2.036,3.158c-0.916,0.797-1.857,1.196-2.827,1.196
			c-0.441,0-0.8-0.054-1.076-0.161c-0.277-0.107-0.537-0.252-0.781-0.434l-0.213,0.373h-1.28l3.772-11.143h1.367l-1.348,3.981
			c0.447-0.305,0.907-0.559,1.376-0.758c0.471-0.201,0.96-0.301,1.469-0.301c0.916,0,1.516,0.362,1.8,1.084
			C268.935,65.945,268.861,66.947,268.427,68.226z M266.98,68.333c0.323-0.955,0.421-1.679,0.292-2.173
			c-0.128-0.495-0.519-0.742-1.174-0.742c-0.373,0-0.779,0.086-1.218,0.258c-0.439,0.172-0.857,0.39-1.257,0.652l-1.552,4.583
			c0.287,0.167,0.553,0.286,0.796,0.354c0.243,0.069,0.525,0.104,0.844,0.104c0.698,0,1.329-0.244,1.893-0.73
			C266.166,70.153,266.625,69.384,266.98,68.333z"/>
		<path d="M274.867,65.806h-0.073c-0.092-0.029-0.194-0.046-0.305-0.054c-0.112-0.006-0.248-0.01-0.408-0.01
			c-0.368,0-0.761,0.079-1.177,0.236c-0.418,0.157-0.841,0.391-1.271,0.702l-1.922,5.679h-1.367l2.708-7.999h1.367l-0.402,1.188
			c0.646-0.435,1.186-0.742,1.617-0.92c0.432-0.179,0.821-0.268,1.171-0.268c0.141,0,0.246,0.002,0.313,0.01
			c0.068,0.007,0.143,0.019,0.226,0.032L274.867,65.806z"/>
		<path d="M275.151,72.358h-1.367l2.708-7.999h1.367L275.151,72.358z M278.407,63.021h-1.557l0.473-1.397h1.557L278.407,63.021z"/>
		<path d="M281.729,75.309h-1.367l1.294-3.824c-0.52,0.358-0.996,0.619-1.429,0.784s-0.882,0.247-1.342,0.247
			c-0.922,0-1.533-0.364-1.834-1.092c-0.302-0.728-0.233-1.742,0.207-3.041c0.232-0.687,0.534-1.295,0.905-1.822
			c0.37-0.527,0.773-0.97,1.209-1.328c0.419-0.349,0.868-0.618,1.35-0.809c0.481-0.191,0.947-0.286,1.398-0.286
			c0.417,0,0.762,0.047,1.036,0.143c0.273,0.096,0.538,0.237,0.796,0.423l0.203-0.343h1.28L281.729,75.309z M282.04,70.353
			l1.542-4.554c-0.288-0.167-0.557-0.284-0.805-0.351c-0.249-0.067-0.529-0.1-0.839-0.1c-0.718,0-1.356,0.255-1.917,0.766
			c-0.562,0.511-1.004,1.246-1.329,2.206c-0.316,0.935-0.405,1.655-0.265,2.159c0.14,0.503,0.537,0.756,1.191,0.756
			c0.383,0,0.784-0.082,1.203-0.244C281.238,70.828,281.645,70.616,282.04,70.353z"/>
		<path d="M290.929,72.358h-1.367l0.301-0.888c-0.545,0.363-1.039,0.638-1.48,0.827c-0.442,0.188-0.896,0.283-1.361,0.283
			c-0.354,0-0.667-0.057-0.942-0.172c-0.274-0.115-0.485-0.296-0.634-0.544c-0.148-0.248-0.223-0.562-0.224-0.938
			c-0.001-0.377,0.09-0.835,0.272-1.375l1.757-5.191h1.367l-1.542,4.554c-0.144,0.425-0.247,0.777-0.31,1.056
			c-0.063,0.279-0.075,0.524-0.034,0.734c0.042,0.206,0.143,0.355,0.302,0.451c0.159,0.096,0.418,0.144,0.776,0.144
			c0.335,0,0.723-0.093,1.164-0.28c0.441-0.186,0.865-0.415,1.273-0.687l2.021-5.972h1.367L290.929,72.358z"/>
		<path d="M296.193,72.544c-1.295,0-2.178-0.359-2.65-1.078c-0.473-0.719-0.484-1.739-0.037-3.061
			c0.441-1.303,1.14-2.341,2.094-3.112c0.954-0.771,1.992-1.156,3.112-1.156c0.504,0,0.926,0.071,1.265,0.215
			c0.339,0.143,0.604,0.367,0.791,0.673c0.188,0.305,0.283,0.679,0.29,1.12c0.005,0.442-0.1,0.982-0.317,1.623l-0.247,0.729h-5.629
			c-0.315,0.932-0.319,1.643-0.01,2.134c0.308,0.492,0.882,0.738,1.721,0.738c0.301,0,0.606-0.033,0.918-0.101
			c0.311-0.067,0.601-0.153,0.869-0.257c0.285-0.11,0.529-0.216,0.734-0.319c0.205-0.103,0.378-0.199,0.52-0.29h0.08l-0.497,1.468
			c-0.181,0.062-0.407,0.14-0.675,0.232c-0.269,0.093-0.508,0.167-0.714,0.218c-0.291,0.072-0.55,0.126-0.779,0.165
			C296.802,72.525,296.522,72.544,296.193,72.544z M299.512,67.467c0.113-0.363,0.176-0.675,0.187-0.938
			c0.012-0.263-0.024-0.485-0.109-0.666c-0.092-0.2-0.246-0.353-0.46-0.458c-0.213-0.105-0.505-0.157-0.873-0.157
			c-0.364,0-0.691,0.054-0.982,0.161c-0.29,0.107-0.576,0.264-0.853,0.469c-0.275,0.21-0.508,0.443-0.703,0.699
			c-0.192,0.255-0.36,0.552-0.504,0.891H299.512z"/>
		<path d="M304.028,75.309h-1.666c-0.509-0.989-0.818-2.034-0.928-3.137c-0.108-1.104,0.091-2.406,0.601-3.91
			c0.498-1.471,1.175-2.766,2.032-3.885s1.878-2.174,3.066-3.162h1.666l-0.023,0.071c-0.511,0.349-1.021,0.751-1.533,1.207
			c-0.511,0.456-1.021,0.987-1.533,1.593c-0.489,0.587-0.944,1.235-1.366,1.94c-0.421,0.707-0.764,1.452-1.029,2.235
			c-0.276,0.816-0.44,1.563-0.493,2.241c-0.053,0.678-0.032,1.323,0.061,1.934c0.092,0.587,0.245,1.118,0.458,1.594
			c0.212,0.474,0.449,0.876,0.712,1.206L304.028,75.309z"/>
		<path d="M311.585,68.262c-0.5,1.476-1.178,2.771-2.036,3.888c-0.857,1.118-1.879,2.17-3.062,3.159h-1.667l0.024-0.072
			c0.484-0.33,0.997-0.733,1.539-1.214c0.541-0.48,1.049-1.008,1.526-1.586c0.509-0.616,0.969-1.267,1.377-1.951
			c0.408-0.685,0.748-1.426,1.019-2.224c0.267-0.788,0.429-1.533,0.487-2.235c0.057-0.701,0.039-1.349-0.057-1.94
			s-0.249-1.124-0.462-1.597c-0.214-0.473-0.449-0.874-0.706-1.203l0.023-0.071h1.666c0.509,0.988,0.816,2.039,0.922,3.15
			C312.285,65.479,312.088,66.778,311.585,68.262z"/>
	</g>
	<g>
		<path d="M244.555,85.595h-3.673v3.616h-1.208v-3.616h-3.673v-1.146h3.673v-3.617h1.208v3.617h3.673V85.595z"/>
		<path d="M253.013,89.691h-1.367v-0.888c-0.422,0.363-0.822,0.639-1.2,0.827c-0.378,0.188-0.8,0.283-1.265,0.283
			c-0.354,0-0.688-0.058-1-0.172c-0.313-0.115-0.585-0.296-0.818-0.544c-0.233-0.248-0.414-0.561-0.542-0.938
			s-0.192-0.835-0.192-1.375v-5.192h1.367v4.555c0,0.425,0.016,0.777,0.047,1.056c0.031,0.279,0.103,0.524,0.214,0.734
			c0.111,0.206,0.263,0.356,0.455,0.451c0.191,0.096,0.467,0.143,0.826,0.143c0.334,0,0.691-0.093,1.069-0.279
			c0.378-0.187,0.725-0.416,1.04-0.688v-5.973h1.367V89.691z"/>
		<path d="M261.198,89.691h-1.367v-4.554c0-0.368-0.018-0.71-0.055-1.028c-0.036-0.317-0.105-0.572-0.207-0.763
			c-0.112-0.2-0.267-0.35-0.465-0.447c-0.199-0.098-0.471-0.147-0.815-0.147c-0.339,0-0.689,0.089-1.051,0.269
			s-0.714,0.412-1.058,0.698v5.972h-1.367v-7.999h1.367v0.888c0.407-0.358,0.81-0.632,1.207-0.824
			c0.398-0.191,0.817-0.286,1.258-0.286c0.8,0,1.426,0.259,1.876,0.777c0.451,0.518,0.676,1.269,0.676,2.252V89.691z"/>
		<path d="M266.467,89.877c-1.295,0-2.3-0.359-3.015-1.078c-0.715-0.718-1.073-1.739-1.073-3.061c0-1.304,0.347-2.341,1.04-3.112
			s1.6-1.156,2.72-1.156c0.504,0,0.951,0.071,1.338,0.215c0.388,0.143,0.728,0.368,1.018,0.673c0.291,0.306,0.514,0.679,0.669,1.121
			c0.155,0.442,0.232,0.982,0.232,1.622v0.73h-5.629c0,0.931,0.237,1.643,0.712,2.134s1.132,0.737,1.971,0.737
			c0.301,0,0.595-0.033,0.884-0.1c0.288-0.067,0.549-0.153,0.782-0.258c0.247-0.11,0.456-0.216,0.625-0.319
			c0.169-0.103,0.31-0.199,0.422-0.29h0.08v1.468c-0.16,0.062-0.359,0.14-0.597,0.232c-0.237,0.093-0.451,0.166-0.64,0.219
			c-0.267,0.071-0.508,0.126-0.724,0.165S266.797,89.877,266.467,89.877z M268.067,84.8c-0.01-0.363-0.054-0.675-0.131-0.938
			c-0.077-0.262-0.189-0.484-0.334-0.666c-0.16-0.2-0.365-0.353-0.614-0.458c-0.25-0.105-0.559-0.158-0.927-0.158
			c-0.364,0-0.673,0.054-0.927,0.161c-0.255,0.107-0.486,0.264-0.695,0.469c-0.204,0.21-0.359,0.442-0.465,0.698
			c-0.107,0.256-0.175,0.553-0.204,0.892H268.067z"/>
		<path d="M278.83,80.253c0.412,0.468,0.732,1.048,0.96,1.74c0.228,0.692,0.342,1.482,0.342,2.371c0,0.864-0.112,1.645-0.335,2.341
			c-0.223,0.697-0.545,1.282-0.967,1.754c-0.441,0.497-0.956,0.863-1.545,1.1c-0.589,0.236-1.237,0.354-1.945,0.354
			c-0.732,0-1.392-0.122-1.979-0.365c-0.586-0.244-1.091-0.606-1.513-1.089c-0.417-0.472-0.737-1.055-0.96-1.747
			c-0.223-0.692-0.334-1.475-0.334-2.349c0-0.897,0.113-1.686,0.338-2.363c0.225-0.678,0.546-1.26,0.963-1.747
			c0.417-0.473,0.92-0.832,1.509-1.078c0.589-0.246,1.247-0.369,1.975-0.369c0.737,0,1.401,0.126,1.993,0.379
			C277.923,79.439,278.423,79.794,278.83,80.253z M278.634,84.363c0-0.707-0.078-1.332-0.232-1.876
			c-0.155-0.544-0.374-0.995-0.655-1.354c-0.286-0.367-0.631-0.643-1.036-0.827c-0.405-0.184-0.86-0.276-1.364-0.276
			c-0.524,0-0.981,0.089-1.371,0.269s-0.736,0.457-1.036,0.834c-0.286,0.363-0.506,0.819-0.658,1.368
			c-0.153,0.549-0.229,1.169-0.229,1.862c0,1.399,0.298,2.469,0.895,3.211c0.597,0.743,1.396,1.114,2.4,1.114
			c1.003,0,1.802-0.371,2.396-1.114C278.337,86.833,278.634,85.762,278.634,84.363z"/>
		<path d="M288.699,85.48c0,1.332-0.324,2.393-0.971,3.183c-0.647,0.791-1.466,1.186-2.455,1.186c-0.403,0-0.759-0.045-1.069-0.136
			c-0.31-0.091-0.628-0.231-0.953-0.422v3.351h-1.367V81.692h1.367v0.838c0.339-0.301,0.716-0.552,1.131-0.755
			c0.415-0.203,0.867-0.304,1.356-0.304c0.931,0,1.657,0.363,2.178,1.088C288.438,83.284,288.699,84.258,288.699,85.48z
			 M287.289,85.631c0-0.912-0.148-1.62-0.444-2.124c-0.296-0.503-0.776-0.755-1.44-0.755c-0.388,0-0.763,0.085-1.124,0.254
			c-0.361,0.169-0.705,0.388-1.029,0.655v4.533c0.359,0.172,0.666,0.289,0.92,0.351c0.254,0.063,0.547,0.093,0.876,0.093
			c0.708,0,1.258-0.255,1.651-0.766S287.289,86.614,287.289,85.631z"/>
		<path d="M293.541,89.877c-1.295,0-2.3-0.359-3.015-1.078c-0.715-0.718-1.073-1.739-1.073-3.061c0-1.304,0.347-2.341,1.04-3.112
			s1.6-1.156,2.72-1.156c0.504,0,0.951,0.071,1.338,0.215c0.388,0.143,0.728,0.368,1.018,0.673c0.291,0.306,0.514,0.679,0.669,1.121
			c0.155,0.442,0.232,0.982,0.232,1.622v0.73h-5.629c0,0.931,0.237,1.643,0.712,2.134s1.132,0.737,1.971,0.737
			c0.301,0,0.595-0.033,0.884-0.1c0.288-0.067,0.549-0.153,0.782-0.258c0.247-0.11,0.456-0.216,0.625-0.319
			c0.169-0.103,0.31-0.199,0.422-0.29h0.08v1.468c-0.16,0.062-0.359,0.14-0.597,0.232c-0.237,0.093-0.451,0.166-0.64,0.219
			c-0.267,0.071-0.508,0.126-0.724,0.165S293.87,89.877,293.541,89.877z M295.141,84.8c-0.01-0.363-0.054-0.675-0.131-0.938
			c-0.077-0.262-0.189-0.484-0.334-0.666c-0.16-0.2-0.365-0.353-0.614-0.458c-0.25-0.105-0.559-0.158-0.927-0.158
			c-0.364,0-0.673,0.054-0.927,0.161c-0.255,0.107-0.486,0.264-0.695,0.469c-0.204,0.21-0.359,0.442-0.465,0.698
			c-0.107,0.256-0.175,0.553-0.204,0.892H295.141z"/>
		<path d="M302.441,83.139h-0.072c-0.102-0.029-0.21-0.046-0.324-0.054c-0.114-0.007-0.251-0.011-0.411-0.011
			c-0.369,0-0.734,0.079-1.098,0.236c-0.364,0.157-0.708,0.392-1.033,0.702v5.679h-1.367v-7.999h1.367v1.189
			c0.5-0.435,0.935-0.741,1.306-0.92c0.371-0.179,0.731-0.269,1.08-0.269c0.141,0,0.246,0.004,0.316,0.011
			c0.07,0.007,0.149,0.018,0.236,0.032V83.139z"/>
		<path d="M308.087,88.839c-0.112,0.081-0.261,0.194-0.447,0.34c-0.188,0.146-0.368,0.262-0.542,0.348
			c-0.243,0.124-0.477,0.219-0.702,0.286s-0.542,0.101-0.949,0.101c-0.334,0-0.652-0.063-0.953-0.187s-0.565-0.298-0.793-0.522
			c-0.218-0.22-0.393-0.491-0.523-0.813s-0.196-0.662-0.196-1.021c0-0.554,0.119-1.025,0.356-1.414
			c0.237-0.389,0.613-0.698,1.127-0.927c0.456-0.206,0.994-0.348,1.615-0.426c0.621-0.079,1.29-0.137,2.008-0.175V84.17
			c0-0.315-0.049-0.569-0.146-0.763c-0.098-0.193-0.233-0.343-0.407-0.448c-0.175-0.11-0.389-0.183-0.641-0.218
			s-0.512-0.054-0.778-0.054c-0.315,0-0.686,0.046-1.112,0.14c-0.427,0.093-0.854,0.228-1.28,0.405h-0.08v-1.368
			c0.252-0.071,0.613-0.15,1.084-0.236c0.47-0.086,0.936-0.129,1.396-0.129c0.558,0,1.027,0.043,1.411,0.129
			c0.383,0.086,0.727,0.241,1.032,0.466c0.296,0.219,0.517,0.503,0.662,0.852s0.218,0.773,0.218,1.274v5.471h-1.359V88.839z
			 M308.087,87.722v-2.22c-0.325,0.028-0.736,0.068-1.233,0.118c-0.497,0.05-0.898,0.121-1.204,0.211
			c-0.363,0.11-0.664,0.278-0.902,0.505c-0.237,0.227-0.356,0.543-0.356,0.949c0,0.458,0.131,0.805,0.393,1.039
			s0.645,0.351,1.149,0.351c0.432,0,0.822-0.092,1.171-0.275C307.454,88.215,307.781,87.989,308.087,87.722z"/>
		<path d="M314.123,89.849c-0.747,0-1.328-0.209-1.745-0.627c-0.417-0.417-0.626-1.078-0.626-1.98v-4.433h-0.924v-1.117h0.924
			v-2.298h1.367v2.298h2.517v1.117h-2.517v3.803c0,0.406,0.008,0.718,0.022,0.938s0.07,0.425,0.167,0.616
			c0.082,0.167,0.216,0.292,0.4,0.376c0.184,0.083,0.434,0.125,0.749,0.125c0.223,0,0.438-0.032,0.646-0.097
			c0.209-0.064,0.359-0.118,0.451-0.161h0.08v1.21c-0.257,0.072-0.518,0.128-0.781,0.168
			C314.59,89.828,314.346,89.849,314.123,89.849z"/>
		<path d="M318.569,80.353h-1.557v-1.396h1.557V80.353z M318.475,89.691h-1.367v-7.999h1.367V89.691z"/>
		<path d="M326.48,85.695c0,1.346-0.33,2.386-0.989,3.118c-0.659,0.733-1.537,1.1-2.633,1.1c-1.13,0-2.018-0.378-2.665-1.135
			c-0.647-0.756-0.971-1.784-0.971-3.083c0-1.337,0.333-2.375,1-3.115c0.666-0.74,1.545-1.11,2.636-1.11
			c1.096,0,1.974,0.369,2.633,1.106C326.15,83.314,326.48,84.354,326.48,85.695z M325.069,85.695c0-1.036-0.191-1.806-0.574-2.31
			c-0.383-0.504-0.929-0.755-1.637-0.755c-0.713,0-1.262,0.251-1.647,0.755c-0.385,0.503-0.578,1.273-0.578,2.31
			c0,1.002,0.193,1.763,0.578,2.281c0.386,0.518,0.935,0.777,1.647,0.777c0.703,0,1.247-0.254,1.633-0.763
			S325.069,86.717,325.069,85.695z"/>
		<path d="M334.3,89.691h-1.367v-4.554c0-0.368-0.019-0.71-0.055-1.028c-0.037-0.317-0.105-0.572-0.208-0.763
			c-0.111-0.2-0.267-0.35-0.465-0.447c-0.199-0.098-0.471-0.147-0.814-0.147c-0.34,0-0.69,0.089-1.051,0.269
			c-0.361,0.179-0.715,0.412-1.059,0.698v5.972h-1.367v-7.999h1.367v0.888c0.407-0.358,0.81-0.632,1.207-0.824
			c0.397-0.191,0.817-0.286,1.259-0.286c0.8,0,1.425,0.259,1.876,0.777s0.677,1.269,0.677,2.252V89.691z"/>
		<path d="M340.216,92.641h-1.666c-0.844-0.988-1.507-2.034-1.989-3.136c-0.482-1.103-0.724-2.406-0.724-3.91
			c0-1.47,0.239-2.765,0.717-3.885s1.143-2.173,1.996-3.162h1.666v0.072c-0.393,0.349-0.768,0.75-1.124,1.207
			s-0.688,0.987-0.993,1.593c-0.29,0.587-0.526,1.234-0.709,1.94c-0.182,0.707-0.272,1.452-0.272,2.234
			c0,0.816,0.089,1.563,0.266,2.242c0.177,0.678,0.416,1.322,0.716,1.933c0.291,0.587,0.623,1.118,0.997,1.593
			c0.373,0.475,0.746,0.877,1.12,1.207V92.641z"/>
		<path d="M345.387,85.595c0,1.475-0.239,2.771-0.72,3.889c-0.479,1.117-1.145,2.169-1.992,3.158h-1.666V92.57
			c0.373-0.33,0.749-0.734,1.127-1.214c0.379-0.48,0.708-1.009,0.989-1.586c0.301-0.616,0.54-1.266,0.717-1.951
			s0.266-1.426,0.266-2.224c0-0.788-0.09-1.532-0.27-2.234c-0.18-0.702-0.417-1.348-0.713-1.94c-0.296-0.592-0.63-1.124-1.003-1.597
			c-0.374-0.473-0.745-0.874-1.113-1.203v-0.072h1.666c0.843,0.988,1.506,2.039,1.988,3.151S345.387,84.11,345.387,85.595z"/>
	</g>
	
		<line fill="none" stroke="#800000" stroke-width="0.7559" stroke-linecap="square" stroke-miterlimit="10" x1="228.093" y1="52.367" x2="351.314" y2="52.367"/>
	
		<rect x="219.968" y="157.693" fill-rule="evenodd" clip-rule="evenodd" fill="#FFFFB9" stroke="#800000" stroke-width="0.7559" stroke-linecap="square" stroke-miterlimit="10" width="138.117" height="71.994"/>
	<g>
		<path d="M232.52,177.909c-1.624,0-2.914-0.483-3.869-1.45s-1.433-2.326-1.433-4.078c0-1.69,0.479-3.038,1.437-4.043
			c0.958-1.005,2.249-1.507,3.873-1.507c0.432,0,0.819,0.023,1.164,0.071s0.674,0.114,0.989,0.2c0.248,0.072,0.517,0.17,0.807,0.294
			c0.291,0.124,0.526,0.231,0.706,0.322v2.542h-0.276c-0.131-0.114-0.296-0.252-0.495-0.411c-0.199-0.16-0.424-0.316-0.676-0.47
			c-0.252-0.152-0.53-0.282-0.833-0.39c-0.303-0.107-0.62-0.161-0.949-0.161c-0.393,0-0.753,0.061-1.08,0.183
			c-0.327,0.121-0.639,0.333-0.935,0.634c-0.271,0.271-0.493,0.64-0.666,1.103c-0.172,0.463-0.258,1.01-0.258,1.64
			c0,0.664,0.09,1.221,0.269,1.672c0.18,0.451,0.415,0.815,0.706,1.092c0.281,0.268,0.595,0.461,0.942,0.58
			c0.347,0.12,0.692,0.18,1.037,0.18c0.358,0,0.701-0.059,1.025-0.176s0.599-0.247,0.822-0.391c0.242-0.147,0.456-0.298,0.64-0.45
			c0.184-0.153,0.344-0.289,0.48-0.408h0.247v2.506c-0.199,0.091-0.429,0.194-0.691,0.312s-0.531,0.216-0.807,0.297
			c-0.339,0.101-0.657,0.177-0.953,0.229C233.446,177.883,233.039,177.909,232.52,177.909z"/>
		<path d="M242.669,172.029h-0.211c-0.097-0.033-0.238-0.058-0.422-0.075c-0.185-0.017-0.388-0.024-0.611-0.024
			c-0.267,0-0.547,0.038-0.84,0.114s-0.578,0.167-0.854,0.272v5.385h-2.545v-8.042h2.545v1.153c0.116-0.105,0.277-0.237,0.484-0.397
			c0.206-0.16,0.394-0.288,0.563-0.384c0.184-0.109,0.399-0.203,0.644-0.282s0.477-0.118,0.695-0.118
			c0.082,0,0.174,0.002,0.276,0.007c0.102,0.005,0.194,0.012,0.276,0.021V172.029z"/>
		<path d="M248.123,177.916c-1.542,0-2.724-0.362-3.545-1.089c-0.822-0.726-1.232-1.759-1.232-3.101c0-1.313,0.383-2.36,1.149-3.144
			s1.837-1.174,3.214-1.174c1.251,0,2.192,0.331,2.822,0.995c0.63,0.663,0.945,1.613,0.945,2.85v0.902h-5.578
			c0.024,0.373,0.104,0.685,0.24,0.935c0.136,0.251,0.315,0.45,0.538,0.598c0.218,0.148,0.473,0.255,0.764,0.319
			c0.291,0.064,0.608,0.097,0.953,0.097c0.295,0,0.586-0.032,0.873-0.097s0.548-0.149,0.786-0.255
			c0.208-0.09,0.401-0.188,0.578-0.293c0.177-0.105,0.321-0.198,0.433-0.279h0.269v2.069c-0.208,0.081-0.399,0.156-0.571,0.226
			c-0.172,0.069-0.409,0.14-0.709,0.211c-0.276,0.072-0.562,0.128-0.855,0.169C248.903,177.896,248.545,177.916,248.123,177.916z
			 M248.967,172.646c-0.015-0.53-0.139-0.934-0.375-1.21c-0.235-0.277-0.595-0.416-1.08-0.416c-0.495,0-0.881,0.146-1.16,0.438
			c-0.279,0.291-0.433,0.688-0.462,1.188H248.967z"/>
		<path d="M257.913,176.849c-0.175,0.144-0.331,0.272-0.469,0.387c-0.138,0.115-0.324,0.229-0.556,0.344
			c-0.228,0.11-0.45,0.193-0.666,0.251s-0.518,0.086-0.906,0.086c-0.722,0-1.322-0.238-1.8-0.716s-0.716-1.079-0.716-1.805
			c0-0.597,0.121-1.079,0.363-1.446c0.243-0.368,0.592-0.659,1.047-0.874c0.461-0.22,1.011-0.372,1.651-0.458
			c0.64-0.086,1.329-0.153,2.066-0.201v-0.043c0-0.443-0.167-0.75-0.499-0.92c-0.332-0.169-0.83-0.254-1.495-0.254
			c-0.3,0-0.652,0.054-1.054,0.161c-0.403,0.107-0.795,0.244-1.178,0.411h-0.218v-1.94c0.252-0.071,0.659-0.156,1.222-0.254
			s1.13-0.146,1.702-0.146c1.406,0,2.43,0.229,3.073,0.69c0.642,0.461,0.963,1.164,0.963,2.109v5.471h-2.531V176.849z
			 M257.913,175.603v-1.675c-0.432,0.043-0.781,0.08-1.047,0.11c-0.267,0.031-0.528,0.092-0.786,0.183
			c-0.223,0.076-0.396,0.192-0.52,0.348c-0.124,0.155-0.185,0.361-0.185,0.619c0,0.377,0.103,0.637,0.309,0.777
			c0.206,0.141,0.51,0.211,0.913,0.211c0.223,0,0.451-0.05,0.684-0.15S257.724,175.784,257.913,175.603z"/>
		<path d="M266.006,177.858c-1.038,0-1.793-0.21-2.266-0.63s-0.709-1.107-0.709-2.063v-3.76h-0.975v-1.747h0.975v-2.299h2.545v2.299
			h2.451v1.747h-2.451v2.851c0,0.281,0.002,0.527,0.007,0.737s0.043,0.398,0.116,0.565c0.068,0.168,0.188,0.3,0.36,0.397
			c0.172,0.099,0.423,0.147,0.753,0.147c0.136,0,0.314-0.029,0.535-0.086c0.221-0.058,0.375-0.11,0.462-0.158h0.218v1.77
			c-0.276,0.071-0.569,0.127-0.88,0.168C266.838,177.838,266.457,177.858,266.006,177.858z"/>
		<path d="M273.831,177.916c-1.542,0-2.724-0.362-3.545-1.089c-0.822-0.726-1.232-1.759-1.232-3.101c0-1.313,0.383-2.36,1.149-3.144
			s1.837-1.174,3.214-1.174c1.251,0,2.192,0.331,2.822,0.995c0.63,0.663,0.945,1.613,0.945,2.85v0.902h-5.578
			c0.024,0.373,0.104,0.685,0.24,0.935c0.136,0.251,0.315,0.45,0.538,0.598c0.218,0.148,0.473,0.255,0.764,0.319
			c0.291,0.064,0.608,0.097,0.953,0.097c0.295,0,0.586-0.032,0.873-0.097s0.548-0.149,0.786-0.255
			c0.208-0.09,0.401-0.188,0.578-0.293c0.177-0.105,0.321-0.198,0.433-0.279h0.269v2.069c-0.208,0.081-0.399,0.156-0.571,0.226
			c-0.172,0.069-0.409,0.14-0.709,0.211c-0.276,0.072-0.562,0.128-0.855,0.169C274.61,177.896,274.252,177.916,273.831,177.916z
			 M274.674,172.646c-0.015-0.53-0.139-0.934-0.375-1.21c-0.235-0.277-0.595-0.416-1.08-0.416c-0.495,0-0.881,0.146-1.16,0.438
			c-0.279,0.291-0.433,0.688-0.462,1.188H274.674z"/>
		<path d="M286.704,177.701h-2.545v-0.888c-0.441,0.362-0.846,0.639-1.214,0.827c-0.369,0.188-0.808,0.282-1.316,0.282
			c-0.81,0-1.441-0.251-1.895-0.755c-0.454-0.504-0.68-1.262-0.68-2.273v-5.235h2.56v3.989c0,0.415,0.011,0.754,0.033,1.017
			s0.074,0.484,0.156,0.666c0.078,0.167,0.198,0.293,0.36,0.379c0.163,0.086,0.389,0.129,0.68,0.129
			c0.179,0,0.392-0.043,0.636-0.129c0.245-0.086,0.472-0.202,0.68-0.351v-5.7h2.545V177.701z"/>
		<path d="M294.092,172.029h-0.211c-0.097-0.033-0.238-0.058-0.422-0.075c-0.185-0.017-0.388-0.024-0.611-0.024
			c-0.267,0-0.547,0.038-0.84,0.114s-0.578,0.167-0.854,0.272v5.385h-2.545v-8.042h2.545v1.153c0.116-0.105,0.277-0.237,0.484-0.397
			c0.206-0.16,0.394-0.288,0.563-0.384c0.184-0.109,0.399-0.203,0.644-0.282s0.477-0.118,0.695-0.118
			c0.082,0,0.174,0.002,0.276,0.007c0.102,0.005,0.194,0.012,0.276,0.021V172.029z"/>
		<path d="M300.179,177.909c-1.624,0-2.914-0.483-3.869-1.45s-1.433-2.326-1.433-4.078c0-1.69,0.479-3.038,1.437-4.043
			c0.958-1.005,2.249-1.507,3.873-1.507c0.432,0,0.819,0.023,1.164,0.071s0.674,0.114,0.989,0.2c0.248,0.072,0.517,0.17,0.807,0.294
			c0.291,0.124,0.526,0.231,0.706,0.322v2.542h-0.276c-0.131-0.114-0.296-0.252-0.495-0.411c-0.199-0.16-0.424-0.316-0.676-0.47
			c-0.252-0.152-0.53-0.282-0.833-0.39c-0.303-0.107-0.62-0.161-0.949-0.161c-0.393,0-0.753,0.061-1.08,0.183
			c-0.327,0.121-0.639,0.333-0.935,0.634c-0.271,0.271-0.493,0.64-0.666,1.103c-0.172,0.463-0.258,1.01-0.258,1.64
			c0,0.664,0.09,1.221,0.269,1.672c0.18,0.451,0.415,0.815,0.706,1.092c0.281,0.268,0.595,0.461,0.942,0.58
			c0.347,0.12,0.692,0.18,1.037,0.18c0.358,0,0.701-0.059,1.025-0.176s0.599-0.247,0.822-0.391c0.242-0.147,0.456-0.298,0.64-0.45
			c0.184-0.153,0.344-0.289,0.48-0.408h0.247v2.506c-0.199,0.091-0.429,0.194-0.691,0.312s-0.531,0.216-0.807,0.297
			c-0.339,0.101-0.657,0.177-0.953,0.229C301.105,177.883,300.698,177.909,300.179,177.909z"/>
		<path d="M312.685,173.684c0,1.322-0.367,2.364-1.102,3.126s-1.773,1.143-3.116,1.143c-1.334,0-2.37-0.381-3.109-1.143
			s-1.109-1.804-1.109-3.126c0-1.336,0.37-2.383,1.109-3.14s1.775-1.135,3.109-1.135c1.338,0,2.376,0.38,3.112,1.142
			C312.316,171.313,312.685,172.356,312.685,173.684z M310.074,173.698c0-0.478-0.04-0.875-0.12-1.192s-0.19-0.571-0.331-0.763
			c-0.15-0.2-0.32-0.34-0.509-0.419c-0.189-0.079-0.405-0.118-0.647-0.118c-0.229,0-0.435,0.035-0.618,0.104
			c-0.185,0.069-0.354,0.202-0.51,0.397c-0.146,0.187-0.262,0.442-0.349,0.767c-0.087,0.325-0.131,0.732-0.131,1.225
			c0,0.491,0.041,0.889,0.124,1.192c0.082,0.303,0.188,0.545,0.319,0.727c0.136,0.187,0.306,0.322,0.51,0.408
			c0.203,0.086,0.429,0.129,0.676,0.129c0.204,0,0.411-0.043,0.622-0.129s0.379-0.215,0.505-0.387
			c0.15-0.205,0.265-0.452,0.343-0.741C310.035,174.608,310.074,174.209,310.074,173.698z"/>
		<path d="M321.972,177.701h-2.561v-3.988c0-0.325-0.014-0.648-0.04-0.971s-0.076-0.56-0.148-0.713
			c-0.088-0.181-0.214-0.312-0.379-0.39c-0.165-0.079-0.385-0.118-0.661-0.118c-0.209,0-0.42,0.038-0.633,0.114
			c-0.214,0.076-0.441,0.198-0.684,0.365v5.7h-2.546v-8.042h2.546v0.888c0.417-0.348,0.822-0.62,1.218-0.815
			c0.396-0.196,0.833-0.294,1.313-0.294c0.834,0,1.472,0.259,1.913,0.776c0.441,0.519,0.662,1.27,0.662,2.253V177.701z"/>
		<path d="M327.817,177.916c-0.674,0-1.29-0.084-1.851-0.251c-0.56-0.167-1.046-0.425-1.458-0.773
			c-0.407-0.348-0.725-0.786-0.953-1.313c-0.228-0.527-0.342-1.149-0.342-1.865c0-0.769,0.124-1.423,0.371-1.963
			c0.247-0.539,0.582-0.983,1.004-1.332c0.407-0.334,0.886-0.581,1.437-0.74c0.55-0.16,1.123-0.24,1.72-0.24
			c0.451,0,0.902,0.051,1.353,0.154c0.451,0.103,0.904,0.266,1.36,0.49v2.148h-0.327c-0.102-0.096-0.227-0.201-0.375-0.315
			c-0.147-0.114-0.309-0.22-0.483-0.315c-0.185-0.1-0.393-0.185-0.625-0.254c-0.233-0.069-0.492-0.104-0.778-0.104
			c-0.65,0-1.153,0.223-1.51,0.669c-0.356,0.447-0.534,1.047-0.534,1.802c0,0.807,0.19,1.408,0.571,1.804
			c0.38,0.396,0.886,0.595,1.516,0.595c0.32,0,0.602-0.036,0.844-0.107s0.451-0.157,0.626-0.258
			c0.169-0.101,0.314-0.204,0.437-0.312c0.121-0.107,0.225-0.204,0.313-0.29h0.327v2.148c-0.146,0.063-0.314,0.134-0.506,0.215
			s-0.387,0.148-0.585,0.2c-0.247,0.067-0.479,0.118-0.694,0.154C328.457,177.898,328.172,177.916,327.817,177.916z"/>
		<path d="M337.417,172.029h-0.211c-0.097-0.033-0.237-0.058-0.422-0.075c-0.184-0.017-0.388-0.024-0.61-0.024
			c-0.267,0-0.547,0.038-0.84,0.114c-0.294,0.076-0.578,0.167-0.854,0.272v5.385h-2.546v-8.042h2.546v1.153
			c0.116-0.105,0.277-0.237,0.483-0.397s0.394-0.288,0.563-0.384c0.185-0.109,0.398-0.203,0.644-0.282s0.477-0.118,0.694-0.118
			c0.083,0,0.175,0.002,0.276,0.007c0.103,0.005,0.194,0.012,0.276,0.021V172.029z"/>
		<path d="M342.871,177.916c-1.542,0-2.724-0.362-3.545-1.089c-0.822-0.726-1.233-1.759-1.233-3.101c0-1.313,0.383-2.36,1.149-3.144
			c0.766-0.783,1.838-1.174,3.215-1.174c1.251,0,2.191,0.331,2.821,0.995c0.631,0.663,0.946,1.613,0.946,2.85v0.902h-5.579
			c0.024,0.373,0.104,0.685,0.24,0.935c0.136,0.251,0.315,0.45,0.538,0.598c0.219,0.148,0.473,0.255,0.764,0.319
			s0.608,0.097,0.953,0.097c0.296,0,0.586-0.032,0.872-0.097s0.548-0.149,0.786-0.255c0.208-0.09,0.401-0.188,0.578-0.293
			c0.177-0.105,0.321-0.198,0.433-0.279h0.27v2.069c-0.209,0.081-0.399,0.156-0.571,0.226s-0.408,0.14-0.709,0.211
			c-0.276,0.072-0.562,0.128-0.854,0.169C343.65,177.896,343.293,177.916,342.871,177.916z M343.715,172.646
			c-0.015-0.53-0.14-0.934-0.374-1.21c-0.235-0.277-0.596-0.416-1.08-0.416c-0.495,0-0.882,0.146-1.16,0.438
			c-0.279,0.291-0.433,0.688-0.462,1.188H343.715z"/>
		<path d="M351.286,177.858c-1.037,0-1.792-0.21-2.266-0.63c-0.473-0.42-0.709-1.107-0.709-2.063v-3.76h-0.975v-1.747h0.975v-2.299
			h2.546v2.299h2.451v1.747h-2.451v2.851c0,0.281,0.002,0.527,0.007,0.737s0.044,0.398,0.117,0.565
			c0.067,0.168,0.188,0.3,0.359,0.397c0.172,0.099,0.423,0.147,0.753,0.147c0.136,0,0.313-0.029,0.534-0.086
			c0.221-0.058,0.375-0.11,0.462-0.158h0.219v1.77c-0.276,0.071-0.57,0.127-0.88,0.168
			C352.118,177.838,351.737,177.858,351.286,177.858z"/>
	</g>
	
		<line fill="none" stroke="#800000" stroke-width="0.7559" stroke-linecap="square" stroke-miterlimit="10" x1="219.968" y1="187.022" x2="359.439" y2="187.022"/>
	<g>
		<path d="M236.425,214.916h-3.673v3.616h-1.208v-3.616h-3.673v-1.146h3.673v-3.616h1.208v3.616h3.673V214.916z"/>
		<path d="M242.833,209.158h-0.073c-0.121-0.043-0.296-0.085-0.523-0.125c-0.228-0.041-0.432-0.062-0.611-0.062
			c-0.577,0-0.988,0.128-1.232,0.384c-0.245,0.255-0.368,0.717-0.368,1.386v0.271h2.262v1.117h-2.218v6.882h-1.367v-6.882h-0.924
			v-1.117h0.924v-0.265c0-0.965,0.235-1.697,0.705-2.198c0.47-0.502,1.145-0.752,2.022-0.752c0.252,0,0.5,0.013,0.742,0.039
			c0.243,0.026,0.463,0.057,0.662,0.09V209.158z"/>
		<path d="M248.506,218.159c-0.111,0.082-0.261,0.195-0.447,0.341s-0.367,0.261-0.542,0.347c-0.242,0.125-0.476,0.22-0.702,0.287
			c-0.226,0.066-0.542,0.1-0.949,0.1c-0.334,0-0.652-0.062-0.953-0.186s-0.565-0.299-0.793-0.523
			c-0.218-0.219-0.393-0.49-0.523-0.813s-0.196-0.662-0.196-1.021c0-0.554,0.119-1.025,0.356-1.414
			c0.237-0.389,0.613-0.698,1.127-0.928c0.456-0.205,0.994-0.347,1.615-0.426s1.29-0.137,2.007-0.176v-0.258
			c0-0.314-0.048-0.569-0.146-0.763s-0.232-0.342-0.407-0.447c-0.174-0.109-0.388-0.183-0.64-0.219
			c-0.252-0.035-0.511-0.054-0.778-0.054c-0.315,0-0.687,0.047-1.113,0.14c-0.427,0.094-0.854,0.229-1.28,0.405h-0.08v-1.368
			c0.252-0.071,0.613-0.15,1.084-0.236c0.47-0.086,0.936-0.129,1.396-0.129c0.558,0,1.028,0.043,1.411,0.129
			s0.728,0.241,1.033,0.466c0.296,0.22,0.517,0.504,0.662,0.852c0.146,0.349,0.218,0.773,0.218,1.275v5.471h-1.36V218.159z
			 M248.506,217.042v-2.22c-0.325,0.029-0.736,0.068-1.233,0.118c-0.497,0.051-0.898,0.121-1.204,0.212
			c-0.363,0.109-0.664,0.277-0.902,0.505c-0.237,0.227-0.356,0.543-0.356,0.948c0,0.458,0.131,0.805,0.393,1.038
			c0.262,0.234,0.645,0.352,1.149,0.352c0.432,0,0.822-0.092,1.171-0.276C247.874,217.535,248.201,217.31,248.506,217.042z"/>
		<path d="M258.899,214.88c0,1.308-0.322,2.36-0.967,3.158c-0.645,0.797-1.452,1.195-2.422,1.195c-0.441,0-0.818-0.054-1.131-0.161
			c-0.313-0.107-0.622-0.251-0.927-0.433l-0.087,0.372h-1.28v-11.143h1.367v3.981c0.344-0.306,0.717-0.559,1.12-0.759
			c0.402-0.2,0.858-0.301,1.367-0.301c0.917,0,1.639,0.361,2.167,1.085C258.635,212.599,258.899,213.601,258.899,214.88z
			 M257.489,214.987c0-0.955-0.148-1.68-0.444-2.174s-0.771-0.741-1.425-0.741c-0.374,0-0.75,0.086-1.131,0.258
			c-0.38,0.172-0.726,0.39-1.036,0.652v4.583c0.344,0.167,0.649,0.285,0.917,0.354c0.267,0.069,0.56,0.104,0.88,0.104
			c0.698,0,1.246-0.243,1.644-0.73S257.489,216.037,257.489,214.987z"/>
		<path d="M264.519,212.459h-0.072c-0.102-0.028-0.21-0.046-0.324-0.054c-0.114-0.007-0.251-0.011-0.411-0.011
			c-0.369,0-0.734,0.079-1.098,0.236c-0.364,0.158-0.708,0.392-1.033,0.702v5.679h-1.367v-7.999h1.367v1.188
			c0.5-0.434,0.935-0.741,1.306-0.92c0.371-0.179,0.731-0.269,1.08-0.269c0.141,0,0.246,0.004,0.316,0.011
			c0.07,0.008,0.149,0.019,0.236,0.032V212.459z"/>
		<path d="M267.116,209.674h-1.556v-1.396h1.556V209.674z M267.022,219.012h-1.368v-7.999h1.368V219.012z"/>
		<path d="M274.599,221.962h-1.367v-3.824c-0.397,0.358-0.786,0.62-1.164,0.784c-0.378,0.165-0.798,0.247-1.258,0.247
			c-0.921,0-1.656-0.363-2.204-1.092c-0.548-0.728-0.822-1.741-0.822-3.04c0-0.688,0.096-1.295,0.287-1.822s0.445-0.971,0.76-1.328
			c0.3-0.349,0.659-0.618,1.076-0.81c0.417-0.19,0.851-0.286,1.302-0.286c0.417,0,0.778,0.048,1.084,0.144
			c0.305,0.095,0.618,0.236,0.938,0.422l0.087-0.344h1.28V221.962z M273.231,217.007v-4.555c-0.344-0.167-0.652-0.284-0.924-0.351
			c-0.271-0.067-0.563-0.101-0.873-0.101c-0.718,0-1.271,0.256-1.658,0.767c-0.388,0.511-0.582,1.246-0.582,2.205
			c0,0.936,0.155,1.655,0.466,2.159c0.31,0.504,0.792,0.756,1.447,0.756c0.383,0,0.756-0.081,1.12-0.244
			C272.591,217.481,272.926,217.27,273.231,217.007z"/>
		<path d="M282.8,219.012h-1.367v-0.888c-0.422,0.362-0.822,0.639-1.2,0.827c-0.378,0.188-0.8,0.282-1.265,0.282
			c-0.354,0-0.688-0.057-1-0.172c-0.313-0.114-0.585-0.296-0.818-0.544s-0.414-0.561-0.542-0.938
			c-0.128-0.377-0.192-0.835-0.192-1.374v-5.192h1.367v4.555c0,0.425,0.016,0.777,0.047,1.056c0.031,0.279,0.103,0.524,0.214,0.734
			c0.111,0.205,0.263,0.355,0.455,0.451s0.467,0.144,0.826,0.144c0.334,0,0.691-0.094,1.069-0.279
			c0.378-0.187,0.725-0.416,1.04-0.688v-5.973h1.367V219.012z"/>
		<path d="M288.127,219.198c-1.295,0-2.3-0.359-3.015-1.078c-0.715-0.719-1.073-1.739-1.073-3.062c0-1.303,0.347-2.34,1.04-3.111
			c0.693-0.771,1.6-1.156,2.72-1.156c0.504,0,0.951,0.071,1.338,0.215s0.728,0.367,1.018,0.673c0.291,0.306,0.514,0.68,0.669,1.121
			c0.155,0.441,0.232,0.982,0.232,1.622v0.73h-5.629c0,0.931,0.237,1.642,0.712,2.134c0.475,0.491,1.132,0.737,1.971,0.737
			c0.301,0,0.595-0.033,0.884-0.101c0.288-0.066,0.549-0.152,0.782-0.258c0.247-0.109,0.456-0.216,0.625-0.318
			c0.169-0.103,0.31-0.199,0.422-0.29h0.08v1.468c-0.16,0.063-0.359,0.14-0.597,0.233c-0.237,0.093-0.451,0.166-0.64,0.218
			c-0.267,0.072-0.508,0.127-0.724,0.165S288.457,219.198,288.127,219.198z M289.727,214.121c-0.01-0.363-0.054-0.676-0.131-0.938
			c-0.077-0.263-0.189-0.484-0.334-0.666c-0.16-0.2-0.365-0.354-0.614-0.458c-0.25-0.105-0.559-0.158-0.927-0.158
			c-0.364,0-0.673,0.054-0.927,0.161c-0.255,0.107-0.486,0.265-0.695,0.47c-0.204,0.21-0.359,0.442-0.465,0.698
			c-0.107,0.255-0.175,0.553-0.204,0.892H289.727z"/>
		<path d="M296.897,221.962h-1.666c-0.843-0.988-1.506-2.033-1.989-3.137c-0.482-1.103-0.724-2.405-0.724-3.909
			c0-1.471,0.239-2.766,0.716-3.885c0.478-1.12,1.143-2.174,1.996-3.162h1.666v0.071c-0.393,0.349-0.767,0.751-1.124,1.207
			s-0.687,0.987-0.993,1.594c-0.291,0.587-0.527,1.233-0.709,1.94c-0.182,0.706-0.273,1.451-0.273,2.234
			c0,0.816,0.088,1.563,0.266,2.241c0.177,0.678,0.416,1.322,0.716,1.934c0.291,0.587,0.623,1.118,0.997,1.593
			c0.373,0.476,0.747,0.878,1.12,1.207V221.962z"/>
		<path d="M302.069,214.916c0,1.475-0.24,2.771-0.72,3.888s-1.144,2.17-1.993,3.158h-1.666v-0.071
			c0.374-0.329,0.749-0.734,1.127-1.214c0.378-0.479,0.708-1.009,0.989-1.586c0.3-0.616,0.539-1.267,0.716-1.952
			c0.177-0.685,0.265-1.426,0.265-2.223c0-0.788-0.089-1.533-0.269-2.234c-0.179-0.702-0.417-1.349-0.712-1.94
			c-0.296-0.593-0.63-1.125-1.004-1.598s-0.744-0.873-1.113-1.203v-0.071h1.666c0.844,0.988,1.507,2.039,1.989,3.151
			S302.069,213.431,302.069,214.916z"/>
	</g>
	
		<line fill="none" stroke="#800000" stroke-width="0.7559" stroke-linecap="square" stroke-miterlimit="10" x1="219.968" y1="199.024" x2="359.439" y2="199.024"/>
	
		<line fill="none" stroke="#800000" stroke-width="0.7559" stroke-linecap="square" stroke-miterlimit="10" x1="69.666" y1="167.025" x2="69.666" y2="67.032"/>
	
		<polygon fill-rule="evenodd" clip-rule="evenodd" fill="#FFFFFF" stroke="#800000" stroke-width="0.7559" stroke-linecap="square" stroke-miterlimit="10" points="
		80.498,93.697 69.666,67.032 58.833,93.697 	"/>
	
		<line fill="none" stroke="#800000" stroke-width="0.7559" stroke-linecap="square" stroke-miterlimit="10" x1="286.318" y1="157.693" x2="286.318" y2="101.697"/>
	
		<polygon fill-rule="evenodd" clip-rule="evenodd" fill="#FFFFFF" stroke="#800000" stroke-width="0.7559" stroke-linecap="square" stroke-miterlimit="10" points="
		297.151,128.36 286.318,101.697 275.486,128.36 	"/>
	
		<line fill="none" stroke="#800000" stroke-width="0.7559" stroke-linecap="square" stroke-miterlimit="10" stroke-dasharray="0.7677,1.5354" x1="219.968" y1="191.025" x2="134.662" y2="191.025"/>
	<polyline fill="none" stroke="#800000" stroke-width="0.7559" stroke-linecap="square" stroke-miterlimit="10" points="
		148.202,185.689 134.662,191.025 148.202,196.358 	"/>
	
		<polygon fill-rule="evenodd" clip-rule="evenodd" fill="#FFFFB9" stroke="#800000" stroke-width="0.7559" stroke-linecap="square" stroke-miterlimit="10" points="
		394.646,68.366 540.886,68.366 554.426,81.698 554.426,96.364 394.646,96.364 394.646,68.366 	"/>
	
		<polygon fill-rule="evenodd" clip-rule="evenodd" fill="#FFFFB9" stroke="#800000" stroke-width="0.7559" stroke-linecap="square" stroke-miterlimit="10" points="
		540.886,68.366 540.886,81.698 554.426,81.698 	"/>
	<g>
		<path d="M409.218,84.145c0,1.332-0.323,2.393-0.971,3.183c-0.647,0.791-1.466,1.186-2.455,1.186c-0.402,0-0.759-0.045-1.068-0.136
			c-0.311-0.091-0.628-0.231-0.953-0.422v3.351h-1.367V80.356h1.367v0.838c0.339-0.301,0.717-0.552,1.131-0.755
			c0.415-0.203,0.866-0.304,1.356-0.304c0.931,0,1.657,0.363,2.179,1.088C408.957,81.948,409.218,82.922,409.218,84.145z
			 M407.807,84.295c0-0.912-0.147-1.62-0.443-2.124c-0.296-0.503-0.775-0.755-1.44-0.755c-0.388,0-0.762,0.085-1.123,0.254
			s-0.704,0.388-1.029,0.655v4.533c0.358,0.172,0.665,0.289,0.92,0.351c0.255,0.063,0.547,0.093,0.876,0.093
			c0.708,0,1.259-0.255,1.651-0.766S407.807,85.278,407.807,84.295z"/>
		<path d="M414.838,81.803h-0.073c-0.102-0.029-0.21-0.046-0.323-0.054c-0.114-0.007-0.251-0.011-0.411-0.011
			c-0.368,0-0.734,0.079-1.098,0.236c-0.364,0.157-0.708,0.392-1.033,0.702v5.679h-1.367v-7.999h1.367v1.189
			c0.499-0.435,0.935-0.741,1.306-0.92c0.371-0.179,0.73-0.269,1.08-0.269c0.141,0,0.246,0.004,0.316,0.011
			c0.07,0.007,0.148,0.018,0.236,0.032V81.803z"/>
		<path d="M422.628,84.359c0,1.346-0.33,2.386-0.989,3.118c-0.659,0.733-1.537,1.1-2.633,1.1c-1.13,0-2.018-0.378-2.665-1.135
			c-0.647-0.756-0.971-1.784-0.971-3.083c0-1.337,0.333-2.375,1-3.115c0.666-0.74,1.545-1.11,2.636-1.11
			c1.096,0,1.974,0.369,2.633,1.106C422.298,81.978,422.628,83.018,422.628,84.359z M421.217,84.359c0-1.036-0.191-1.806-0.574-2.31
			c-0.383-0.504-0.929-0.755-1.637-0.755c-0.713,0-1.262,0.251-1.647,0.755c-0.385,0.503-0.578,1.273-0.578,2.31
			c0,1.002,0.193,1.763,0.578,2.281c0.386,0.518,0.935,0.777,1.647,0.777c0.703,0,1.247-0.254,1.633-0.763
			S421.217,85.381,421.217,84.359z"/>
		<path d="M430.316,88.355h-1.367v-0.816c-0.214,0.177-0.398,0.322-0.553,0.437c-0.155,0.114-0.338,0.22-0.546,0.315
			c-0.194,0.091-0.396,0.161-0.604,0.211c-0.209,0.05-0.451,0.075-0.728,0.075c-0.441,0-0.85-0.091-1.226-0.272
			c-0.376-0.181-0.694-0.446-0.956-0.795c-0.267-0.353-0.473-0.789-0.618-1.307s-0.219-1.114-0.219-1.787
			c0-0.702,0.093-1.309,0.276-1.823c0.185-0.513,0.439-0.96,0.764-1.342c0.296-0.349,0.653-0.622,1.073-0.82
			c0.419-0.198,0.859-0.297,1.32-0.297c0.407,0,0.761,0.044,1.062,0.132s0.618,0.226,0.953,0.412v-3.466h1.367V88.355z
			 M428.949,86.407v-4.612c-0.34-0.162-0.645-0.274-0.913-0.336c-0.27-0.062-0.562-0.093-0.877-0.093
			c-0.702,0-1.253,0.259-1.65,0.777c-0.397,0.518-0.597,1.267-0.597,2.245c0,0.94,0.153,1.66,0.458,2.159
			c0.306,0.499,0.796,0.748,1.47,0.748c0.358,0,0.72-0.08,1.083-0.24C428.287,86.896,428.629,86.679,428.949,86.407z"/>
		<path d="M438.517,88.355h-1.367v-0.888c-0.422,0.363-0.822,0.639-1.2,0.827s-0.8,0.283-1.266,0.283c-0.354,0-0.687-0.058-1-0.172
			c-0.313-0.115-0.585-0.296-0.818-0.544c-0.232-0.248-0.413-0.561-0.541-0.938c-0.129-0.377-0.193-0.835-0.193-1.375v-5.192h1.367
			v4.555c0,0.425,0.016,0.777,0.048,1.056c0.031,0.279,0.103,0.524,0.215,0.734c0.111,0.206,0.263,0.356,0.454,0.451
			c0.191,0.096,0.467,0.143,0.825,0.143c0.335,0,0.691-0.093,1.069-0.279c0.378-0.187,0.725-0.416,1.04-0.688v-5.973h1.367V88.355z"
			/>
		<path d="M441.808,79.017h-1.557v-1.396h1.557V79.017z M441.713,88.355h-1.367v-7.999h1.367V88.355z"/>
		<path d="M445.493,88.513c-0.747,0-1.328-0.209-1.745-0.627c-0.417-0.417-0.626-1.078-0.626-1.98v-4.433h-0.924v-1.117h0.924
			v-2.298h1.367v2.298h2.517v1.117h-2.517v3.803c0,0.406,0.008,0.718,0.022,0.938s0.07,0.425,0.167,0.616
			c0.082,0.167,0.216,0.292,0.4,0.376c0.184,0.083,0.434,0.125,0.749,0.125c0.223,0,0.438-0.032,0.646-0.097
			c0.209-0.064,0.359-0.118,0.451-0.161h0.08v1.21c-0.257,0.072-0.518,0.128-0.781,0.168
			C445.96,88.492,445.716,88.513,445.493,88.513z"/>
		<path d="M460.975,82.755h-8.044v-1.146h8.044V82.755z M460.975,85.763h-8.044v-1.146h8.044V85.763z"/>
		<path d="M471.71,78.501h-0.073c-0.121-0.043-0.295-0.085-0.523-0.125c-0.228-0.041-0.432-0.061-0.61-0.061
			c-0.577,0-0.988,0.127-1.233,0.383c-0.244,0.255-0.367,0.717-0.367,1.386v0.272h2.262v1.117h-2.218v6.882h-1.367v-6.882h-0.924
			v-1.117h0.924v-0.265c0-0.964,0.235-1.697,0.705-2.199c0.471-0.501,1.145-0.752,2.022-0.752c0.252,0,0.499,0.013,0.741,0.04
			s0.463,0.056,0.662,0.089V78.501z"/>
		<path d="M477.384,87.503c-0.111,0.081-0.261,0.194-0.447,0.34c-0.187,0.146-0.367,0.262-0.542,0.348
			c-0.242,0.124-0.477,0.219-0.701,0.286c-0.226,0.067-0.542,0.101-0.949,0.101c-0.335,0-0.652-0.063-0.953-0.187
			s-0.564-0.298-0.793-0.522c-0.218-0.22-0.393-0.491-0.523-0.813s-0.196-0.662-0.196-1.021c0-0.554,0.119-1.025,0.356-1.414
			s0.613-0.698,1.127-0.927c0.456-0.206,0.994-0.348,1.615-0.426c0.62-0.079,1.289-0.137,2.007-0.175v-0.258
			c0-0.315-0.049-0.569-0.146-0.763s-0.232-0.343-0.407-0.448c-0.175-0.11-0.388-0.183-0.64-0.218
			c-0.253-0.036-0.512-0.054-0.778-0.054c-0.315,0-0.687,0.046-1.113,0.14s-0.854,0.228-1.279,0.405h-0.08v-1.368
			c0.252-0.071,0.613-0.15,1.083-0.236c0.471-0.086,0.936-0.129,1.396-0.129c0.558,0,1.028,0.043,1.411,0.129
			s0.728,0.241,1.033,0.466c0.295,0.219,0.516,0.503,0.661,0.852s0.219,0.773,0.219,1.274v5.471h-1.36V87.503z M477.384,86.386
			v-2.22c-0.325,0.028-0.735,0.068-1.232,0.118c-0.497,0.05-0.898,0.121-1.204,0.211c-0.363,0.11-0.664,0.278-0.901,0.505
			c-0.238,0.227-0.356,0.543-0.356,0.949c0,0.458,0.131,0.805,0.393,1.039s0.645,0.351,1.149,0.351c0.431,0,0.821-0.092,1.171-0.275
			C476.751,86.879,477.078,86.653,477.384,86.386z"/>
		<path d="M487.776,84.223c0,1.308-0.322,2.361-0.967,3.158c-0.646,0.797-1.452,1.196-2.422,1.196c-0.441,0-0.818-0.054-1.131-0.161
			c-0.313-0.107-0.622-0.252-0.928-0.434l-0.087,0.373h-1.28V77.212h1.367v3.981c0.344-0.305,0.718-0.559,1.12-0.759
			c0.402-0.201,0.858-0.301,1.367-0.301c0.916,0,1.639,0.361,2.167,1.085C487.512,81.942,487.776,82.944,487.776,84.223z
			 M486.365,84.331c0-0.955-0.147-1.679-0.443-2.173s-0.771-0.741-1.426-0.741c-0.373,0-0.75,0.086-1.131,0.258
			s-0.726,0.389-1.036,0.651v4.583c0.344,0.167,0.649,0.285,0.916,0.354c0.267,0.069,0.561,0.104,0.88,0.104
			c0.698,0,1.246-0.244,1.645-0.73C486.167,86.149,486.365,85.381,486.365,84.331z"/>
		<path d="M493.396,81.803h-0.073c-0.102-0.029-0.21-0.046-0.323-0.054c-0.114-0.007-0.251-0.011-0.411-0.011
			c-0.368,0-0.734,0.079-1.098,0.236c-0.364,0.157-0.708,0.392-1.033,0.702v5.679h-1.367v-7.999h1.367v1.189
			c0.499-0.435,0.935-0.741,1.306-0.92c0.371-0.179,0.73-0.269,1.08-0.269c0.141,0,0.246,0.004,0.316,0.011
			c0.07,0.007,0.148,0.018,0.236,0.032V81.803z"/>
		<path d="M495.994,79.017h-1.557v-1.396h1.557V79.017z M495.899,88.355h-1.367v-7.999h1.367V88.355z"/>
		<path d="M503.476,91.305h-1.367v-3.824c-0.398,0.358-0.786,0.619-1.164,0.784c-0.378,0.165-0.798,0.247-1.258,0.247
			c-0.922,0-1.656-0.364-2.204-1.092s-0.822-1.741-0.822-3.04c0-0.688,0.096-1.295,0.288-1.823c0.191-0.527,0.444-0.97,0.76-1.328
			c0.301-0.349,0.659-0.618,1.076-0.81c0.417-0.191,0.851-0.286,1.302-0.286c0.417,0,0.778,0.048,1.084,0.143
			c0.306,0.096,0.618,0.236,0.938,0.422l0.087-0.344h1.28V91.305z M502.108,86.35v-4.555c-0.345-0.167-0.652-0.284-0.924-0.351
			s-0.563-0.101-0.873-0.101c-0.718,0-1.271,0.255-1.658,0.766c-0.388,0.511-0.582,1.246-0.582,2.206
			c0,0.936,0.155,1.655,0.466,2.159c0.311,0.504,0.793,0.755,1.447,0.755c0.383,0,0.756-0.081,1.12-0.243
			C501.468,86.825,501.803,86.612,502.108,86.35z"/>
		<path d="M511.677,88.355h-1.367v-0.888c-0.422,0.363-0.822,0.639-1.2,0.827s-0.8,0.283-1.266,0.283c-0.354,0-0.687-0.058-1-0.172
			c-0.313-0.115-0.585-0.296-0.818-0.544c-0.232-0.248-0.413-0.561-0.541-0.938c-0.129-0.377-0.193-0.835-0.193-1.375v-5.192h1.367
			v4.555c0,0.425,0.016,0.777,0.048,1.056c0.031,0.279,0.103,0.524,0.215,0.734c0.111,0.206,0.263,0.356,0.454,0.451
			c0.191,0.096,0.467,0.143,0.825,0.143c0.335,0,0.691-0.093,1.069-0.279c0.378-0.187,0.725-0.416,1.04-0.688v-5.973h1.367V88.355z"
			/>
		<path d="M517.004,88.541c-1.295,0-2.3-0.359-3.015-1.078c-0.716-0.718-1.073-1.739-1.073-3.061c0-1.304,0.347-2.341,1.04-3.112
			s1.601-1.156,2.721-1.156c0.504,0,0.95,0.071,1.338,0.215c0.388,0.143,0.728,0.368,1.019,0.673
			c0.291,0.306,0.514,0.679,0.669,1.121c0.155,0.442,0.232,0.982,0.232,1.622v0.73h-5.629c0,0.931,0.237,1.643,0.713,2.134
			c0.475,0.492,1.132,0.737,1.971,0.737c0.301,0,0.595-0.033,0.884-0.1c0.288-0.067,0.549-0.153,0.781-0.258
			c0.248-0.11,0.456-0.216,0.626-0.319c0.17-0.103,0.311-0.199,0.422-0.29h0.08v1.468c-0.16,0.062-0.359,0.14-0.597,0.232
			c-0.237,0.093-0.451,0.166-0.64,0.219c-0.267,0.071-0.508,0.126-0.724,0.165S517.333,88.541,517.004,88.541z M518.604,83.464
			c-0.01-0.363-0.053-0.675-0.131-0.938c-0.077-0.262-0.188-0.484-0.334-0.666c-0.16-0.2-0.365-0.353-0.615-0.458
			c-0.249-0.105-0.559-0.158-0.927-0.158c-0.364,0-0.673,0.054-0.928,0.161c-0.254,0.107-0.486,0.264-0.694,0.469
			c-0.204,0.21-0.358,0.442-0.466,0.698c-0.106,0.256-0.174,0.553-0.203,0.892H518.604z"/>
		<path d="M525.774,91.305h-1.666c-0.844-0.988-1.507-2.034-1.989-3.136c-0.482-1.103-0.724-2.406-0.724-3.91
			c0-1.47,0.239-2.765,0.717-3.885s1.143-2.173,1.996-3.162h1.666v0.072c-0.393,0.349-0.768,0.75-1.124,1.207
			s-0.688,0.987-0.993,1.593c-0.29,0.587-0.526,1.234-0.709,1.94c-0.182,0.707-0.272,1.452-0.272,2.234
			c0,0.816,0.089,1.563,0.266,2.242c0.177,0.678,0.416,1.322,0.716,1.933c0.291,0.587,0.623,1.118,0.997,1.593
			c0.373,0.475,0.746,0.877,1.12,1.207V91.305z"/>
		<path d="M530.945,84.259c0,1.475-0.239,2.771-0.72,3.889c-0.479,1.117-1.145,2.169-1.992,3.158h-1.666v-0.071
			c0.373-0.33,0.749-0.734,1.127-1.214c0.379-0.48,0.708-1.009,0.989-1.586c0.301-0.616,0.54-1.266,0.717-1.951
			s0.266-1.426,0.266-2.224c0-0.788-0.09-1.532-0.27-2.234c-0.18-0.702-0.417-1.348-0.713-1.94c-0.296-0.592-0.63-1.124-1.003-1.597
			c-0.374-0.473-0.745-0.874-1.113-1.203v-0.072h1.666c0.843,0.988,1.506,2.039,1.988,3.151S530.945,82.774,530.945,84.259z"/>
		<path d="M535.434,86.314l-2.036,4.69h-1.062l1.279-4.69H535.434z M534.954,82.397h-1.738v-2.041h1.738V82.397z"/>
	</g>
	
		<line fill="none" stroke="#800000" stroke-width="0.7559" stroke-linecap="square" stroke-miterlimit="10" stroke-dasharray="0.7677,1.5354" x1="394.646" y1="84.365" x2="351.314" y2="84.365"/>
	
		<polygon fill-rule="evenodd" clip-rule="evenodd" fill="#FFFFB9" stroke="#800000" stroke-width="0.7559" stroke-linecap="square" stroke-miterlimit="10" points="
		389.229,201.691 589.633,201.691 603.173,215.022 603.173,229.688 389.229,229.688 389.229,201.691 	"/>
	
		<polygon fill-rule="evenodd" clip-rule="evenodd" fill="#FFFFB9" stroke="#800000" stroke-width="0.7559" stroke-linecap="square" stroke-miterlimit="10" points="
		589.633,201.691 589.633,215.022 603.173,215.022 	"/>
	<g>
		<path d="M401.293,215.133h-0.073c-0.102-0.028-0.21-0.046-0.323-0.054c-0.114-0.007-0.251-0.011-0.411-0.011
			c-0.368,0-0.734,0.079-1.098,0.236c-0.364,0.158-0.708,0.392-1.033,0.702v5.679h-1.367v-7.999h1.367v1.188
			c0.499-0.434,0.935-0.741,1.306-0.92s0.73-0.269,1.08-0.269c0.141,0,0.246,0.004,0.316,0.011c0.07,0.008,0.148,0.019,0.236,0.032
			V215.133z"/>
		<path d="M405.927,221.872c-1.295,0-2.3-0.359-3.015-1.078c-0.716-0.719-1.073-1.739-1.073-3.062c0-1.303,0.347-2.34,1.04-3.111
			c0.693-0.771,1.601-1.156,2.721-1.156c0.504,0,0.95,0.071,1.338,0.215s0.728,0.367,1.019,0.673s0.514,0.68,0.669,1.121
			s0.232,0.982,0.232,1.622v0.73h-5.629c0,0.931,0.237,1.642,0.713,2.134c0.475,0.491,1.132,0.737,1.971,0.737
			c0.301,0,0.595-0.033,0.884-0.101c0.288-0.066,0.549-0.152,0.781-0.258c0.248-0.109,0.456-0.216,0.626-0.318
			s0.311-0.199,0.422-0.29h0.08v1.468c-0.16,0.063-0.359,0.14-0.597,0.233c-0.237,0.093-0.451,0.166-0.64,0.218
			c-0.267,0.072-0.508,0.127-0.724,0.165S406.256,221.872,405.927,221.872z M407.526,216.795c-0.01-0.363-0.053-0.676-0.131-0.938
			c-0.077-0.263-0.188-0.484-0.334-0.666c-0.16-0.2-0.365-0.354-0.615-0.458c-0.249-0.105-0.559-0.158-0.927-0.158
			c-0.364,0-0.673,0.054-0.928,0.161c-0.254,0.107-0.486,0.265-0.694,0.47c-0.204,0.21-0.358,0.442-0.466,0.698
			c-0.106,0.255-0.174,0.553-0.203,0.892H407.526z"/>
		<path d="M412.98,221.843c-0.747,0-1.328-0.208-1.745-0.626s-0.626-1.078-0.626-1.98v-4.433h-0.924v-1.117h0.924v-2.299h1.367
			v2.299h2.517v1.117h-2.517v3.803c0,0.405,0.008,0.719,0.022,0.938c0.015,0.22,0.07,0.426,0.167,0.616
			c0.082,0.167,0.216,0.293,0.4,0.376c0.184,0.084,0.434,0.125,0.749,0.125c0.223,0,0.438-0.032,0.646-0.097
			c0.209-0.064,0.359-0.118,0.451-0.161h0.08v1.211c-0.257,0.071-0.518,0.127-0.781,0.168
			C413.447,221.822,413.203,221.843,412.98,221.843z"/>
		<path d="M422.264,221.686h-1.367v-0.888c-0.422,0.362-0.822,0.639-1.2,0.827s-0.8,0.282-1.266,0.282c-0.354,0-0.687-0.057-1-0.172
			c-0.313-0.114-0.585-0.296-0.818-0.544c-0.232-0.248-0.413-0.561-0.541-0.938c-0.129-0.377-0.193-0.835-0.193-1.374v-5.192h1.367
			v4.555c0,0.425,0.016,0.777,0.048,1.056c0.031,0.279,0.103,0.524,0.215,0.734c0.111,0.205,0.263,0.355,0.454,0.451
			s0.467,0.144,0.825,0.144c0.335,0,0.691-0.094,1.069-0.279c0.378-0.187,0.725-0.416,1.04-0.688v-5.973h1.367V221.686z"/>
		<path d="M428.369,215.133h-0.073c-0.102-0.028-0.21-0.046-0.323-0.054c-0.114-0.007-0.251-0.011-0.411-0.011
			c-0.368,0-0.734,0.079-1.098,0.236c-0.364,0.158-0.708,0.392-1.033,0.702v5.679h-1.367v-7.999h1.367v1.188
			c0.499-0.434,0.935-0.741,1.306-0.92s0.73-0.269,1.08-0.269c0.141,0,0.246,0.004,0.316,0.011c0.07,0.008,0.148,0.019,0.236,0.032
			V215.133z"/>
		<path d="M435.861,221.686h-1.367v-4.555c0-0.367-0.019-0.71-0.055-1.027c-0.037-0.317-0.105-0.571-0.208-0.763
			c-0.111-0.2-0.267-0.35-0.465-0.447c-0.199-0.098-0.471-0.147-0.814-0.147c-0.34,0-0.69,0.09-1.051,0.269
			c-0.361,0.18-0.715,0.412-1.059,0.698v5.973h-1.367v-7.999h1.367v0.888c0.407-0.357,0.81-0.632,1.207-0.823
			c0.397-0.19,0.817-0.286,1.259-0.286c0.8,0,1.425,0.259,1.876,0.776c0.451,0.519,0.677,1.27,0.677,2.253V221.686z"/>
		<path d="M448.062,221.686h-1.367v-4.555c0-0.367-0.019-0.71-0.055-1.027c-0.037-0.317-0.105-0.571-0.208-0.763
			c-0.111-0.2-0.267-0.35-0.465-0.447c-0.199-0.098-0.471-0.147-0.814-0.147c-0.34,0-0.69,0.09-1.051,0.269
			c-0.361,0.18-0.715,0.412-1.059,0.698v5.973h-1.367v-7.999h1.367v0.888c0.407-0.357,0.81-0.632,1.207-0.823
			c0.397-0.19,0.817-0.286,1.259-0.286c0.8,0,1.425,0.259,1.876,0.776c0.451,0.519,0.677,1.27,0.677,2.253V221.686z"/>
		<path d="M453.33,221.872c-1.295,0-2.3-0.359-3.015-1.078c-0.716-0.719-1.073-1.739-1.073-3.062c0-1.303,0.347-2.34,1.04-3.111
			c0.693-0.771,1.601-1.156,2.721-1.156c0.504,0,0.95,0.071,1.338,0.215s0.728,0.367,1.019,0.673s0.514,0.68,0.669,1.121
			s0.232,0.982,0.232,1.622v0.73h-5.629c0,0.931,0.237,1.642,0.713,2.134c0.475,0.491,1.132,0.737,1.971,0.737
			c0.301,0,0.595-0.033,0.884-0.101c0.288-0.066,0.549-0.152,0.781-0.258c0.248-0.109,0.456-0.216,0.626-0.318
			s0.311-0.199,0.422-0.29h0.08v1.468c-0.16,0.063-0.359,0.14-0.597,0.233c-0.237,0.093-0.451,0.166-0.64,0.218
			c-0.267,0.072-0.508,0.127-0.724,0.165S453.659,221.872,453.33,221.872z M454.93,216.795c-0.01-0.363-0.053-0.676-0.131-0.938
			c-0.077-0.263-0.188-0.484-0.334-0.666c-0.16-0.2-0.365-0.354-0.615-0.458c-0.249-0.105-0.559-0.158-0.927-0.158
			c-0.364,0-0.673,0.054-0.928,0.161c-0.254,0.107-0.486,0.265-0.694,0.47c-0.204,0.21-0.358,0.442-0.466,0.698
			c-0.106,0.255-0.174,0.553-0.203,0.892H454.93z"/>
		<path d="M467.773,213.687l-2.059,7.999h-1.266l-1.985-6.166l-1.971,6.166h-1.259l-2.08-7.999h1.426l1.433,6.194l1.928-6.194h1.127
			l1.979,6.194l1.353-6.194H467.773z"/>
		<path d="M479.791,214.238c0,0.463-0.083,0.901-0.251,1.313c-0.167,0.413-0.398,0.766-0.694,1.057
			c-0.373,0.363-0.813,0.638-1.316,0.823c-0.504,0.187-1.142,0.279-1.913,0.279h-1.222v3.975h-1.439v-10.663h2.72
			c0.64,0,1.186,0.053,1.637,0.158c0.45,0.104,0.848,0.274,1.192,0.508c0.402,0.272,0.718,0.617,0.945,1.035
			S479.791,213.646,479.791,214.238z M478.293,214.273c0-0.367-0.064-0.687-0.192-0.959c-0.129-0.272-0.324-0.494-0.586-0.666
			c-0.228-0.148-0.493-0.253-0.796-0.315c-0.304-0.062-0.681-0.093-1.131-0.093h-1.193v4.261h0.982c0.581,0,1.052-0.047,1.41-0.14
			c0.359-0.093,0.657-0.259,0.895-0.498c0.214-0.215,0.369-0.448,0.466-0.701S478.293,214.613,478.293,214.273z"/>
		<path d="M485.288,215.133h-0.073c-0.102-0.028-0.21-0.046-0.323-0.054c-0.114-0.007-0.251-0.011-0.411-0.011
			c-0.368,0-0.734,0.079-1.098,0.236c-0.364,0.158-0.708,0.392-1.033,0.702v5.679h-1.367v-7.999h1.367v1.188
			c0.499-0.434,0.935-0.741,1.306-0.92s0.73-0.269,1.08-0.269c0.141,0,0.246,0.004,0.316,0.011c0.07,0.008,0.148,0.019,0.236,0.032
			V215.133z"/>
		<path d="M493.078,217.689c0,1.347-0.33,2.386-0.989,3.119c-0.659,0.732-1.537,1.099-2.633,1.099c-1.13,0-2.018-0.378-2.665-1.135
			s-0.971-1.784-0.971-3.083c0-1.336,0.333-2.375,1-3.115c0.666-0.739,1.545-1.109,2.636-1.109c1.096,0,1.974,0.369,2.633,1.106
			S493.078,216.349,493.078,217.689z M491.667,217.689c0-1.035-0.191-1.806-0.574-2.31c-0.383-0.503-0.929-0.755-1.637-0.755
			c-0.713,0-1.262,0.252-1.647,0.755c-0.385,0.504-0.578,1.274-0.578,2.31c0,1.003,0.193,1.763,0.578,2.281
			c0.386,0.518,0.935,0.776,1.647,0.776c0.703,0,1.247-0.254,1.633-0.763C491.475,219.477,491.667,218.711,491.667,217.689z"/>
		<path d="M500.767,221.686h-1.367v-0.816c-0.214,0.177-0.398,0.322-0.553,0.437c-0.155,0.115-0.338,0.22-0.546,0.315
			c-0.194,0.091-0.396,0.161-0.604,0.211c-0.209,0.051-0.451,0.075-0.728,0.075c-0.441,0-0.85-0.091-1.226-0.271
			c-0.376-0.182-0.694-0.446-0.956-0.795c-0.267-0.354-0.473-0.789-0.618-1.308c-0.146-0.518-0.219-1.113-0.219-1.786
			c0-0.702,0.093-1.31,0.276-1.822c0.185-0.514,0.439-0.961,0.764-1.343c0.296-0.349,0.653-0.622,1.073-0.82
			c0.419-0.198,0.859-0.297,1.32-0.297c0.407,0,0.761,0.044,1.062,0.133c0.301,0.088,0.618,0.226,0.953,0.411v-3.466h1.367V221.686z
			 M499.399,219.737v-4.611c-0.34-0.162-0.645-0.274-0.913-0.337c-0.27-0.062-0.562-0.093-0.877-0.093
			c-0.702,0-1.253,0.259-1.65,0.777c-0.397,0.518-0.597,1.267-0.597,2.245c0,0.94,0.153,1.66,0.458,2.158
			c0.306,0.499,0.796,0.749,1.47,0.749c0.358,0,0.72-0.08,1.083-0.24C498.737,220.226,499.079,220.01,499.399,219.737z"/>
		<path d="M508.968,221.686h-1.367v-0.888c-0.422,0.362-0.822,0.639-1.2,0.827s-0.8,0.282-1.266,0.282c-0.354,0-0.687-0.057-1-0.172
			c-0.313-0.114-0.585-0.296-0.818-0.544c-0.232-0.248-0.413-0.561-0.541-0.938c-0.129-0.377-0.193-0.835-0.193-1.374v-5.192h1.367
			v4.555c0,0.425,0.016,0.777,0.048,1.056c0.031,0.279,0.103,0.524,0.215,0.734c0.111,0.205,0.263,0.355,0.454,0.451
			s0.467,0.144,0.825,0.144c0.335,0,0.691-0.094,1.069-0.279c0.378-0.187,0.725-0.416,1.04-0.688v-5.973h1.367V221.686z"/>
		<path d="M512.259,212.348h-1.557v-1.396h1.557V212.348z M512.164,221.686h-1.367v-7.999h1.367V221.686z"/>
		<path d="M515.944,221.843c-0.747,0-1.328-0.208-1.745-0.626s-0.626-1.078-0.626-1.98v-4.433h-0.924v-1.117h0.924v-2.299h1.367
			v2.299h2.517v1.117h-2.517v3.803c0,0.405,0.008,0.719,0.022,0.938c0.015,0.22,0.07,0.426,0.167,0.616
			c0.082,0.167,0.216,0.293,0.4,0.376c0.184,0.084,0.434,0.125,0.749,0.125c0.223,0,0.438-0.032,0.646-0.097
			c0.209-0.064,0.359-0.118,0.451-0.161h0.08v1.211c-0.257,0.071-0.518,0.127-0.781,0.168
			C516.411,221.822,516.167,221.843,515.944,221.843z"/>
		<path d="M523.242,221.879c-0.708,0-1.359-0.117-1.953-0.351c-0.594-0.234-1.106-0.583-1.538-1.046s-0.766-1.041-1.004-1.732
			c-0.237-0.692-0.355-1.487-0.355-2.385c0-0.893,0.114-1.671,0.345-2.335c0.23-0.663,0.566-1.241,1.008-1.732
			c0.432-0.478,0.942-0.842,1.534-1.093c0.592-0.25,1.254-0.376,1.985-0.376c0.364,0,0.704,0.026,1.022,0.079
			c0.317,0.053,0.611,0.119,0.884,0.2c0.232,0.072,0.471,0.161,0.716,0.269s0.486,0.226,0.724,0.354v1.712h-0.116
			c-0.126-0.114-0.288-0.253-0.487-0.415c-0.199-0.163-0.441-0.322-0.728-0.48c-0.276-0.147-0.577-0.27-0.901-0.365
			c-0.325-0.095-0.701-0.143-1.128-0.143c-0.46,0-0.896,0.093-1.309,0.279c-0.412,0.186-0.773,0.46-1.084,0.823
			c-0.306,0.362-0.543,0.818-0.713,1.367c-0.169,0.55-0.254,1.168-0.254,1.855c0,0.73,0.09,1.359,0.269,1.887
			c0.18,0.527,0.425,0.973,0.734,1.335c0.301,0.354,0.655,0.62,1.063,0.799s0.839,0.269,1.294,0.269c0.417,0,0.803-0.05,1.157-0.15
			c0.354-0.101,0.669-0.227,0.945-0.38c0.267-0.147,0.497-0.299,0.69-0.454c0.194-0.155,0.347-0.288,0.458-0.397h0.109v1.689
			c-0.237,0.11-0.462,0.215-0.673,0.315s-0.467,0.198-0.767,0.294c-0.315,0.1-0.607,0.176-0.877,0.229
			C524.024,221.853,523.674,221.879,523.242,221.879z"/>
		<path d="M535.051,217.689c0,1.347-0.33,2.386-0.989,3.119c-0.659,0.732-1.537,1.099-2.633,1.099c-1.13,0-2.018-0.378-2.665-1.135
			s-0.971-1.784-0.971-3.083c0-1.336,0.333-2.375,1-3.115c0.666-0.739,1.545-1.109,2.636-1.109c1.096,0,1.974,0.369,2.633,1.106
			S535.051,216.349,535.051,217.689z M533.64,217.689c0-1.035-0.191-1.806-0.574-2.31c-0.383-0.503-0.929-0.755-1.637-0.755
			c-0.713,0-1.262,0.252-1.647,0.755c-0.385,0.504-0.578,1.274-0.578,2.31c0,1.003,0.193,1.763,0.578,2.281
			c0.386,0.518,0.935,0.776,1.647,0.776c0.703,0,1.247-0.254,1.633-0.763C533.447,219.477,533.64,218.711,533.64,217.689z"/>
		<path d="M542.87,221.686h-1.367v-4.555c0-0.367-0.019-0.71-0.055-1.027c-0.037-0.317-0.105-0.571-0.208-0.763
			c-0.111-0.2-0.267-0.35-0.465-0.447c-0.199-0.098-0.471-0.147-0.814-0.147c-0.34,0-0.69,0.09-1.051,0.269
			c-0.361,0.18-0.715,0.412-1.059,0.698v5.973h-1.367v-7.999h1.367v0.888c0.407-0.357,0.81-0.632,1.207-0.823
			c0.397-0.19,0.817-0.286,1.259-0.286c0.8,0,1.425,0.259,1.876,0.776c0.451,0.519,0.677,1.27,0.677,2.253V221.686z"/>
		<path d="M547.841,221.864c-0.558,0-1.069-0.085-1.535-0.254s-0.865-0.426-1.2-0.77c-0.334-0.344-0.594-0.777-0.778-1.3
			c-0.184-0.522-0.276-1.138-0.276-1.844c0-0.702,0.096-1.309,0.288-1.819c0.191-0.511,0.447-0.94,0.767-1.289
			c0.32-0.349,0.719-0.617,1.196-0.806s0.99-0.282,1.539-0.282c0.445,0,0.876,0.062,1.29,0.186c0.415,0.124,0.784,0.268,1.109,0.43
			v1.511h-0.08c-0.097-0.081-0.222-0.174-0.374-0.279c-0.153-0.104-0.339-0.212-0.557-0.322c-0.189-0.095-0.412-0.179-0.669-0.25
			c-0.257-0.072-0.505-0.107-0.742-0.107c-0.708,0-1.276,0.264-1.705,0.791c-0.43,0.527-0.644,1.273-0.644,2.238
			c0,0.945,0.207,1.682,0.621,2.209c0.415,0.527,0.99,0.791,1.728,0.791c0.446,0,0.87-0.091,1.272-0.272
			c0.403-0.181,0.759-0.415,1.069-0.701h0.08v1.511c-0.136,0.063-0.306,0.138-0.509,0.226c-0.204,0.089-0.388,0.154-0.553,0.197
			c-0.232,0.066-0.441,0.118-0.626,0.153C548.369,221.847,548.131,221.864,547.841,221.864z"/>
		<path d="M555.7,215.133h-0.073c-0.102-0.028-0.21-0.046-0.323-0.054c-0.114-0.007-0.251-0.011-0.411-0.011
			c-0.368,0-0.734,0.079-1.098,0.236c-0.364,0.158-0.708,0.392-1.033,0.702v5.679h-1.367v-7.999h1.367v1.188
			c0.499-0.434,0.935-0.741,1.306-0.92s0.73-0.269,1.08-0.269c0.141,0,0.246,0.004,0.316,0.011c0.07,0.008,0.148,0.019,0.236,0.032
			V215.133z"/>
		<path d="M560.334,221.872c-1.295,0-2.3-0.359-3.015-1.078c-0.716-0.719-1.073-1.739-1.073-3.062c0-1.303,0.347-2.34,1.04-3.111
			c0.693-0.771,1.601-1.156,2.721-1.156c0.504,0,0.95,0.071,1.338,0.215s0.728,0.367,1.019,0.673s0.514,0.68,0.669,1.121
			s0.232,0.982,0.232,1.622v0.73h-5.629c0,0.931,0.237,1.642,0.713,2.134c0.475,0.491,1.132,0.737,1.971,0.737
			c0.301,0,0.595-0.033,0.884-0.101c0.288-0.066,0.549-0.152,0.781-0.258c0.248-0.109,0.456-0.216,0.626-0.318
			s0.311-0.199,0.422-0.29h0.08v1.468c-0.16,0.063-0.359,0.14-0.597,0.233c-0.237,0.093-0.451,0.166-0.64,0.218
			c-0.267,0.072-0.508,0.127-0.724,0.165S560.663,221.872,560.334,221.872z M561.934,216.795c-0.01-0.363-0.053-0.676-0.131-0.938
			c-0.077-0.263-0.188-0.484-0.334-0.666c-0.16-0.2-0.365-0.354-0.615-0.458c-0.249-0.105-0.559-0.158-0.927-0.158
			c-0.364,0-0.673,0.054-0.928,0.161c-0.254,0.107-0.486,0.265-0.694,0.47c-0.204,0.21-0.358,0.442-0.466,0.698
			c-0.106,0.255-0.174,0.553-0.203,0.892H561.934z"/>
		<path d="M567.388,221.843c-0.747,0-1.328-0.208-1.745-0.626s-0.626-1.078-0.626-1.98v-4.433h-0.924v-1.117h0.924v-2.299h1.367
			v2.299h2.517v1.117h-2.517v3.803c0,0.405,0.008,0.719,0.022,0.938c0.015,0.22,0.07,0.426,0.167,0.616
			c0.082,0.167,0.216,0.293,0.4,0.376c0.184,0.084,0.434,0.125,0.749,0.125c0.223,0,0.438-0.032,0.646-0.097
			c0.209-0.064,0.359-0.118,0.451-0.161h0.08v1.211c-0.257,0.071-0.518,0.127-0.781,0.168
			C567.854,221.822,567.61,221.843,567.388,221.843z"/>
		<path d="M574.519,224.636h-1.666c-0.844-0.988-1.507-2.033-1.989-3.137c-0.482-1.103-0.724-2.405-0.724-3.909
			c0-1.471,0.239-2.766,0.717-3.885c0.478-1.12,1.143-2.174,1.996-3.162h1.666v0.071c-0.393,0.349-0.768,0.751-1.124,1.207
			s-0.688,0.987-0.993,1.594c-0.29,0.587-0.526,1.233-0.709,1.94c-0.182,0.706-0.272,1.451-0.272,2.234
			c0,0.816,0.089,1.563,0.266,2.241s0.416,1.322,0.716,1.934c0.291,0.587,0.623,1.118,0.997,1.593
			c0.373,0.476,0.746,0.878,1.12,1.207V224.636z"/>
		<path d="M579.689,217.59c0,1.475-0.239,2.771-0.72,3.888c-0.479,1.117-1.145,2.17-1.992,3.158h-1.666v-0.071
			c0.373-0.329,0.749-0.734,1.127-1.214c0.379-0.479,0.708-1.009,0.989-1.586c0.301-0.616,0.54-1.267,0.717-1.952
			c0.177-0.685,0.266-1.426,0.266-2.223c0-0.788-0.09-1.533-0.27-2.234c-0.18-0.702-0.417-1.349-0.713-1.94
			c-0.296-0.593-0.63-1.125-1.003-1.598c-0.374-0.473-0.745-0.873-1.113-1.203v-0.071h1.666c0.843,0.988,1.506,2.039,1.988,3.151
			S579.689,216.104,579.689,217.59z"/>
		<path d="M584.178,219.645l-2.036,4.69h-1.062l1.279-4.69H584.178z M583.698,215.728h-1.738v-2.041h1.738V215.728z"/>
	</g>
	
		<line fill="none" stroke="#800000" stroke-width="0.7559" stroke-linecap="square" stroke-miterlimit="10" stroke-dasharray="0.7677,1.5354" x1="389.229" y1="217.689" x2="359.439" y2="217.689"/>
	
		<line fill="none" stroke="#800000" stroke-width="0.7559" stroke-linecap="square" stroke-miterlimit="10" x1="228.093" y1="31.035" x2="123.829" y2="31.035"/>
	<polyline fill="none" stroke="#800000" stroke-width="0.7559" stroke-linecap="square" stroke-miterlimit="10" points="
		137.37,25.702 123.829,31.035 137.37,36.367 	"/>
	<g>
		<path d="M132.169,22.939h-3.673v3.616h-1.208v-3.616h-3.673v-1.146h3.673v-3.617h1.208v3.617h3.673V22.939z"/>
		<path d="M141.115,22.825c0,1.332-0.324,2.393-0.971,3.183c-0.647,0.791-1.466,1.186-2.455,1.186c-0.403,0-0.759-0.045-1.069-0.136
			c-0.31-0.091-0.628-0.231-0.953-0.422v3.351H134.3V19.037h1.367v0.838c0.339-0.301,0.716-0.552,1.131-0.755
			c0.415-0.203,0.867-0.304,1.356-0.304c0.931,0,1.657,0.363,2.178,1.088C140.854,20.629,141.115,21.603,141.115,22.825z
			 M139.704,22.976c0-0.912-0.148-1.62-0.444-2.124c-0.296-0.503-0.776-0.755-1.44-0.755c-0.388,0-0.763,0.085-1.124,0.254
			c-0.361,0.169-0.705,0.388-1.029,0.655v4.533c0.359,0.172,0.666,0.289,0.92,0.351c0.254,0.063,0.547,0.093,0.876,0.093
			c0.708,0,1.258-0.255,1.651-0.766S139.704,23.959,139.704,22.976z"/>
		<path d="M146.734,20.483h-0.072c-0.102-0.029-0.21-0.046-0.324-0.054c-0.114-0.007-0.251-0.011-0.411-0.011
			c-0.369,0-0.734,0.079-1.098,0.236c-0.364,0.157-0.708,0.392-1.033,0.702v5.679h-1.367v-7.999h1.367v1.189
			c0.5-0.435,0.935-0.741,1.306-0.92c0.371-0.179,0.731-0.269,1.08-0.269c0.141,0,0.246,0.004,0.316,0.011
			c0.07,0.007,0.149,0.018,0.236,0.032V20.483z"/>
		<path d="M154.525,23.04c0,1.346-0.33,2.386-0.989,3.118c-0.659,0.733-1.537,1.1-2.633,1.1c-1.129,0-2.018-0.378-2.666-1.135
			c-0.647-0.756-0.971-1.784-0.971-3.083c0-1.337,0.333-2.375,1-3.115c0.667-0.74,1.545-1.11,2.636-1.11
			c1.096,0,1.974,0.369,2.633,1.106C154.195,20.659,154.525,21.698,154.525,23.04z M153.114,23.04c0-1.036-0.191-1.806-0.574-2.31
			c-0.383-0.504-0.929-0.755-1.637-0.755c-0.712,0-1.262,0.251-1.647,0.755c-0.386,0.503-0.578,1.273-0.578,2.31
			c0,1.002,0.192,1.763,0.578,2.281c0.385,0.518,0.935,0.777,1.647,0.777c0.703,0,1.248-0.254,1.633-0.763
			C152.921,24.827,153.114,24.062,153.114,23.04z"/>
		<path d="M162.213,27.036h-1.367v-0.816c-0.213,0.177-0.397,0.322-0.553,0.437c-0.155,0.114-0.337,0.22-0.545,0.315
			c-0.194,0.091-0.396,0.161-0.604,0.211c-0.208,0.05-0.451,0.075-0.728,0.075c-0.441,0-0.85-0.091-1.226-0.272
			c-0.375-0.181-0.694-0.446-0.956-0.795c-0.267-0.353-0.473-0.789-0.618-1.307s-0.218-1.114-0.218-1.787
			c0-0.702,0.092-1.309,0.276-1.823c0.184-0.513,0.438-0.96,0.764-1.342c0.295-0.349,0.653-0.622,1.073-0.82
			c0.419-0.198,0.859-0.297,1.32-0.297c0.407,0,0.761,0.044,1.062,0.132c0.3,0.088,0.618,0.226,0.953,0.412v-3.466h1.367V27.036z
			 M160.846,25.088v-4.612c-0.339-0.162-0.644-0.274-0.913-0.336s-0.562-0.093-0.876-0.093c-0.703,0-1.253,0.259-1.651,0.777
			c-0.398,0.518-0.597,1.267-0.597,2.245c0,0.94,0.153,1.66,0.458,2.159c0.305,0.499,0.795,0.748,1.469,0.748
			c0.358,0,0.72-0.08,1.083-0.24C160.184,25.576,160.526,25.36,160.846,25.088z"/>
		<path d="M170.414,27.036h-1.367v-0.888c-0.422,0.363-0.822,0.639-1.2,0.827c-0.378,0.188-0.8,0.283-1.265,0.283
			c-0.354,0-0.688-0.058-1-0.172c-0.313-0.115-0.585-0.296-0.818-0.544c-0.233-0.248-0.414-0.561-0.542-0.938
			s-0.192-0.835-0.192-1.375v-5.192h1.367v4.555c0,0.425,0.016,0.777,0.047,1.056c0.031,0.279,0.103,0.524,0.214,0.734
			c0.111,0.206,0.263,0.356,0.455,0.451c0.191,0.096,0.467,0.143,0.826,0.143c0.334,0,0.691-0.093,1.069-0.279
			c0.378-0.187,0.725-0.416,1.04-0.688v-5.973h1.367V27.036z"/>
		<path d="M173.705,17.698h-1.556v-1.396h1.556V17.698z M173.61,27.036h-1.368v-7.999h1.368V27.036z"/>
		<path d="M177.391,27.193c-0.747,0-1.329-0.209-1.746-0.627c-0.417-0.417-0.625-1.078-0.625-1.98v-4.433h-0.923v-1.117h0.923
			v-2.298h1.368v2.298h2.516v1.117h-2.516v3.803c0,0.406,0.007,0.718,0.021,0.938c0.015,0.22,0.07,0.425,0.167,0.616
			c0.083,0.167,0.216,0.292,0.4,0.376s0.434,0.125,0.749,0.125c0.223,0,0.439-0.032,0.647-0.097s0.359-0.118,0.451-0.161h0.08v1.21
			c-0.257,0.072-0.518,0.128-0.782,0.168S177.614,27.193,177.391,27.193z"/>
	</g>
</g>
</svg>
