<?xml version="1.0" encoding="UTF-8" standalone="yes"?><svg xmlns="http://www.w3.org/2000/svg" xmlns:xlink="http://www.w3.org/1999/xlink" height="547pt" style="width:913px;height:547px;" version="1.1" viewBox="0 0 913 547" width="913pt"><defs><filter height="300%" id="f1" width="300%" x="-1" y="-1"><feGaussianBlur result="blurOut" stdDeviation="2.0"/><feColorMatrix in="blurOut" result="blurOut2" type="matrix" values="0 0 0 0 0 0 0 0 0 0 0 0 0 0 0 0 0 0 .4 0"/><feOffset dx="4.0" dy="4.0" in="blurOut2" result="blurOut3"/><feBlend in="SourceGraphic" in2="blurOut3" mode="normal"/></filter></defs><g><text fill="#000000" font-family="sans-serif" font-size="14" font-weight="bold" lengthAdjust="spacingAndGlyphs" textLength="340" x="256.5" y="23.5352">Diagramme de séquence illustrant Singleton et</text><text fill="#000000" font-family="sans-serif" font-size="14" font-style="italic" font-weight="bold" lengthAdjust="spacingAndGlyphs" textLength="59" x="601.5" y="23.5352">Strategy</text><rect fill="#FEFECE" filter="url(#f1)" height="30.4883" style="stroke: #A80036; stroke-width: 1.5;" width="82" x="84.5" y="78.9766"/><text fill="#000000" font-family="sans-serif" font-size="14" lengthAdjust="spacingAndGlyphs" textLength="68" x="91.5" y="99.5117">:Chevalier</text><rect fill="#ADD8E6" filter="url(#f1)" height="30.4883" style="stroke: #A80036; stroke-width: 1.5;" width="167" x="204" y="124.4648"/><text fill="#000000" font-family="sans-serif" font-size="14" lengthAdjust="spacingAndGlyphs" textLength="4" x="211" y="145">:</text><text fill="#000000" font-family="sans-serif" font-size="14" font-weight="bold" lengthAdjust="spacingAndGlyphs" textLength="149" x="215" y="145">SimpleFabriqueArme</text><rect fill="#FFFFFF" filter="url(#f1)" height="183.6855" style="stroke: #000000; stroke-width: 2.0;" width="710" x="194" y="206.2637"/><rect fill="#90EE90" filter="url(#f1)" height="30.4883" style="stroke: #A80036; stroke-width: 1.5;" width="155" x="385" y="223.5742"/><text fill="#000000" font-family="sans-serif" font-size="14" lengthAdjust="spacingAndGlyphs" textLength="141" x="392" y="244.1094">:ComportementEpee</text><rect fill="#FFFFFF" height="60.4434" style="stroke: none; stroke-width: 1.0;" width="710" x="194" y="269.0625"/><rect fill="#FEFECE" filter="url(#f1)" height="30.4883" style="stroke: #A80036; stroke-width: 1.5;" width="145" x="554" y="284.0176"/><text fill="#000000" font-family="sans-serif" font-size="14" lengthAdjust="spacingAndGlyphs" textLength="131" x="561" y="304.5527">:ComportementArc</text><rect fill="#FFFFFF" height="60.4434" style="stroke: none; stroke-width: 1.0;" width="710" x="194" y="329.5059"/><rect fill="#FEFECE" filter="url(#f1)" height="30.4883" style="stroke: #A80036; stroke-width: 1.5;" width="177" x="713" y="344.4609"/><text fill="#000000" font-family="sans-serif" font-size="14" lengthAdjust="spacingAndGlyphs" textLength="163" x="720" y="364.9961">:ComportementArmless</text><line style="stroke: #A80036; stroke-width: 1.0; stroke-dasharray: 5.0,5.0;" x1="35" x2="35" y1="68.9766" y2="508.8809"/><line style="stroke: #A80036; stroke-width: 1.0; stroke-dasharray: 5.0,5.0;" x1="127.5" x2="127.5" y1="111.7207" y2="508.8809"/><line style="stroke: #A80036; stroke-width: 1.0; stroke-dasharray: 5.0,5.0;" x1="289" x2="289" y1="157.209" y2="508.8809"/><line style="stroke: #A80036; stroke-width: 1.0; stroke-dasharray: 5.0,5.0;" x1="464" x2="464" y1="256.3184" y2="508.8809"/><line style="stroke: #A80036; stroke-width: 1.0; stroke-dasharray: 5.0,5.0;" x1="628" x2="628" y1="316.7617" y2="508.8809"/><line style="stroke: #A80036; stroke-width: 1.0; stroke-dasharray: 5.0,5.0;" x1="803" x2="803" y1="377.2051" y2="508.8809"/><rect fill="#FEFECE" filter="url(#f1)" height="30.4883" style="stroke: #A80036; stroke-width: 1.5;" width="51" x="8" y="33.4883"/><text fill="#000000" font-family="sans-serif" font-size="14" lengthAdjust="spacingAndGlyphs" textLength="37" x="15" y="54.0234">:Main</text><rect fill="#FEFECE" filter="url(#f1)" height="30.4883" style="stroke: #A80036; stroke-width: 1.5;" width="51" x="8" y="507.8809"/><text fill="#000000" font-family="sans-serif" font-size="14" lengthAdjust="spacingAndGlyphs" textLength="37" x="15" y="528.416">:Main</text><rect fill="#FEFECE" filter="url(#f1)" height="30.4883" style="stroke: #A80036; stroke-width: 1.5;" width="82" x="84.5" y="507.8809"/><text fill="#000000" font-family="sans-serif" font-size="14" lengthAdjust="spacingAndGlyphs" textLength="68" x="91.5" y="528.416">:Chevalier</text><rect fill="#ADD8E6" filter="url(#f1)" height="30.4883" style="stroke: #A80036; stroke-width: 1.5;" width="167" x="204" y="507.8809"/><text fill="#000000" font-family="sans-serif" font-size="14" lengthAdjust="spacingAndGlyphs" textLength="4" x="211" y="528.416">:</text><text fill="#000000" font-family="sans-serif" font-size="14" font-weight="bold" lengthAdjust="spacingAndGlyphs" textLength="149" x="215" y="528.416">SimpleFabriqueArme</text><rect fill="#90EE90" filter="url(#f1)" height="30.4883" style="stroke: #A80036; stroke-width: 1.5;" width="155" x="385" y="507.8809"/><text fill="#000000" font-family="sans-serif" font-size="14" lengthAdjust="spacingAndGlyphs" textLength="141" x="392" y="528.416">:ComportementEpee</text><rect fill="#FEFECE" filter="url(#f1)" height="30.4883" style="stroke: #A80036; stroke-width: 1.5;" width="145" x="554" y="507.8809"/><text fill="#000000" font-family="sans-serif" font-size="14" lengthAdjust="spacingAndGlyphs" textLength="131" x="561" y="528.416">:ComportementArc</text><rect fill="#FEFECE" filter="url(#f1)" height="30.4883" style="stroke: #A80036; stroke-width: 1.5;" width="177" x="713" y="507.8809"/><text fill="#000000" font-family="sans-serif" font-size="14" lengthAdjust="spacingAndGlyphs" textLength="163" x="720" y="528.416">:ComportementArmless</text><polygon fill="#A80036" points="72.5,95.9766,82.5,99.9766,72.5,103.9766,76.5,99.9766" style="stroke: #A80036; stroke-width: 1.0;"/><line style="stroke: #A80036; stroke-width: 1.0;" x1="35.5" x2="78.5" y1="99.9766" y2="99.9766"/><text fill="#000000" font-family="sans-serif" font-size="13" lengthAdjust="spacingAndGlyphs" textLength="25" x="42.5" y="95.5449">new</text><rect fill="#FEFECE" filter="url(#f1)" height="30.4883" style="stroke: #A80036; stroke-width: 1.5;" width="82" x="84.5" y="78.9766"/><text fill="#000000" font-family="sans-serif" font-size="14" lengthAdjust="spacingAndGlyphs" textLength="68" x="91.5" y="99.5117">:Chevalier</text><polygon fill="#A80036" points="192,141.4648,202,145.4648,192,149.4648,196,145.4648" style="stroke: #A80036; stroke-width: 1.0;"/><line style="stroke: #A80036; stroke-width: 1.0;" x1="35.5" x2="198" y1="145.4648" y2="145.4648"/><text fill="#000000" font-family="sans-serif" font-size="13" lengthAdjust="spacingAndGlyphs" textLength="25" x="42.5" y="141.0332">new</text><rect fill="#ADD8E6" filter="url(#f1)" height="30.4883" style="stroke: #A80036; stroke-width: 1.5;" width="167" x="204" y="124.4648"/><text fill="#000000" font-family="sans-serif" font-size="14" lengthAdjust="spacingAndGlyphs" textLength="4" x="211" y="145">:</text><text fill="#000000" font-family="sans-serif" font-size="14" font-weight="bold" lengthAdjust="spacingAndGlyphs" textLength="149" x="215" y="145">SimpleFabriqueArme</text><polygon fill="#A80036" points="277.5,186.9531,287.5,190.9531,277.5,194.9531,281.5,190.9531" style="stroke: #A80036; stroke-width: 1.0;"/><line style="stroke: #A80036; stroke-width: 1.0;" x1="35.5" x2="283.5" y1="190.9531" y2="190.9531"/><text fill="#000000" font-family="sans-serif" font-size="13" lengthAdjust="spacingAndGlyphs" textLength="230" x="42.5" y="186.5215">c = creerComportementArme("Epee")</text><rect fill="none" height="183.6855" style="stroke: #000000; stroke-width: 2.0;" width="710" x="194" y="206.2637"/><polygon fill="#EEEEEE" points="194,206.2637,256,206.2637,256,213.2637,246,223.2637,194,223.2637,194,206.2637" style="stroke: #000000; stroke-width: 2.0;"/><text fill="#000000" font-family="sans-serif" font-size="13" font-weight="bold" lengthAdjust="spacingAndGlyphs" textLength="17" x="209" y="219.832">alt</text><text fill="#000000" font-family="sans-serif" font-size="11" font-weight="bold" lengthAdjust="spacingAndGlyphs" textLength="44" x="271" y="218.8984">["Epee"]</text><polygon fill="#A80036" points="373,240.5742,383,244.5742,373,248.5742,377,244.5742" style="stroke: #A80036; stroke-width: 1.0;"/><line style="stroke: #A80036; stroke-width: 1.0;" x1="289.5" x2="379" y1="244.5742" y2="244.5742"/><text fill="#000000" font-family="sans-serif" font-size="13" lengthAdjust="spacingAndGlyphs" textLength="25" x="296.5" y="240.1426">new</text><rect fill="#90EE90" filter="url(#f1)" height="30.4883" style="stroke: #A80036; stroke-width: 1.5;" width="155" x="385" y="223.5742"/><text fill="#000000" font-family="sans-serif" font-size="14" lengthAdjust="spacingAndGlyphs" textLength="141" x="392" y="244.1094">:ComportementEpee</text><line style="stroke: #000000; stroke-width: 1.0; stroke-dasharray: 2.0,2.0;" x1="194" x2="904" y1="270.0625" y2="270.0625"/><text fill="#000000" font-family="sans-serif" font-size="11" font-weight="bold" lengthAdjust="spacingAndGlyphs" textLength="37" x="199" y="280.6973">["Arc"]</text><polygon fill="#A80036" points="542,301.0176,552,305.0176,542,309.0176,546,305.0176" style="stroke: #A80036; stroke-width: 1.0;"/><line style="stroke: #A80036; stroke-width: 1.0;" x1="289.5" x2="548" y1="305.0176" y2="305.0176"/><text fill="#000000" font-family="sans-serif" font-size="13" lengthAdjust="spacingAndGlyphs" textLength="25" x="296.5" y="300.5859">new</text><rect fill="#FEFECE" filter="url(#f1)" height="30.4883" style="stroke: #A80036; stroke-width: 1.5;" width="145" x="554" y="284.0176"/><text fill="#000000" font-family="sans-serif" font-size="14" lengthAdjust="spacingAndGlyphs" textLength="131" x="561" y="304.5527">:ComportementArc</text><line style="stroke: #000000; stroke-width: 1.0; stroke-dasharray: 2.0,2.0;" x1="194" x2="904" y1="330.5059" y2="330.5059"/><text fill="#000000" font-family="sans-serif" font-size="11" font-weight="bold" lengthAdjust="spacingAndGlyphs" textLength="30" x="199" y="341.1406">[else]</text><polygon fill="#A80036" points="701,361.4609,711,365.4609,701,369.4609,705,365.4609" style="stroke: #A80036; stroke-width: 1.0;"/><line style="stroke: #A80036; stroke-width: 1.0;" x1="289.5" x2="707" y1="365.4609" y2="365.4609"/><text fill="#000000" font-family="sans-serif" font-size="13" lengthAdjust="spacingAndGlyphs" textLength="25" x="296.5" y="361.0293">new</text><rect fill="#FEFECE" filter="url(#f1)" height="30.4883" style="stroke: #A80036; stroke-width: 1.5;" width="177" x="713" y="344.4609"/><text fill="#000000" font-family="sans-serif" font-size="14" lengthAdjust="spacingAndGlyphs" textLength="163" x="720" y="364.9961">:ComportementArmless</text><polygon fill="#A80036" points="46.5,398.9492,36.5,402.9492,46.5,406.9492,42.5,402.9492" style="stroke: #A80036; stroke-width: 1.0;"/><line style="stroke: #A80036; stroke-width: 1.0; stroke-dasharray: 2.0,2.0;" x1="40.5" x2="288.5" y1="402.9492" y2="402.9492"/><polygon fill="#A80036" points="115.5,427.9492,125.5,431.9492,115.5,435.9492,119.5,431.9492" style="stroke: #A80036; stroke-width: 1.0;"/><line style="stroke: #A80036; stroke-width: 1.0;" x1="35.5" x2="121.5" y1="431.9492" y2="431.9492"/><text fill="#000000" font-family="sans-serif" font-size="13" lengthAdjust="spacingAndGlyphs" textLength="67" x="42.5" y="427.5176">setArme(c)</text><polygon fill="#A80036" points="115.5,457.2598,125.5,461.2598,115.5,465.2598,119.5,461.2598" style="stroke: #A80036; stroke-width: 1.0;"/><line style="stroke: #A80036; stroke-width: 1.0;" x1="35.5" x2="121.5" y1="461.2598" y2="461.2598"/><text fill="#000000" font-family="sans-serif" font-size="13" lengthAdjust="spacingAndGlyphs" textLength="53" x="42.5" y="456.8281">frapper()</text><polygon fill="#A80036" points="452.5,486.5703,462.5,490.5703,452.5,494.5703,456.5,490.5703" style="stroke: #A80036; stroke-width: 1.0;"/><line style="stroke: #A80036; stroke-width: 1.0;" x1="127.5" x2="458.5" y1="490.5703" y2="490.5703"/><text fill="#000000" font-family="sans-serif" font-size="13" lengthAdjust="spacingAndGlyphs" textLength="55" x="134.5" y="486.1387">attaque()</text></g></svg>