<?xml version="1.0" encoding="UTF-8" standalone="no"?><svg xmlns="http://www.w3.org/2000/svg" xmlns:xlink="http://www.w3.org/1999/xlink" contentScriptType="application/ecmascript" contentStyleType="text/css" height="147px" preserveAspectRatio="none" style="width:192px;height:147px;" version="1.1" viewBox="0 0 192 147" width="192px" zoomAndPan="magnify"><defs><filter height="300%" id="f1o01u4bxhkv0v" width="300%" x="-1" y="-1"><feGaussianBlur result="blurOut" stdDeviation="2.0"/><feColorMatrix in="blurOut" result="blurOut2" type="matrix" values="0 0 0 0 0 0 0 0 0 0 0 0 0 0 0 0 0 0 .4 0"/><feOffset dx="4.0" dy="4.0" in="blurOut2" result="blurOut3"/><feBlend in="SourceGraphic" in2="blurOut3" mode="normal"/></filter></defs><g><!--MD5=[7fa0c39d1c3af83d477b170083073713]
class a--><rect codeLine="7" fill="#F0F8FF" filter="url(#f1o01u4bxhkv0v)" height="34" id="a" rx="5" ry="5" style="stroke: #2F4F4F; stroke-width: 1.5;" width="75" x="57" y="7"/><ellipse cx="72" cy="24" fill="#A9DCDF" rx="11" ry="11" style="stroke: #2F4F4F; stroke-width: 1.0;"/><path d="M71.8633,19.3481 L70.7095,24.4199 L73.0254,24.4199 Z M70.3691,17.1069 L73.3657,17.1069 L76.7109,29.5 L74.2622,29.5 L73.4985,26.437 L70.2197,26.437 L69.4727,29.5 L67.0239,29.5 Z "/><text fill="#000000" font-family="Helvetica" font-size="12" font-style="italic" lengthAdjust="spacingAndGlyphs" textLength="39" x="86.5" y="21.2402">Un truc</text><text fill="#000000" font-family="Helvetica" font-size="12" font-style="italic" lengthAdjust="spacingAndGlyphs" textLength="43" x="86" y="33.2402">qui vole</text><!--MD5=[ed0c63156f1c728f406b106d88d9af45]
class Canard--><rect fill="#F0F8FF" filter="url(#f1o01u4bxhkv0v)" height="32" id="Canard" rx="5" ry="5" style="stroke: #2F4F4F; stroke-width: 1.5;" width="73" x="7" y="101"/><ellipse cx="22" cy="117" fill="#ADD1B2" rx="11" ry="11" style="stroke: #2F4F4F; stroke-width: 1.0;"/><path d="M24.4731,123.1431 Q23.8921,123.4419 23.2529,123.5913 Q22.6138,123.7407 21.9082,123.7407 Q19.4014,123.7407 18.0815,122.0889 Q16.7617,120.437 16.7617,117.3159 Q16.7617,114.1865 18.0815,112.5347 Q19.4014,110.8828 21.9082,110.8828 Q22.6138,110.8828 23.2612,111.0322 Q23.9087,111.1816 24.4731,111.4805 L24.4731,114.2031 Q23.8423,113.6221 23.2488,113.3523 Q22.6553,113.0825 22.0244,113.0825 Q20.6797,113.0825 19.9949,114.1492 Q19.3101,115.2158 19.3101,117.3159 Q19.3101,119.4077 19.9949,120.4744 Q20.6797,121.541 22.0244,121.541 Q22.6553,121.541 23.2488,121.2712 Q23.8423,121.0015 24.4731,120.4204 Z "/><text fill="#000000" font-family="Helvetica" font-size="12" lengthAdjust="spacingAndGlyphs" textLength="41" x="36" y="120.2402">Canard</text><!--MD5=[01f9a401cf506495089c678bd476f389]
class Avion--><rect fill="#F0F8FF" filter="url(#f1o01u4bxhkv0v)" height="32" id="Avion" rx="5" ry="5" style="stroke: #2F4F4F; stroke-width: 1.5;" width="63" x="115" y="101"/><ellipse cx="130" cy="117" fill="#ADD1B2" rx="11" ry="11" style="stroke: #2F4F4F; stroke-width: 1.0;"/><path d="M132.4731,123.1431 Q131.8921,123.4419 131.2529,123.5913 Q130.6138,123.7407 129.9082,123.7407 Q127.4014,123.7407 126.0815,122.0889 Q124.7617,120.437 124.7617,117.3159 Q124.7617,114.1865 126.0815,112.5347 Q127.4014,110.8828 129.9082,110.8828 Q130.6138,110.8828 131.2612,111.0322 Q131.9087,111.1816 132.4731,111.4805 L132.4731,114.2031 Q131.8423,113.6221 131.2488,113.3523 Q130.6553,113.0825 130.0244,113.0825 Q128.6797,113.0825 127.9949,114.1492 Q127.3101,115.2158 127.3101,117.3159 Q127.3101,119.4077 127.9949,120.4744 Q128.6797,121.541 130.0244,121.541 Q130.6553,121.541 131.2488,121.2712 Q131.8423,121.0015 132.4731,120.4204 Z "/><text fill="#000000" font-family="Helvetica" font-size="12" lengthAdjust="spacingAndGlyphs" textLength="31" x="144" y="120.2402">Avion</text><!--MD5=[f3ab3fbe6f99e93ed8b28459daae4211]
reverse link a to Canard--><path codeLine="8" d="M75.59,58.74 C67.49,73.19 58.45,89.33 52.03,100.78 " fill="none" id="a-backto-Canard" style="stroke: #000000; stroke-width: 1.0;"/><polygon fill="none" points="69.5,55.29,85.38,41.27,81.71,62.14,69.5,55.29" style="stroke: #000000; stroke-width: 1.0;"/><!--MD5=[126773df7504886f42d3d8074b1dab80]
reverse link a to Avion--><path codeLine="9" d="M113.78,58.74 C122.03,73.19 131.26,89.33 137.8,100.78 " fill="none" id="a-backto-Avion" style="stroke: #000000; stroke-width: 1.0;"/><polygon fill="none" points="107.64,62.11,103.8,41.27,119.8,55.16,107.64,62.11" style="stroke: #000000; stroke-width: 1.0;"/><!--MD5=[170b358988cff5906c9bf50604f40545]
@startuml
'- - - - - - - - - - - - - - - - - - - - - - - - - - - - - - - - - - -
' Refactoring illustrated
' JMB 2020
'- - - - - - - - - - - - - - - - - - - - - - - - - - - - - - - - - - -
!include config.cfg

abstract class "Un truc \nqui vole" as a
a <|- - Canard
a <|- - Avion

@enduml

@startuml

hide empty members
hide empty methods


skinparam classAttributeIconSize 0
skinparam package {
	BackgroundColor empty
	BorderColor DarkSlateGray
	ArrowColor Black
	FontColor Black
	FontSize 12
	FontName Helvetica
}
skinparam roundcorner 10

skinparam class {
	BackgroundColor AliceBlue
	BorderColor DarkSlateGray
	ArrowColor Black
	FontColor Black
	FontSize 12
	FontName Helvetica
}
skinparam arrow {
    MessageAlign center
}

abstract class "Un truc \nqui vole" as a
a <|- - Canard
a <|- - Avion

@enduml

PlantUML version 1.2020.18(Wed Sep 30 21:40:44 CEST 2020)
(GPL source distribution)
Java Runtime: OpenJDK Runtime Environment
JVM: OpenJDK 64-Bit Server VM
Default Encoding: UTF-8
Language: fr
Country: FR
--></g></svg>