<?xml version="1.0" encoding="UTF-8" standalone="no"?><svg xmlns="http://www.w3.org/2000/svg" xmlns:xlink="http://www.w3.org/1999/xlink" contentScriptType="application/ecmascript" contentStyleType="text/css" height="413px" preserveAspectRatio="none" style="width:469px;height:413px;" version="1.1" viewBox="0 0 469 413" width="469px" zoomAndPan="magnify"><defs><filter height="300%" id="fps1ft6" width="300%" x="-1" y="-1"><feGaussianBlur result="blurOut" stdDeviation="2.0"/><feColorMatrix in="blurOut" result="blurOut2" type="matrix" values="0 0 0 0 0 0 0 0 0 0 0 0 0 0 0 0 0 0 .4 0"/><feOffset dx="4.0" dy="4.0" in="blurOut2" result="blurOut3"/><feBlend in="SourceGraphic" in2="blurOut3" mode="normal"/></filter></defs><g><!--class jp1--><rect fill="#FEFECE" filter="url(#fps1ft6)" height="24.1328" style="stroke: #A80036; stroke-width: 1.5;" width="41" x="207.5" y="176"/><text fill="#000000" font-family="sans-serif" font-size="12" lengthAdjust="spacingAndGlyphs" textLength="35" x="210.5" y="192.6016">JPanel</text><!--class jp2--><rect fill="#FEFECE" filter="url(#fps1ft6)" height="24.1328" style="stroke: #A80036; stroke-width: 1.5;" width="41" x="316.5" y="176"/><text fill="#000000" font-family="sans-serif" font-size="12" lengthAdjust="spacingAndGlyphs" textLength="35" x="319.5" y="192.6016">JPanel</text><!--class jp3--><rect fill="#FEFECE" filter="url(#fps1ft6)" height="24.1328" style="stroke: #A80036; stroke-width: 1.5;" width="41" x="245.5" y="92"/><text fill="#000000" font-family="sans-serif" font-size="12" lengthAdjust="spacingAndGlyphs" textLength="35" x="248.5" y="108.6016">JPanel</text><!--class jl--><rect fill="#FEFECE" filter="url(#fps1ft6)" height="24.1328" style="stroke: #A80036; stroke-width: 1.5;" width="41" x="70.5" y="260"/><text fill="#000000" font-family="sans-serif" font-size="12" lengthAdjust="spacingAndGlyphs" textLength="35" x="73.5" y="276.6016">JLabel</text><!--class jtf--><rect fill="#FEFECE" filter="url(#fps1ft6)" height="24.1328" style="stroke: #A80036; stroke-width: 1.5;" width="63" x="146.5" y="260"/><text fill="#000000" font-family="sans-serif" font-size="12" lengthAdjust="spacingAndGlyphs" textLength="57" x="149.5" y="276.6016">JTextField</text><!--class jf--><rect fill="#FEFECE" filter="url(#fps1ft6)" height="24.1328" style="stroke: #A80036; stroke-width: 1.5;" width="46" x="243" y="8"/><text fill="#000000" font-family="sans-serif" font-size="12" lengthAdjust="spacingAndGlyphs" textLength="40" x="246" y="24.6016">JFrame</text><!--class jb--><rect fill="#FEFECE" filter="url(#fps1ft6)" height="24.1328" style="stroke: #A80036; stroke-width: 1.5;" width="46" x="348" y="260"/><text fill="#000000" font-family="sans-serif" font-size="12" lengthAdjust="spacingAndGlyphs" textLength="40" x="351" y="276.6016">JButton</text><!--class js--><rect fill="#FEFECE" filter="url(#fps1ft6)" height="24.1328" style="stroke: #A80036; stroke-width: 1.5;" width="59" x="249.5" y="344"/><text fill="#000000" font-family="sans-serif" font-size="12" lengthAdjust="spacingAndGlyphs" textLength="53" x="252.5" y="360.6016">JScrollBar</text><!--class jsp--><rect fill="#FEFECE" filter="url(#fps1ft6)" height="24.1328" style="stroke: #A80036; stroke-width: 1.5;" width="68" x="245" y="260"/><text fill="#000000" font-family="sans-serif" font-size="12" lengthAdjust="spacingAndGlyphs" textLength="62" x="248" y="276.6016">JScrollPane</text><path d="M276.1726,116.0352 C288.6152,130.756 309.7195,155.7245 323.5081,172.0377 " fill="none" style="stroke: #A80036; stroke-width: 1.0;"/><polygon fill="#A80036" points="326.8463,175.9872,324.0913,166.5315,323.6186,172.1686,317.9815,171.6959,326.8463,175.9872" style="stroke: #A80036; stroke-width: 1.0;"/><text fill="#000000" font-family="sans-serif" font-size="13" lengthAdjust="spacingAndGlyphs" textLength="39" x="274.8728" y="165.0576">entete</text><path d="M260.5555,116.0352 C254.009,130.5065 242.9824,154.881 235.5996,171.2009 " fill="none" style="stroke: #A80036; stroke-width: 1.0;"/><polygon fill="#A80036" points="233.4344,175.9872,240.7883,169.4359,235.4952,171.4317,233.4995,166.1386,233.4344,175.9872" style="stroke: #A80036; stroke-width: 1.0;"/><text fill="#000000" font-family="sans-serif" font-size="13" lengthAdjust="spacingAndGlyphs" textLength="31" x="198.0307" y="165.0576">table</text><path d="M266,32.0352 C266,46.3818 266,70.4615 266,86.777 " fill="none" style="stroke: #A80036; stroke-width: 1.0;"/><polygon fill="#A80036" points="266,91.9872,270,82.9872,266,86.9872,262,82.9872,266,91.9872" style="stroke: #A80036; stroke-width: 1.0;"/><text fill="#000000" font-family="sans-serif" font-size="13" lengthAdjust="spacingAndGlyphs" textLength="31" x="228.2188" y="81.0576">main</text><path d="M341.8714,200.0352 C347.7288,214.5065 357.5947,238.881 364.2004,255.2009 " fill="none" style="stroke: #A80036; stroke-width: 1.0;"/><polygon fill="#A80036" points="366.1377,259.9872,366.4687,250.1439,364.2617,255.3525,359.0531,253.1455,366.1377,259.9872" style="stroke: #A80036; stroke-width: 1.0;"/><text fill="#000000" font-family="sans-serif" font-size="13" lengthAdjust="spacingAndGlyphs" textLength="8" x="354.2604" y="249.0576">3</text><path d="M208.3712,200.0352 C183.7518,215.1303 141.5584,241.0007 115.0323,257.2649 " fill="none" style="stroke: #A80036; stroke-width: 1.0;"/><polygon fill="#A80036" points="110.5923,259.9872,120.3557,258.6928,114.8548,257.3736,116.174,251.8728,110.5923,259.9872" style="stroke: #A80036; stroke-width: 1.0;"/><text fill="#000000" font-family="sans-serif" font-size="13" lengthAdjust="spacingAndGlyphs" textLength="6" x="111.8514" y="249.0576">*</text><path d="M220.8362,200.0352 C212.1481,214.6313 197.4631,239.302 187.7493,255.6211 " fill="none" style="stroke: #A80036; stroke-width: 1.0;"/><polygon fill="#A80036" points="185.1505,259.9872,193.1911,254.2995,187.7079,255.6907,186.3167,250.2076,185.1505,259.9872" style="stroke: #A80036; stroke-width: 1.0;"/><text fill="#000000" font-family="sans-serif" font-size="13" lengthAdjust="spacingAndGlyphs" textLength="6" x="180.9663" y="249.0576">*</text><path d="M235.3071,200.0352 C244.169,214.6313 259.1477,239.302 269.0557,255.6211 " fill="none" style="stroke: #A80036; stroke-width: 1.0;"/><polygon fill="#A80036" points="271.7065,259.9872,270.4546,250.2182,269.1115,255.7133,263.6164,254.3702,271.7065,259.9872" style="stroke: #A80036; stroke-width: 1.0;"/><path d="M279,284.0352 C279,298.3818 279,322.4615 279,338.777 " fill="none" style="stroke: #A80036; stroke-width: 1.0;"/><polygon fill="#A80036" points="279,343.9872,283,334.9872,279,338.9872,275,334.9872,279,343.9872" style="stroke: #A80036; stroke-width: 1.0;"/><text fill="#000000" font-family="sans-serif" font-size="13" lengthAdjust="spacingAndGlyphs" textLength="8" x="269.25" y="333.0576">2</text><rect fill="#DDDDDD" height="26.4883" rx="5" ry="5" style="stroke: #000000; stroke-width: 1.0;" width="460" x="8" y="386"/><text fill="#000000" font-family="sans-serif" font-size="14" font-style="italic" lengthAdjust="spacingAndGlyphs" textLength="448" x="14" y="404.5352">This model has been done by Groupe 1 on December 10th, 2018.</text></g></svg>