<?xml version="1.0" encoding="UTF-8" standalone="no"?><svg xmlns="http://www.w3.org/2000/svg" xmlns:xlink="http://www.w3.org/1999/xlink" contentScriptType="application/ecmascript" contentStyleType="text/css" height="312px" preserveAspectRatio="none" style="width:586px;height:312px;" version="1.1" viewBox="0 0 586 312" width="586px" zoomAndPan="magnify"><defs><filter height="300%" id="ffle6h5yb4g4r" width="300%" x="-1" y="-1"><feGaussianBlur result="blurOut" stdDeviation="2.0"/><feColorMatrix in="blurOut" result="blurOut2" type="matrix" values="0 0 0 0 0 0 0 0 0 0 0 0 0 0 0 0 0 0 .4 0"/><feOffset dx="4.0" dy="4.0" in="blurOut2" result="blurOut3"/><feBlend in="SourceGraphic" in2="blurOut3" mode="normal"/></filter></defs><g><rect fill="#CD853F" filter="url(#ffle6h5yb4g4r)" height="50" rx="12.5" ry="12.5" style="stroke: #808080; stroke-width: 1.5;" width="140" x="170" y="8"/><line style="stroke: #808080; stroke-width: 1.5;" x1="170" x2="310" y1="36.6689" y2="36.6689"/><text fill="#000000" font-family="Monaco" font-size="14" lengthAdjust="spacingAndGlyphs" textLength="120" x="180" y="28.1689">execute_session</text><rect fill="#CD853F" filter="url(#ffle6h5yb4g4r)" height="50" rx="12.5" ry="12.5" style="stroke: #808080; stroke-width: 1.5;" width="76" x="6" y="118"/><line style="stroke: #808080; stroke-width: 1.5;" x1="6" x2="82" y1="146.6689" y2="146.6689"/><text fill="#000000" font-family="Monaco" font-size="14" lengthAdjust="spacingAndGlyphs" textLength="56" x="16" y="138.1689">initial</text><rect fill="#CD853F" filter="url(#ffle6h5yb4g4r)" height="50" rx="12.5" ry="12.5" style="stroke: #808080; stroke-width: 1.5;" width="100" x="117" y="118"/><line style="stroke: #808080; stroke-width: 1.5;" x1="117" x2="217" y1="146.6689" y2="146.6689"/><text fill="#000000" font-family="Monaco" font-size="14" lengthAdjust="spacingAndGlyphs" textLength="80" x="127" y="138.1689">transition</text><rect fill="#CD853F" filter="url(#ffle6h5yb4g4r)" height="50" rx="12.5" ry="12.5" style="stroke: #808080; stroke-width: 1.5;" width="124" x="252" y="118"/><line style="stroke: #808080; stroke-width: 1.5;" x1="252" x2="376" y1="146.6689" y2="146.6689"/><text fill="#000000" font-family="Monaco" font-size="14" lengthAdjust="spacingAndGlyphs" textLength="104" x="262" y="138.1689">execute_state</text><rect fill="#CD853F" filter="url(#ffle6h5yb4g4r)" height="50" rx="12.5" ry="12.5" style="stroke: #808080; stroke-width: 1.5;" width="84" x="411" y="118"/><line style="stroke: #808080; stroke-width: 1.5;" x1="411" x2="495" y1="146.6689" y2="146.6689"/><text fill="#000000" font-family="Monaco" font-size="14" lengthAdjust="spacingAndGlyphs" textLength="64" x="421" y="138.1689">is_final</text><rect fill="#CD853F" filter="url(#ffle6h5yb4g4r)" height="50" rx="12.5" ry="12.5" style="stroke: #808080; stroke-width: 1.5;" width="76" x="78" y="228"/><line style="stroke: #808080; stroke-width: 1.5;" x1="78" x2="154" y1="256.6689" y2="256.6689"/><text fill="#000000" font-family="Monaco" font-size="14" lengthAdjust="spacingAndGlyphs" textLength="56" x="88" y="248.1689">display</text><rect fill="#CD853F" filter="url(#ffle6h5yb4g4r)" height="50" rx="12.5" ry="12.5" style="stroke: #808080; stroke-width: 1.5;" width="52" x="189" y="228"/><line style="stroke: #808080; stroke-width: 1.5;" x1="189" x2="241" y1="256.6689" y2="256.6689"/><text fill="#000000" font-family="Monaco" font-size="14" lengthAdjust="spacingAndGlyphs" textLength="32" x="199" y="248.1689">read</text><rect fill="#CD853F" filter="url(#ffle6h5yb4g4r)" height="50" rx="12.5" ry="12.5" style="stroke: #808080; stroke-width: 1.5;" width="76" x="276" y="228"/><line style="stroke: #808080; stroke-width: 1.5;" x1="276" x2="352" y1="256.6689" y2="256.6689"/><text fill="#000000" font-family="Monaco" font-size="14" lengthAdjust="spacingAndGlyphs" textLength="56" x="286" y="248.1689">correct</text><rect fill="#CD853F" filter="url(#ffle6h5yb4g4r)" height="50" rx="12.5" ry="12.5" style="stroke: #808080; stroke-width: 1.5;" width="76" x="387" y="228"/><line style="stroke: #808080; stroke-width: 1.5;" x1="387" x2="463" y1="256.6689" y2="256.6689"/><text fill="#000000" font-family="Monaco" font-size="14" lengthAdjust="spacingAndGlyphs" textLength="56" x="397" y="248.1689">message</text><rect fill="#CD853F" filter="url(#ffle6h5yb4g4r)" height="50" rx="12.5" ry="12.5" style="stroke: #808080; stroke-width: 1.5;" width="76" x="498" y="228"/><line style="stroke: #808080; stroke-width: 1.5;" x1="498" x2="574" y1="256.6689" y2="256.6689"/><text fill="#000000" font-family="Monaco" font-size="14" lengthAdjust="spacingAndGlyphs" textLength="56" x="508" y="248.1689">process</text><!--link initial to transition--><!--link transition to execute_state--><!--link execute_state to is_final--><!--link exe to initial--><path d="M195.0336,58.2362 C162.5017,76.4939 118.8122,101.0136 86.7927,118.9837 " fill="none" id="exe-initial" style="stroke: #000000; stroke-width: 1.0;"/><polygon fill="#000000" points="82.1559,121.586,91.962,120.6694,86.5161,119.1389,88.0466,113.693,82.1559,121.586" style="stroke: #000000; stroke-width: 1.0;"/><!--link exe to transition--><path d="M223.2523,58.2362 C212.3092,74.7258 197.9764,96.3233 186.5173,113.5903 " fill="none" id="exe-transition" style="stroke: #000000; stroke-width: 1.0;"/><polygon fill="#000000" points="183.6697,117.8812,191.9792,112.5942,186.4345,113.7152,185.3135,108.1705,183.6697,117.8812" style="stroke: #000000; stroke-width: 1.0;"/><!--link exe to execute_state--><path d="M256.9771,58.2362 C268.0701,74.7258 282.5993,96.3233 294.2153,113.5903 " fill="none" id="exe-execute_state" style="stroke: #000000; stroke-width: 1.0;"/><polygon fill="#000000" points="297.1019,117.8812,295.3972,108.181,294.311,113.7326,288.7594,112.6464,297.1019,117.8812" style="stroke: #000000; stroke-width: 1.0;"/><!--link exe to is_final--><path d="M288.5995,58.0983 C323.8516,76.3037 371.2639,100.7889 406.1133,118.7862 " fill="none" id="exe-is_final" style="stroke: #000000; stroke-width: 1.0;"/><polygon fill="#000000" points="410.7291,121.17,404.5679,113.4863,406.2865,118.8757,400.8971,120.5943,410.7291,121.17" style="stroke: #000000; stroke-width: 1.0;"/><!--link display to read--><!--link read to correct--><!--link correct to message--><!--link message to process--><!--link execute_state to display--><path d="M268.5748,168.2362 C235.6021,186.5544 191.2832,211.176 158.9085,229.162 " fill="none" id="execute_state-display" style="stroke: #000000; stroke-width: 1.0;"/><polygon fill="#000000" points="154.2213,231.766,164.0313,230.8918,158.5921,229.3378,160.1461,223.8986,154.2213,231.766" style="stroke: #000000; stroke-width: 1.0;"/><!--link execute_state to read--><path d="M291.2874,168.2362 C276.321,184.8656 256.6793,206.6897 241.0745,224.0284 " fill="none" id="execute_state-read" style="stroke: #000000; stroke-width: 1.0;"/><polygon fill="#000000" points="237.6069,227.8812,246.6008,223.8675,240.9518,224.1648,240.6545,218.5157,237.6069,227.8812" style="stroke: #000000; stroke-width: 1.0;"/><!--link execute_state to correct--><path d="M314,168.2362 C314,184.4464 314,205.5926 314,222.7087 " fill="none" id="execute_state-correct" style="stroke: #000000; stroke-width: 1.0;"/><polygon fill="#000000" points="314,227.8812,318,218.8812,314,222.8812,310,218.8812,314,227.8812" style="stroke: #000000; stroke-width: 1.0;"/><!--link execute_state to message--><path d="M339.4656,168.2362 C356.2462,184.8656 378.2687,206.6897 395.765,224.0284 " fill="none" id="execute_state-message" style="stroke: #000000; stroke-width: 1.0;"/><polygon fill="#000000" points="399.6529,227.8812,396.0758,218.7049,396.1014,224.3617,390.4446,224.3873,399.6529,227.8812" style="stroke: #000000; stroke-width: 1.0;"/><!--link execute_state to process--><path d="M364.653,168.0983 C403.3542,187.2746 456.1173,213.4185 492.828,231.6085 " fill="none" id="execute_state-process" style="stroke: #000000; stroke-width: 1.0;"/><polygon fill="#000000" points="497.673,234.0091,491.3848,226.429,493.1929,231.7891,487.8328,233.5972,497.673,234.0091" style="stroke: #000000; stroke-width: 1.0;"/><text fill="#888888" font-family="Monaco" font-size="10" lengthAdjust="spacingAndGlyphs" textLength="72" x="260" y="298.835">(c) B. Meyer</text><!--
@startuml
skinparam defaultFontName Monaco
center footer (c) B. Meyer

skinparam defaultFontName Monaco
skinparam state {
        ArrowColor Black
        BackgroundColor Peru
        BorderColor Gray
        BorderColor<<Running>> DarkGreen
}
state exe as "execute_session"
initial -[hidden]> transition
transition -[hidden]> execute_state
execute_state -[hidden]> is_final

exe - -> initial
exe - -> transition
exe - -> execute_state
exe - -> is_final

display -[hidden]> read
read -[hidden]> correct
correct -[hidden]> message
message -[hidden]> process

execute_state - -> display
execute_state - -> read
execute_state - -> correct
execute_state - -> message
execute_state - -> process

@enduml

PlantUML version 1.2018.10(Sat Aug 25 19:02:59 CEST 2018)
(APACHE source distribution)
Java Runtime: Java(TM) SE Runtime Environment
JVM: Java HotSpot(TM) 64-Bit Server VM
Java Version: 1.8.0_152-b16
Operating System: Mac OS X
OS Version: 10.14.1
Default Encoding: UTF-8
Language: fr
Country: FR
--></g></svg>