<?xml version="1.0" encoding="UTF-8" standalone="no"?><svg xmlns="http://www.w3.org/2000/svg" xmlns:xlink="http://www.w3.org/1999/xlink" contentScriptType="application/ecmascript" contentStyleType="text/css" height="362px" preserveAspectRatio="none" style="width:611px;height:362px;" version="1.1" viewBox="0 0 611 362" width="611px" zoomAndPan="magnify"><defs><filter height="300%" id="f14r5ynnsc7kro" width="300%" x="-1" y="-1"><feGaussianBlur result="blurOut" stdDeviation="2.0"/><feColorMatrix in="blurOut" result="blurOut2" type="matrix" values="0 0 0 0 0 0 0 0 0 0 0 0 0 0 0 0 0 0 .4 0"/><feOffset dx="4.0" dy="4.0" in="blurOut2" result="blurOut3"/><feBlend in="SourceGraphic" in2="blurOut3" mode="normal"/></filter></defs><g><rect fill="#FEFECE" filter="url(#f14r5ynnsc7kro)" height="50" rx="12.5" ry="12.5" style="stroke: #808080; stroke-width: 1.5;" width="52" x="6" y="168"/><line style="stroke: #808080; stroke-width: 1.5;" x1="6" x2="58" y1="196.6689" y2="196.6689"/><text fill="#000000" font-family="Monaco" font-size="14" lengthAdjust="spacingAndGlyphs" textLength="32" x="16" y="188.1689">Help</text><rect fill="#FEFECE" filter="url(#f14r5ynnsc7kro)" height="50" rx="12.5" ry="12.5" style="stroke: #808080; stroke-width: 1.5;" width="52" x="309" y="168"/><line style="stroke: #808080; stroke-width: 1.5;" x1="309" x2="361" y1="196.6689" y2="196.6689"/><text fill="#000000" font-family="Monaco" font-size="14" lengthAdjust="spacingAndGlyphs" textLength="32" x="319" y="188.1689">Help</text><rect fill="#FEFECE" filter="url(#f14r5ynnsc7kro)" height="50" rx="12.5" ry="12.5" style="stroke: #808080; stroke-width: 1.5;" width="52" x="547" y="168"/><line style="stroke: #808080; stroke-width: 1.5;" x1="547" x2="599" y1="196.6689" y2="196.6689"/><text fill="#000000" font-family="Monaco" font-size="14" lengthAdjust="spacingAndGlyphs" textLength="32" x="557" y="188.1689">Help</text><ellipse cx="307" cy="83" fill="#000000" filter="url(#f14r5ynnsc7kro)" rx="10" ry="10" style="stroke: none; stroke-width: 1.0;"/><rect fill="#FEFECE" filter="url(#f14r5ynnsc7kro)" height="50" rx="12.5" ry="12.5" style="stroke: #808080; stroke-width: 1.5;" width="76" x="198" y="168"/><line style="stroke: #808080; stroke-width: 1.5;" x1="198" x2="274" y1="196.6689" y2="196.6689"/><text fill="#000000" font-family="Monaco" font-size="14" lengthAdjust="spacingAndGlyphs" textLength="56" x="208" y="188.1689">Initial</text><rect fill="#FEFECE" filter="url(#f14r5ynnsc7kro)" height="50" rx="12.5" ry="12.5" style="stroke: #808080; stroke-width: 1.5;" width="52" x="210" y="58"/><line style="stroke: #808080; stroke-width: 1.5;" x1="210" x2="262" y1="86.6689" y2="86.6689"/><text fill="#000000" font-family="Monaco" font-size="14" lengthAdjust="spacingAndGlyphs" textLength="32" x="220" y="78.1689">Help</text><rect fill="#FEFECE" filter="url(#f14r5ynnsc7kro)" height="50" rx="12.5" ry="12.5" style="stroke: #808080; stroke-width: 1.5;" width="116" x="124" y="278"/><line style="stroke: #808080; stroke-width: 1.5;" x1="124" x2="240" y1="306.6689" y2="306.6689"/><text fill="#000000" font-family="Monaco" font-size="14" lengthAdjust="spacingAndGlyphs" textLength="96" x="134" y="298.1689">Confirmation</text><rect fill="#FEFECE" filter="url(#f14r5ynnsc7kro)" height="50" rx="12.5" ry="12.5" style="stroke: #808080; stroke-width: 1.5;" width="116" x="396" y="168"/><line style="stroke: #808080; stroke-width: 1.5;" x1="396" x2="512" y1="196.6689" y2="196.6689"/><text fill="#000000" font-family="Monaco" font-size="14" lengthAdjust="spacingAndGlyphs" textLength="96" x="406" y="188.1689">Flight_Query</text><rect fill="#FEFECE" filter="url(#f14r5ynnsc7kro)" height="50" rx="12.5" ry="12.5" style="stroke: #808080; stroke-width: 1.5;" width="108" x="67" y="58"/><line style="stroke: #808080; stroke-width: 1.5;" x1="67" x2="175" y1="86.6689" y2="86.6689"/><text fill="#000000" font-family="Monaco" font-size="14" lengthAdjust="spacingAndGlyphs" textLength="88" x="77" y="78.1689">Reservation</text><rect fill="#FEFECE" filter="url(#f14r5ynnsc7kro)" height="50" rx="12.5" ry="12.5" style="stroke: #808080; stroke-width: 1.5;" width="100" x="352" y="58"/><line style="stroke: #808080; stroke-width: 1.5;" x1="352" x2="452" y1="86.6689" y2="86.6689"/><text fill="#000000" font-family="Monaco" font-size="14" lengthAdjust="spacingAndGlyphs" textLength="80" x="362" y="78.1689">Seat_Query</text><!--link *start to Initial--><path d="M301.4287,91.6315 C291.5807,106.889 270.6707,139.2849 255.1252,163.3694 " fill="none" id="*start-Initial" style="stroke: #000000; stroke-width: 1.0;"/><polygon fill="#000000" points="252.2888,167.7638,260.5303,162.3715,255.0004,163.5629,253.8089,158.033,252.2888,167.7638" style="stroke: #000000; stroke-width: 1.0;"/><!--link Help to Initial--><path d="M224.4572,113.4155 C222.657,130.5509 222.8702,151.695 225.0966,167.8812 " fill="none" id="Help-Initial" style="stroke: #000000; stroke-width: 1.0;"/><polygon fill="#000000" points="225.0805,108.2362,220.0338,116.6938,224.4831,113.2004,227.9765,117.6497,225.0805,108.2362" style="stroke: #000000; stroke-width: 1.0;"/><!--link Help to Initial--><path d="M247.5618,108.2362 C249.9089,124.4464 250.1243,145.5926 248.2079,162.7087 " fill="none" id="Help-Initial" style="stroke: #000000; stroke-width: 1.0;"/><polygon fill="#000000" points="247.5448,167.8812,252.6571,159.4631,248.1808,162.9218,244.7221,158.4455,247.5448,167.8812" style="stroke: #000000; stroke-width: 1.0;"/><!--link Initial to Confirmation--><path d="M212.6918,218.2362 C202.4297,234.5861 191.7506,255.9576 185.171,273.1504 " fill="none" id="Initial-Confirmation" style="stroke: #000000; stroke-width: 1.0;"/><polygon fill="#000000" points="183.4277,277.8812,190.2929,270.8194,185.1565,273.1896,182.7863,268.0533,183.4277,277.8812" style="stroke: #000000; stroke-width: 1.0;"/><!--link Confirmation to Initial--><path d="M205.8758,277.8812 C216.268,261.5554 226.9675,240.186 233.4579,222.9732 " fill="none" id="Confirmation-Initial" style="stroke: #000000; stroke-width: 1.0;"/><polygon fill="#000000" points="235.1731,218.2362,228.3477,225.3365,233.4707,222.9375,235.8698,228.0604,235.1731,218.2362" style="stroke: #000000; stroke-width: 1.0;"/><!--link Initial to Flight_Query--><path d="M265.7128,167.7809 C276.882,159.8398 290.1614,152.0807 303.6667,148 C330.7535,139.8156 339.8444,141.2888 367.3333,148 C382.2785,151.6487 397.5177,158.3647 410.9648,165.5151 " fill="none" id="Initial-Flight_Query" style="stroke: #000000; stroke-width: 1.0;"/><polygon fill="#000000" points="415.4534,167.9529,409.4535,160.1426,411.0596,165.5666,405.6355,167.1727,415.4534,167.9529" style="stroke: #000000; stroke-width: 1.0;"/><!--link Flight_Query to Initial--><path d="M425.7642,167.8302 C407.2551,153.0744 381.7318,135.8361 355.6667,128 C338.4998,122.839 332.2138,121.9678 315.3333,128 C294.9493,135.2843 276.0345,150.3086 261.7904,164.0791 " fill="none" id="Flight_Query-Initial" style="stroke: #000000; stroke-width: 1.0;"/><polygon fill="#000000" points="257.8994,167.9223,267.1135,164.4437,261.4567,164.4087,261.4917,158.7519,257.8994,167.9223" style="stroke: #000000; stroke-width: 1.0;"/><!--link Flight_Query to help4--><path d="M512.1055,211.7397 C522.0539,211.8867 532.0022,210.4611 541.9506,207.463 " fill="none" id="Flight_Query-help4" style="stroke: #000000; stroke-width: 1.0;"/><polygon fill="#000000" points="546.8344,205.8649,537.0367,204.8623,542.0824,207.4199,539.5247,212.4656,546.8344,205.8649" style="stroke: #000000; stroke-width: 1.0;"/><!--link help4 to Flight_Query--><path d="M546.8344,180.1351 C536.9764,176.6543 527.1185,174.7176 517.2605,174.3249 " fill="none" id="help4-Flight_Query" style="stroke: #000000; stroke-width: 1.0;"/><polygon fill="#000000" points="512.1055,174.2603,521.0546,178.3729,517.1051,174.323,521.155,170.3735,512.1055,174.2603" style="stroke: #000000; stroke-width: 1.0;"/><!--link Confirmation to Reservation--><path d="M183.9845,277.7196 C178.4638,236.9378 156.4557,156.7968 138.984,113.1199 " fill="none" id="Confirmation-Reservation" style="stroke: #000000; stroke-width: 1.0;"/><polygon fill="#000000" points="136.9854,108.2368,136.6928,118.0813,138.8794,112.8642,144.0966,115.0508,136.9854,108.2368" style="stroke: #000000; stroke-width: 1.0;"/><!--link Reservation to Confirmation--><path d="M119.5089,108.2368 C125.3396,148.9905 147.3555,229.1305 164.5328,272.8334 " fill="none" id="Reservation-Confirmation" style="stroke: #000000; stroke-width: 1.0;"/><polygon fill="#000000" points="166.496,277.7196,166.8518,267.8772,164.6317,273.0802,159.4287,270.86,166.496,277.7196" style="stroke: #000000; stroke-width: 1.0;"/><!--link Seat_Query to Flight_Query--><path d="M403.0104,108.2362 C408.5036,124.5861 418.4188,145.9576 428.4068,163.1504 " fill="none" id="Seat_Query-Flight_Query" style="stroke: #000000; stroke-width: 1.0;"/><polygon fill="#000000" points="431.2223,167.8812,430.0568,158.1015,428.6652,163.5845,423.1822,162.1929,431.2223,167.8812" style="stroke: #000000; stroke-width: 1.0;"/><!--link Flight_Query to Seat_Query--><path d="M453.6704,167.8812 C448.2849,151.4159 438.2683,129.8204 428.0823,112.5328 " fill="none" id="Flight_Query-Seat_Query" style="stroke: #000000; stroke-width: 1.0;"/><polygon fill="#000000" points="425.4917,108.2362,426.7136,118.009,428.0735,112.518,433.5645,113.878,425.4917,108.2362" style="stroke: #000000; stroke-width: 1.0;"/><!--link Seat_Query to help3--><path d="M375.7094,108.2362 C363.515,124.5861 350.3101,145.9576 341.6987,163.1504 " fill="none" id="Seat_Query-help3" style="stroke: #000000; stroke-width: 1.0;"/><polygon fill="#000000" points="339.3963,167.8812,346.9315,161.5393,341.5844,163.3854,339.7383,158.0383,339.3963,167.8812" style="stroke: #000000; stroke-width: 1.0;"/><!--link help3 to Seat_Query--><path d="M361.2714,168.6376 C373.738,152.2412 387.2233,130.5103 395.8815,113.0421 " fill="none" id="help3-Seat_Query" style="stroke: #000000; stroke-width: 1.0;"/><polygon fill="#000000" points="398.1907,108.2362,390.6875,114.616,396.0253,112.743,397.8983,118.0807,398.1907,108.2362" style="stroke: #000000; stroke-width: 1.0;"/><!--link Reservation to Seat_Query--><path d="M158.108,57.9609 C172.0825,49.9312 188.5131,42.0685 204.6667,38 C255.8102,25.1187 272.3625,24.4515 323.3333,38 C337.0116,41.6358 350.7902,48.2726 362.9096,55.3524 " fill="none" id="Reservation-Seat_Query" style="stroke: #000000; stroke-width: 1.0;"/><polygon fill="#000000" points="367.2964,57.9761,361.6257,49.9235,363.0054,55.4096,357.5193,56.7892,367.2964,57.9761" style="stroke: #000000; stroke-width: 1.0;"/><!--link Reservation to Seat_Query--><path d="M152.5599,54.3449 C170.007,40.4547 192.8636,25.2397 216.3333,18 C256.8212,5.5107 271.3401,4.9993 311.6667,18 C336.1239,25.8847 359.5507,43.121 376.4164,57.8639 " fill="none" id="Reservation-Seat_Query" style="stroke: #000000; stroke-width: 1.0;"/><polygon fill="#000000" points="148.2437,57.8421,157.7546,55.2841,152.1285,54.6944,152.7183,49.0684,148.2437,57.8421" style="stroke: #000000; stroke-width: 1.0;"/><!--link Reservation to help2--><path d="M89.6621,108.2362 C74.0656,124.7258 56.4197,146.3233 44.3608,163.5903 " fill="none" id="Reservation-help2" style="stroke: #000000; stroke-width: 1.0;"/><polygon fill="#000000" points="41.42,167.8812,49.8075,162.7189,44.2467,163.7569,43.2087,158.1961,41.42,167.8812" style="stroke: #000000; stroke-width: 1.0;"/><!--link help2 to Reservation--><path d="M58.1658,173.7106 C75.1504,156.8004 95.7726,131.9563 109.2201,112.5422 " fill="none" id="help2-Reservation" style="stroke: #000000; stroke-width: 1.0;"/><polygon fill="#000000" points="112.1434,108.2362,103.7787,113.4354,109.3349,112.3729,110.3974,117.9291,112.1434,108.2362" style="stroke: #000000; stroke-width: 1.0;"/><text fill="#888888" font-family="Monaco" font-size="10" lengthAdjust="spacingAndGlyphs" textLength="72" x="272.5" y="348.835">(c) B. Meyer</text><!--
@startuml
skinparam defaultFontName Monaco
center footer (c) B. Meyer

skinparam defaultFontName Monaco
skinparam state {
        ArrowColor Black
        BackgroundColor<<NotVisible>> Olive
        BorderColor Gray
        BorderColor<<Running>> DarkGreen
}
state help2 as "Help"
state help3 as "Help"
state help4 as "Help"
[*] - -> Initial
Initial -l-> Help
Help - -> Initial
Initial - -> Confirmation
Initial -> Flight_Query
Flight_Query -> Initial
Flight_Query -> help4
help4 -> Flight_Query
Confirmation - -> Reservation
Reservation - -> Confirmation
Confirmation - -> Initial
Seat_Query - -> Flight_Query
Flight_Query - -> Seat_Query
Seat_Query - -> help3
help3 - -> Seat_Query
Reservation -r-> Seat_Query
Seat_Query -l-> Reservation
Reservation - -> help2
help2 - -> Reservation
@enduml

PlantUML version 1.2018.10(Sat Aug 25 19:02:59 CEST 2018)
(APACHE source distribution)
Java Runtime: Java(TM) SE Runtime Environment
JVM: Java HotSpot(TM) 64-Bit Server VM
Java Version: 1.8.0_152-b16
Operating System: Mac OS X
OS Version: 10.14.1
Default Encoding: UTF-8
Language: fr
Country: FR
--></g></svg>