<?xml version="1.0" encoding="UTF-8" standalone="yes"?><svg xmlns="http://www.w3.org/2000/svg" xmlns:xlink="http://www.w3.org/1999/xlink" height="319px" style="width:288px;height:319px;" version="1.1" viewBox="0 0 288 319" width="288px"><defs><filter height="300%" id="f1" width="300%" x="-1" y="-1"><feGaussianBlur result="blurOut" stdDeviation="2.0"/><feColorMatrix in="blurOut" result="blurOut2" type="matrix" values="0 0 0 0 0 0 0 0 0 0 0 0 0 0 0 0 0 0 .4 0"/><feOffset dx="4.0" dy="4.0" in="blurOut2" result="blurOut3"/><feBlend in="SourceGraphic" in2="blurOut3" mode="normal"/></filter></defs><g><rect fill="#FEFECE" filter="url(#f1)" height="60.9551" style="stroke: #A80036; stroke-width: 1.5;" width="75" x="17" y="8"/><ellipse cx="38.75" cy="24" fill="#A9DCDF" rx="11" ry="11" style="stroke: #A80036; stroke-width: 1.0;"/><path d="M38.8633,19.3481 L37.7095,24.4199 L40.0254,24.4199 Z M37.3691,17.1069 L40.3657,17.1069 L43.7109,29.5 L41.2622,29.5 L40.4985,26.437 L37.2197,26.437 L36.4727,29.5 L34.0239,29.5 Z "/><text fill="#000000" font-family="sans-serif" font-size="12" font-style="italic" lengthAdjust="spacingAndGlyphs" textLength="28" x="54.25" y="28.5352">Sujet</text><line style="stroke: #A80036; stroke-width: 1.5;" x1="18" x2="91" y1="40" y2="40"/><line style="stroke: #A80036; stroke-width: 1.5;" x1="18" x2="91" y1="48" y2="48"/><ellipse cx="28" cy="59.9775" fill="#84BE84" rx="3" ry="3" style="stroke: #038048; stroke-width: 1.0;"/><text fill="#000000" font-family="sans-serif" font-size="11" font-style="italic" lengthAdjust="spacingAndGlyphs" textLength="49" x="37" y="62.6348">requete()</text><rect fill="#FEFECE" filter="url(#f1)" height="60.9551" style="stroke: #A80036; stroke-width: 1.5;" width="85" x="60" y="129"/><ellipse cx="75" cy="145" fill="#ADD1B2" rx="11" ry="11" style="stroke: #A80036; stroke-width: 1.0;"/><path d="M77.9731,150.6431 Q77.3921,150.9419 76.7529,151.0913 Q76.1138,151.2407 75.4082,151.2407 Q72.9014,151.2407 71.5815,149.5889 Q70.2617,147.937 70.2617,144.8159 Q70.2617,141.6865 71.5815,140.0347 Q72.9014,138.3828 75.4082,138.3828 Q76.1138,138.3828 76.7612,138.5322 Q77.4087,138.6816 77.9731,138.9805 L77.9731,141.7031 Q77.3423,141.1221 76.7488,140.8523 Q76.1553,140.5825 75.5244,140.5825 Q74.1797,140.5825 73.4949,141.6492 Q72.8101,142.7158 72.8101,144.8159 Q72.8101,146.9077 73.4949,147.9744 Q74.1797,149.041 75.5244,149.041 Q76.1553,149.041 76.7488,148.7712 Q77.3423,148.5015 77.9731,147.9204 Z "/><text fill="#000000" font-family="sans-serif" font-size="12" lengthAdjust="spacingAndGlyphs" textLength="53" x="89" y="149.5352">SujetReel</text><line style="stroke: #A80036; stroke-width: 1.5;" x1="61" x2="144" y1="161" y2="161"/><line style="stroke: #A80036; stroke-width: 1.5;" x1="61" x2="144" y1="169" y2="169"/><ellipse cx="71" cy="180.9775" fill="#84BE84" rx="3" ry="3" style="stroke: #038048; stroke-width: 1.0;"/><text fill="#000000" font-family="sans-serif" font-size="11" lengthAdjust="spacingAndGlyphs" textLength="49" x="80" y="183.6348">requete()</text><rect fill="#FEFECE" filter="url(#f1)" height="60.9551" style="stroke: #A80036; stroke-width: 1.5;" width="97" x="6" y="250"/><ellipse cx="21" cy="266" fill="#ADD1B2" rx="11" ry="11" style="stroke: #A80036; stroke-width: 1.0;"/><path d="M23.9731,271.6431 Q23.3921,271.9419 22.7529,272.0913 Q22.1138,272.2407 21.4082,272.2407 Q18.9014,272.2407 17.5815,270.5889 Q16.2617,268.937 16.2617,265.8159 Q16.2617,262.6865 17.5815,261.0347 Q18.9014,259.3828 21.4082,259.3828 Q22.1138,259.3828 22.7612,259.5322 Q23.4087,259.6816 23.9731,259.9805 L23.9731,262.7031 Q23.3423,262.1221 22.7488,261.8523 Q22.1553,261.5825 21.5244,261.5825 Q20.1797,261.5825 19.4949,262.6492 Q18.8101,263.7158 18.8101,265.8159 Q18.8101,267.9077 19.4949,268.9744 Q20.1797,270.041 21.5244,270.041 Q22.1553,270.041 22.7488,269.7712 Q23.3423,269.5015 23.9731,268.9204 Z "/><text fill="#000000" font-family="sans-serif" font-size="12" lengthAdjust="spacingAndGlyphs" textLength="65" x="35" y="270.5352">Procuration</text><line style="stroke: #A80036; stroke-width: 1.5;" x1="7" x2="102" y1="282" y2="282"/><line style="stroke: #A80036; stroke-width: 1.5;" x1="7" x2="102" y1="290" y2="290"/><ellipse cx="17" cy="301.9775" fill="#84BE84" rx="3" ry="3" style="stroke: #038048; stroke-width: 1.0;"/><text fill="#000000" font-family="sans-serif" font-size="11" lengthAdjust="spacingAndGlyphs" textLength="49" x="26" y="304.6348">requete()</text><polygon fill="#FBFB77" filter="url(#f1)" points="138,268,138,293.3105,279,293.3105,279,278,269,268,138,268" style="stroke: #A80036; stroke-width: 1.0;"/><polygon fill="#FBFB77" points="138,268,138,276.5,103.2266,280.5,138,284.5,138,293.3105,279,293.3105,279,278,269,268,138,268" style="stroke: #A80036; stroke-width: 1.0;"/><line style="stroke: #A80036; stroke-width: 1.0;" x1="269" x2="269" y1="268" y2="278"/><line style="stroke: #A80036; stroke-width: 1.0;" x1="279" x2="269" y1="278" y2="278"/><text fill="#000000" font-family="sans-serif" font-size="13" lengthAdjust="spacingAndGlyphs" textLength="120" x="144" y="285.5684">sujetReel.requete();</text><path d="M74.0767,87.85 C79.5996,101.772 85.4462,116.51 90.3914,128.976 " fill="none" style="stroke: #A80036; stroke-width: 1.0;"/><polygon fill="none" points="67.4806,90.205,66.6124,69.033,80.494,85.043,67.4806,90.205" style="stroke: #A80036; stroke-width: 1.0;"/><path d="M46.5728,89.26 C44.8837,102.187 43.3529,116.079 42.5,129 C40.7143,156.052 40.7143,162.948 42.5,190 C43.8154,209.927 46.7429,232.1616 49.377,249.6053 " fill="none" style="stroke: #A80036; stroke-width: 1.0;"/><polygon fill="none" points="39.6502,88.22,49.377,69.395,53.5128,90.177,39.6502,88.22" style="stroke: #A80036; stroke-width: 1.0;"/><path d="M88.4709,194.865 C81.5397,212.3375 73.259,233.2116 66.6086,249.9764 " fill="none" style="stroke: #A80036; stroke-width: 1.0;"/><polygon fill="#A80036" points="90.3876,190.033,83.3519,196.925,88.5446,194.681,90.7886,199.8737,90.3876,190.033" style="stroke: #A80036; stroke-width: 1.0;"/><text fill="#000000" font-family="sans-serif" font-size="13" lengthAdjust="spacingAndGlyphs" textLength="67" x="13.98" y="210.4823">+sujetReel</text></g></svg>