<?xml version="1.0" encoding="UTF-8" standalone="no"?><svg xmlns="http://www.w3.org/2000/svg" xmlns:xlink="http://www.w3.org/1999/xlink" contentScriptType="application/ecmascript" contentStyleType="text/css" height="317px" preserveAspectRatio="none" style="width:392px;height:317px;" version="1.1" viewBox="0 0 392 317" width="392px" zoomAndPan="magnify"><defs><filter height="300%" id="ftnw5ikjemwbd" width="300%" x="-1" y="-1"><feGaussianBlur result="blurOut" stdDeviation="2.0"/><feColorMatrix in="blurOut" result="blurOut2" type="matrix" values="0 0 0 0 0 0 0 0 0 0 0 0 0 0 0 0 0 0 .4 0"/><feOffset dx="4.0" dy="4.0" in="blurOut2" result="blurOut3"/><feBlend in="SourceGraphic" in2="blurOut3" mode="normal"/></filter></defs><g><!--class STATE--><rect fill="#FEFECE" filter="url(#ftnw5ikjemwbd)" height="125.7305" id="STATE" style="stroke: #A80036; stroke-width: 1.5;" width="94" x="126.5" y="8"/><ellipse cx="152.75" cy="24" fill="#A9DCDF" rx="11" ry="11" style="stroke: #A80036; stroke-width: 1.0;"/><path d="M152.8633,19.5981 L151.7095,24.6699 L154.0254,24.6699 Z M151.3691,17.3569 L154.3657,17.3569 L157.7109,29.75 L155.2622,29.75 L154.4985,26.687 L151.2197,26.687 L150.4727,29.75 L148.0239,29.75 Z "/><text fill="#000000" font-family="sans-serif" font-size="12" font-style="italic" lengthAdjust="spacingAndGlyphs" textLength="37" x="169.25" y="28.5352">STATE</text><line style="stroke: #A80036; stroke-width: 1.5;" x1="127.5" x2="219.5" y1="40" y2="40"/><line style="stroke: #A80036; stroke-width: 1.5;" x1="127.5" x2="219.5" y1="48" y2="48"/><text fill="#000000" font-family="sans-serif" font-size="11" lengthAdjust="spacingAndGlyphs" textLength="82" x="132.5" y="62.6348">execute_state()</text><text fill="#000000" font-family="sans-serif" font-size="11" lengthAdjust="spacingAndGlyphs" textLength="46" x="132.5" y="75.5898">display()</text><text fill="#000000" font-family="sans-serif" font-size="11" lengthAdjust="spacingAndGlyphs" textLength="32" x="132.5" y="88.5449">read()</text><text fill="#000000" font-family="sans-serif" font-size="11" lengthAdjust="spacingAndGlyphs" textLength="47" x="132.5" y="101.5">correct()</text><text fill="#000000" font-family="sans-serif" font-size="11" lengthAdjust="spacingAndGlyphs" textLength="61" x="132.5" y="114.4551">messsage()</text><text fill="#000000" font-family="sans-serif" font-size="11" lengthAdjust="spacingAndGlyphs" textLength="51" x="132.5" y="127.4102">process()</text><!--class INITIAL--><rect fill="#FEFECE" filter="url(#ftnw5ikjemwbd)" height="112.7754" id="INITIAL" style="stroke: #A80036; stroke-width: 1.5;" width="73" x="6" y="194"/><ellipse cx="21.45" cy="210" fill="#ADD1B2" rx="11" ry="11" style="stroke: #A80036; stroke-width: 1.0;"/><path d="M23.9231,216.1431 Q23.3421,216.4419 22.7029,216.5913 Q22.0638,216.7407 21.3582,216.7407 Q18.8514,216.7407 17.5315,215.0889 Q16.2117,213.437 16.2117,210.3159 Q16.2117,207.1865 17.5315,205.5347 Q18.8514,203.8828 21.3582,203.8828 Q22.0638,203.8828 22.7112,204.0322 Q23.3587,204.1816 23.9231,204.4805 L23.9231,207.2031 Q23.2923,206.6221 22.6988,206.3523 Q22.1053,206.0825 21.4744,206.0825 Q20.1297,206.0825 19.4449,207.1492 Q18.7601,208.2158 18.7601,210.3159 Q18.7601,212.4077 19.4449,213.4744 Q20.1297,214.541 21.4744,214.541 Q22.1053,214.541 22.6988,214.2712 Q23.2923,214.0015 23.9231,213.4204 Z "/><text fill="#000000" font-family="sans-serif" font-size="12" lengthAdjust="spacingAndGlyphs" textLength="40" x="35.55" y="214.5352">INITIAL</text><line style="stroke: #A80036; stroke-width: 1.5;" x1="7" x2="78" y1="226" y2="226"/><line style="stroke: #A80036; stroke-width: 1.5;" x1="7" x2="78" y1="234" y2="234"/><text fill="#000000" font-family="sans-serif" font-size="11" lengthAdjust="spacingAndGlyphs" textLength="46" x="12" y="248.6348">display()</text><text fill="#000000" font-family="sans-serif" font-size="11" lengthAdjust="spacingAndGlyphs" textLength="32" x="12" y="261.5898">read()</text><text fill="#000000" font-family="sans-serif" font-size="11" lengthAdjust="spacingAndGlyphs" textLength="47" x="12" y="274.5449">correct()</text><text fill="#000000" font-family="sans-serif" font-size="11" lengthAdjust="spacingAndGlyphs" textLength="61" x="12" y="287.5">messsage()</text><text fill="#000000" font-family="sans-serif" font-size="11" lengthAdjust="spacingAndGlyphs" textLength="51" x="12" y="300.4551">process()</text><!--class FLIGHT_QUERY--><rect fill="#FEFECE" filter="url(#ftnw5ikjemwbd)" height="112.7754" id="FLIGHT_QUERY" style="stroke: #A80036; stroke-width: 1.5;" width="118" x="114.5" y="194"/><ellipse cx="129.5" cy="210" fill="#ADD1B2" rx="11" ry="11" style="stroke: #A80036; stroke-width: 1.0;"/><path d="M131.9731,216.1431 Q131.3921,216.4419 130.7529,216.5913 Q130.1138,216.7407 129.4082,216.7407 Q126.9014,216.7407 125.5815,215.0889 Q124.2617,213.437 124.2617,210.3159 Q124.2617,207.1865 125.5815,205.5347 Q126.9014,203.8828 129.4082,203.8828 Q130.1138,203.8828 130.7612,204.0322 Q131.4087,204.1816 131.9731,204.4805 L131.9731,207.2031 Q131.3423,206.6221 130.7488,206.3523 Q130.1553,206.0825 129.5244,206.0825 Q128.1797,206.0825 127.4949,207.1492 Q126.8101,208.2158 126.8101,210.3159 Q126.8101,212.4077 127.4949,213.4744 Q128.1797,214.541 129.5244,214.541 Q130.1553,214.541 130.7488,214.2712 Q131.3423,214.0015 131.9731,213.4204 Z "/><text fill="#000000" font-family="sans-serif" font-size="12" lengthAdjust="spacingAndGlyphs" textLength="86" x="143.5" y="214.5352">FLIGHT_QUERY</text><line style="stroke: #A80036; stroke-width: 1.5;" x1="115.5" x2="231.5" y1="226" y2="226"/><line style="stroke: #A80036; stroke-width: 1.5;" x1="115.5" x2="231.5" y1="234" y2="234"/><text fill="#000000" font-family="sans-serif" font-size="11" lengthAdjust="spacingAndGlyphs" textLength="46" x="120.5" y="248.6348">display()</text><text fill="#000000" font-family="sans-serif" font-size="11" lengthAdjust="spacingAndGlyphs" textLength="32" x="120.5" y="261.5898">read()</text><text fill="#000000" font-family="sans-serif" font-size="11" lengthAdjust="spacingAndGlyphs" textLength="47" x="120.5" y="274.5449">correct()</text><text fill="#000000" font-family="sans-serif" font-size="11" lengthAdjust="spacingAndGlyphs" textLength="61" x="120.5" y="287.5">messsage()</text><text fill="#000000" font-family="sans-serif" font-size="11" lengthAdjust="spacingAndGlyphs" textLength="51" x="120.5" y="300.4551">process()</text><!--class RESERVATION--><rect fill="#FEFECE" filter="url(#ftnw5ikjemwbd)" height="112.7754" id="RESERVATION" style="stroke: #A80036; stroke-width: 1.5;" width="113" x="268" y="194"/><ellipse cx="283" cy="210" fill="#ADD1B2" rx="11" ry="11" style="stroke: #A80036; stroke-width: 1.0;"/><path d="M285.4731,216.1431 Q284.8921,216.4419 284.2529,216.5913 Q283.6138,216.7407 282.9082,216.7407 Q280.4014,216.7407 279.0815,215.0889 Q277.7617,213.437 277.7617,210.3159 Q277.7617,207.1865 279.0815,205.5347 Q280.4014,203.8828 282.9082,203.8828 Q283.6138,203.8828 284.2612,204.0322 Q284.9087,204.1816 285.4731,204.4805 L285.4731,207.2031 Q284.8423,206.6221 284.2488,206.3523 Q283.6553,206.0825 283.0244,206.0825 Q281.6797,206.0825 280.9949,207.1492 Q280.3101,208.2158 280.3101,210.3159 Q280.3101,212.4077 280.9949,213.4744 Q281.6797,214.541 283.0244,214.541 Q283.6553,214.541 284.2488,214.2712 Q284.8423,214.0015 285.4731,213.4204 Z "/><text fill="#000000" font-family="sans-serif" font-size="12" lengthAdjust="spacingAndGlyphs" textLength="81" x="297" y="214.5352">RESERVATION</text><line style="stroke: #A80036; stroke-width: 1.5;" x1="269" x2="380" y1="226" y2="226"/><line style="stroke: #A80036; stroke-width: 1.5;" x1="269" x2="380" y1="234" y2="234"/><text fill="#000000" font-family="sans-serif" font-size="11" lengthAdjust="spacingAndGlyphs" textLength="46" x="274" y="248.6348">display()</text><text fill="#000000" font-family="sans-serif" font-size="11" lengthAdjust="spacingAndGlyphs" textLength="32" x="274" y="261.5898">read()</text><text fill="#000000" font-family="sans-serif" font-size="11" lengthAdjust="spacingAndGlyphs" textLength="47" x="274" y="274.5449">correct()</text><text fill="#000000" font-family="sans-serif" font-size="11" lengthAdjust="spacingAndGlyphs" textLength="61" x="274" y="287.5">messsage()</text><text fill="#000000" font-family="sans-serif" font-size="11" lengthAdjust="spacingAndGlyphs" textLength="51" x="274" y="300.4551">process()</text><!--link STATE to INITIAL--><path d="M115.67,150.36 C103.21,167.24 90.38,184.62 79.01,200.03 " fill="none" id="STATE-INITIAL" style="stroke: #A80036; stroke-width: 1.0;"/><polygon fill="none" points="110.17,146.02,127.68,134.08,121.44,154.33,110.17,146.02" style="stroke: #A80036; stroke-width: 1.0;"/><!--link STATE to FLIGHT_QUERY--><path d="M173.5,154.21 C173.5,167.68 173.5,181.35 173.5,193.97 " fill="none" id="STATE-FLIGHT_QUERY" style="stroke: #A80036; stroke-width: 1.0;"/><polygon fill="none" points="166.5,154.08,173.5,134.08,180.5,154.08,166.5,154.08" style="stroke: #A80036; stroke-width: 1.0;"/><!--link STATE to RESERVATION--><path d="M234.01,143.13 C248.33,159.97 263.4,177.68 277.05,193.72 " fill="none" id="STATE-RESERVATION" style="stroke: #A80036; stroke-width: 1.0;"/><polygon fill="none" points="228.49,147.44,220.86,127.68,239.15,138.37,228.49,147.44" style="stroke: #A80036; stroke-width: 1.0;"/><!--
@startuml
abstract class STATE {
    execute_state()
    display()
    read()
    correct()
    messsage()
    process()
}
class INITIAL {
    display()
    read()
    correct()
    messsage()
    process()
}
class FLIGHT_QUERY{
    display()
    read()
    correct()
    messsage()
    process()
}
class RESERVATION{
    display()
    read()
    correct()
    messsage()
    process()
}

STATE <|- - INITIAL
STATE <|- - FLIGHT_QUERY
STATE <|- - RESERVATION
@enduml

PlantUML version 1.2017.15(Mon Jul 03 18:45:34 CEST 2017)
(APACHE source distribution)
Java Runtime: Java(TM) SE Runtime Environment
JVM: Java HotSpot(TM) 64-Bit Server VM
Java Version: 1.8.0_152-b16
Operating System: Mac OS X
OS Version: 10.15.1
Default Encoding: UTF-8
Language: fr
Country: FR
--></g></svg>