<?xml version="1.0" encoding="UTF-8"?><svg xmlns="http://www.w3.org/2000/svg" xmlns:xlink="http://www.w3.org/1999/xlink" fill-opacity="1" color-rendering="auto" color-interpolation="auto" text-rendering="auto" stroke="black" stroke-linecap="square" width="314" stroke-miterlimit="10" shape-rendering="auto" stroke-opacity="1" fill="black" stroke-dasharray="none" font-weight="normal" stroke-width="1" height="100" font-family="'Dialog'" font-style="normal" stroke-linejoin="miter" font-size="12px" stroke-dashoffset="0" image-rendering="auto">
  <!--Generated by ySVG 2.5-->
  <defs id="genericDefs"/>
  <g>
    <defs id="defs1">
      <clipPath clipPathUnits="userSpaceOnUse" id="clipPath1">
        <path d="M0 0 L314 0 L314 100 L0 100 L0 0 Z"/>
      </clipPath>
    </defs>
    <g id="y.node.0">
      <a target="_blank" xlink:type="simple" xlink:href="https://foo.bar" xlink:show="new">
        <g fill="silver" text-rendering="geometricPrecision" shape-rendering="geometricPrecision" transform="matrix(1,0,0,1,-613,-327)" stroke="silver">
          <rect x="628" y="342" width="111" rx="4" ry="4" height="70" stroke="none"/>
        </g>
        <g stroke-linecap="butt" transform="matrix(1,0,0,1,-613,-327)" fill="blue" text-rendering="geometricPrecision" shape-rendering="geometricPrecision" stroke="blue" stroke-miterlimit="1.45">
          <rect x="628" y="342" fill="none" width="111" rx="4" ry="4" height="70"/>
        </g>
        <g>
          <g stroke-linecap="butt" transform="matrix(1,0,0,1,-613,-327)" fill="white" text-rendering="geometricPrecision" font-family="sans-serif" shape-rendering="geometricPrecision" stroke="white" stroke-miterlimit="1.45">
            <text x="660.4727" xml:space="preserve" y="374.4688" stroke="none">Log in /</text>
            <text x="659.7871" xml:space="preserve" y="388.6016" stroke="none">Register</text>
          </g>
        </g>
      </a>
    </g>
    <g id="y.node.1">
      <a target="_blank" xlink:type="simple" xlink:href="https://www.google.fr" xlink:show="new">
        <g fill="silver" text-rendering="geometricPrecision" shape-rendering="geometricPrecision" transform="matrix(1,0,0,1,-613,-327)" stroke="silver">
          <rect x="801" y="342" width="111" rx="4" ry="4" height="70" stroke="none"/>
        </g>
        <g stroke-linecap="butt" transform="matrix(1,0,0,1,-613,-327)" fill="blue" text-rendering="geometricPrecision" shape-rendering="geometricPrecision" stroke="blue" stroke-miterlimit="1.45">
          <rect x="801" y="342" fill="none" width="111" rx="4" ry="4" height="70"/>
        </g>
        <g>
          <g stroke-linecap="butt" transform="matrix(1,0,0,1,-613,-327)" fill="white" text-rendering="geometricPrecision" font-family="sans-serif" shape-rendering="geometricPrecision" stroke="white" stroke-miterlimit="1.45">
            <text x="832.4385" xml:space="preserve" y="374.4688" stroke="none">Create a</text>
            <text x="836.0977" xml:space="preserve" y="388.6016" stroke="none">project</text>
          </g>
        </g>
      </a>
    </g>
    <g id="y.edge.0">
      <g text-rendering="geometricPrecision" stroke-miterlimit="1.45" shape-rendering="geometricPrecision" transform="matrix(1,0,0,1,-613,-327)" stroke-linecap="butt">
        <path fill="none" d="M739.0408 377 L793.0109 377"/>
        <path d="M801.0109 377 L789.0109 372 L792.0109 377 L789.0109 382 Z" stroke="none"/>
      </g>
    </g>
  </g>
</svg>
