<?xml version="1.0" encoding="UTF-8" standalone="yes"?><svg xmlns="http://www.w3.org/2000/svg" xmlns:xlink="http://www.w3.org/1999/xlink" height="141px" style="width:317px;height:141px;" version="1.1" viewBox="0 0 317 141" width="317px"><defs><filter height="300%" id="f1" width="300%" x="-1" y="-1"><feGaussianBlur result="blurOut" stdDeviation="2.0"/><feColorMatrix in="blurOut" result="blurOut2" type="matrix" values="0 0 0 0 0 0 0 0 0 0 0 0 0 0 0 0 0 0 .4 0"/><feOffset dx="4.0" dy="4.0" in="blurOut2" result="blurOut3"/><feBlend in="SourceGraphic" in2="blurOut3" mode="normal"/></filter></defs><g><rect fill="#FEFECE" filter="url(#f1)" height="32" style="stroke: #A80036; stroke-width: 1.5;" width="89" x="122.5" y="8"/><ellipse cx="137.5" cy="24" fill="#ADD1B2" rx="11" ry="11" style="stroke: #A80036; stroke-width: 1.0;"/><path d="M140.4731,29.6431 Q139.8921,29.9419 139.2529,30.0913 Q138.6138,30.2407 137.9082,30.2407 Q135.4014,30.2407 134.0815,28.5889 Q132.7617,26.937 132.7617,23.8159 Q132.7617,20.6865 134.0815,19.0347 Q135.4014,17.3828 137.9082,17.3828 Q138.6138,17.3828 139.2612,17.5322 Q139.9087,17.6816 140.4731,17.9805 L140.4731,20.7031 Q139.8423,20.1221 139.2488,19.8523 Q138.6553,19.5825 138.0244,19.5825 Q136.6797,19.5825 135.9949,20.6492 Q135.3101,21.7158 135.3101,23.8159 Q135.3101,25.9077 135.9949,26.9744 Q136.6797,28.041 138.0244,28.041 Q138.6553,28.041 139.2488,27.7712 Q139.8423,27.5015 140.4731,26.9204 Z "/><text fill="#000000" font-family="sans-serif" font-size="12" lengthAdjust="spacingAndGlyphs" textLength="57" x="151.5" y="28.5352">Computer</text><rect fill="#FEFECE" filter="url(#f1)" height="32" style="stroke: #A80036; stroke-width: 1.5;" width="88" x="6" y="100"/><ellipse cx="21" cy="116" fill="#ADD1B2" rx="11" ry="11" style="stroke: #A80036; stroke-width: 1.0;"/><path d="M23.9731,121.6431 Q23.3921,121.9419 22.7529,122.0913 Q22.1138,122.2407 21.4082,122.2407 Q18.9014,122.2407 17.5815,120.5889 Q16.2617,118.937 16.2617,115.8159 Q16.2617,112.6865 17.5815,111.0347 Q18.9014,109.3828 21.4082,109.3828 Q22.1138,109.3828 22.7612,109.5322 Q23.4087,109.6816 23.9731,109.9805 L23.9731,112.7031 Q23.3423,112.1221 22.7488,111.8523 Q22.1553,111.5825 21.5244,111.5825 Q20.1797,111.5825 19.4949,112.6492 Q18.8101,113.7158 18.8101,115.8159 Q18.8101,117.9077 19.4949,118.9744 Q20.1797,120.041 21.5244,120.041 Q22.1553,120.041 22.7488,119.7712 Q23.3423,119.5015 23.9731,118.9204 Z "/><text fill="#000000" font-family="sans-serif" font-size="12" lengthAdjust="spacingAndGlyphs" textLength="56" x="35" y="120.5352">Keyboard</text><rect fill="#FEFECE" filter="url(#f1)" height="32" style="stroke: #A80036; stroke-width: 1.5;" width="75" x="129.5" y="100"/><ellipse cx="144.5" cy="116" fill="#ADD1B2" rx="11" ry="11" style="stroke: #A80036; stroke-width: 1.0;"/><path d="M147.4731,121.6431 Q146.8921,121.9419 146.2529,122.0913 Q145.6138,122.2407 144.9082,122.2407 Q142.4014,122.2407 141.0815,120.5889 Q139.7617,118.937 139.7617,115.8159 Q139.7617,112.6865 141.0815,111.0347 Q142.4014,109.3828 144.9082,109.3828 Q145.6138,109.3828 146.2612,109.5322 Q146.9087,109.6816 147.4731,109.9805 L147.4731,112.7031 Q146.8423,112.1221 146.2488,111.8523 Q145.6553,111.5825 145.0244,111.5825 Q143.6797,111.5825 142.9949,112.6492 Q142.3101,113.7158 142.3101,115.8159 Q142.3101,117.9077 142.9949,118.9744 Q143.6797,120.041 145.0244,120.041 Q145.6553,120.041 146.2488,119.7712 Q146.8423,119.5015 147.4731,118.9204 Z "/><text fill="#000000" font-family="sans-serif" font-size="12" lengthAdjust="spacingAndGlyphs" textLength="43" x="158.5" y="120.5352">Monitor</text><rect fill="#FEFECE" filter="url(#f1)" height="32" style="stroke: #A80036; stroke-width: 1.5;" width="69" x="239.5" y="100"/><ellipse cx="254.5" cy="116" fill="#ADD1B2" rx="11" ry="11" style="stroke: #A80036; stroke-width: 1.0;"/><path d="M257.4731,121.6431 Q256.8921,121.9419 256.2529,122.0913 Q255.6138,122.2407 254.9082,122.2407 Q252.4014,122.2407 251.0815,120.5889 Q249.7617,118.937 249.7617,115.8159 Q249.7617,112.6865 251.0815,111.0347 Q252.4014,109.3828 254.9082,109.3828 Q255.6138,109.3828 256.2612,109.5322 Q256.9087,109.6816 257.4731,109.9805 L257.4731,112.7031 Q256.8423,112.1221 256.2488,111.8523 Q255.6553,111.5825 255.0244,111.5825 Q253.6797,111.5825 252.9949,112.6492 Q252.3101,113.7158 252.3101,115.8159 Q252.3101,117.9077 252.9949,118.9744 Q253.6797,120.041 255.0244,120.041 Q255.6553,120.041 256.2488,119.7712 Q256.8423,119.5015 257.4731,118.9204 Z "/><text fill="#000000" font-family="sans-serif" font-size="12" lengthAdjust="spacingAndGlyphs" textLength="37" x="268.5" y="120.5352">Mouse</text><path d="M136.115,48.2855 C119.12,61.6495 98.0885,78.1868 81.0646,91.5731 " fill="none" style="stroke: #A80036; stroke-width: 1.0;"/><polygon fill="#A80036" points="70.5389,99.8498,80.0861,97.4311,74.4693,96.7592,75.1412,91.1424,70.5389,99.8498" style="stroke: #A80036; stroke-width: 1.0;"/><line style="stroke: #A80036; stroke-width: 1.0;" x1="74.4693" x2="80.758" y1="96.7592" y2="91.8142"/><polygon fill="#A80036" points="146.62,40.0252,139.431,40.5891,137.1865,47.442,144.3755,46.8781,146.62,40.0252" style="stroke: #A80036; stroke-width: 1.0;"/><path d="M167,53.1374 C167,63.8746 167,76.0344 167,86.779 " fill="none" style="stroke: #A80036; stroke-width: 1.0;"/><polygon fill="#A80036" points="167,99.8498,171,90.8498,167,94.8498,163,90.8498,167,99.8498" style="stroke: #A80036; stroke-width: 1.0;"/><line style="stroke: #A80036; stroke-width: 1.0;" x1="167" x2="167" y1="94.8498" y2="86.8498"/><polygon fill="#A80036" points="167,40.0252,163,46.0252,167,52.0252,171,46.0252,167,40.0252" style="stroke: #A80036; stroke-width: 1.0;"/><path d="M195.507,48.5111 C210.872,61.7217 229.784,77.9824 245.194,91.2323 " fill="none" style="stroke: #A80036; stroke-width: 1.0;"/><polygon fill="#A80036" points="255.217,99.8498,251.0006,90.9491,251.4258,96.59,245.7849,97.0151,255.217,99.8498" style="stroke: #A80036; stroke-width: 1.0;"/><line style="stroke: #A80036; stroke-width: 1.0;" x1="251.4258" x2="245.3595" y1="96.59" y2="91.3743"/><polygon fill="#A80036" points="185.638,40.0252,187.5796,46.97,194.7369,47.8488,192.7953,40.904,185.638,40.0252" style="stroke: #A80036; stroke-width: 1.0;"/></g></svg>