<?xml version="1.0" encoding="UTF-8" standalone="yes"?><svg xmlns="http://www.w3.org/2000/svg" xmlns:xlink="http://www.w3.org/1999/xlink" height="415px" style="width:508px;height:415px;" version="1.1" viewBox="0 0 508 415" width="508px"><defs><filter height="300%" id="f1" width="300%" x="-1" y="-1"><feGaussianBlur result="blurOut" stdDeviation="2.0"/><feColorMatrix in="blurOut" result="blurOut2" type="matrix" values="0 0 0 0 0 0 0 0 0 0 0 0 0 0 0 0 0 0 .4 0"/><feOffset dx="4.0" dy="4.0" in="blurOut2" result="blurOut3"/><feBlend in="SourceGraphic" in2="blurOut3" mode="normal"/></filter></defs><g><rect fill="#FEFECE" filter="url(#f1)" height="60.9551" style="stroke: #A80036; stroke-width: 1.5;" width="59" x="224" y="27.5"/><ellipse cx="239" cy="43.5" fill="#ADD1B2" rx="11" ry="11" style="stroke: #A80036; stroke-width: 1.0;"/><path d="M241.9731,49.1431 Q241.3921,49.4419 240.7529,49.5913 Q240.1138,49.7407 239.4082,49.7407 Q236.9014,49.7407 235.5815,48.0889 Q234.2617,46.437 234.2617,43.3159 Q234.2617,40.1865 235.5815,38.5347 Q236.9014,36.8828 239.4082,36.8828 Q240.1138,36.8828 240.7612,37.0322 Q241.4087,37.1816 241.9731,37.4805 L241.9731,40.2031 Q241.3423,39.6221 240.7488,39.3523 Q240.1553,39.0825 239.5244,39.0825 Q238.1797,39.0825 237.4949,40.1492 Q236.8101,41.2158 236.8101,43.3159 Q236.8101,45.4077 237.4949,46.4744 Q238.1797,47.541 239.5244,47.541 Q240.1553,47.541 240.7488,47.2712 Q241.3423,47.0015 241.9731,46.4204 Z "/><text fill="#000000" font-family="sans-serif" font-size="12" lengthAdjust="spacingAndGlyphs" textLength="27" x="253" y="48.0352">Main</text><line style="stroke: #A80036; stroke-width: 1.5;" x1="225" x2="282" y1="59.5" y2="59.5"/><line style="stroke: #A80036; stroke-width: 1.5;" x1="225" x2="282" y1="67.5" y2="67.5"/><text fill="#000000" font-family="sans-serif" font-size="11" lengthAdjust="spacingAndGlyphs" textLength="34" x="230" y="82.1348">main()</text><rect fill="#FEFECE" filter="url(#f1)" height="60.9551" style="stroke: #A80036; stroke-width: 1.5;" width="112" x="164.5" y="204.5"/><ellipse cx="179.5" cy="220.5" fill="#B4A7E5" rx="11" ry="11" style="stroke: #A80036; stroke-width: 1.0;"/><path d="M175.4277,216.2651 L175.4277,214.1069 L182.8071,214.1069 L182.8071,216.2651 L180.3418,216.2651 L180.3418,224.3418 L182.8071,224.3418 L182.8071,226.5 L175.4277,226.5 L175.4277,224.3418 L177.8931,224.3418 L177.8931,216.2651 Z "/><text fill="#000000" font-family="sans-serif" font-size="12" font-style="italic" lengthAdjust="spacingAndGlyphs" textLength="80" x="193.5" y="225.0352">ComputerPart</text><line style="stroke: #A80036; stroke-width: 1.5;" x1="165.5" x2="275.5" y1="236.5" y2="236.5"/><line style="stroke: #A80036; stroke-width: 1.5;" x1="165.5" x2="275.5" y1="244.5" y2="244.5"/><text fill="#000000" font-family="sans-serif" font-size="11" lengthAdjust="spacingAndGlyphs" textLength="43" x="170.5" y="259.1348">accept()</text><rect fill="#FEFECE" filter="url(#f1)" height="99.8203" style="stroke: #A80036; stroke-width: 1.5;" width="110" x="340.5" y="185"/><ellipse cx="355.5" cy="201" fill="#ADD1B2" rx="11" ry="11" style="stroke: #A80036; stroke-width: 1.0;"/><path d="M358.4731,206.6431 Q357.8921,206.9419 357.2529,207.0913 Q356.6138,207.2407 355.9082,207.2407 Q353.4014,207.2407 352.0815,205.5889 Q350.7617,203.937 350.7617,200.8159 Q350.7617,197.6865 352.0815,196.0347 Q353.4014,194.3828 355.9082,194.3828 Q356.6138,194.3828 357.2612,194.5322 Q357.9087,194.6816 358.4731,194.9805 L358.4731,197.7031 Q357.8423,197.1221 357.2488,196.8523 Q356.6553,196.5825 356.0244,196.5825 Q354.6797,196.5825 353.9949,197.6492 Q353.3101,198.7158 353.3101,200.8159 Q353.3101,202.9077 353.9949,203.9744 Q354.6797,205.041 356.0244,205.041 Q356.6553,205.041 357.2488,204.7712 Q357.8423,204.5015 358.4731,203.9204 Z "/><text fill="#000000" font-family="sans-serif" font-size="12" lengthAdjust="spacingAndGlyphs" textLength="78" x="369.5" y="205.5352">DisplayVisitor</text><line style="stroke: #A80036; stroke-width: 1.5;" x1="341.5" x2="449.5" y1="217" y2="217"/><line style="stroke: #A80036; stroke-width: 1.5;" x1="341.5" x2="449.5" y1="225" y2="225"/><text fill="#000000" font-family="sans-serif" font-size="11" lengthAdjust="spacingAndGlyphs" textLength="84" x="346.5" y="239.6348">visit(Computer)</text><text fill="#000000" font-family="sans-serif" font-size="11" lengthAdjust="spacingAndGlyphs" textLength="65" x="346.5" y="252.5898">visit(Mouse)</text><text fill="#000000" font-family="sans-serif" font-size="11" lengthAdjust="spacingAndGlyphs" textLength="81" x="346.5" y="265.5449">visit(Keyboard)</text><text fill="#000000" font-family="sans-serif" font-size="11" lengthAdjust="spacingAndGlyphs" textLength="72" x="346.5" y="278.5">visit(Monitor)</text><rect fill="#FEFECE" filter="url(#f1)" height="99.8203" style="stroke: #A80036; stroke-width: 1.5;" width="148" x="351.5" y="8"/><ellipse cx="366.5" cy="24" fill="#B4A7E5" rx="11" ry="11" style="stroke: #A80036; stroke-width: 1.0;"/><path d="M362.4277,19.7651 L362.4277,17.6069 L369.8071,17.6069 L369.8071,19.7651 L367.3418,19.7651 L367.3418,27.8418 L369.8071,27.8418 L369.8071,30 L362.4277,30 L362.4277,27.8418 L364.8931,27.8418 L364.8931,19.7651 Z "/><text fill="#000000" font-family="sans-serif" font-size="12" font-style="italic" lengthAdjust="spacingAndGlyphs" textLength="116" x="380.5" y="28.5352">ComputerPartVisitor</text><line style="stroke: #A80036; stroke-width: 1.5;" x1="352.5" x2="498.5" y1="40" y2="40"/><line style="stroke: #A80036; stroke-width: 1.5;" x1="352.5" x2="498.5" y1="48" y2="48"/><text fill="#000000" font-family="sans-serif" font-size="11" lengthAdjust="spacingAndGlyphs" textLength="84" x="357.5" y="62.6348">visit(Computer)</text><text fill="#000000" font-family="sans-serif" font-size="11" lengthAdjust="spacingAndGlyphs" textLength="65" x="357.5" y="75.5898">visit(Mouse)</text><text fill="#000000" font-family="sans-serif" font-size="11" lengthAdjust="spacingAndGlyphs" textLength="81" x="357.5" y="88.5449">visit(Keyboard)</text><text fill="#000000" font-family="sans-serif" font-size="11" lengthAdjust="spacingAndGlyphs" textLength="72" x="357.5" y="101.5">visit(Monitor)</text><rect fill="#FEFECE" filter="url(#f1)" height="60.9551" style="stroke: #A80036; stroke-width: 1.5;" width="89" x="6" y="204.5"/><ellipse cx="21" cy="220.5" fill="#ADD1B2" rx="11" ry="11" style="stroke: #A80036; stroke-width: 1.0;"/><path d="M23.9731,226.1431 Q23.3921,226.4419 22.7529,226.5913 Q22.1138,226.7407 21.4082,226.7407 Q18.9014,226.7407 17.5815,225.0889 Q16.2617,223.437 16.2617,220.3159 Q16.2617,217.1865 17.5815,215.5347 Q18.9014,213.8828 21.4082,213.8828 Q22.1138,213.8828 22.7612,214.0322 Q23.4087,214.1816 23.9731,214.4805 L23.9731,217.2031 Q23.3423,216.6221 22.7488,216.3523 Q22.1553,216.0825 21.5244,216.0825 Q20.1797,216.0825 19.4949,217.1492 Q18.8101,218.2158 18.8101,220.3159 Q18.8101,222.4077 19.4949,223.4744 Q20.1797,224.541 21.5244,224.541 Q22.1553,224.541 22.7488,224.2712 Q23.3423,224.0015 23.9731,223.4204 Z "/><text fill="#000000" font-family="sans-serif" font-size="12" lengthAdjust="spacingAndGlyphs" textLength="57" x="35" y="225.0352">Computer</text><line style="stroke: #A80036; stroke-width: 1.5;" x1="7" x2="94" y1="236.5" y2="236.5"/><line style="stroke: #A80036; stroke-width: 1.5;" x1="7" x2="94" y1="244.5" y2="244.5"/><text fill="#000000" font-family="sans-serif" font-size="11" lengthAdjust="spacingAndGlyphs" textLength="43" x="12" y="259.1348">accept()</text><rect fill="#FEFECE" filter="url(#f1)" height="60.9551" style="stroke: #A80036; stroke-width: 1.5;" width="88" x="59.5" y="346"/><ellipse cx="74.5" cy="362" fill="#ADD1B2" rx="11" ry="11" style="stroke: #A80036; stroke-width: 1.0;"/><path d="M77.4731,367.6431 Q76.8921,367.9419 76.2529,368.0913 Q75.6138,368.2407 74.9082,368.2407 Q72.4014,368.2407 71.0815,366.5889 Q69.7617,364.937 69.7617,361.8159 Q69.7617,358.6865 71.0815,357.0347 Q72.4014,355.3828 74.9082,355.3828 Q75.6138,355.3828 76.2612,355.5322 Q76.9087,355.6816 77.4731,355.9805 L77.4731,358.7031 Q76.8423,358.1221 76.2488,357.8523 Q75.6553,357.5825 75.0244,357.5825 Q73.6797,357.5825 72.9949,358.6492 Q72.3101,359.7158 72.3101,361.8159 Q72.3101,363.9077 72.9949,364.9744 Q73.6797,366.041 75.0244,366.041 Q75.6553,366.041 76.2488,365.7712 Q76.8423,365.5015 77.4731,364.9204 Z "/><text fill="#000000" font-family="sans-serif" font-size="12" lengthAdjust="spacingAndGlyphs" textLength="56" x="88.5" y="366.5352">Keyboard</text><line style="stroke: #A80036; stroke-width: 1.5;" x1="60.5" x2="146.5" y1="378" y2="378"/><line style="stroke: #A80036; stroke-width: 1.5;" x1="60.5" x2="146.5" y1="386" y2="386"/><text fill="#000000" font-family="sans-serif" font-size="11" lengthAdjust="spacingAndGlyphs" textLength="43" x="65.5" y="400.6348">accept()</text><rect fill="#FEFECE" filter="url(#f1)" height="60.9551" style="stroke: #A80036; stroke-width: 1.5;" width="75" x="183" y="346"/><ellipse cx="198" cy="362" fill="#ADD1B2" rx="11" ry="11" style="stroke: #A80036; stroke-width: 1.0;"/><path d="M200.9731,367.6431 Q200.3921,367.9419 199.7529,368.0913 Q199.1138,368.2407 198.4082,368.2407 Q195.9014,368.2407 194.5815,366.5889 Q193.2617,364.937 193.2617,361.8159 Q193.2617,358.6865 194.5815,357.0347 Q195.9014,355.3828 198.4082,355.3828 Q199.1138,355.3828 199.7612,355.5322 Q200.4087,355.6816 200.9731,355.9805 L200.9731,358.7031 Q200.3423,358.1221 199.7488,357.8523 Q199.1553,357.5825 198.5244,357.5825 Q197.1797,357.5825 196.4949,358.6492 Q195.8101,359.7158 195.8101,361.8159 Q195.8101,363.9077 196.4949,364.9744 Q197.1797,366.041 198.5244,366.041 Q199.1553,366.041 199.7488,365.7712 Q200.3423,365.5015 200.9731,364.9204 Z "/><text fill="#000000" font-family="sans-serif" font-size="12" lengthAdjust="spacingAndGlyphs" textLength="43" x="212" y="366.5352">Monitor</text><line style="stroke: #A80036; stroke-width: 1.5;" x1="184" x2="257" y1="378" y2="378"/><line style="stroke: #A80036; stroke-width: 1.5;" x1="184" x2="257" y1="386" y2="386"/><text fill="#000000" font-family="sans-serif" font-size="11" lengthAdjust="spacingAndGlyphs" textLength="43" x="189" y="400.6348">accept()</text><rect fill="#FEFECE" filter="url(#f1)" height="60.9551" style="stroke: #A80036; stroke-width: 1.5;" width="69" x="293" y="346"/><ellipse cx="308" cy="362" fill="#ADD1B2" rx="11" ry="11" style="stroke: #A80036; stroke-width: 1.0;"/><path d="M310.9731,367.6431 Q310.3921,367.9419 309.7529,368.0913 Q309.1138,368.2407 308.4082,368.2407 Q305.9014,368.2407 304.5815,366.5889 Q303.2617,364.937 303.2617,361.8159 Q303.2617,358.6865 304.5815,357.0347 Q305.9014,355.3828 308.4082,355.3828 Q309.1138,355.3828 309.7612,355.5322 Q310.4087,355.6816 310.9731,355.9805 L310.9731,358.7031 Q310.3423,358.1221 309.7488,357.8523 Q309.1553,357.5825 308.5244,357.5825 Q307.1797,357.5825 306.4949,358.6492 Q305.8101,359.7158 305.8101,361.8159 Q305.8101,363.9077 306.4949,364.9744 Q307.1797,366.041 308.5244,366.041 Q309.1553,366.041 309.7488,365.7712 Q310.3423,365.5015 310.9731,364.9204 Z "/><text fill="#000000" font-family="sans-serif" font-size="12" lengthAdjust="spacingAndGlyphs" textLength="37" x="322" y="366.5352">Mouse</text><line style="stroke: #A80036; stroke-width: 1.5;" x1="294" x2="361" y1="378" y2="378"/><line style="stroke: #A80036; stroke-width: 1.5;" x1="294" x2="361" y1="386" y2="386"/><text fill="#000000" font-family="sans-serif" font-size="11" lengthAdjust="spacingAndGlyphs" textLength="43" x="299" y="400.6348">accept()</text><path d="M235.922,88.867 C228.681,103.303 221.144,121.024 217.5,138 C213.234,157.876 213.656,180.563 215.294,198.997 " fill="none" style="stroke: #A80036; stroke-width: 1.0; stroke-dasharray: 7.0,7.0;"/><polygon fill="#A80036" points="215.785,204.078,218.8973,194.7338,215.3022,199.1014,210.9346,195.5063,215.785,204.078" style="stroke: #A80036; stroke-width: 1.0;"/><text fill="#000000" font-family="sans-serif" font-size="13" lengthAdjust="spacingAndGlyphs" textLength="69" x="218.5" y="151.5684">&lt;&lt;uses&gt;&gt;</text><path d="M278.235,88.831 C298.539,114.14 327.785,150.594 351.989,180.765 " fill="none" style="stroke: #A80036; stroke-width: 1.0; stroke-dasharray: 7.0,7.0;"/><polygon fill="#A80036" points="355.218,184.789,352.7065,175.2658,352.0893,180.8888,346.4662,180.2717,355.218,184.789" style="stroke: #A80036; stroke-width: 1.0;"/><text fill="#000000" font-family="sans-serif" font-size="13" lengthAdjust="spacingAndGlyphs" textLength="69" x="330.5" y="151.5684">&lt;&lt;uses&gt;&gt;</text><path d="M413.602,128.197 C410.387,147.168 406.973,167.312 403.986,184.933 " fill="none" style="stroke: #A80036; stroke-width: 1.0; stroke-dasharray: 7.0,7.0;"/><polygon fill="none" points="406.74,126.797,416.983,108.248,420.543,129.136,406.74,126.797" style="stroke: #A80036; stroke-width: 1.0;"/><path d="M108.251,255.524 C122.547,257.991 136.844,258.516 151.14,257.101 " fill="none" style="stroke: #A80036; stroke-width: 1.0;"/><polygon fill="#A80036" points="164.269,255.255,154.7997,252.5471,159.3177,255.9512,155.9136,260.4692,164.269,255.255" style="stroke: #A80036; stroke-width: 1.0;"/><line style="stroke: #A80036; stroke-width: 1.0;" x1="159.3177" x2="151.3955" y1="255.9512" y2="257.0645"/><polygon fill="#A80036" points="95.3242,252.765,100.3567,257.9296,107.0597,255.2706,102.0272,250.106,95.3242,252.765" style="stroke: #A80036; stroke-width: 1.0;"/><path d="M144.339,212.372 C128.001,211.458 111.663,213.079 95.3242,217.235 " fill="none" style="stroke: #A80036; stroke-width: 1.0; stroke-dasharray: 7.0,7.0;"/><polygon fill="none" points="145.237,205.43,164.269,214.745,143.581,219.331,145.237,205.43" style="stroke: #A80036; stroke-width: 1.0;"/><path d="M182.361,281.126 C164.81,302.351 144.466,326.9553 128.838,345.8565 " fill="none" style="stroke: #A80036; stroke-width: 1.0; stroke-dasharray: 7.0,7.0;"/><polygon fill="none" points="176.973,276.656,195.113,265.703,187.763,285.577,176.973,276.656" style="stroke: #A80036; stroke-width: 1.0;"/><path d="M220.5,285.859 C220.5,305.939 220.5,328.3451 220.5,345.8565 " fill="none" style="stroke: #A80036; stroke-width: 1.0; stroke-dasharray: 7.0,7.0;"/><polygon fill="none" points="213.5,285.703,220.5,265.703,227.5,285.703,213.5,285.703" style="stroke: #A80036; stroke-width: 1.0;"/><path d="M255.852,281.751 C271.794,302.833 290.175,327.1406 304.328,345.8565 " fill="none" style="stroke: #A80036; stroke-width: 1.0; stroke-dasharray: 7.0,7.0;"/><polygon fill="none" points="250.197,285.878,243.717,265.703,261.364,277.434,250.197,285.878" style="stroke: #A80036; stroke-width: 1.0;"/></g></svg>