<?xml version="1.0" encoding="UTF-8" standalone="yes"?><svg xmlns="http://www.w3.org/2000/svg" xmlns:xlink="http://www.w3.org/1999/xlink" height="141px" style="width:337px;height:141px;" version="1.1" viewBox="0 0 337 141" width="337px"><defs><filter height="300%" id="f1" width="300%" x="-1" y="-1"><feGaussianBlur result="blurOut" stdDeviation="2.0"/><feColorMatrix in="blurOut" result="blurOut2" type="matrix" values="0 0 0 0 0 0 0 0 0 0 0 0 0 0 0 0 0 0 .4 0"/><feOffset dx="4.0" dy="4.0" in="blurOut2" result="blurOut3"/><feBlend in="SourceGraphic" in2="blurOut3" mode="normal"/></filter></defs><g><rect fill="#FEFECE" filter="url(#f1)" height="32" style="stroke: #A80036; stroke-width: 1.5;" width="89" x="6" y="8"/><ellipse cx="21" cy="24" fill="#ADD1B2" rx="11" ry="11" style="stroke: #A80036; stroke-width: 1.0;"/><path d="M23.9731,29.6431 Q23.3921,29.9419 22.7529,30.0913 Q22.1138,30.2407 21.4082,30.2407 Q18.9014,30.2407 17.5815,28.5889 Q16.2617,26.937 16.2617,23.8159 Q16.2617,20.6865 17.5815,19.0347 Q18.9014,17.3828 21.4082,17.3828 Q22.1138,17.3828 22.7612,17.5322 Q23.4087,17.6816 23.9731,17.9805 L23.9731,20.7031 Q23.3423,20.1221 22.7488,19.8523 Q22.1553,19.5825 21.5244,19.5825 Q20.1797,19.5825 19.4949,20.6492 Q18.8101,21.7158 18.8101,23.8159 Q18.8101,25.9077 19.4949,26.9744 Q20.1797,28.041 21.5244,28.041 Q22.1553,28.041 22.7488,27.7712 Q23.3423,27.5015 23.9731,26.9204 Z "/><text fill="#000000" font-family="sans-serif" font-size="12" lengthAdjust="spacingAndGlyphs" textLength="57" x="35" y="28.5352">Computer</text><rect fill="#FEFECE" filter="url(#f1)" height="32" style="stroke: #A80036; stroke-width: 1.5;" width="88" x="25.5" y="100"/><ellipse cx="40.5" cy="116" fill="#ADD1B2" rx="11" ry="11" style="stroke: #A80036; stroke-width: 1.0;"/><path d="M43.4731,121.6431 Q42.8921,121.9419 42.2529,122.0913 Q41.6138,122.2407 40.9082,122.2407 Q38.4014,122.2407 37.0815,120.5889 Q35.7617,118.937 35.7617,115.8159 Q35.7617,112.6865 37.0815,111.0347 Q38.4014,109.3828 40.9082,109.3828 Q41.6138,109.3828 42.2612,109.5322 Q42.9087,109.6816 43.4731,109.9805 L43.4731,112.7031 Q42.8423,112.1221 42.2488,111.8523 Q41.6553,111.5825 41.0244,111.5825 Q39.6797,111.5825 38.9949,112.6492 Q38.3101,113.7158 38.3101,115.8159 Q38.3101,117.9077 38.9949,118.9744 Q39.6797,120.041 41.0244,120.041 Q41.6553,120.041 42.2488,119.7712 Q42.8423,119.5015 43.4731,118.9204 Z "/><text fill="#000000" font-family="sans-serif" font-size="12" lengthAdjust="spacingAndGlyphs" textLength="56" x="54.5" y="120.5352">Keyboard</text><rect fill="#FEFECE" filter="url(#f1)" height="32" style="stroke: #A80036; stroke-width: 1.5;" width="75" x="149" y="100"/><ellipse cx="164" cy="116" fill="#ADD1B2" rx="11" ry="11" style="stroke: #A80036; stroke-width: 1.0;"/><path d="M166.9731,121.6431 Q166.3921,121.9419 165.7529,122.0913 Q165.1138,122.2407 164.4082,122.2407 Q161.9014,122.2407 160.5815,120.5889 Q159.2617,118.937 159.2617,115.8159 Q159.2617,112.6865 160.5815,111.0347 Q161.9014,109.3828 164.4082,109.3828 Q165.1138,109.3828 165.7612,109.5322 Q166.4087,109.6816 166.9731,109.9805 L166.9731,112.7031 Q166.3423,112.1221 165.7488,111.8523 Q165.1553,111.5825 164.5244,111.5825 Q163.1797,111.5825 162.4949,112.6492 Q161.8101,113.7158 161.8101,115.8159 Q161.8101,117.9077 162.4949,118.9744 Q163.1797,120.041 164.5244,120.041 Q165.1553,120.041 165.7488,119.7712 Q166.3423,119.5015 166.9731,118.9204 Z "/><text fill="#000000" font-family="sans-serif" font-size="12" lengthAdjust="spacingAndGlyphs" textLength="43" x="178" y="120.5352">Monitor</text><rect fill="#FEFECE" filter="url(#f1)" height="32" style="stroke: #A80036; stroke-width: 1.5;" width="69" x="259" y="100"/><ellipse cx="274" cy="116" fill="#ADD1B2" rx="11" ry="11" style="stroke: #A80036; stroke-width: 1.0;"/><path d="M276.9731,121.6431 Q276.3921,121.9419 275.7529,122.0913 Q275.1138,122.2407 274.4082,122.2407 Q271.9014,122.2407 270.5815,120.5889 Q269.2617,118.937 269.2617,115.8159 Q269.2617,112.6865 270.5815,111.0347 Q271.9014,109.3828 274.4082,109.3828 Q275.1138,109.3828 275.7612,109.5322 Q276.4087,109.6816 276.9731,109.9805 L276.9731,112.7031 Q276.3423,112.1221 275.7488,111.8523 Q275.1553,111.5825 274.5244,111.5825 Q273.1797,111.5825 272.4949,112.6492 Q271.8101,113.7158 271.8101,115.8159 Q271.8101,117.9077 272.4949,118.9744 Q273.1797,120.041 274.5244,120.041 Q275.1553,120.041 275.7488,119.7712 Q276.3423,119.5015 276.9731,118.9204 Z "/><text fill="#000000" font-family="sans-serif" font-size="12" lengthAdjust="spacingAndGlyphs" textLength="37" x="288" y="120.5352">Mouse</text><rect fill="#FEFECE" filter="url(#f1)" height="32" style="stroke: #A80036; stroke-width: 1.5;" width="112" x="130.5" y="8"/><ellipse cx="145.5" cy="24" fill="#A9DCDF" rx="11" ry="11" style="stroke: #A80036; stroke-width: 1.0;"/><path d="M145.6133,19.3481 L144.4595,24.4199 L146.7754,24.4199 Z M144.1191,17.1069 L147.1157,17.1069 L150.4609,29.5 L148.0122,29.5 L147.2485,26.437 L143.9697,26.437 L143.2227,29.5 L140.7739,29.5 Z "/><text fill="#000000" font-family="sans-serif" font-size="12" font-style="italic" lengthAdjust="spacingAndGlyphs" textLength="80" x="159.5" y="28.5352">ComputerPart</text><path d="M108.376,24 C111.367,24 114.358,24 117.348,24 " fill="none" style="stroke: #A80036; stroke-width: 1.0;"/><polygon fill="#A80036" points="130.461,24,121.461,20,125.461,24,121.461,28,130.461,24" style="stroke: #A80036; stroke-width: 1.0;"/><line style="stroke: #A80036; stroke-width: 1.0;" x1="125.461" x2="117.461" y1="24" y2="24"/><polygon fill="#A80036" points="95.125,24,101.125,28,107.125,24,101.125,20,95.125,24" style="stroke: #A80036; stroke-width: 1.0;"/><path d="M150.344,52.4304 C130.524,68.0156 106.676,86.7673 90.0389,99.8498 " fill="none" style="stroke: #A80036; stroke-width: 1.0;"/><polygon fill="none" points="146.072,46.885,166.12,40.0252,154.725,57.8902,146.072,46.885" style="stroke: #A80036; stroke-width: 1.0;"/><path d="M186.5,60.4048 C186.5,74.0788 186.5,88.9368 186.5,99.8498 " fill="none" style="stroke: #A80036; stroke-width: 1.0;"/><polygon fill="none" points="179.5,60.0252,186.5,40.0252,193.5,60.0251,179.5,60.0252" style="stroke: #A80036; stroke-width: 1.0;"/><path d="M220.388,53.1374 C238.348,68.5796 259.731,86.9646 274.717,99.8498 " fill="none" style="stroke: #A80036; stroke-width: 1.0;"/><polygon fill="none" points="215.739,58.3722,205.138,40.0252,224.867,47.7566,215.739,58.3722" style="stroke: #A80036; stroke-width: 1.0;"/></g></svg>