<?xml version="1.0" encoding="UTF-8" standalone="yes"?><svg xmlns="http://www.w3.org/2000/svg" xmlns:xlink="http://www.w3.org/1999/xlink" height="199px" style="width:371px;height:199px;" version="1.1" viewBox="0 0 371 199" width="371px"><defs><filter height="300%" id="f1" width="300%" x="-1" y="-1"><feGaussianBlur result="blurOut" stdDeviation="2.0"/><feColorMatrix in="blurOut" result="blurOut2" type="matrix" values="0 0 0 0 0 0 0 0 0 0 0 0 0 0 0 0 0 0 .4 0"/><feOffset dx="4.0" dy="4.0" in="blurOut2" result="blurOut3"/><feBlend in="SourceGraphic" in2="blurOut3" mode="normal"/></filter></defs><g><rect fill="#FEFECE" filter="url(#f1)" height="60.9551" style="stroke: #A80036; stroke-width: 1.5;" width="89" x="6" y="8"/><ellipse cx="21" cy="24" fill="#ADD1B2" rx="11" ry="11" style="stroke: #A80036; stroke-width: 1.0;"/><path d="M23.9731,29.6431 Q23.3921,29.9419 22.7529,30.0913 Q22.1138,30.2407 21.4082,30.2407 Q18.9014,30.2407 17.5815,28.5889 Q16.2617,26.937 16.2617,23.8159 Q16.2617,20.6865 17.5815,19.0347 Q18.9014,17.3828 21.4082,17.3828 Q22.1138,17.3828 22.7612,17.5322 Q23.4087,17.6816 23.9731,17.9805 L23.9731,20.7031 Q23.3423,20.1221 22.7488,19.8523 Q22.1553,19.5825 21.5244,19.5825 Q20.1797,19.5825 19.4949,20.6492 Q18.8101,21.7158 18.8101,23.8159 Q18.8101,25.9077 19.4949,26.9744 Q20.1797,28.041 21.5244,28.041 Q22.1553,28.041 22.7488,27.7712 Q23.3423,27.5015 23.9731,26.9204 Z "/><text fill="#000000" font-family="sans-serif" font-size="12" lengthAdjust="spacingAndGlyphs" textLength="57" x="35" y="28.5352">Computer</text><line style="stroke: #A80036; stroke-width: 1.5;" x1="7" x2="94" y1="40" y2="40"/><line style="stroke: #A80036; stroke-width: 1.5;" x1="7" x2="94" y1="48" y2="48"/><text fill="#000000" font-family="sans-serif" font-size="11" lengthAdjust="spacingAndGlyphs" textLength="43" x="12" y="62.6348">accept()</text><rect fill="#FEFECE" filter="url(#f1)" height="60.9551" style="stroke: #A80036; stroke-width: 1.5;" width="112" x="164.5" y="8"/><ellipse cx="179.5" cy="24" fill="#B4A7E5" rx="11" ry="11" style="stroke: #A80036; stroke-width: 1.0;"/><path d="M175.4277,19.7651 L175.4277,17.6069 L182.8071,17.6069 L182.8071,19.7651 L180.3418,19.7651 L180.3418,27.8418 L182.8071,27.8418 L182.8071,30 L175.4277,30 L175.4277,27.8418 L177.8931,27.8418 L177.8931,19.7651 Z "/><text fill="#000000" font-family="sans-serif" font-size="12" font-style="italic" lengthAdjust="spacingAndGlyphs" textLength="80" x="193.5" y="28.5352">ComputerPart</text><line style="stroke: #A80036; stroke-width: 1.5;" x1="165.5" x2="275.5" y1="40" y2="40"/><line style="stroke: #A80036; stroke-width: 1.5;" x1="165.5" x2="275.5" y1="48" y2="48"/><text fill="#000000" font-family="sans-serif" font-size="11" lengthAdjust="spacingAndGlyphs" textLength="43" x="170.5" y="62.6348">accept()</text><rect fill="#FEFECE" filter="url(#f1)" height="60.9551" style="stroke: #A80036; stroke-width: 1.5;" width="88" x="59.5" y="130"/><ellipse cx="74.5" cy="146" fill="#ADD1B2" rx="11" ry="11" style="stroke: #A80036; stroke-width: 1.0;"/><path d="M77.4731,151.6431 Q76.8921,151.9419 76.2529,152.0913 Q75.6138,152.2407 74.9082,152.2407 Q72.4014,152.2407 71.0815,150.5889 Q69.7617,148.937 69.7617,145.8159 Q69.7617,142.6865 71.0815,141.0347 Q72.4014,139.3828 74.9082,139.3828 Q75.6138,139.3828 76.2612,139.5322 Q76.9087,139.6816 77.4731,139.9805 L77.4731,142.7031 Q76.8423,142.1221 76.2488,141.8523 Q75.6553,141.5825 75.0244,141.5825 Q73.6797,141.5825 72.9949,142.6492 Q72.3101,143.7158 72.3101,145.8159 Q72.3101,147.9077 72.9949,148.9744 Q73.6797,150.041 75.0244,150.041 Q75.6553,150.041 76.2488,149.7712 Q76.8423,149.5015 77.4731,148.9204 Z "/><text fill="#000000" font-family="sans-serif" font-size="12" lengthAdjust="spacingAndGlyphs" textLength="56" x="88.5" y="150.5352">Keyboard</text><line style="stroke: #A80036; stroke-width: 1.5;" x1="60.5" x2="146.5" y1="162" y2="162"/><line style="stroke: #A80036; stroke-width: 1.5;" x1="60.5" x2="146.5" y1="170" y2="170"/><text fill="#000000" font-family="sans-serif" font-size="11" lengthAdjust="spacingAndGlyphs" textLength="43" x="65.5" y="184.6348">accept()</text><rect fill="#FEFECE" filter="url(#f1)" height="60.9551" style="stroke: #A80036; stroke-width: 1.5;" width="75" x="183" y="130"/><ellipse cx="198" cy="146" fill="#ADD1B2" rx="11" ry="11" style="stroke: #A80036; stroke-width: 1.0;"/><path d="M200.9731,151.6431 Q200.3921,151.9419 199.7529,152.0913 Q199.1138,152.2407 198.4082,152.2407 Q195.9014,152.2407 194.5815,150.5889 Q193.2617,148.937 193.2617,145.8159 Q193.2617,142.6865 194.5815,141.0347 Q195.9014,139.3828 198.4082,139.3828 Q199.1138,139.3828 199.7612,139.5322 Q200.4087,139.6816 200.9731,139.9805 L200.9731,142.7031 Q200.3423,142.1221 199.7488,141.8523 Q199.1553,141.5825 198.5244,141.5825 Q197.1797,141.5825 196.4949,142.6492 Q195.8101,143.7158 195.8101,145.8159 Q195.8101,147.9077 196.4949,148.9744 Q197.1797,150.041 198.5244,150.041 Q199.1553,150.041 199.7488,149.7712 Q200.3423,149.5015 200.9731,148.9204 Z "/><text fill="#000000" font-family="sans-serif" font-size="12" lengthAdjust="spacingAndGlyphs" textLength="43" x="212" y="150.5352">Monitor</text><line style="stroke: #A80036; stroke-width: 1.5;" x1="184" x2="257" y1="162" y2="162"/><line style="stroke: #A80036; stroke-width: 1.5;" x1="184" x2="257" y1="170" y2="170"/><text fill="#000000" font-family="sans-serif" font-size="11" lengthAdjust="spacingAndGlyphs" textLength="43" x="189" y="184.6348">accept()</text><rect fill="#FEFECE" filter="url(#f1)" height="60.9551" style="stroke: #A80036; stroke-width: 1.5;" width="69" x="293" y="130"/><ellipse cx="308" cy="146" fill="#ADD1B2" rx="11" ry="11" style="stroke: #A80036; stroke-width: 1.0;"/><path d="M310.9731,151.6431 Q310.3921,151.9419 309.7529,152.0913 Q309.1138,152.2407 308.4082,152.2407 Q305.9014,152.2407 304.5815,150.5889 Q303.2617,148.937 303.2617,145.8159 Q303.2617,142.6865 304.5815,141.0347 Q305.9014,139.3828 308.4082,139.3828 Q309.1138,139.3828 309.7612,139.5322 Q310.4087,139.6816 310.9731,139.9805 L310.9731,142.7031 Q310.3423,142.1221 309.7488,141.8523 Q309.1553,141.5825 308.5244,141.5825 Q307.1797,141.5825 306.4949,142.6492 Q305.8101,143.7158 305.8101,145.8159 Q305.8101,147.9077 306.4949,148.9744 Q307.1797,150.041 308.5244,150.041 Q309.1553,150.041 309.7488,149.7712 Q310.3423,149.5015 310.9731,148.9204 Z "/><text fill="#000000" font-family="sans-serif" font-size="12" lengthAdjust="spacingAndGlyphs" textLength="37" x="322" y="150.5352">Mouse</text><line style="stroke: #A80036; stroke-width: 1.5;" x1="294" x2="361" y1="162" y2="162"/><line style="stroke: #A80036; stroke-width: 1.5;" x1="294" x2="361" y1="170" y2="170"/><text fill="#000000" font-family="sans-serif" font-size="11" lengthAdjust="spacingAndGlyphs" textLength="43" x="299" y="184.6348">accept()</text><path d="M108.264,38.5 C121.971,38.5 136.734,38.5 150.905,38.5 " fill="none" style="stroke: #A80036; stroke-width: 1.0;"/><polygon fill="#A80036" points="164.258,38.5,155.258,34.5,159.258,38.5,155.258,42.5,164.258,38.5" style="stroke: #A80036; stroke-width: 1.0;"/><line style="stroke: #A80036; stroke-width: 1.0;" x1="159.258" x2="151.258" y1="38.5" y2="38.5"/><polygon fill="#A80036" points="95.1655,38.5,101.1655,42.5,107.1655,38.5,101.1655,34.5,95.1655,38.5" style="stroke: #A80036; stroke-width: 1.0;"/><text fill="#000000" font-family="sans-serif" font-size="13" lengthAdjust="spacingAndGlyphs" textLength="0" x="139.75" y="32.0684"/><path d="M144.243,41.6 C135.45,41.701 126.613,41.687 118.167,41.5 C110.76,41.336 102.901,41.071 95.2606,40.765 " fill="none" style="stroke: #A80036; stroke-width: 1.0; stroke-dasharray: 7.0,7.0;"/><polygon fill="none" points="144.331,34.597,164.471,41.183,144.619,48.594,144.331,34.597" style="stroke: #A80036; stroke-width: 1.0;"/><path d="M176.931,83.931 C162.292,99.1959 146.316,115.8547 133.015,129.7241 " fill="none" style="stroke: #A80036; stroke-width: 1.0; stroke-dasharray: 7.0,7.0;"/><polygon fill="none" points="172.08,78.875,190.976,69.286,182.185,88.566,172.08,78.875" style="stroke: #A80036; stroke-width: 1.0;"/><path d="M220.5,89.713 C220.5,103.317 220.5,117.5884 220.5,129.7241 " fill="none" style="stroke: #A80036; stroke-width: 1.0; stroke-dasharray: 7.0,7.0;"/><polygon fill="none" points="213.5,89.286,220.5,69.286,227.5,89.286,213.5,89.286" style="stroke: #A80036; stroke-width: 1.0;"/><path d="M260.764,84.408 C274.037,99.5426 288.471,115.9992 300.508,129.7241 " fill="none" style="stroke: #A80036; stroke-width: 1.0; stroke-dasharray: 7.0,7.0;"/><polygon fill="none" points="255.425,88.938,247.501,69.286,265.951,79.706,255.425,88.938" style="stroke: #A80036; stroke-width: 1.0;"/></g></svg>